%TF.GenerationSoftware,KiCad,Pcbnew,9.0.8+dfsg-1*%
%TF.CreationDate,2026-07-03T16:45:24-07:00*%
%TF.ProjectId,arduino-hat,61726475-696e-46f2-9d68-61742e6b6963,rev?*%
%TF.SameCoordinates,Original*%
%TF.FileFunction,Soldermask,Top*%
%TF.FilePolarity,Negative*%
%FSLAX46Y46*%
G04 Gerber Fmt 4.6, Leading zero omitted, Abs format (unit mm)*
G04 Created by KiCad (PCBNEW 9.0.8+dfsg-1) date 2026-07-03 16:45:24*
%MOMM*%
%LPD*%
G01*
G04 APERTURE LIST*
G04 APERTURE END LIST*
G36*
X190222703Y-116242473D02*
G01*
X190436233Y-116299688D01*
X190640468Y-116384285D01*
X190831914Y-116494816D01*
X191007294Y-116629391D01*
X191163609Y-116785706D01*
X191298184Y-116961086D01*
X191408715Y-117152532D01*
X191493312Y-117356767D01*
X191550527Y-117570297D01*
X191579382Y-117789469D01*
X191579382Y-118010531D01*
X191550527Y-118229703D01*
X191493312Y-118443233D01*
X191408715Y-118647468D01*
X191298184Y-118838914D01*
X191163609Y-119014294D01*
X191007294Y-119170609D01*
X190831914Y-119305184D01*
X190640468Y-119415715D01*
X190436233Y-119500312D01*
X190222703Y-119557527D01*
X190003531Y-119586382D01*
X189782469Y-119586382D01*
X189563297Y-119557527D01*
X189349767Y-119500312D01*
X189145532Y-119415715D01*
X188954086Y-119305184D01*
X188778706Y-119170609D01*
X188622391Y-119014294D01*
X188487816Y-118838914D01*
X188377285Y-118647468D01*
X188292688Y-118443233D01*
X188235473Y-118229703D01*
X188206618Y-118010531D01*
X188206618Y-117789469D01*
X188235473Y-117570297D01*
X188292688Y-117356767D01*
X188377285Y-117152532D01*
X188487816Y-116961086D01*
X188622391Y-116785706D01*
X188778706Y-116629391D01*
X188954086Y-116494816D01*
X189145532Y-116384285D01*
X189349767Y-116299688D01*
X189563297Y-116242473D01*
X189782469Y-116213618D01*
X190003531Y-116213618D01*
X190222703Y-116242473D01*
G37*
G36*
X134911042Y-116953251D02*
G01*
X134940240Y-116972760D01*
X134959749Y-117001958D01*
X134966600Y-117036400D01*
X134966600Y-118763600D01*
X134959749Y-118798042D01*
X134940240Y-118827240D01*
X134911042Y-118846749D01*
X134876600Y-118853600D01*
X133149400Y-118853600D01*
X133114958Y-118846749D01*
X133085760Y-118827240D01*
X133066251Y-118798042D01*
X133059400Y-118763600D01*
X133059400Y-117036400D01*
X133066251Y-117001958D01*
X133085760Y-116972760D01*
X133114958Y-116953251D01*
X133149400Y-116946400D01*
X134876600Y-116946400D01*
X134911042Y-116953251D01*
G37*
G36*
X137451042Y-116953251D02*
G01*
X137480240Y-116972760D01*
X137499749Y-117001958D01*
X137506600Y-117036400D01*
X137506600Y-118763600D01*
X137499749Y-118798042D01*
X137480240Y-118827240D01*
X137451042Y-118846749D01*
X137416600Y-118853600D01*
X135689400Y-118853600D01*
X135654958Y-118846749D01*
X135625760Y-118827240D01*
X135606251Y-118798042D01*
X135599400Y-118763600D01*
X135599400Y-117036400D01*
X135606251Y-117001958D01*
X135625760Y-116972760D01*
X135654958Y-116953251D01*
X135689400Y-116946400D01*
X137416600Y-116946400D01*
X137451042Y-116953251D01*
G37*
G36*
X121589815Y-116987462D02*
G01*
X121762524Y-117059000D01*
X121917957Y-117162857D01*
X122050143Y-117295043D01*
X122154000Y-117450476D01*
X122225538Y-117623185D01*
X122262008Y-117806531D01*
X122262008Y-117993469D01*
X122225538Y-118176815D01*
X122154000Y-118349524D01*
X122050143Y-118504957D01*
X121917957Y-118637143D01*
X121762524Y-118741000D01*
X121589815Y-118812538D01*
X121406469Y-118849008D01*
X121219531Y-118849008D01*
X121036185Y-118812538D01*
X120863476Y-118741000D01*
X120708043Y-118637143D01*
X120575857Y-118504957D01*
X120472000Y-118349524D01*
X120400462Y-118176815D01*
X120363992Y-117993469D01*
X120363992Y-117806531D01*
X120400462Y-117623185D01*
X120472000Y-117450476D01*
X120575857Y-117295043D01*
X120708043Y-117162857D01*
X120863476Y-117059000D01*
X121036185Y-116987462D01*
X121219531Y-116950992D01*
X121406469Y-116950992D01*
X121589815Y-116987462D01*
G37*
G36*
X124129815Y-116987462D02*
G01*
X124302524Y-117059000D01*
X124457957Y-117162857D01*
X124590143Y-117295043D01*
X124694000Y-117450476D01*
X124765538Y-117623185D01*
X124802008Y-117806531D01*
X124802008Y-117993469D01*
X124765538Y-118176815D01*
X124694000Y-118349524D01*
X124590143Y-118504957D01*
X124457957Y-118637143D01*
X124302524Y-118741000D01*
X124129815Y-118812538D01*
X123946469Y-118849008D01*
X123759531Y-118849008D01*
X123576185Y-118812538D01*
X123403476Y-118741000D01*
X123248043Y-118637143D01*
X123115857Y-118504957D01*
X123012000Y-118349524D01*
X122940462Y-118176815D01*
X122903992Y-117993469D01*
X122903992Y-117806531D01*
X122940462Y-117623185D01*
X123012000Y-117450476D01*
X123115857Y-117295043D01*
X123248043Y-117162857D01*
X123403476Y-117059000D01*
X123576185Y-116987462D01*
X123759531Y-116950992D01*
X123946469Y-116950992D01*
X124129815Y-116987462D01*
G37*
G36*
X126669815Y-116987462D02*
G01*
X126842524Y-117059000D01*
X126997957Y-117162857D01*
X127130143Y-117295043D01*
X127234000Y-117450476D01*
X127305538Y-117623185D01*
X127342008Y-117806531D01*
X127342008Y-117993469D01*
X127305538Y-118176815D01*
X127234000Y-118349524D01*
X127130143Y-118504957D01*
X126997957Y-118637143D01*
X126842524Y-118741000D01*
X126669815Y-118812538D01*
X126486469Y-118849008D01*
X126299531Y-118849008D01*
X126116185Y-118812538D01*
X125943476Y-118741000D01*
X125788043Y-118637143D01*
X125655857Y-118504957D01*
X125552000Y-118349524D01*
X125480462Y-118176815D01*
X125443992Y-117993469D01*
X125443992Y-117806531D01*
X125480462Y-117623185D01*
X125552000Y-117450476D01*
X125655857Y-117295043D01*
X125788043Y-117162857D01*
X125943476Y-117059000D01*
X126116185Y-116987462D01*
X126299531Y-116950992D01*
X126486469Y-116950992D01*
X126669815Y-116987462D01*
G37*
G36*
X129209815Y-116987462D02*
G01*
X129382524Y-117059000D01*
X129537957Y-117162857D01*
X129670143Y-117295043D01*
X129774000Y-117450476D01*
X129845538Y-117623185D01*
X129882008Y-117806531D01*
X129882008Y-117993469D01*
X129845538Y-118176815D01*
X129774000Y-118349524D01*
X129670143Y-118504957D01*
X129537957Y-118637143D01*
X129382524Y-118741000D01*
X129209815Y-118812538D01*
X129026469Y-118849008D01*
X128839531Y-118849008D01*
X128656185Y-118812538D01*
X128483476Y-118741000D01*
X128328043Y-118637143D01*
X128195857Y-118504957D01*
X128092000Y-118349524D01*
X128020462Y-118176815D01*
X127983992Y-117993469D01*
X127983992Y-117806531D01*
X128020462Y-117623185D01*
X128092000Y-117450476D01*
X128195857Y-117295043D01*
X128328043Y-117162857D01*
X128483476Y-117059000D01*
X128656185Y-116987462D01*
X128839531Y-116950992D01*
X129026469Y-116950992D01*
X129209815Y-116987462D01*
G37*
G36*
X131749815Y-116987462D02*
G01*
X131922524Y-117059000D01*
X132077957Y-117162857D01*
X132210143Y-117295043D01*
X132314000Y-117450476D01*
X132385538Y-117623185D01*
X132422008Y-117806531D01*
X132422008Y-117993469D01*
X132385538Y-118176815D01*
X132314000Y-118349524D01*
X132210143Y-118504957D01*
X132077957Y-118637143D01*
X131922524Y-118741000D01*
X131749815Y-118812538D01*
X131566469Y-118849008D01*
X131379531Y-118849008D01*
X131196185Y-118812538D01*
X131023476Y-118741000D01*
X130868043Y-118637143D01*
X130735857Y-118504957D01*
X130632000Y-118349524D01*
X130560462Y-118176815D01*
X130523992Y-117993469D01*
X130523992Y-117806531D01*
X130560462Y-117623185D01*
X130632000Y-117450476D01*
X130735857Y-117295043D01*
X130868043Y-117162857D01*
X131023476Y-117059000D01*
X131196185Y-116987462D01*
X131379531Y-116950992D01*
X131566469Y-116950992D01*
X131749815Y-116987462D01*
G37*
G36*
X139369815Y-116987462D02*
G01*
X139542524Y-117059000D01*
X139697957Y-117162857D01*
X139830143Y-117295043D01*
X139934000Y-117450476D01*
X140005538Y-117623185D01*
X140042008Y-117806531D01*
X140042008Y-117993469D01*
X140005538Y-118176815D01*
X139934000Y-118349524D01*
X139830143Y-118504957D01*
X139697957Y-118637143D01*
X139542524Y-118741000D01*
X139369815Y-118812538D01*
X139186469Y-118849008D01*
X138999531Y-118849008D01*
X138816185Y-118812538D01*
X138643476Y-118741000D01*
X138488043Y-118637143D01*
X138355857Y-118504957D01*
X138252000Y-118349524D01*
X138180462Y-118176815D01*
X138143992Y-117993469D01*
X138143992Y-117806531D01*
X138180462Y-117623185D01*
X138252000Y-117450476D01*
X138355857Y-117295043D01*
X138488043Y-117162857D01*
X138643476Y-117059000D01*
X138816185Y-116987462D01*
X138999531Y-116950992D01*
X139186469Y-116950992D01*
X139369815Y-116987462D01*
G37*
G36*
X144449815Y-116987462D02*
G01*
X144622524Y-117059000D01*
X144777957Y-117162857D01*
X144910143Y-117295043D01*
X145014000Y-117450476D01*
X145085538Y-117623185D01*
X145122008Y-117806531D01*
X145122008Y-117993469D01*
X145085538Y-118176815D01*
X145014000Y-118349524D01*
X144910143Y-118504957D01*
X144777957Y-118637143D01*
X144622524Y-118741000D01*
X144449815Y-118812538D01*
X144266469Y-118849008D01*
X144079531Y-118849008D01*
X143896185Y-118812538D01*
X143723476Y-118741000D01*
X143568043Y-118637143D01*
X143435857Y-118504957D01*
X143332000Y-118349524D01*
X143260462Y-118176815D01*
X143223992Y-117993469D01*
X143223992Y-117806531D01*
X143260462Y-117623185D01*
X143332000Y-117450476D01*
X143435857Y-117295043D01*
X143568043Y-117162857D01*
X143723476Y-117059000D01*
X143896185Y-116987462D01*
X144079531Y-116950992D01*
X144266469Y-116950992D01*
X144449815Y-116987462D01*
G37*
G36*
X146989815Y-116987462D02*
G01*
X147162524Y-117059000D01*
X147317957Y-117162857D01*
X147450143Y-117295043D01*
X147554000Y-117450476D01*
X147625538Y-117623185D01*
X147662008Y-117806531D01*
X147662008Y-117993469D01*
X147625538Y-118176815D01*
X147554000Y-118349524D01*
X147450143Y-118504957D01*
X147317957Y-118637143D01*
X147162524Y-118741000D01*
X146989815Y-118812538D01*
X146806469Y-118849008D01*
X146619531Y-118849008D01*
X146436185Y-118812538D01*
X146263476Y-118741000D01*
X146108043Y-118637143D01*
X145975857Y-118504957D01*
X145872000Y-118349524D01*
X145800462Y-118176815D01*
X145763992Y-117993469D01*
X145763992Y-117806531D01*
X145800462Y-117623185D01*
X145872000Y-117450476D01*
X145975857Y-117295043D01*
X146108043Y-117162857D01*
X146263476Y-117059000D01*
X146436185Y-116987462D01*
X146619531Y-116950992D01*
X146806469Y-116950992D01*
X146989815Y-116987462D01*
G37*
G36*
X149529815Y-116987462D02*
G01*
X149702524Y-117059000D01*
X149857957Y-117162857D01*
X149990143Y-117295043D01*
X150094000Y-117450476D01*
X150165538Y-117623185D01*
X150202008Y-117806531D01*
X150202008Y-117993469D01*
X150165538Y-118176815D01*
X150094000Y-118349524D01*
X149990143Y-118504957D01*
X149857957Y-118637143D01*
X149702524Y-118741000D01*
X149529815Y-118812538D01*
X149346469Y-118849008D01*
X149159531Y-118849008D01*
X148976185Y-118812538D01*
X148803476Y-118741000D01*
X148648043Y-118637143D01*
X148515857Y-118504957D01*
X148412000Y-118349524D01*
X148340462Y-118176815D01*
X148303992Y-117993469D01*
X148303992Y-117806531D01*
X148340462Y-117623185D01*
X148412000Y-117450476D01*
X148515857Y-117295043D01*
X148648043Y-117162857D01*
X148803476Y-117059000D01*
X148976185Y-116987462D01*
X149159531Y-116950992D01*
X149346469Y-116950992D01*
X149529815Y-116987462D01*
G37*
G36*
X152069815Y-116987462D02*
G01*
X152242524Y-117059000D01*
X152397957Y-117162857D01*
X152530143Y-117295043D01*
X152634000Y-117450476D01*
X152705538Y-117623185D01*
X152742008Y-117806531D01*
X152742008Y-117993469D01*
X152705538Y-118176815D01*
X152634000Y-118349524D01*
X152530143Y-118504957D01*
X152397957Y-118637143D01*
X152242524Y-118741000D01*
X152069815Y-118812538D01*
X151886469Y-118849008D01*
X151699531Y-118849008D01*
X151516185Y-118812538D01*
X151343476Y-118741000D01*
X151188043Y-118637143D01*
X151055857Y-118504957D01*
X150952000Y-118349524D01*
X150880462Y-118176815D01*
X150843992Y-117993469D01*
X150843992Y-117806531D01*
X150880462Y-117623185D01*
X150952000Y-117450476D01*
X151055857Y-117295043D01*
X151188043Y-117162857D01*
X151343476Y-117059000D01*
X151516185Y-116987462D01*
X151699531Y-116950992D01*
X151886469Y-116950992D01*
X152069815Y-116987462D01*
G37*
G36*
X154609815Y-116987462D02*
G01*
X154782524Y-117059000D01*
X154937957Y-117162857D01*
X155070143Y-117295043D01*
X155174000Y-117450476D01*
X155245538Y-117623185D01*
X155282008Y-117806531D01*
X155282008Y-117993469D01*
X155245538Y-118176815D01*
X155174000Y-118349524D01*
X155070143Y-118504957D01*
X154937957Y-118637143D01*
X154782524Y-118741000D01*
X154609815Y-118812538D01*
X154426469Y-118849008D01*
X154239531Y-118849008D01*
X154056185Y-118812538D01*
X153883476Y-118741000D01*
X153728043Y-118637143D01*
X153595857Y-118504957D01*
X153492000Y-118349524D01*
X153420462Y-118176815D01*
X153383992Y-117993469D01*
X153383992Y-117806531D01*
X153420462Y-117623185D01*
X153492000Y-117450476D01*
X153595857Y-117295043D01*
X153728043Y-117162857D01*
X153883476Y-117059000D01*
X154056185Y-116987462D01*
X154239531Y-116950992D01*
X154426469Y-116950992D01*
X154609815Y-116987462D01*
G37*
G36*
X157149815Y-116987462D02*
G01*
X157322524Y-117059000D01*
X157477957Y-117162857D01*
X157610143Y-117295043D01*
X157714000Y-117450476D01*
X157785538Y-117623185D01*
X157822008Y-117806531D01*
X157822008Y-117993469D01*
X157785538Y-118176815D01*
X157714000Y-118349524D01*
X157610143Y-118504957D01*
X157477957Y-118637143D01*
X157322524Y-118741000D01*
X157149815Y-118812538D01*
X156966469Y-118849008D01*
X156779531Y-118849008D01*
X156596185Y-118812538D01*
X156423476Y-118741000D01*
X156268043Y-118637143D01*
X156135857Y-118504957D01*
X156032000Y-118349524D01*
X155960462Y-118176815D01*
X155923992Y-117993469D01*
X155923992Y-117806531D01*
X155960462Y-117623185D01*
X156032000Y-117450476D01*
X156135857Y-117295043D01*
X156268043Y-117162857D01*
X156423476Y-117059000D01*
X156596185Y-116987462D01*
X156779531Y-116950992D01*
X156966469Y-116950992D01*
X157149815Y-116987462D01*
G37*
G36*
X159689815Y-116987462D02*
G01*
X159862524Y-117059000D01*
X160017957Y-117162857D01*
X160150143Y-117295043D01*
X160254000Y-117450476D01*
X160325538Y-117623185D01*
X160362008Y-117806531D01*
X160362008Y-117993469D01*
X160325538Y-118176815D01*
X160254000Y-118349524D01*
X160150143Y-118504957D01*
X160017957Y-118637143D01*
X159862524Y-118741000D01*
X159689815Y-118812538D01*
X159506469Y-118849008D01*
X159319531Y-118849008D01*
X159136185Y-118812538D01*
X158963476Y-118741000D01*
X158808043Y-118637143D01*
X158675857Y-118504957D01*
X158572000Y-118349524D01*
X158500462Y-118176815D01*
X158463992Y-117993469D01*
X158463992Y-117806531D01*
X158500462Y-117623185D01*
X158572000Y-117450476D01*
X158675857Y-117295043D01*
X158808043Y-117162857D01*
X158963476Y-117059000D01*
X159136185Y-116987462D01*
X159319531Y-116950992D01*
X159506469Y-116950992D01*
X159689815Y-116987462D01*
G37*
G36*
X162229815Y-116987462D02*
G01*
X162402524Y-117059000D01*
X162557957Y-117162857D01*
X162690143Y-117295043D01*
X162794000Y-117450476D01*
X162865538Y-117623185D01*
X162902008Y-117806531D01*
X162902008Y-117993469D01*
X162865538Y-118176815D01*
X162794000Y-118349524D01*
X162690143Y-118504957D01*
X162557957Y-118637143D01*
X162402524Y-118741000D01*
X162229815Y-118812538D01*
X162046469Y-118849008D01*
X161859531Y-118849008D01*
X161676185Y-118812538D01*
X161503476Y-118741000D01*
X161348043Y-118637143D01*
X161215857Y-118504957D01*
X161112000Y-118349524D01*
X161040462Y-118176815D01*
X161003992Y-117993469D01*
X161003992Y-117806531D01*
X161040462Y-117623185D01*
X161112000Y-117450476D01*
X161215857Y-117295043D01*
X161348043Y-117162857D01*
X161503476Y-117059000D01*
X161676185Y-116987462D01*
X161859531Y-116950992D01*
X162046469Y-116950992D01*
X162229815Y-116987462D01*
G37*
G36*
X167309815Y-116987462D02*
G01*
X167482524Y-117059000D01*
X167637957Y-117162857D01*
X167770143Y-117295043D01*
X167874000Y-117450476D01*
X167945538Y-117623185D01*
X167982008Y-117806531D01*
X167982008Y-117993469D01*
X167945538Y-118176815D01*
X167874000Y-118349524D01*
X167770143Y-118504957D01*
X167637957Y-118637143D01*
X167482524Y-118741000D01*
X167309815Y-118812538D01*
X167126469Y-118849008D01*
X166939531Y-118849008D01*
X166756185Y-118812538D01*
X166583476Y-118741000D01*
X166428043Y-118637143D01*
X166295857Y-118504957D01*
X166192000Y-118349524D01*
X166120462Y-118176815D01*
X166083992Y-117993469D01*
X166083992Y-117806531D01*
X166120462Y-117623185D01*
X166192000Y-117450476D01*
X166295857Y-117295043D01*
X166428043Y-117162857D01*
X166583476Y-117059000D01*
X166756185Y-116987462D01*
X166939531Y-116950992D01*
X167126469Y-116950992D01*
X167309815Y-116987462D01*
G37*
G36*
X169849815Y-116987462D02*
G01*
X170022524Y-117059000D01*
X170177957Y-117162857D01*
X170310143Y-117295043D01*
X170414000Y-117450476D01*
X170485538Y-117623185D01*
X170522008Y-117806531D01*
X170522008Y-117993469D01*
X170485538Y-118176815D01*
X170414000Y-118349524D01*
X170310143Y-118504957D01*
X170177957Y-118637143D01*
X170022524Y-118741000D01*
X169849815Y-118812538D01*
X169666469Y-118849008D01*
X169479531Y-118849008D01*
X169296185Y-118812538D01*
X169123476Y-118741000D01*
X168968043Y-118637143D01*
X168835857Y-118504957D01*
X168732000Y-118349524D01*
X168660462Y-118176815D01*
X168623992Y-117993469D01*
X168623992Y-117806531D01*
X168660462Y-117623185D01*
X168732000Y-117450476D01*
X168835857Y-117295043D01*
X168968043Y-117162857D01*
X169123476Y-117059000D01*
X169296185Y-116987462D01*
X169479531Y-116950992D01*
X169666469Y-116950992D01*
X169849815Y-116987462D01*
G37*
G36*
X172389815Y-116987462D02*
G01*
X172562524Y-117059000D01*
X172717957Y-117162857D01*
X172850143Y-117295043D01*
X172954000Y-117450476D01*
X173025538Y-117623185D01*
X173062008Y-117806531D01*
X173062008Y-117993469D01*
X173025538Y-118176815D01*
X172954000Y-118349524D01*
X172850143Y-118504957D01*
X172717957Y-118637143D01*
X172562524Y-118741000D01*
X172389815Y-118812538D01*
X172206469Y-118849008D01*
X172019531Y-118849008D01*
X171836185Y-118812538D01*
X171663476Y-118741000D01*
X171508043Y-118637143D01*
X171375857Y-118504957D01*
X171272000Y-118349524D01*
X171200462Y-118176815D01*
X171163992Y-117993469D01*
X171163992Y-117806531D01*
X171200462Y-117623185D01*
X171272000Y-117450476D01*
X171375857Y-117295043D01*
X171508043Y-117162857D01*
X171663476Y-117059000D01*
X171836185Y-116987462D01*
X172019531Y-116950992D01*
X172206469Y-116950992D01*
X172389815Y-116987462D01*
G37*
G36*
X174929815Y-116987462D02*
G01*
X175102524Y-117059000D01*
X175257957Y-117162857D01*
X175390143Y-117295043D01*
X175494000Y-117450476D01*
X175565538Y-117623185D01*
X175602008Y-117806531D01*
X175602008Y-117993469D01*
X175565538Y-118176815D01*
X175494000Y-118349524D01*
X175390143Y-118504957D01*
X175257957Y-118637143D01*
X175102524Y-118741000D01*
X174929815Y-118812538D01*
X174746469Y-118849008D01*
X174559531Y-118849008D01*
X174376185Y-118812538D01*
X174203476Y-118741000D01*
X174048043Y-118637143D01*
X173915857Y-118504957D01*
X173812000Y-118349524D01*
X173740462Y-118176815D01*
X173703992Y-117993469D01*
X173703992Y-117806531D01*
X173740462Y-117623185D01*
X173812000Y-117450476D01*
X173915857Y-117295043D01*
X174048043Y-117162857D01*
X174203476Y-117059000D01*
X174376185Y-116987462D01*
X174559531Y-116950992D01*
X174746469Y-116950992D01*
X174929815Y-116987462D01*
G37*
G36*
X177469815Y-116987462D02*
G01*
X177642524Y-117059000D01*
X177797957Y-117162857D01*
X177930143Y-117295043D01*
X178034000Y-117450476D01*
X178105538Y-117623185D01*
X178142008Y-117806531D01*
X178142008Y-117993469D01*
X178105538Y-118176815D01*
X178034000Y-118349524D01*
X177930143Y-118504957D01*
X177797957Y-118637143D01*
X177642524Y-118741000D01*
X177469815Y-118812538D01*
X177286469Y-118849008D01*
X177099531Y-118849008D01*
X176916185Y-118812538D01*
X176743476Y-118741000D01*
X176588043Y-118637143D01*
X176455857Y-118504957D01*
X176352000Y-118349524D01*
X176280462Y-118176815D01*
X176243992Y-117993469D01*
X176243992Y-117806531D01*
X176280462Y-117623185D01*
X176352000Y-117450476D01*
X176455857Y-117295043D01*
X176588043Y-117162857D01*
X176743476Y-117059000D01*
X176916185Y-116987462D01*
X177099531Y-116950992D01*
X177286469Y-116950992D01*
X177469815Y-116987462D01*
G37*
G36*
X180009815Y-116987462D02*
G01*
X180182524Y-117059000D01*
X180337957Y-117162857D01*
X180470143Y-117295043D01*
X180574000Y-117450476D01*
X180645538Y-117623185D01*
X180682008Y-117806531D01*
X180682008Y-117993469D01*
X180645538Y-118176815D01*
X180574000Y-118349524D01*
X180470143Y-118504957D01*
X180337957Y-118637143D01*
X180182524Y-118741000D01*
X180009815Y-118812538D01*
X179826469Y-118849008D01*
X179639531Y-118849008D01*
X179456185Y-118812538D01*
X179283476Y-118741000D01*
X179128043Y-118637143D01*
X178995857Y-118504957D01*
X178892000Y-118349524D01*
X178820462Y-118176815D01*
X178783992Y-117993469D01*
X178783992Y-117806531D01*
X178820462Y-117623185D01*
X178892000Y-117450476D01*
X178995857Y-117295043D01*
X179128043Y-117162857D01*
X179283476Y-117059000D01*
X179456185Y-116987462D01*
X179639531Y-116950992D01*
X179826469Y-116950992D01*
X180009815Y-116987462D01*
G37*
G36*
X182549815Y-116987462D02*
G01*
X182722524Y-117059000D01*
X182877957Y-117162857D01*
X183010143Y-117295043D01*
X183114000Y-117450476D01*
X183185538Y-117623185D01*
X183222008Y-117806531D01*
X183222008Y-117993469D01*
X183185538Y-118176815D01*
X183114000Y-118349524D01*
X183010143Y-118504957D01*
X182877957Y-118637143D01*
X182722524Y-118741000D01*
X182549815Y-118812538D01*
X182366469Y-118849008D01*
X182179531Y-118849008D01*
X181996185Y-118812538D01*
X181823476Y-118741000D01*
X181668043Y-118637143D01*
X181535857Y-118504957D01*
X181432000Y-118349524D01*
X181360462Y-118176815D01*
X181323992Y-117993469D01*
X181323992Y-117806531D01*
X181360462Y-117623185D01*
X181432000Y-117450476D01*
X181535857Y-117295043D01*
X181668043Y-117162857D01*
X181823476Y-117059000D01*
X181996185Y-116987462D01*
X182179531Y-116950992D01*
X182366469Y-116950992D01*
X182549815Y-116987462D01*
G37*
G36*
X185089815Y-116987462D02*
G01*
X185262524Y-117059000D01*
X185417957Y-117162857D01*
X185550143Y-117295043D01*
X185654000Y-117450476D01*
X185725538Y-117623185D01*
X185762008Y-117806531D01*
X185762008Y-117993469D01*
X185725538Y-118176815D01*
X185654000Y-118349524D01*
X185550143Y-118504957D01*
X185417957Y-118637143D01*
X185262524Y-118741000D01*
X185089815Y-118812538D01*
X184906469Y-118849008D01*
X184719531Y-118849008D01*
X184536185Y-118812538D01*
X184363476Y-118741000D01*
X184208043Y-118637143D01*
X184075857Y-118504957D01*
X183972000Y-118349524D01*
X183900462Y-118176815D01*
X183863992Y-117993469D01*
X183863992Y-117806531D01*
X183900462Y-117623185D01*
X183972000Y-117450476D01*
X184075857Y-117295043D01*
X184208043Y-117162857D01*
X184363476Y-117059000D01*
X184536185Y-116987462D01*
X184719531Y-116950992D01*
X184906469Y-116950992D01*
X185089815Y-116987462D01*
G37*
G36*
X159742703Y-111162473D02*
G01*
X159956233Y-111219688D01*
X160160468Y-111304285D01*
X160351914Y-111414816D01*
X160527294Y-111549391D01*
X160683609Y-111705706D01*
X160818184Y-111881086D01*
X160928715Y-112072532D01*
X161013312Y-112276767D01*
X161070527Y-112490297D01*
X161099382Y-112709469D01*
X161099382Y-112930531D01*
X161070527Y-113149703D01*
X161013312Y-113363233D01*
X160928715Y-113567468D01*
X160818184Y-113758914D01*
X160683609Y-113934294D01*
X160527294Y-114090609D01*
X160351914Y-114225184D01*
X160160468Y-114335715D01*
X159956233Y-114420312D01*
X159742703Y-114477527D01*
X159523531Y-114506382D01*
X159302469Y-114506382D01*
X159083297Y-114477527D01*
X158869767Y-114420312D01*
X158665532Y-114335715D01*
X158474086Y-114225184D01*
X158298706Y-114090609D01*
X158142391Y-113934294D01*
X158007816Y-113758914D01*
X157897285Y-113567468D01*
X157812688Y-113363233D01*
X157755473Y-113149703D01*
X157726618Y-112930531D01*
X157726618Y-112709469D01*
X157755473Y-112490297D01*
X157812688Y-112276767D01*
X157897285Y-112072532D01*
X158007816Y-111881086D01*
X158142391Y-111705706D01*
X158298706Y-111549391D01*
X158474086Y-111414816D01*
X158665532Y-111304285D01*
X158869767Y-111219688D01*
X159083297Y-111162473D01*
X159302469Y-111133618D01*
X159523531Y-111133618D01*
X159742703Y-111162473D01*
G37*
G36*
X188251042Y-111873251D02*
G01*
X188280240Y-111892760D01*
X188299749Y-111921958D01*
X188306600Y-111956400D01*
X188306600Y-113683600D01*
X188299749Y-113718042D01*
X188280240Y-113747240D01*
X188251042Y-113766749D01*
X188216600Y-113773600D01*
X186489400Y-113773600D01*
X186454958Y-113766749D01*
X186425760Y-113747240D01*
X186406251Y-113718042D01*
X186399400Y-113683600D01*
X186399400Y-111956400D01*
X186406251Y-111921958D01*
X186425760Y-111892760D01*
X186454958Y-111873251D01*
X186489400Y-111866400D01*
X188216600Y-111866400D01*
X188251042Y-111873251D01*
G37*
G36*
X190791042Y-111873251D02*
G01*
X190820240Y-111892760D01*
X190839749Y-111921958D01*
X190846600Y-111956400D01*
X190846600Y-113683600D01*
X190839749Y-113718042D01*
X190820240Y-113747240D01*
X190791042Y-113766749D01*
X190756600Y-113773600D01*
X189029400Y-113773600D01*
X188994958Y-113766749D01*
X188965760Y-113747240D01*
X188946251Y-113718042D01*
X188939400Y-113683600D01*
X188939400Y-111956400D01*
X188946251Y-111921958D01*
X188965760Y-111892760D01*
X188994958Y-111873251D01*
X189029400Y-111866400D01*
X190756600Y-111866400D01*
X190791042Y-111873251D01*
G37*
G36*
X122062998Y-110434085D02*
G01*
X122073267Y-110438873D01*
X122079817Y-110439911D01*
X122126469Y-110463682D01*
X122170016Y-110483988D01*
X122173854Y-110487826D01*
X122174370Y-110488089D01*
X122249410Y-110563129D01*
X122249672Y-110563644D01*
X122253512Y-110567484D01*
X122273823Y-110611041D01*
X122297588Y-110657682D01*
X122298625Y-110664229D01*
X122303415Y-110674502D01*
X122315000Y-110762500D01*
X122315000Y-111437500D01*
X122303415Y-111525498D01*
X122298624Y-111535770D01*
X122297588Y-111542317D01*
X122273828Y-111588946D01*
X122253512Y-111632516D01*
X122249671Y-111636356D01*
X122249410Y-111636870D01*
X122174370Y-111711910D01*
X122173856Y-111712171D01*
X122170016Y-111716012D01*
X122126446Y-111736328D01*
X122079817Y-111760088D01*
X122073270Y-111761124D01*
X122062998Y-111765915D01*
X121975000Y-111777500D01*
X121025000Y-111777500D01*
X120937002Y-111765915D01*
X120926729Y-111761125D01*
X120920182Y-111760088D01*
X120873541Y-111736323D01*
X120829984Y-111716012D01*
X120826144Y-111712172D01*
X120825629Y-111711910D01*
X120750589Y-111636870D01*
X120750326Y-111636354D01*
X120746488Y-111632516D01*
X120726182Y-111588969D01*
X120702411Y-111542317D01*
X120701373Y-111535767D01*
X120696585Y-111525498D01*
X120685000Y-111437500D01*
X120685000Y-110762500D01*
X120696585Y-110674502D01*
X120701373Y-110664233D01*
X120702411Y-110657682D01*
X120726187Y-110611018D01*
X120746488Y-110567484D01*
X120750325Y-110563646D01*
X120750589Y-110563129D01*
X120825629Y-110488089D01*
X120826146Y-110487825D01*
X120829984Y-110483988D01*
X120873518Y-110463687D01*
X120920182Y-110439911D01*
X120926733Y-110438873D01*
X120937002Y-110434085D01*
X121025000Y-110422500D01*
X121975000Y-110422500D01*
X122062998Y-110434085D01*
G37*
G36*
X147022263Y-110158659D02*
G01*
X147032251Y-110163316D01*
X147038454Y-110164299D01*
X147082645Y-110186816D01*
X147125346Y-110206728D01*
X147129109Y-110210491D01*
X147129523Y-110210702D01*
X147201797Y-110282976D01*
X147202007Y-110283389D01*
X147205772Y-110287154D01*
X147225689Y-110329866D01*
X147248200Y-110374045D01*
X147249182Y-110380246D01*
X147253841Y-110390237D01*
X147265000Y-110475000D01*
X147265000Y-110975000D01*
X147253841Y-111059763D01*
X147249181Y-111069754D01*
X147248200Y-111075954D01*
X147225694Y-111120122D01*
X147205772Y-111162846D01*
X147202006Y-111166611D01*
X147201797Y-111167023D01*
X147129523Y-111239297D01*
X147129111Y-111239506D01*
X147125346Y-111243272D01*
X147082622Y-111263194D01*
X147038454Y-111285700D01*
X147032254Y-111286681D01*
X147022263Y-111291341D01*
X146937500Y-111302500D01*
X146462500Y-111302500D01*
X146377737Y-111291341D01*
X146367746Y-111286682D01*
X146361545Y-111285700D01*
X146317366Y-111263189D01*
X146274654Y-111243272D01*
X146270889Y-111239507D01*
X146270476Y-111239297D01*
X146198202Y-111167023D01*
X146197991Y-111166609D01*
X146194228Y-111162846D01*
X146174316Y-111120145D01*
X146151799Y-111075954D01*
X146150816Y-111069751D01*
X146146159Y-111059763D01*
X146135000Y-110975000D01*
X146135000Y-110475000D01*
X146146159Y-110390237D01*
X146150816Y-110380249D01*
X146151799Y-110374045D01*
X146174321Y-110329843D01*
X146194228Y-110287154D01*
X146197990Y-110283391D01*
X146198202Y-110282976D01*
X146270476Y-110210702D01*
X146270891Y-110210490D01*
X146274654Y-110206728D01*
X146317343Y-110186821D01*
X146361545Y-110164299D01*
X146367749Y-110163316D01*
X146377737Y-110158659D01*
X146462500Y-110147500D01*
X146937500Y-110147500D01*
X147022263Y-110158659D01*
G37*
G36*
X187629815Y-109367462D02*
G01*
X187802524Y-109439000D01*
X187957957Y-109542857D01*
X188090143Y-109675043D01*
X188194000Y-109830476D01*
X188265538Y-110003185D01*
X188302008Y-110186531D01*
X188302008Y-110373469D01*
X188265538Y-110556815D01*
X188194000Y-110729524D01*
X188090143Y-110884957D01*
X187957957Y-111017143D01*
X187802524Y-111121000D01*
X187629815Y-111192538D01*
X187446469Y-111229008D01*
X187259531Y-111229008D01*
X187076185Y-111192538D01*
X186903476Y-111121000D01*
X186748043Y-111017143D01*
X186615857Y-110884957D01*
X186512000Y-110729524D01*
X186440462Y-110556815D01*
X186403992Y-110373469D01*
X186403992Y-110186531D01*
X186440462Y-110003185D01*
X186512000Y-109830476D01*
X186615857Y-109675043D01*
X186748043Y-109542857D01*
X186903476Y-109439000D01*
X187076185Y-109367462D01*
X187259531Y-109330992D01*
X187446469Y-109330992D01*
X187629815Y-109367462D01*
G37*
G36*
X190169815Y-109367462D02*
G01*
X190342524Y-109439000D01*
X190497957Y-109542857D01*
X190630143Y-109675043D01*
X190734000Y-109830476D01*
X190805538Y-110003185D01*
X190842008Y-110186531D01*
X190842008Y-110373469D01*
X190805538Y-110556815D01*
X190734000Y-110729524D01*
X190630143Y-110884957D01*
X190497957Y-111017143D01*
X190342524Y-111121000D01*
X190169815Y-111192538D01*
X189986469Y-111229008D01*
X189799531Y-111229008D01*
X189616185Y-111192538D01*
X189443476Y-111121000D01*
X189288043Y-111017143D01*
X189155857Y-110884957D01*
X189052000Y-110729524D01*
X188980462Y-110556815D01*
X188943992Y-110373469D01*
X188943992Y-110186531D01*
X188980462Y-110003185D01*
X189052000Y-109830476D01*
X189155857Y-109675043D01*
X189288043Y-109542857D01*
X189443476Y-109439000D01*
X189616185Y-109367462D01*
X189799531Y-109330992D01*
X189986469Y-109330992D01*
X190169815Y-109367462D01*
G37*
G36*
X122062998Y-108359085D02*
G01*
X122073267Y-108363873D01*
X122079817Y-108364911D01*
X122126469Y-108388682D01*
X122170016Y-108408988D01*
X122173854Y-108412826D01*
X122174370Y-108413089D01*
X122249410Y-108488129D01*
X122249672Y-108488644D01*
X122253512Y-108492484D01*
X122273823Y-108536041D01*
X122297588Y-108582682D01*
X122298625Y-108589229D01*
X122303415Y-108599502D01*
X122315000Y-108687500D01*
X122315000Y-109362500D01*
X122303415Y-109450498D01*
X122298624Y-109460770D01*
X122297588Y-109467317D01*
X122273828Y-109513946D01*
X122253512Y-109557516D01*
X122249671Y-109561356D01*
X122249410Y-109561870D01*
X122174370Y-109636910D01*
X122173856Y-109637171D01*
X122170016Y-109641012D01*
X122126446Y-109661328D01*
X122079817Y-109685088D01*
X122073270Y-109686124D01*
X122062998Y-109690915D01*
X121975000Y-109702500D01*
X121025000Y-109702500D01*
X120937002Y-109690915D01*
X120926729Y-109686125D01*
X120920182Y-109685088D01*
X120873541Y-109661323D01*
X120829984Y-109641012D01*
X120826144Y-109637172D01*
X120825629Y-109636910D01*
X120750589Y-109561870D01*
X120750326Y-109561354D01*
X120746488Y-109557516D01*
X120726182Y-109513969D01*
X120702411Y-109467317D01*
X120701373Y-109460767D01*
X120696585Y-109450498D01*
X120685000Y-109362500D01*
X120685000Y-108687500D01*
X120696585Y-108599502D01*
X120701373Y-108589233D01*
X120702411Y-108582682D01*
X120726187Y-108536018D01*
X120746488Y-108492484D01*
X120750325Y-108488646D01*
X120750589Y-108488129D01*
X120825629Y-108413089D01*
X120826146Y-108412825D01*
X120829984Y-108408988D01*
X120873518Y-108388687D01*
X120920182Y-108364911D01*
X120926733Y-108363873D01*
X120937002Y-108359085D01*
X121025000Y-108347500D01*
X121975000Y-108347500D01*
X122062998Y-108359085D01*
G37*
G36*
X147022263Y-108333659D02*
G01*
X147032251Y-108338316D01*
X147038454Y-108339299D01*
X147082645Y-108361816D01*
X147125346Y-108381728D01*
X147129109Y-108385491D01*
X147129523Y-108385702D01*
X147201797Y-108457976D01*
X147202007Y-108458389D01*
X147205772Y-108462154D01*
X147225689Y-108504866D01*
X147248200Y-108549045D01*
X147249182Y-108555246D01*
X147253841Y-108565237D01*
X147265000Y-108650000D01*
X147265000Y-109150000D01*
X147253841Y-109234763D01*
X147249181Y-109244754D01*
X147248200Y-109250954D01*
X147225694Y-109295122D01*
X147205772Y-109337846D01*
X147202006Y-109341611D01*
X147201797Y-109342023D01*
X147129523Y-109414297D01*
X147129111Y-109414506D01*
X147125346Y-109418272D01*
X147082622Y-109438194D01*
X147038454Y-109460700D01*
X147032254Y-109461681D01*
X147022263Y-109466341D01*
X146937500Y-109477500D01*
X146462500Y-109477500D01*
X146377737Y-109466341D01*
X146367746Y-109461682D01*
X146361545Y-109460700D01*
X146317366Y-109438189D01*
X146274654Y-109418272D01*
X146270889Y-109414507D01*
X146270476Y-109414297D01*
X146198202Y-109342023D01*
X146197991Y-109341609D01*
X146194228Y-109337846D01*
X146174316Y-109295145D01*
X146151799Y-109250954D01*
X146150816Y-109244751D01*
X146146159Y-109234763D01*
X146135000Y-109150000D01*
X146135000Y-108650000D01*
X146146159Y-108565237D01*
X146150816Y-108555249D01*
X146151799Y-108549045D01*
X146174321Y-108504843D01*
X146194228Y-108462154D01*
X146197990Y-108458391D01*
X146198202Y-108457976D01*
X146270476Y-108385702D01*
X146270891Y-108385490D01*
X146274654Y-108381728D01*
X146317343Y-108361821D01*
X146361545Y-108339299D01*
X146367749Y-108338316D01*
X146377737Y-108333659D01*
X146462500Y-108322500D01*
X146937500Y-108322500D01*
X147022263Y-108333659D01*
G37*
G36*
X187629815Y-106827462D02*
G01*
X187802524Y-106899000D01*
X187957957Y-107002857D01*
X188090143Y-107135043D01*
X188194000Y-107290476D01*
X188265538Y-107463185D01*
X188302008Y-107646531D01*
X188302008Y-107833469D01*
X188265538Y-108016815D01*
X188194000Y-108189524D01*
X188090143Y-108344957D01*
X187957957Y-108477143D01*
X187802524Y-108581000D01*
X187629815Y-108652538D01*
X187446469Y-108689008D01*
X187259531Y-108689008D01*
X187076185Y-108652538D01*
X186903476Y-108581000D01*
X186748043Y-108477143D01*
X186615857Y-108344957D01*
X186512000Y-108189524D01*
X186440462Y-108016815D01*
X186403992Y-107833469D01*
X186403992Y-107646531D01*
X186440462Y-107463185D01*
X186512000Y-107290476D01*
X186615857Y-107135043D01*
X186748043Y-107002857D01*
X186903476Y-106899000D01*
X187076185Y-106827462D01*
X187259531Y-106790992D01*
X187446469Y-106790992D01*
X187629815Y-106827462D01*
G37*
G36*
X190169815Y-106827462D02*
G01*
X190342524Y-106899000D01*
X190497957Y-107002857D01*
X190630143Y-107135043D01*
X190734000Y-107290476D01*
X190805538Y-107463185D01*
X190842008Y-107646531D01*
X190842008Y-107833469D01*
X190805538Y-108016815D01*
X190734000Y-108189524D01*
X190630143Y-108344957D01*
X190497957Y-108477143D01*
X190342524Y-108581000D01*
X190169815Y-108652538D01*
X189986469Y-108689008D01*
X189799531Y-108689008D01*
X189616185Y-108652538D01*
X189443476Y-108581000D01*
X189288043Y-108477143D01*
X189155857Y-108344957D01*
X189052000Y-108189524D01*
X188980462Y-108016815D01*
X188943992Y-107833469D01*
X188943992Y-107646531D01*
X188980462Y-107463185D01*
X189052000Y-107290476D01*
X189155857Y-107135043D01*
X189288043Y-107002857D01*
X189443476Y-106899000D01*
X189616185Y-106827462D01*
X189799531Y-106790992D01*
X189986469Y-106790992D01*
X190169815Y-106827462D01*
G37*
G36*
X139062998Y-104934085D02*
G01*
X139073267Y-104938873D01*
X139079817Y-104939911D01*
X139126469Y-104963682D01*
X139170016Y-104983988D01*
X139173854Y-104987826D01*
X139174370Y-104988089D01*
X139249410Y-105063129D01*
X139249672Y-105063644D01*
X139253512Y-105067484D01*
X139273823Y-105111041D01*
X139297588Y-105157682D01*
X139298625Y-105164229D01*
X139303415Y-105174502D01*
X139315000Y-105262500D01*
X139315000Y-105937500D01*
X139303415Y-106025498D01*
X139298624Y-106035770D01*
X139297588Y-106042317D01*
X139273828Y-106088946D01*
X139253512Y-106132516D01*
X139249671Y-106136356D01*
X139249410Y-106136870D01*
X139174370Y-106211910D01*
X139173856Y-106212171D01*
X139170016Y-106216012D01*
X139126446Y-106236328D01*
X139079817Y-106260088D01*
X139073270Y-106261124D01*
X139062998Y-106265915D01*
X138975000Y-106277500D01*
X138025000Y-106277500D01*
X137937002Y-106265915D01*
X137926729Y-106261125D01*
X137920182Y-106260088D01*
X137873541Y-106236323D01*
X137829984Y-106216012D01*
X137826144Y-106212172D01*
X137825629Y-106211910D01*
X137750589Y-106136870D01*
X137750326Y-106136354D01*
X137746488Y-106132516D01*
X137726182Y-106088969D01*
X137702411Y-106042317D01*
X137701373Y-106035767D01*
X137696585Y-106025498D01*
X137685000Y-105937500D01*
X137685000Y-105262500D01*
X137696585Y-105174502D01*
X137701373Y-105164233D01*
X137702411Y-105157682D01*
X137726187Y-105111018D01*
X137746488Y-105067484D01*
X137750325Y-105063646D01*
X137750589Y-105063129D01*
X137825629Y-104988089D01*
X137826146Y-104987825D01*
X137829984Y-104983988D01*
X137873518Y-104963687D01*
X137920182Y-104939911D01*
X137926733Y-104938873D01*
X137937002Y-104934085D01*
X138025000Y-104922500D01*
X138975000Y-104922500D01*
X139062998Y-104934085D01*
G37*
G36*
X187629815Y-104287462D02*
G01*
X187802524Y-104359000D01*
X187957957Y-104462857D01*
X188090143Y-104595043D01*
X188194000Y-104750476D01*
X188265538Y-104923185D01*
X188302008Y-105106531D01*
X188302008Y-105293469D01*
X188265538Y-105476815D01*
X188194000Y-105649524D01*
X188090143Y-105804957D01*
X187957957Y-105937143D01*
X187802524Y-106041000D01*
X187629815Y-106112538D01*
X187446469Y-106149008D01*
X187259531Y-106149008D01*
X187076185Y-106112538D01*
X186903476Y-106041000D01*
X186748043Y-105937143D01*
X186615857Y-105804957D01*
X186512000Y-105649524D01*
X186440462Y-105476815D01*
X186403992Y-105293469D01*
X186403992Y-105106531D01*
X186440462Y-104923185D01*
X186512000Y-104750476D01*
X186615857Y-104595043D01*
X186748043Y-104462857D01*
X186903476Y-104359000D01*
X187076185Y-104287462D01*
X187259531Y-104250992D01*
X187446469Y-104250992D01*
X187629815Y-104287462D01*
G37*
G36*
X190169815Y-104287462D02*
G01*
X190342524Y-104359000D01*
X190497957Y-104462857D01*
X190630143Y-104595043D01*
X190734000Y-104750476D01*
X190805538Y-104923185D01*
X190842008Y-105106531D01*
X190842008Y-105293469D01*
X190805538Y-105476815D01*
X190734000Y-105649524D01*
X190630143Y-105804957D01*
X190497957Y-105937143D01*
X190342524Y-106041000D01*
X190169815Y-106112538D01*
X189986469Y-106149008D01*
X189799531Y-106149008D01*
X189616185Y-106112538D01*
X189443476Y-106041000D01*
X189288043Y-105937143D01*
X189155857Y-105804957D01*
X189052000Y-105649524D01*
X188980462Y-105476815D01*
X188943992Y-105293469D01*
X188943992Y-105106531D01*
X188980462Y-104923185D01*
X189052000Y-104750476D01*
X189155857Y-104595043D01*
X189288043Y-104462857D01*
X189443476Y-104359000D01*
X189616185Y-104287462D01*
X189799531Y-104250992D01*
X189986469Y-104250992D01*
X190169815Y-104287462D01*
G37*
G36*
X121772868Y-102880476D02*
G01*
X121943113Y-102950994D01*
X122096330Y-103053370D01*
X122226630Y-103183670D01*
X122329006Y-103336887D01*
X122399524Y-103507132D01*
X122435474Y-103687864D01*
X122435474Y-103872136D01*
X122399524Y-104052868D01*
X122329006Y-104223113D01*
X122226630Y-104376330D01*
X122096330Y-104506630D01*
X121943113Y-104609006D01*
X121772868Y-104679524D01*
X121592136Y-104715474D01*
X121407864Y-104715474D01*
X121227132Y-104679524D01*
X121056887Y-104609006D01*
X120903670Y-104506630D01*
X120773370Y-104376330D01*
X120670994Y-104223113D01*
X120600476Y-104052868D01*
X120564526Y-103872136D01*
X120564526Y-103687864D01*
X120600476Y-103507132D01*
X120670994Y-103336887D01*
X120773370Y-103183670D01*
X120903670Y-103053370D01*
X121056887Y-102950994D01*
X121227132Y-102880476D01*
X121407864Y-102844526D01*
X121592136Y-102844526D01*
X121772868Y-102880476D01*
G37*
G36*
X139062998Y-102859085D02*
G01*
X139073267Y-102863873D01*
X139079817Y-102864911D01*
X139126469Y-102888682D01*
X139170016Y-102908988D01*
X139173854Y-102912826D01*
X139174370Y-102913089D01*
X139249410Y-102988129D01*
X139249672Y-102988644D01*
X139253512Y-102992484D01*
X139273823Y-103036041D01*
X139297588Y-103082682D01*
X139298625Y-103089229D01*
X139303415Y-103099502D01*
X139315000Y-103187500D01*
X139315000Y-103862500D01*
X139303415Y-103950498D01*
X139298624Y-103960770D01*
X139297588Y-103967317D01*
X139273828Y-104013946D01*
X139253512Y-104057516D01*
X139249671Y-104061356D01*
X139249410Y-104061870D01*
X139174370Y-104136910D01*
X139173856Y-104137171D01*
X139170016Y-104141012D01*
X139126446Y-104161328D01*
X139079817Y-104185088D01*
X139073270Y-104186124D01*
X139062998Y-104190915D01*
X138975000Y-104202500D01*
X138025000Y-104202500D01*
X137937002Y-104190915D01*
X137926729Y-104186125D01*
X137920182Y-104185088D01*
X137873541Y-104161323D01*
X137829984Y-104141012D01*
X137826144Y-104137172D01*
X137825629Y-104136910D01*
X137750589Y-104061870D01*
X137750326Y-104061354D01*
X137746488Y-104057516D01*
X137726182Y-104013969D01*
X137702411Y-103967317D01*
X137701373Y-103960767D01*
X137696585Y-103950498D01*
X137685000Y-103862500D01*
X137685000Y-103187500D01*
X137696585Y-103099502D01*
X137701373Y-103089233D01*
X137702411Y-103082682D01*
X137726187Y-103036018D01*
X137746488Y-102992484D01*
X137750325Y-102988646D01*
X137750589Y-102988129D01*
X137825629Y-102913089D01*
X137826146Y-102912825D01*
X137829984Y-102908988D01*
X137873518Y-102888687D01*
X137920182Y-102864911D01*
X137926733Y-102863873D01*
X137937002Y-102859085D01*
X138025000Y-102847500D01*
X138975000Y-102847500D01*
X139062998Y-102859085D01*
G37*
G36*
X187629815Y-101747462D02*
G01*
X187802524Y-101819000D01*
X187957957Y-101922857D01*
X188090143Y-102055043D01*
X188194000Y-102210476D01*
X188265538Y-102383185D01*
X188302008Y-102566531D01*
X188302008Y-102753469D01*
X188265538Y-102936815D01*
X188194000Y-103109524D01*
X188090143Y-103264957D01*
X187957957Y-103397143D01*
X187802524Y-103501000D01*
X187629815Y-103572538D01*
X187446469Y-103609008D01*
X187259531Y-103609008D01*
X187076185Y-103572538D01*
X186903476Y-103501000D01*
X186748043Y-103397143D01*
X186615857Y-103264957D01*
X186512000Y-103109524D01*
X186440462Y-102936815D01*
X186403992Y-102753469D01*
X186403992Y-102566531D01*
X186440462Y-102383185D01*
X186512000Y-102210476D01*
X186615857Y-102055043D01*
X186748043Y-101922857D01*
X186903476Y-101819000D01*
X187076185Y-101747462D01*
X187259531Y-101710992D01*
X187446469Y-101710992D01*
X187629815Y-101747462D01*
G37*
G36*
X190169815Y-101747462D02*
G01*
X190342524Y-101819000D01*
X190497957Y-101922857D01*
X190630143Y-102055043D01*
X190734000Y-102210476D01*
X190805538Y-102383185D01*
X190842008Y-102566531D01*
X190842008Y-102753469D01*
X190805538Y-102936815D01*
X190734000Y-103109524D01*
X190630143Y-103264957D01*
X190497957Y-103397143D01*
X190342524Y-103501000D01*
X190169815Y-103572538D01*
X189986469Y-103609008D01*
X189799531Y-103609008D01*
X189616185Y-103572538D01*
X189443476Y-103501000D01*
X189288043Y-103397143D01*
X189155857Y-103264957D01*
X189052000Y-103109524D01*
X188980462Y-102936815D01*
X188943992Y-102753469D01*
X188943992Y-102566531D01*
X188980462Y-102383185D01*
X189052000Y-102210476D01*
X189155857Y-102055043D01*
X189288043Y-101922857D01*
X189443476Y-101819000D01*
X189616185Y-101747462D01*
X189799531Y-101710992D01*
X189986469Y-101710992D01*
X190169815Y-101747462D01*
G37*
G36*
X144372263Y-102446159D02*
G01*
X144382251Y-102450816D01*
X144388454Y-102451799D01*
X144432645Y-102474316D01*
X144475346Y-102494228D01*
X144479109Y-102497991D01*
X144479523Y-102498202D01*
X144551797Y-102570476D01*
X144552007Y-102570889D01*
X144555772Y-102574654D01*
X144575689Y-102617366D01*
X144598200Y-102661545D01*
X144599182Y-102667746D01*
X144603841Y-102677737D01*
X144615000Y-102762500D01*
X144615000Y-103237500D01*
X144603841Y-103322263D01*
X144599181Y-103332254D01*
X144598200Y-103338454D01*
X144575694Y-103382622D01*
X144555772Y-103425346D01*
X144552006Y-103429111D01*
X144551797Y-103429523D01*
X144479523Y-103501797D01*
X144479111Y-103502006D01*
X144475346Y-103505772D01*
X144432622Y-103525694D01*
X144388454Y-103548200D01*
X144382254Y-103549181D01*
X144372263Y-103553841D01*
X144287500Y-103565000D01*
X143787500Y-103565000D01*
X143702737Y-103553841D01*
X143692746Y-103549182D01*
X143686545Y-103548200D01*
X143642366Y-103525689D01*
X143599654Y-103505772D01*
X143595889Y-103502007D01*
X143595476Y-103501797D01*
X143523202Y-103429523D01*
X143522991Y-103429109D01*
X143519228Y-103425346D01*
X143499316Y-103382645D01*
X143476799Y-103338454D01*
X143475816Y-103332251D01*
X143471159Y-103322263D01*
X143460000Y-103237500D01*
X143460000Y-102762500D01*
X143471159Y-102677737D01*
X143475816Y-102667749D01*
X143476799Y-102661545D01*
X143499321Y-102617343D01*
X143519228Y-102574654D01*
X143522990Y-102570891D01*
X143523202Y-102570476D01*
X143595476Y-102498202D01*
X143595891Y-102497990D01*
X143599654Y-102494228D01*
X143642343Y-102474321D01*
X143686545Y-102451799D01*
X143692749Y-102450816D01*
X143702737Y-102446159D01*
X143787500Y-102435000D01*
X144287500Y-102435000D01*
X144372263Y-102446159D01*
G37*
G36*
X146197263Y-102446159D02*
G01*
X146207251Y-102450816D01*
X146213454Y-102451799D01*
X146257645Y-102474316D01*
X146300346Y-102494228D01*
X146304109Y-102497991D01*
X146304523Y-102498202D01*
X146376797Y-102570476D01*
X146377007Y-102570889D01*
X146380772Y-102574654D01*
X146400689Y-102617366D01*
X146423200Y-102661545D01*
X146424182Y-102667746D01*
X146428841Y-102677737D01*
X146440000Y-102762500D01*
X146440000Y-103237500D01*
X146428841Y-103322263D01*
X146424181Y-103332254D01*
X146423200Y-103338454D01*
X146400694Y-103382622D01*
X146380772Y-103425346D01*
X146377006Y-103429111D01*
X146376797Y-103429523D01*
X146304523Y-103501797D01*
X146304111Y-103502006D01*
X146300346Y-103505772D01*
X146257622Y-103525694D01*
X146213454Y-103548200D01*
X146207254Y-103549181D01*
X146197263Y-103553841D01*
X146112500Y-103565000D01*
X145612500Y-103565000D01*
X145527737Y-103553841D01*
X145517746Y-103549182D01*
X145511545Y-103548200D01*
X145467366Y-103525689D01*
X145424654Y-103505772D01*
X145420889Y-103502007D01*
X145420476Y-103501797D01*
X145348202Y-103429523D01*
X145347991Y-103429109D01*
X145344228Y-103425346D01*
X145324316Y-103382645D01*
X145301799Y-103338454D01*
X145300816Y-103332251D01*
X145296159Y-103322263D01*
X145285000Y-103237500D01*
X145285000Y-102762500D01*
X145296159Y-102677737D01*
X145300816Y-102667749D01*
X145301799Y-102661545D01*
X145324321Y-102617343D01*
X145344228Y-102574654D01*
X145347990Y-102570891D01*
X145348202Y-102570476D01*
X145420476Y-102498202D01*
X145420891Y-102497990D01*
X145424654Y-102494228D01*
X145467343Y-102474321D01*
X145511545Y-102451799D01*
X145517749Y-102450816D01*
X145527737Y-102446159D01*
X145612500Y-102435000D01*
X146112500Y-102435000D01*
X146197263Y-102446159D01*
G37*
G36*
X121772868Y-100340476D02*
G01*
X121943113Y-100410994D01*
X122096330Y-100513370D01*
X122226630Y-100643670D01*
X122329006Y-100796887D01*
X122399524Y-100967132D01*
X122435474Y-101147864D01*
X122435474Y-101332136D01*
X122399524Y-101512868D01*
X122329006Y-101683113D01*
X122226630Y-101836330D01*
X122096330Y-101966630D01*
X121943113Y-102069006D01*
X121772868Y-102139524D01*
X121592136Y-102175474D01*
X121407864Y-102175474D01*
X121227132Y-102139524D01*
X121056887Y-102069006D01*
X120903670Y-101966630D01*
X120773370Y-101836330D01*
X120670994Y-101683113D01*
X120600476Y-101512868D01*
X120564526Y-101332136D01*
X120564526Y-101147864D01*
X120600476Y-100967132D01*
X120670994Y-100796887D01*
X120773370Y-100643670D01*
X120903670Y-100513370D01*
X121056887Y-100410994D01*
X121227132Y-100340476D01*
X121407864Y-100304526D01*
X121592136Y-100304526D01*
X121772868Y-100340476D01*
G37*
G36*
X187629815Y-99207462D02*
G01*
X187802524Y-99279000D01*
X187957957Y-99382857D01*
X188090143Y-99515043D01*
X188194000Y-99670476D01*
X188265538Y-99843185D01*
X188302008Y-100026531D01*
X188302008Y-100213469D01*
X188265538Y-100396815D01*
X188194000Y-100569524D01*
X188090143Y-100724957D01*
X187957957Y-100857143D01*
X187802524Y-100961000D01*
X187629815Y-101032538D01*
X187446469Y-101069008D01*
X187259531Y-101069008D01*
X187076185Y-101032538D01*
X186903476Y-100961000D01*
X186748043Y-100857143D01*
X186615857Y-100724957D01*
X186512000Y-100569524D01*
X186440462Y-100396815D01*
X186403992Y-100213469D01*
X186403992Y-100026531D01*
X186440462Y-99843185D01*
X186512000Y-99670476D01*
X186615857Y-99515043D01*
X186748043Y-99382857D01*
X186903476Y-99279000D01*
X187076185Y-99207462D01*
X187259531Y-99170992D01*
X187446469Y-99170992D01*
X187629815Y-99207462D01*
G37*
G36*
X190169815Y-99207462D02*
G01*
X190342524Y-99279000D01*
X190497957Y-99382857D01*
X190630143Y-99515043D01*
X190734000Y-99670476D01*
X190805538Y-99843185D01*
X190842008Y-100026531D01*
X190842008Y-100213469D01*
X190805538Y-100396815D01*
X190734000Y-100569524D01*
X190630143Y-100724957D01*
X190497957Y-100857143D01*
X190342524Y-100961000D01*
X190169815Y-101032538D01*
X189986469Y-101069008D01*
X189799531Y-101069008D01*
X189616185Y-101032538D01*
X189443476Y-100961000D01*
X189288043Y-100857143D01*
X189155857Y-100724957D01*
X189052000Y-100569524D01*
X188980462Y-100396815D01*
X188943992Y-100213469D01*
X188943992Y-100026531D01*
X188980462Y-99843185D01*
X189052000Y-99670476D01*
X189155857Y-99515043D01*
X189288043Y-99382857D01*
X189443476Y-99279000D01*
X189616185Y-99207462D01*
X189799531Y-99170992D01*
X189986469Y-99170992D01*
X190169815Y-99207462D01*
G37*
G36*
X121772868Y-97800476D02*
G01*
X121943113Y-97870994D01*
X122096330Y-97973370D01*
X122226630Y-98103670D01*
X122329006Y-98256887D01*
X122399524Y-98427132D01*
X122435474Y-98607864D01*
X122435474Y-98792136D01*
X122399524Y-98972868D01*
X122329006Y-99143113D01*
X122226630Y-99296330D01*
X122096330Y-99426630D01*
X121943113Y-99529006D01*
X121772868Y-99599524D01*
X121592136Y-99635474D01*
X121407864Y-99635474D01*
X121227132Y-99599524D01*
X121056887Y-99529006D01*
X120903670Y-99426630D01*
X120773370Y-99296330D01*
X120670994Y-99143113D01*
X120600476Y-98972868D01*
X120564526Y-98792136D01*
X120564526Y-98607864D01*
X120600476Y-98427132D01*
X120670994Y-98256887D01*
X120773370Y-98103670D01*
X120903670Y-97973370D01*
X121056887Y-97870994D01*
X121227132Y-97800476D01*
X121407864Y-97764526D01*
X121592136Y-97764526D01*
X121772868Y-97800476D01*
G37*
G36*
X139062998Y-97871585D02*
G01*
X139073267Y-97876373D01*
X139079817Y-97877411D01*
X139126469Y-97901182D01*
X139170016Y-97921488D01*
X139173854Y-97925326D01*
X139174370Y-97925589D01*
X139249410Y-98000629D01*
X139249672Y-98001144D01*
X139253512Y-98004984D01*
X139273823Y-98048541D01*
X139297588Y-98095182D01*
X139298625Y-98101729D01*
X139303415Y-98112002D01*
X139315000Y-98200000D01*
X139315000Y-98875000D01*
X139303415Y-98962998D01*
X139298624Y-98973270D01*
X139297588Y-98979817D01*
X139273828Y-99026446D01*
X139253512Y-99070016D01*
X139249671Y-99073856D01*
X139249410Y-99074370D01*
X139174370Y-99149410D01*
X139173856Y-99149671D01*
X139170016Y-99153512D01*
X139126446Y-99173828D01*
X139079817Y-99197588D01*
X139073270Y-99198624D01*
X139062998Y-99203415D01*
X138975000Y-99215000D01*
X138025000Y-99215000D01*
X137937002Y-99203415D01*
X137926729Y-99198625D01*
X137920182Y-99197588D01*
X137873541Y-99173823D01*
X137829984Y-99153512D01*
X137826144Y-99149672D01*
X137825629Y-99149410D01*
X137750589Y-99074370D01*
X137750326Y-99073854D01*
X137746488Y-99070016D01*
X137726182Y-99026469D01*
X137702411Y-98979817D01*
X137701373Y-98973267D01*
X137696585Y-98962998D01*
X137685000Y-98875000D01*
X137685000Y-98200000D01*
X137696585Y-98112002D01*
X137701373Y-98101733D01*
X137702411Y-98095182D01*
X137726187Y-98048518D01*
X137746488Y-98004984D01*
X137750325Y-98001146D01*
X137750589Y-98000629D01*
X137825629Y-97925589D01*
X137826146Y-97925325D01*
X137829984Y-97921488D01*
X137873518Y-97901187D01*
X137920182Y-97877411D01*
X137926733Y-97876373D01*
X137937002Y-97871585D01*
X138025000Y-97860000D01*
X138975000Y-97860000D01*
X139062998Y-97871585D01*
G37*
G36*
X187629815Y-96667462D02*
G01*
X187802524Y-96739000D01*
X187957957Y-96842857D01*
X188090143Y-96975043D01*
X188194000Y-97130476D01*
X188265538Y-97303185D01*
X188302008Y-97486531D01*
X188302008Y-97673469D01*
X188265538Y-97856815D01*
X188194000Y-98029524D01*
X188090143Y-98184957D01*
X187957957Y-98317143D01*
X187802524Y-98421000D01*
X187629815Y-98492538D01*
X187446469Y-98529008D01*
X187259531Y-98529008D01*
X187076185Y-98492538D01*
X186903476Y-98421000D01*
X186748043Y-98317143D01*
X186615857Y-98184957D01*
X186512000Y-98029524D01*
X186440462Y-97856815D01*
X186403992Y-97673469D01*
X186403992Y-97486531D01*
X186440462Y-97303185D01*
X186512000Y-97130476D01*
X186615857Y-96975043D01*
X186748043Y-96842857D01*
X186903476Y-96739000D01*
X187076185Y-96667462D01*
X187259531Y-96630992D01*
X187446469Y-96630992D01*
X187629815Y-96667462D01*
G37*
G36*
X190169815Y-96667462D02*
G01*
X190342524Y-96739000D01*
X190497957Y-96842857D01*
X190630143Y-96975043D01*
X190734000Y-97130476D01*
X190805538Y-97303185D01*
X190842008Y-97486531D01*
X190842008Y-97673469D01*
X190805538Y-97856815D01*
X190734000Y-98029524D01*
X190630143Y-98184957D01*
X190497957Y-98317143D01*
X190342524Y-98421000D01*
X190169815Y-98492538D01*
X189986469Y-98529008D01*
X189799531Y-98529008D01*
X189616185Y-98492538D01*
X189443476Y-98421000D01*
X189288043Y-98317143D01*
X189155857Y-98184957D01*
X189052000Y-98029524D01*
X188980462Y-97856815D01*
X188943992Y-97673469D01*
X188943992Y-97486531D01*
X188980462Y-97303185D01*
X189052000Y-97130476D01*
X189155857Y-96975043D01*
X189288043Y-96842857D01*
X189443476Y-96739000D01*
X189616185Y-96667462D01*
X189799531Y-96630992D01*
X189986469Y-96630992D01*
X190169815Y-96667462D01*
G37*
G36*
X173062998Y-96546585D02*
G01*
X173073268Y-96551374D01*
X173079814Y-96552411D01*
X173126440Y-96576168D01*
X173170016Y-96596488D01*
X173173856Y-96600328D01*
X173174372Y-96600591D01*
X173249408Y-96675627D01*
X173249670Y-96676142D01*
X173253512Y-96679984D01*
X173273836Y-96723570D01*
X173297588Y-96770185D01*
X173298624Y-96776728D01*
X173303415Y-96787002D01*
X173314999Y-96875002D01*
X173314999Y-96880110D01*
X173315000Y-96880117D01*
X173315000Y-97673438D01*
X173315000Y-98124999D01*
X173303415Y-98212998D01*
X173298624Y-98223272D01*
X173297588Y-98229814D01*
X173273842Y-98276417D01*
X173253512Y-98320016D01*
X173249669Y-98323858D01*
X173249408Y-98324372D01*
X173174372Y-98399408D01*
X173173858Y-98399669D01*
X173170016Y-98403512D01*
X173126417Y-98423842D01*
X173079814Y-98447588D01*
X173073272Y-98448624D01*
X173062998Y-98453415D01*
X172974998Y-98464999D01*
X172969888Y-98464999D01*
X172969882Y-98465000D01*
X172055118Y-98465000D01*
X172055117Y-98464999D01*
X172050001Y-98465000D01*
X171962002Y-98453415D01*
X171951728Y-98448624D01*
X171945185Y-98447588D01*
X171898570Y-98423836D01*
X171854984Y-98403512D01*
X171851142Y-98399670D01*
X171850627Y-98399408D01*
X171775591Y-98324372D01*
X171775328Y-98323856D01*
X171771488Y-98320016D01*
X171751168Y-98276440D01*
X171727411Y-98229814D01*
X171726374Y-98223268D01*
X171721585Y-98212998D01*
X171710001Y-98124998D01*
X171710000Y-98119888D01*
X171710000Y-98119882D01*
X171710000Y-96880117D01*
X171710000Y-96880116D01*
X171710000Y-96875001D01*
X171721585Y-96787002D01*
X171726374Y-96776731D01*
X171727411Y-96770185D01*
X171751174Y-96723547D01*
X171771488Y-96679984D01*
X171775327Y-96676144D01*
X171775591Y-96675627D01*
X171850627Y-96600591D01*
X171851144Y-96600327D01*
X171854984Y-96596488D01*
X171898547Y-96576174D01*
X171945185Y-96552411D01*
X171951731Y-96551374D01*
X171962002Y-96546585D01*
X172050002Y-96535001D01*
X172055111Y-96535000D01*
X172055118Y-96535000D01*
X172969882Y-96535000D01*
X172974999Y-96535000D01*
X173062998Y-96546585D01*
G37*
G36*
X176037998Y-96546585D02*
G01*
X176048268Y-96551374D01*
X176054814Y-96552411D01*
X176101440Y-96576168D01*
X176145016Y-96596488D01*
X176148856Y-96600328D01*
X176149372Y-96600591D01*
X176224408Y-96675627D01*
X176224670Y-96676142D01*
X176228512Y-96679984D01*
X176248836Y-96723570D01*
X176272588Y-96770185D01*
X176273624Y-96776728D01*
X176278415Y-96787002D01*
X176289999Y-96875002D01*
X176289999Y-96880110D01*
X176290000Y-96880117D01*
X176290000Y-97673438D01*
X176290000Y-98124999D01*
X176278415Y-98212998D01*
X176273624Y-98223272D01*
X176272588Y-98229814D01*
X176248842Y-98276417D01*
X176228512Y-98320016D01*
X176224669Y-98323858D01*
X176224408Y-98324372D01*
X176149372Y-98399408D01*
X176148858Y-98399669D01*
X176145016Y-98403512D01*
X176101417Y-98423842D01*
X176054814Y-98447588D01*
X176048272Y-98448624D01*
X176037998Y-98453415D01*
X175949998Y-98464999D01*
X175944888Y-98464999D01*
X175944882Y-98465000D01*
X175030118Y-98465000D01*
X175030117Y-98464999D01*
X175025001Y-98465000D01*
X174937002Y-98453415D01*
X174926728Y-98448624D01*
X174920185Y-98447588D01*
X174873570Y-98423836D01*
X174829984Y-98403512D01*
X174826142Y-98399670D01*
X174825627Y-98399408D01*
X174750591Y-98324372D01*
X174750328Y-98323856D01*
X174746488Y-98320016D01*
X174726168Y-98276440D01*
X174702411Y-98229814D01*
X174701374Y-98223268D01*
X174696585Y-98212998D01*
X174685001Y-98124998D01*
X174685000Y-98119888D01*
X174685000Y-98119882D01*
X174685000Y-96880117D01*
X174685000Y-96880116D01*
X174685000Y-96875001D01*
X174696585Y-96787002D01*
X174701374Y-96776731D01*
X174702411Y-96770185D01*
X174726174Y-96723547D01*
X174746488Y-96679984D01*
X174750327Y-96676144D01*
X174750591Y-96675627D01*
X174825627Y-96600591D01*
X174826144Y-96600327D01*
X174829984Y-96596488D01*
X174873547Y-96576174D01*
X174920185Y-96552411D01*
X174926731Y-96551374D01*
X174937002Y-96546585D01*
X175025002Y-96535001D01*
X175030111Y-96535000D01*
X175030118Y-96535000D01*
X175944882Y-96535000D01*
X175949999Y-96535000D01*
X176037998Y-96546585D01*
G37*
G36*
X180872263Y-96946159D02*
G01*
X180882251Y-96950816D01*
X180888454Y-96951799D01*
X180932645Y-96974316D01*
X180975346Y-96994228D01*
X180979109Y-96997991D01*
X180979523Y-96998202D01*
X181051797Y-97070476D01*
X181052007Y-97070889D01*
X181055772Y-97074654D01*
X181075689Y-97117366D01*
X181098200Y-97161545D01*
X181099182Y-97167746D01*
X181103841Y-97177737D01*
X181115000Y-97262500D01*
X181115000Y-97737500D01*
X181103841Y-97822263D01*
X181099181Y-97832254D01*
X181098200Y-97838454D01*
X181075694Y-97882622D01*
X181055772Y-97925346D01*
X181052006Y-97929111D01*
X181051797Y-97929523D01*
X180979523Y-98001797D01*
X180979111Y-98002006D01*
X180975346Y-98005772D01*
X180932622Y-98025694D01*
X180888454Y-98048200D01*
X180882254Y-98049181D01*
X180872263Y-98053841D01*
X180787500Y-98065000D01*
X180287500Y-98065000D01*
X180202737Y-98053841D01*
X180192746Y-98049182D01*
X180186545Y-98048200D01*
X180142366Y-98025689D01*
X180099654Y-98005772D01*
X180095889Y-98002007D01*
X180095476Y-98001797D01*
X180023202Y-97929523D01*
X180022991Y-97929109D01*
X180019228Y-97925346D01*
X179999316Y-97882645D01*
X179976799Y-97838454D01*
X179975816Y-97832251D01*
X179971159Y-97822263D01*
X179960000Y-97737500D01*
X179960000Y-97262500D01*
X179971159Y-97177737D01*
X179975816Y-97167749D01*
X179976799Y-97161545D01*
X179999321Y-97117343D01*
X180019228Y-97074654D01*
X180022990Y-97070891D01*
X180023202Y-97070476D01*
X180095476Y-96998202D01*
X180095891Y-96997990D01*
X180099654Y-96994228D01*
X180142343Y-96974321D01*
X180186545Y-96951799D01*
X180192749Y-96950816D01*
X180202737Y-96946159D01*
X180287500Y-96935000D01*
X180787500Y-96935000D01*
X180872263Y-96946159D01*
G37*
G36*
X182697263Y-96946159D02*
G01*
X182707251Y-96950816D01*
X182713454Y-96951799D01*
X182757645Y-96974316D01*
X182800346Y-96994228D01*
X182804109Y-96997991D01*
X182804523Y-96998202D01*
X182876797Y-97070476D01*
X182877007Y-97070889D01*
X182880772Y-97074654D01*
X182900689Y-97117366D01*
X182923200Y-97161545D01*
X182924182Y-97167746D01*
X182928841Y-97177737D01*
X182940000Y-97262500D01*
X182940000Y-97737500D01*
X182928841Y-97822263D01*
X182924181Y-97832254D01*
X182923200Y-97838454D01*
X182900694Y-97882622D01*
X182880772Y-97925346D01*
X182877006Y-97929111D01*
X182876797Y-97929523D01*
X182804523Y-98001797D01*
X182804111Y-98002006D01*
X182800346Y-98005772D01*
X182757622Y-98025694D01*
X182713454Y-98048200D01*
X182707254Y-98049181D01*
X182697263Y-98053841D01*
X182612500Y-98065000D01*
X182112500Y-98065000D01*
X182027737Y-98053841D01*
X182017746Y-98049182D01*
X182011545Y-98048200D01*
X181967366Y-98025689D01*
X181924654Y-98005772D01*
X181920889Y-98002007D01*
X181920476Y-98001797D01*
X181848202Y-97929523D01*
X181847991Y-97929109D01*
X181844228Y-97925346D01*
X181824316Y-97882645D01*
X181801799Y-97838454D01*
X181800816Y-97832251D01*
X181796159Y-97822263D01*
X181785000Y-97737500D01*
X181785000Y-97262500D01*
X181796159Y-97177737D01*
X181800816Y-97167749D01*
X181801799Y-97161545D01*
X181824321Y-97117343D01*
X181844228Y-97074654D01*
X181847990Y-97070891D01*
X181848202Y-97070476D01*
X181920476Y-96998202D01*
X181920891Y-96997990D01*
X181924654Y-96994228D01*
X181967343Y-96974321D01*
X182011545Y-96951799D01*
X182017749Y-96950816D01*
X182027737Y-96946159D01*
X182112500Y-96935000D01*
X182612500Y-96935000D01*
X182697263Y-96946159D01*
G37*
G36*
X139062998Y-95796585D02*
G01*
X139073267Y-95801373D01*
X139079817Y-95802411D01*
X139126469Y-95826182D01*
X139170016Y-95846488D01*
X139173854Y-95850326D01*
X139174370Y-95850589D01*
X139249410Y-95925629D01*
X139249672Y-95926144D01*
X139253512Y-95929984D01*
X139273823Y-95973541D01*
X139297588Y-96020182D01*
X139298625Y-96026729D01*
X139303415Y-96037002D01*
X139315000Y-96125000D01*
X139315000Y-96800000D01*
X139303415Y-96887998D01*
X139298624Y-96898270D01*
X139297588Y-96904817D01*
X139273828Y-96951446D01*
X139253512Y-96995016D01*
X139249671Y-96998856D01*
X139249410Y-96999370D01*
X139174370Y-97074410D01*
X139173856Y-97074671D01*
X139170016Y-97078512D01*
X139126446Y-97098828D01*
X139079817Y-97122588D01*
X139073270Y-97123624D01*
X139062998Y-97128415D01*
X138975000Y-97140000D01*
X138025000Y-97140000D01*
X137937002Y-97128415D01*
X137926729Y-97123625D01*
X137920182Y-97122588D01*
X137873541Y-97098823D01*
X137829984Y-97078512D01*
X137826144Y-97074672D01*
X137825629Y-97074410D01*
X137750589Y-96999370D01*
X137750326Y-96998854D01*
X137746488Y-96995016D01*
X137726182Y-96951469D01*
X137702411Y-96904817D01*
X137701373Y-96898267D01*
X137696585Y-96887998D01*
X137685000Y-96800000D01*
X137685000Y-96125000D01*
X137696585Y-96037002D01*
X137701373Y-96026733D01*
X137702411Y-96020182D01*
X137726187Y-95973518D01*
X137746488Y-95929984D01*
X137750325Y-95926146D01*
X137750589Y-95925629D01*
X137825629Y-95850589D01*
X137826146Y-95850325D01*
X137829984Y-95846488D01*
X137873518Y-95826187D01*
X137920182Y-95802411D01*
X137926733Y-95801373D01*
X137937002Y-95796585D01*
X138025000Y-95785000D01*
X138975000Y-95785000D01*
X139062998Y-95796585D01*
G37*
G36*
X121772868Y-95260476D02*
G01*
X121943113Y-95330994D01*
X122096330Y-95433370D01*
X122226630Y-95563670D01*
X122329006Y-95716887D01*
X122399524Y-95887132D01*
X122435474Y-96067864D01*
X122435474Y-96252136D01*
X122399524Y-96432868D01*
X122329006Y-96603113D01*
X122226630Y-96756330D01*
X122096330Y-96886630D01*
X121943113Y-96989006D01*
X121772868Y-97059524D01*
X121592136Y-97095474D01*
X121407864Y-97095474D01*
X121227132Y-97059524D01*
X121056887Y-96989006D01*
X120903670Y-96886630D01*
X120773370Y-96756330D01*
X120670994Y-96603113D01*
X120600476Y-96432868D01*
X120564526Y-96252136D01*
X120564526Y-96067864D01*
X120600476Y-95887132D01*
X120670994Y-95716887D01*
X120773370Y-95563670D01*
X120903670Y-95433370D01*
X121056887Y-95330994D01*
X121227132Y-95260476D01*
X121407864Y-95224526D01*
X121592136Y-95224526D01*
X121772868Y-95260476D01*
G37*
G36*
X146292757Y-95411045D02*
G01*
X146340072Y-95416534D01*
X146356240Y-95423673D01*
X146379344Y-95428269D01*
X146404081Y-95444798D01*
X146422496Y-95452929D01*
X146435071Y-95465504D01*
X146457206Y-95480294D01*
X146471995Y-95502428D01*
X146484570Y-95515003D01*
X146492700Y-95533415D01*
X146509231Y-95558156D01*
X146513826Y-95581261D01*
X146520965Y-95597427D01*
X146526452Y-95644732D01*
X146527500Y-95650000D01*
X146527500Y-95950000D01*
X146526451Y-95955269D01*
X146520965Y-96002572D01*
X146513827Y-96018736D01*
X146509231Y-96041844D01*
X146492698Y-96066586D01*
X146484570Y-96084996D01*
X146471997Y-96097568D01*
X146457206Y-96119706D01*
X146435068Y-96134497D01*
X146422496Y-96147070D01*
X146404086Y-96155198D01*
X146379344Y-96171731D01*
X146356236Y-96176327D01*
X146340072Y-96183465D01*
X146292769Y-96188951D01*
X146287500Y-96190000D01*
X145112500Y-96190000D01*
X145107232Y-96188952D01*
X145059927Y-96183465D01*
X145043761Y-96176326D01*
X145020656Y-96171731D01*
X144995915Y-96155200D01*
X144977503Y-96147070D01*
X144964928Y-96134495D01*
X144942794Y-96119706D01*
X144928004Y-96097571D01*
X144915429Y-96084996D01*
X144907298Y-96066581D01*
X144890769Y-96041844D01*
X144886173Y-96018740D01*
X144879034Y-96002572D01*
X144873545Y-95955257D01*
X144872500Y-95950000D01*
X144872500Y-95650000D01*
X144873545Y-95644744D01*
X144879034Y-95597427D01*
X144886173Y-95581257D01*
X144890769Y-95558156D01*
X144907296Y-95533420D01*
X144915429Y-95515003D01*
X144928006Y-95502425D01*
X144942794Y-95480294D01*
X144964925Y-95465506D01*
X144977503Y-95452929D01*
X144995920Y-95444796D01*
X145020656Y-95428269D01*
X145043757Y-95423673D01*
X145059927Y-95416534D01*
X145107244Y-95411045D01*
X145112500Y-95410000D01*
X146287500Y-95410000D01*
X146292757Y-95411045D01*
G37*
G36*
X160438042Y-94093251D02*
G01*
X160467240Y-94112760D01*
X160486749Y-94141958D01*
X160493600Y-94176400D01*
X160493600Y-95903600D01*
X160486749Y-95938042D01*
X160467240Y-95967240D01*
X160438042Y-95986749D01*
X160403600Y-95993600D01*
X158676400Y-95993600D01*
X158641958Y-95986749D01*
X158612760Y-95967240D01*
X158593251Y-95938042D01*
X158586400Y-95903600D01*
X158586400Y-94176400D01*
X158593251Y-94141958D01*
X158612760Y-94112760D01*
X158641958Y-94093251D01*
X158676400Y-94086400D01*
X160403600Y-94086400D01*
X160438042Y-94093251D01*
G37*
G36*
X157276815Y-94127462D02*
G01*
X157449524Y-94199000D01*
X157604957Y-94302857D01*
X157737143Y-94435043D01*
X157841000Y-94590476D01*
X157912538Y-94763185D01*
X157949008Y-94946531D01*
X157949008Y-95133469D01*
X157912538Y-95316815D01*
X157841000Y-95489524D01*
X157737143Y-95644957D01*
X157604957Y-95777143D01*
X157449524Y-95881000D01*
X157276815Y-95952538D01*
X157093469Y-95989008D01*
X156906531Y-95989008D01*
X156723185Y-95952538D01*
X156550476Y-95881000D01*
X156395043Y-95777143D01*
X156262857Y-95644957D01*
X156159000Y-95489524D01*
X156087462Y-95316815D01*
X156050992Y-95133469D01*
X156050992Y-94946531D01*
X156087462Y-94763185D01*
X156159000Y-94590476D01*
X156262857Y-94435043D01*
X156395043Y-94302857D01*
X156550476Y-94199000D01*
X156723185Y-94127462D01*
X156906531Y-94090992D01*
X157093469Y-94090992D01*
X157276815Y-94127462D01*
G37*
G36*
X187629815Y-94127462D02*
G01*
X187802524Y-94199000D01*
X187957957Y-94302857D01*
X188090143Y-94435043D01*
X188194000Y-94590476D01*
X188265538Y-94763185D01*
X188302008Y-94946531D01*
X188302008Y-95133469D01*
X188265538Y-95316815D01*
X188194000Y-95489524D01*
X188090143Y-95644957D01*
X187957957Y-95777143D01*
X187802524Y-95881000D01*
X187629815Y-95952538D01*
X187446469Y-95989008D01*
X187259531Y-95989008D01*
X187076185Y-95952538D01*
X186903476Y-95881000D01*
X186748043Y-95777143D01*
X186615857Y-95644957D01*
X186512000Y-95489524D01*
X186440462Y-95316815D01*
X186403992Y-95133469D01*
X186403992Y-94946531D01*
X186440462Y-94763185D01*
X186512000Y-94590476D01*
X186615857Y-94435043D01*
X186748043Y-94302857D01*
X186903476Y-94199000D01*
X187076185Y-94127462D01*
X187259531Y-94090992D01*
X187446469Y-94090992D01*
X187629815Y-94127462D01*
G37*
G36*
X190169815Y-94127462D02*
G01*
X190342524Y-94199000D01*
X190497957Y-94302857D01*
X190630143Y-94435043D01*
X190734000Y-94590476D01*
X190805538Y-94763185D01*
X190842008Y-94946531D01*
X190842008Y-95133469D01*
X190805538Y-95316815D01*
X190734000Y-95489524D01*
X190630143Y-95644957D01*
X190497957Y-95777143D01*
X190342524Y-95881000D01*
X190169815Y-95952538D01*
X189986469Y-95989008D01*
X189799531Y-95989008D01*
X189616185Y-95952538D01*
X189443476Y-95881000D01*
X189288043Y-95777143D01*
X189155857Y-95644957D01*
X189052000Y-95489524D01*
X188980462Y-95316815D01*
X188943992Y-95133469D01*
X188943992Y-94946531D01*
X188980462Y-94763185D01*
X189052000Y-94590476D01*
X189155857Y-94435043D01*
X189288043Y-94302857D01*
X189443476Y-94199000D01*
X189616185Y-94127462D01*
X189799531Y-94090992D01*
X189986469Y-94090992D01*
X190169815Y-94127462D01*
G37*
G36*
X144417757Y-94461045D02*
G01*
X144465072Y-94466534D01*
X144481240Y-94473673D01*
X144504344Y-94478269D01*
X144529081Y-94494798D01*
X144547496Y-94502929D01*
X144560071Y-94515504D01*
X144582206Y-94530294D01*
X144596995Y-94552428D01*
X144609570Y-94565003D01*
X144617700Y-94583415D01*
X144634231Y-94608156D01*
X144638826Y-94631261D01*
X144645965Y-94647427D01*
X144651452Y-94694732D01*
X144652500Y-94700000D01*
X144652500Y-95000000D01*
X144651451Y-95005269D01*
X144645965Y-95052572D01*
X144638827Y-95068736D01*
X144634231Y-95091844D01*
X144617698Y-95116586D01*
X144609570Y-95134996D01*
X144596997Y-95147568D01*
X144582206Y-95169706D01*
X144560068Y-95184497D01*
X144547496Y-95197070D01*
X144529086Y-95205198D01*
X144504344Y-95221731D01*
X144481236Y-95226327D01*
X144465072Y-95233465D01*
X144417769Y-95238951D01*
X144412500Y-95240000D01*
X143237500Y-95240000D01*
X143232232Y-95238952D01*
X143184927Y-95233465D01*
X143168761Y-95226326D01*
X143145656Y-95221731D01*
X143120915Y-95205200D01*
X143102503Y-95197070D01*
X143089928Y-95184495D01*
X143067794Y-95169706D01*
X143053004Y-95147571D01*
X143040429Y-95134996D01*
X143032298Y-95116581D01*
X143015769Y-95091844D01*
X143011173Y-95068740D01*
X143004034Y-95052572D01*
X142998545Y-95005257D01*
X142997500Y-95000000D01*
X142997500Y-94700000D01*
X142998545Y-94694744D01*
X143004034Y-94647427D01*
X143011173Y-94631257D01*
X143015769Y-94608156D01*
X143032296Y-94583420D01*
X143040429Y-94565003D01*
X143053006Y-94552425D01*
X143067794Y-94530294D01*
X143089925Y-94515506D01*
X143102503Y-94502929D01*
X143120920Y-94494796D01*
X143145656Y-94478269D01*
X143168757Y-94473673D01*
X143184927Y-94466534D01*
X143232244Y-94461045D01*
X143237500Y-94460000D01*
X144412500Y-94460000D01*
X144417757Y-94461045D01*
G37*
G36*
X121772868Y-92720476D02*
G01*
X121943113Y-92790994D01*
X122096330Y-92893370D01*
X122226630Y-93023670D01*
X122329006Y-93176887D01*
X122399524Y-93347132D01*
X122435474Y-93527864D01*
X122435474Y-93712136D01*
X122399524Y-93892868D01*
X122329006Y-94063113D01*
X122226630Y-94216330D01*
X122096330Y-94346630D01*
X121943113Y-94449006D01*
X121772868Y-94519524D01*
X121592136Y-94555474D01*
X121407864Y-94555474D01*
X121227132Y-94519524D01*
X121056887Y-94449006D01*
X120903670Y-94346630D01*
X120773370Y-94216330D01*
X120670994Y-94063113D01*
X120600476Y-93892868D01*
X120564526Y-93712136D01*
X120564526Y-93527864D01*
X120600476Y-93347132D01*
X120670994Y-93176887D01*
X120773370Y-93023670D01*
X120903670Y-92893370D01*
X121056887Y-92790994D01*
X121227132Y-92720476D01*
X121407864Y-92684526D01*
X121592136Y-92684526D01*
X121772868Y-92720476D01*
G37*
G36*
X146292757Y-93511045D02*
G01*
X146340072Y-93516534D01*
X146356240Y-93523673D01*
X146379344Y-93528269D01*
X146404081Y-93544798D01*
X146422496Y-93552929D01*
X146435071Y-93565504D01*
X146457206Y-93580294D01*
X146471995Y-93602428D01*
X146484570Y-93615003D01*
X146492700Y-93633415D01*
X146509231Y-93658156D01*
X146513826Y-93681261D01*
X146520965Y-93697427D01*
X146526452Y-93744732D01*
X146527500Y-93750000D01*
X146527500Y-94050000D01*
X146526451Y-94055269D01*
X146520965Y-94102572D01*
X146513827Y-94118736D01*
X146509231Y-94141844D01*
X146492698Y-94166586D01*
X146484570Y-94184996D01*
X146471997Y-94197568D01*
X146457206Y-94219706D01*
X146435068Y-94234497D01*
X146422496Y-94247070D01*
X146404086Y-94255198D01*
X146379344Y-94271731D01*
X146356236Y-94276327D01*
X146340072Y-94283465D01*
X146292769Y-94288951D01*
X146287500Y-94290000D01*
X145112500Y-94290000D01*
X145107232Y-94288952D01*
X145059927Y-94283465D01*
X145043761Y-94276326D01*
X145020656Y-94271731D01*
X144995915Y-94255200D01*
X144977503Y-94247070D01*
X144964928Y-94234495D01*
X144942794Y-94219706D01*
X144928004Y-94197571D01*
X144915429Y-94184996D01*
X144907298Y-94166581D01*
X144890769Y-94141844D01*
X144886173Y-94118740D01*
X144879034Y-94102572D01*
X144873545Y-94055257D01*
X144872500Y-94050000D01*
X144872500Y-93750000D01*
X144873545Y-93744744D01*
X144879034Y-93697427D01*
X144886173Y-93681257D01*
X144890769Y-93658156D01*
X144907296Y-93633420D01*
X144915429Y-93615003D01*
X144928006Y-93602425D01*
X144942794Y-93580294D01*
X144964925Y-93565506D01*
X144977503Y-93552929D01*
X144995920Y-93544796D01*
X145020656Y-93528269D01*
X145043757Y-93523673D01*
X145059927Y-93516534D01*
X145107244Y-93511045D01*
X145112500Y-93510000D01*
X146287500Y-93510000D01*
X146292757Y-93511045D01*
G37*
G36*
X157276815Y-91587462D02*
G01*
X157449524Y-91659000D01*
X157604957Y-91762857D01*
X157737143Y-91895043D01*
X157841000Y-92050476D01*
X157912538Y-92223185D01*
X157949008Y-92406531D01*
X157949008Y-92593469D01*
X157912538Y-92776815D01*
X157841000Y-92949524D01*
X157737143Y-93104957D01*
X157604957Y-93237143D01*
X157449524Y-93341000D01*
X157276815Y-93412538D01*
X157093469Y-93449008D01*
X156906531Y-93449008D01*
X156723185Y-93412538D01*
X156550476Y-93341000D01*
X156395043Y-93237143D01*
X156262857Y-93104957D01*
X156159000Y-92949524D01*
X156087462Y-92776815D01*
X156050992Y-92593469D01*
X156050992Y-92406531D01*
X156087462Y-92223185D01*
X156159000Y-92050476D01*
X156262857Y-91895043D01*
X156395043Y-91762857D01*
X156550476Y-91659000D01*
X156723185Y-91587462D01*
X156906531Y-91550992D01*
X157093469Y-91550992D01*
X157276815Y-91587462D01*
G37*
G36*
X159816815Y-91587462D02*
G01*
X159989524Y-91659000D01*
X160144957Y-91762857D01*
X160277143Y-91895043D01*
X160381000Y-92050476D01*
X160452538Y-92223185D01*
X160489008Y-92406531D01*
X160489008Y-92593469D01*
X160452538Y-92776815D01*
X160381000Y-92949524D01*
X160277143Y-93104957D01*
X160144957Y-93237143D01*
X159989524Y-93341000D01*
X159816815Y-93412538D01*
X159633469Y-93449008D01*
X159446531Y-93449008D01*
X159263185Y-93412538D01*
X159090476Y-93341000D01*
X158935043Y-93237143D01*
X158802857Y-93104957D01*
X158699000Y-92949524D01*
X158627462Y-92776815D01*
X158590992Y-92593469D01*
X158590992Y-92406531D01*
X158627462Y-92223185D01*
X158699000Y-92050476D01*
X158802857Y-91895043D01*
X158935043Y-91762857D01*
X159090476Y-91659000D01*
X159263185Y-91587462D01*
X159446531Y-91550992D01*
X159633469Y-91550992D01*
X159816815Y-91587462D01*
G37*
G36*
X187629815Y-91587462D02*
G01*
X187802524Y-91659000D01*
X187957957Y-91762857D01*
X188090143Y-91895043D01*
X188194000Y-92050476D01*
X188265538Y-92223185D01*
X188302008Y-92406531D01*
X188302008Y-92593469D01*
X188265538Y-92776815D01*
X188194000Y-92949524D01*
X188090143Y-93104957D01*
X187957957Y-93237143D01*
X187802524Y-93341000D01*
X187629815Y-93412538D01*
X187446469Y-93449008D01*
X187259531Y-93449008D01*
X187076185Y-93412538D01*
X186903476Y-93341000D01*
X186748043Y-93237143D01*
X186615857Y-93104957D01*
X186512000Y-92949524D01*
X186440462Y-92776815D01*
X186403992Y-92593469D01*
X186403992Y-92406531D01*
X186440462Y-92223185D01*
X186512000Y-92050476D01*
X186615857Y-91895043D01*
X186748043Y-91762857D01*
X186903476Y-91659000D01*
X187076185Y-91587462D01*
X187259531Y-91550992D01*
X187446469Y-91550992D01*
X187629815Y-91587462D01*
G37*
G36*
X190169815Y-91587462D02*
G01*
X190342524Y-91659000D01*
X190497957Y-91762857D01*
X190630143Y-91895043D01*
X190734000Y-92050476D01*
X190805538Y-92223185D01*
X190842008Y-92406531D01*
X190842008Y-92593469D01*
X190805538Y-92776815D01*
X190734000Y-92949524D01*
X190630143Y-93104957D01*
X190497957Y-93237143D01*
X190342524Y-93341000D01*
X190169815Y-93412538D01*
X189986469Y-93449008D01*
X189799531Y-93449008D01*
X189616185Y-93412538D01*
X189443476Y-93341000D01*
X189288043Y-93237143D01*
X189155857Y-93104957D01*
X189052000Y-92949524D01*
X188980462Y-92776815D01*
X188943992Y-92593469D01*
X188943992Y-92406531D01*
X188980462Y-92223185D01*
X189052000Y-92050476D01*
X189155857Y-91895043D01*
X189288043Y-91762857D01*
X189443476Y-91659000D01*
X189616185Y-91587462D01*
X189799531Y-91550992D01*
X189986469Y-91550992D01*
X190169815Y-91587462D01*
G37*
G36*
X139062998Y-90934085D02*
G01*
X139073267Y-90938873D01*
X139079817Y-90939911D01*
X139126469Y-90963682D01*
X139170016Y-90983988D01*
X139173854Y-90987826D01*
X139174370Y-90988089D01*
X139249410Y-91063129D01*
X139249672Y-91063644D01*
X139253512Y-91067484D01*
X139273823Y-91111041D01*
X139297588Y-91157682D01*
X139298625Y-91164229D01*
X139303415Y-91174502D01*
X139315000Y-91262500D01*
X139315000Y-91937500D01*
X139303415Y-92025498D01*
X139298624Y-92035770D01*
X139297588Y-92042317D01*
X139273828Y-92088946D01*
X139253512Y-92132516D01*
X139249671Y-92136356D01*
X139249410Y-92136870D01*
X139174370Y-92211910D01*
X139173856Y-92212171D01*
X139170016Y-92216012D01*
X139126446Y-92236328D01*
X139079817Y-92260088D01*
X139073270Y-92261124D01*
X139062998Y-92265915D01*
X138975000Y-92277500D01*
X138025000Y-92277500D01*
X137937002Y-92265915D01*
X137926729Y-92261125D01*
X137920182Y-92260088D01*
X137873541Y-92236323D01*
X137829984Y-92216012D01*
X137826144Y-92212172D01*
X137825629Y-92211910D01*
X137750589Y-92136870D01*
X137750326Y-92136354D01*
X137746488Y-92132516D01*
X137726182Y-92088969D01*
X137702411Y-92042317D01*
X137701373Y-92035767D01*
X137696585Y-92025498D01*
X137685000Y-91937500D01*
X137685000Y-91262500D01*
X137696585Y-91174502D01*
X137701373Y-91164233D01*
X137702411Y-91157682D01*
X137726187Y-91111018D01*
X137746488Y-91067484D01*
X137750325Y-91063646D01*
X137750589Y-91063129D01*
X137825629Y-90988089D01*
X137826146Y-90987825D01*
X137829984Y-90983988D01*
X137873518Y-90963687D01*
X137920182Y-90939911D01*
X137926733Y-90938873D01*
X137937002Y-90934085D01*
X138025000Y-90922500D01*
X138975000Y-90922500D01*
X139062998Y-90934085D01*
G37*
G36*
X121772868Y-90180476D02*
G01*
X121943113Y-90250994D01*
X122096330Y-90353370D01*
X122226630Y-90483670D01*
X122329006Y-90636887D01*
X122399524Y-90807132D01*
X122435474Y-90987864D01*
X122435474Y-91172136D01*
X122399524Y-91352868D01*
X122329006Y-91523113D01*
X122226630Y-91676330D01*
X122096330Y-91806630D01*
X121943113Y-91909006D01*
X121772868Y-91979524D01*
X121592136Y-92015474D01*
X121407864Y-92015474D01*
X121227132Y-91979524D01*
X121056887Y-91909006D01*
X120903670Y-91806630D01*
X120773370Y-91676330D01*
X120670994Y-91523113D01*
X120600476Y-91352868D01*
X120564526Y-91172136D01*
X120564526Y-90987864D01*
X120600476Y-90807132D01*
X120670994Y-90636887D01*
X120773370Y-90483670D01*
X120903670Y-90353370D01*
X121056887Y-90250994D01*
X121227132Y-90180476D01*
X121407864Y-90144526D01*
X121592136Y-90144526D01*
X121772868Y-90180476D01*
G37*
G36*
X128485210Y-89852617D02*
G01*
X128495479Y-89857405D01*
X128502029Y-89858443D01*
X128548681Y-89882214D01*
X128592228Y-89902520D01*
X128596066Y-89906358D01*
X128596582Y-89906621D01*
X128671622Y-89981661D01*
X128671884Y-89982176D01*
X128675724Y-89986016D01*
X128696035Y-90029573D01*
X128719800Y-90076214D01*
X128720837Y-90082761D01*
X128725627Y-90093034D01*
X128737212Y-90181032D01*
X128737212Y-90856032D01*
X128725627Y-90944030D01*
X128720836Y-90954302D01*
X128719800Y-90960849D01*
X128696040Y-91007478D01*
X128675724Y-91051048D01*
X128671883Y-91054888D01*
X128671622Y-91055402D01*
X128596582Y-91130442D01*
X128596068Y-91130703D01*
X128592228Y-91134544D01*
X128548658Y-91154860D01*
X128502029Y-91178620D01*
X128495482Y-91179656D01*
X128485210Y-91184447D01*
X128397212Y-91196032D01*
X127447212Y-91196032D01*
X127359214Y-91184447D01*
X127348941Y-91179657D01*
X127342394Y-91178620D01*
X127295753Y-91154855D01*
X127252196Y-91134544D01*
X127248356Y-91130704D01*
X127247841Y-91130442D01*
X127172801Y-91055402D01*
X127172538Y-91054886D01*
X127168700Y-91051048D01*
X127148394Y-91007501D01*
X127124623Y-90960849D01*
X127123585Y-90954299D01*
X127118797Y-90944030D01*
X127107212Y-90856032D01*
X127107212Y-90181032D01*
X127118797Y-90093034D01*
X127123585Y-90082765D01*
X127124623Y-90076214D01*
X127148399Y-90029550D01*
X127168700Y-89986016D01*
X127172537Y-89982178D01*
X127172801Y-89981661D01*
X127247841Y-89906621D01*
X127248358Y-89906357D01*
X127252196Y-89902520D01*
X127295730Y-89882219D01*
X127342394Y-89858443D01*
X127348945Y-89857405D01*
X127359214Y-89852617D01*
X127447212Y-89841032D01*
X128397212Y-89841032D01*
X128485210Y-89852617D01*
G37*
G36*
X157276815Y-89047462D02*
G01*
X157449524Y-89119000D01*
X157604957Y-89222857D01*
X157737143Y-89355043D01*
X157841000Y-89510476D01*
X157912538Y-89683185D01*
X157949008Y-89866531D01*
X157949008Y-90053469D01*
X157912538Y-90236815D01*
X157841000Y-90409524D01*
X157737143Y-90564957D01*
X157604957Y-90697143D01*
X157449524Y-90801000D01*
X157276815Y-90872538D01*
X157093469Y-90909008D01*
X156906531Y-90909008D01*
X156723185Y-90872538D01*
X156550476Y-90801000D01*
X156395043Y-90697143D01*
X156262857Y-90564957D01*
X156159000Y-90409524D01*
X156087462Y-90236815D01*
X156050992Y-90053469D01*
X156050992Y-89866531D01*
X156087462Y-89683185D01*
X156159000Y-89510476D01*
X156262857Y-89355043D01*
X156395043Y-89222857D01*
X156550476Y-89119000D01*
X156723185Y-89047462D01*
X156906531Y-89010992D01*
X157093469Y-89010992D01*
X157276815Y-89047462D01*
G37*
G36*
X159816815Y-89047462D02*
G01*
X159989524Y-89119000D01*
X160144957Y-89222857D01*
X160277143Y-89355043D01*
X160381000Y-89510476D01*
X160452538Y-89683185D01*
X160489008Y-89866531D01*
X160489008Y-90053469D01*
X160452538Y-90236815D01*
X160381000Y-90409524D01*
X160277143Y-90564957D01*
X160144957Y-90697143D01*
X159989524Y-90801000D01*
X159816815Y-90872538D01*
X159633469Y-90909008D01*
X159446531Y-90909008D01*
X159263185Y-90872538D01*
X159090476Y-90801000D01*
X158935043Y-90697143D01*
X158802857Y-90564957D01*
X158699000Y-90409524D01*
X158627462Y-90236815D01*
X158590992Y-90053469D01*
X158590992Y-89866531D01*
X158627462Y-89683185D01*
X158699000Y-89510476D01*
X158802857Y-89355043D01*
X158935043Y-89222857D01*
X159090476Y-89119000D01*
X159263185Y-89047462D01*
X159446531Y-89010992D01*
X159633469Y-89010992D01*
X159816815Y-89047462D01*
G37*
G36*
X187629815Y-89047462D02*
G01*
X187802524Y-89119000D01*
X187957957Y-89222857D01*
X188090143Y-89355043D01*
X188194000Y-89510476D01*
X188265538Y-89683185D01*
X188302008Y-89866531D01*
X188302008Y-90053469D01*
X188265538Y-90236815D01*
X188194000Y-90409524D01*
X188090143Y-90564957D01*
X187957957Y-90697143D01*
X187802524Y-90801000D01*
X187629815Y-90872538D01*
X187446469Y-90909008D01*
X187259531Y-90909008D01*
X187076185Y-90872538D01*
X186903476Y-90801000D01*
X186748043Y-90697143D01*
X186615857Y-90564957D01*
X186512000Y-90409524D01*
X186440462Y-90236815D01*
X186403992Y-90053469D01*
X186403992Y-89866531D01*
X186440462Y-89683185D01*
X186512000Y-89510476D01*
X186615857Y-89355043D01*
X186748043Y-89222857D01*
X186903476Y-89119000D01*
X187076185Y-89047462D01*
X187259531Y-89010992D01*
X187446469Y-89010992D01*
X187629815Y-89047462D01*
G37*
G36*
X190169815Y-89047462D02*
G01*
X190342524Y-89119000D01*
X190497957Y-89222857D01*
X190630143Y-89355043D01*
X190734000Y-89510476D01*
X190805538Y-89683185D01*
X190842008Y-89866531D01*
X190842008Y-90053469D01*
X190805538Y-90236815D01*
X190734000Y-90409524D01*
X190630143Y-90564957D01*
X190497957Y-90697143D01*
X190342524Y-90801000D01*
X190169815Y-90872538D01*
X189986469Y-90909008D01*
X189799531Y-90909008D01*
X189616185Y-90872538D01*
X189443476Y-90801000D01*
X189288043Y-90697143D01*
X189155857Y-90564957D01*
X189052000Y-90409524D01*
X188980462Y-90236815D01*
X188943992Y-90053469D01*
X188943992Y-89866531D01*
X188980462Y-89683185D01*
X189052000Y-89510476D01*
X189155857Y-89355043D01*
X189288043Y-89222857D01*
X189443476Y-89119000D01*
X189616185Y-89047462D01*
X189799531Y-89010992D01*
X189986469Y-89010992D01*
X190169815Y-89047462D01*
G37*
G36*
X146822263Y-89396159D02*
G01*
X146832251Y-89400816D01*
X146838454Y-89401799D01*
X146882645Y-89424316D01*
X146925346Y-89444228D01*
X146929109Y-89447991D01*
X146929523Y-89448202D01*
X147001797Y-89520476D01*
X147002007Y-89520889D01*
X147005772Y-89524654D01*
X147025689Y-89567366D01*
X147048200Y-89611545D01*
X147049182Y-89617746D01*
X147053841Y-89627737D01*
X147065000Y-89712500D01*
X147065000Y-90212500D01*
X147053841Y-90297263D01*
X147049181Y-90307254D01*
X147048200Y-90313454D01*
X147025694Y-90357622D01*
X147005772Y-90400346D01*
X147002006Y-90404111D01*
X147001797Y-90404523D01*
X146929523Y-90476797D01*
X146929111Y-90477006D01*
X146925346Y-90480772D01*
X146882622Y-90500694D01*
X146838454Y-90523200D01*
X146832254Y-90524181D01*
X146822263Y-90528841D01*
X146737500Y-90540000D01*
X146262500Y-90540000D01*
X146177737Y-90528841D01*
X146167746Y-90524182D01*
X146161545Y-90523200D01*
X146117366Y-90500689D01*
X146074654Y-90480772D01*
X146070889Y-90477007D01*
X146070476Y-90476797D01*
X145998202Y-90404523D01*
X145997991Y-90404109D01*
X145994228Y-90400346D01*
X145974316Y-90357645D01*
X145951799Y-90313454D01*
X145950816Y-90307251D01*
X145946159Y-90297263D01*
X145935000Y-90212500D01*
X145935000Y-89712500D01*
X145946159Y-89627737D01*
X145950816Y-89617749D01*
X145951799Y-89611545D01*
X145974321Y-89567343D01*
X145994228Y-89524654D01*
X145997990Y-89520891D01*
X145998202Y-89520476D01*
X146070476Y-89448202D01*
X146070891Y-89447990D01*
X146074654Y-89444228D01*
X146117343Y-89424321D01*
X146161545Y-89401799D01*
X146167749Y-89400816D01*
X146177737Y-89396159D01*
X146262500Y-89385000D01*
X146737500Y-89385000D01*
X146822263Y-89396159D01*
G37*
G36*
X139062998Y-88859085D02*
G01*
X139073267Y-88863873D01*
X139079817Y-88864911D01*
X139126469Y-88888682D01*
X139170016Y-88908988D01*
X139173854Y-88912826D01*
X139174370Y-88913089D01*
X139249410Y-88988129D01*
X139249672Y-88988644D01*
X139253512Y-88992484D01*
X139273823Y-89036041D01*
X139297588Y-89082682D01*
X139298625Y-89089229D01*
X139303415Y-89099502D01*
X139315000Y-89187500D01*
X139315000Y-89862500D01*
X139303415Y-89950498D01*
X139298624Y-89960770D01*
X139297588Y-89967317D01*
X139273828Y-90013946D01*
X139253512Y-90057516D01*
X139249671Y-90061356D01*
X139249410Y-90061870D01*
X139174370Y-90136910D01*
X139173856Y-90137171D01*
X139170016Y-90141012D01*
X139126446Y-90161328D01*
X139079817Y-90185088D01*
X139073270Y-90186124D01*
X139062998Y-90190915D01*
X138975000Y-90202500D01*
X138025000Y-90202500D01*
X137937002Y-90190915D01*
X137926729Y-90186125D01*
X137920182Y-90185088D01*
X137873541Y-90161323D01*
X137829984Y-90141012D01*
X137826144Y-90137172D01*
X137825629Y-90136910D01*
X137750589Y-90061870D01*
X137750326Y-90061354D01*
X137746488Y-90057516D01*
X137726182Y-90013969D01*
X137702411Y-89967317D01*
X137701373Y-89960767D01*
X137696585Y-89950498D01*
X137685000Y-89862500D01*
X137685000Y-89187500D01*
X137696585Y-89099502D01*
X137701373Y-89089233D01*
X137702411Y-89082682D01*
X137726187Y-89036018D01*
X137746488Y-88992484D01*
X137750325Y-88988646D01*
X137750589Y-88988129D01*
X137825629Y-88913089D01*
X137826146Y-88912825D01*
X137829984Y-88908988D01*
X137873518Y-88888687D01*
X137920182Y-88864911D01*
X137926733Y-88863873D01*
X137937002Y-88859085D01*
X138025000Y-88847500D01*
X138975000Y-88847500D01*
X139062998Y-88859085D01*
G37*
G36*
X121772868Y-87640476D02*
G01*
X121943113Y-87710994D01*
X122096330Y-87813370D01*
X122226630Y-87943670D01*
X122329006Y-88096887D01*
X122399524Y-88267132D01*
X122435474Y-88447864D01*
X122435474Y-88632136D01*
X122399524Y-88812868D01*
X122329006Y-88983113D01*
X122226630Y-89136330D01*
X122096330Y-89266630D01*
X121943113Y-89369006D01*
X121772868Y-89439524D01*
X121592136Y-89475474D01*
X121407864Y-89475474D01*
X121227132Y-89439524D01*
X121056887Y-89369006D01*
X120903670Y-89266630D01*
X120773370Y-89136330D01*
X120670994Y-88983113D01*
X120600476Y-88812868D01*
X120564526Y-88632136D01*
X120564526Y-88447864D01*
X120600476Y-88267132D01*
X120670994Y-88096887D01*
X120773370Y-87943670D01*
X120903670Y-87813370D01*
X121056887Y-87710994D01*
X121227132Y-87640476D01*
X121407864Y-87604526D01*
X121592136Y-87604526D01*
X121772868Y-87640476D01*
G37*
G36*
X128485210Y-87777617D02*
G01*
X128495479Y-87782405D01*
X128502029Y-87783443D01*
X128548681Y-87807214D01*
X128592228Y-87827520D01*
X128596066Y-87831358D01*
X128596582Y-87831621D01*
X128671622Y-87906661D01*
X128671884Y-87907176D01*
X128675724Y-87911016D01*
X128696035Y-87954573D01*
X128719800Y-88001214D01*
X128720837Y-88007761D01*
X128725627Y-88018034D01*
X128737212Y-88106032D01*
X128737212Y-88781032D01*
X128725627Y-88869030D01*
X128720836Y-88879302D01*
X128719800Y-88885849D01*
X128696040Y-88932478D01*
X128675724Y-88976048D01*
X128671883Y-88979888D01*
X128671622Y-88980402D01*
X128596582Y-89055442D01*
X128596068Y-89055703D01*
X128592228Y-89059544D01*
X128548658Y-89079860D01*
X128502029Y-89103620D01*
X128495482Y-89104656D01*
X128485210Y-89109447D01*
X128397212Y-89121032D01*
X127447212Y-89121032D01*
X127359214Y-89109447D01*
X127348941Y-89104657D01*
X127342394Y-89103620D01*
X127295753Y-89079855D01*
X127252196Y-89059544D01*
X127248356Y-89055704D01*
X127247841Y-89055442D01*
X127172801Y-88980402D01*
X127172538Y-88979886D01*
X127168700Y-88976048D01*
X127148394Y-88932501D01*
X127124623Y-88885849D01*
X127123585Y-88879299D01*
X127118797Y-88869030D01*
X127107212Y-88781032D01*
X127107212Y-88106032D01*
X127118797Y-88018034D01*
X127123585Y-88007765D01*
X127124623Y-88001214D01*
X127148399Y-87954550D01*
X127168700Y-87911016D01*
X127172537Y-87907178D01*
X127172801Y-87906661D01*
X127247841Y-87831621D01*
X127248358Y-87831357D01*
X127252196Y-87827520D01*
X127295730Y-87807219D01*
X127342394Y-87783443D01*
X127348945Y-87782405D01*
X127359214Y-87777617D01*
X127447212Y-87766032D01*
X128397212Y-87766032D01*
X128485210Y-87777617D01*
G37*
G36*
X146822263Y-87571159D02*
G01*
X146832251Y-87575816D01*
X146838454Y-87576799D01*
X146882645Y-87599316D01*
X146925346Y-87619228D01*
X146929109Y-87622991D01*
X146929523Y-87623202D01*
X147001797Y-87695476D01*
X147002007Y-87695889D01*
X147005772Y-87699654D01*
X147025689Y-87742366D01*
X147048200Y-87786545D01*
X147049182Y-87792746D01*
X147053841Y-87802737D01*
X147065000Y-87887500D01*
X147065000Y-88387500D01*
X147053841Y-88472263D01*
X147049181Y-88482254D01*
X147048200Y-88488454D01*
X147025694Y-88532622D01*
X147005772Y-88575346D01*
X147002006Y-88579111D01*
X147001797Y-88579523D01*
X146929523Y-88651797D01*
X146929111Y-88652006D01*
X146925346Y-88655772D01*
X146882622Y-88675694D01*
X146838454Y-88698200D01*
X146832254Y-88699181D01*
X146822263Y-88703841D01*
X146737500Y-88715000D01*
X146262500Y-88715000D01*
X146177737Y-88703841D01*
X146167746Y-88699182D01*
X146161545Y-88698200D01*
X146117366Y-88675689D01*
X146074654Y-88655772D01*
X146070889Y-88652007D01*
X146070476Y-88651797D01*
X145998202Y-88579523D01*
X145997991Y-88579109D01*
X145994228Y-88575346D01*
X145974316Y-88532645D01*
X145951799Y-88488454D01*
X145950816Y-88482251D01*
X145946159Y-88472263D01*
X145935000Y-88387500D01*
X145935000Y-87887500D01*
X145946159Y-87802737D01*
X145950816Y-87792749D01*
X145951799Y-87786545D01*
X145974321Y-87742343D01*
X145994228Y-87699654D01*
X145997990Y-87695891D01*
X145998202Y-87695476D01*
X146070476Y-87623202D01*
X146070891Y-87622990D01*
X146074654Y-87619228D01*
X146117343Y-87599321D01*
X146161545Y-87576799D01*
X146167749Y-87575816D01*
X146177737Y-87571159D01*
X146262500Y-87560000D01*
X146737500Y-87560000D01*
X146822263Y-87571159D01*
G37*
G36*
X187629815Y-86507462D02*
G01*
X187802524Y-86579000D01*
X187957957Y-86682857D01*
X188090143Y-86815043D01*
X188194000Y-86970476D01*
X188265538Y-87143185D01*
X188302008Y-87326531D01*
X188302008Y-87513469D01*
X188265538Y-87696815D01*
X188194000Y-87869524D01*
X188090143Y-88024957D01*
X187957957Y-88157143D01*
X187802524Y-88261000D01*
X187629815Y-88332538D01*
X187446469Y-88369008D01*
X187259531Y-88369008D01*
X187076185Y-88332538D01*
X186903476Y-88261000D01*
X186748043Y-88157143D01*
X186615857Y-88024957D01*
X186512000Y-87869524D01*
X186440462Y-87696815D01*
X186403992Y-87513469D01*
X186403992Y-87326531D01*
X186440462Y-87143185D01*
X186512000Y-86970476D01*
X186615857Y-86815043D01*
X186748043Y-86682857D01*
X186903476Y-86579000D01*
X187076185Y-86507462D01*
X187259531Y-86470992D01*
X187446469Y-86470992D01*
X187629815Y-86507462D01*
G37*
G36*
X190169815Y-86507462D02*
G01*
X190342524Y-86579000D01*
X190497957Y-86682857D01*
X190630143Y-86815043D01*
X190734000Y-86970476D01*
X190805538Y-87143185D01*
X190842008Y-87326531D01*
X190842008Y-87513469D01*
X190805538Y-87696815D01*
X190734000Y-87869524D01*
X190630143Y-88024957D01*
X190497957Y-88157143D01*
X190342524Y-88261000D01*
X190169815Y-88332538D01*
X189986469Y-88369008D01*
X189799531Y-88369008D01*
X189616185Y-88332538D01*
X189443476Y-88261000D01*
X189288043Y-88157143D01*
X189155857Y-88024957D01*
X189052000Y-87869524D01*
X188980462Y-87696815D01*
X188943992Y-87513469D01*
X188943992Y-87326531D01*
X188980462Y-87143185D01*
X189052000Y-86970476D01*
X189155857Y-86815043D01*
X189288043Y-86682857D01*
X189443476Y-86579000D01*
X189616185Y-86507462D01*
X189799531Y-86470992D01*
X189986469Y-86470992D01*
X190169815Y-86507462D01*
G37*
G36*
X122384442Y-85066851D02*
G01*
X122413640Y-85086360D01*
X122433149Y-85115558D01*
X122440000Y-85150000D01*
X122440000Y-86850000D01*
X122433149Y-86884442D01*
X122413640Y-86913640D01*
X122384442Y-86933149D01*
X122350000Y-86940000D01*
X120650000Y-86940000D01*
X120615558Y-86933149D01*
X120586360Y-86913640D01*
X120566851Y-86884442D01*
X120560000Y-86850000D01*
X120560000Y-85150000D01*
X120566851Y-85115558D01*
X120586360Y-85086360D01*
X120615558Y-85066851D01*
X120650000Y-85060000D01*
X122350000Y-85060000D01*
X122384442Y-85066851D01*
G37*
G36*
X159742703Y-83222473D02*
G01*
X159956233Y-83279688D01*
X160160468Y-83364285D01*
X160351914Y-83474816D01*
X160527294Y-83609391D01*
X160683609Y-83765706D01*
X160818184Y-83941086D01*
X160928715Y-84132532D01*
X161013312Y-84336767D01*
X161070527Y-84550297D01*
X161099382Y-84769469D01*
X161099382Y-84990531D01*
X161070527Y-85209703D01*
X161013312Y-85423233D01*
X160928715Y-85627468D01*
X160818184Y-85818914D01*
X160683609Y-85994294D01*
X160527294Y-86150609D01*
X160351914Y-86285184D01*
X160160468Y-86395715D01*
X159956233Y-86480312D01*
X159742703Y-86537527D01*
X159523531Y-86566382D01*
X159302469Y-86566382D01*
X159083297Y-86537527D01*
X158869767Y-86480312D01*
X158665532Y-86395715D01*
X158474086Y-86285184D01*
X158298706Y-86150609D01*
X158142391Y-85994294D01*
X158007816Y-85818914D01*
X157897285Y-85627468D01*
X157812688Y-85423233D01*
X157755473Y-85209703D01*
X157726618Y-84990531D01*
X157726618Y-84769469D01*
X157755473Y-84550297D01*
X157812688Y-84336767D01*
X157897285Y-84132532D01*
X158007816Y-83941086D01*
X158142391Y-83765706D01*
X158298706Y-83609391D01*
X158474086Y-83474816D01*
X158665532Y-83364285D01*
X158869767Y-83279688D01*
X159083297Y-83222473D01*
X159302469Y-83193618D01*
X159523531Y-83193618D01*
X159742703Y-83222473D01*
G37*
G36*
X187629815Y-83967462D02*
G01*
X187802524Y-84039000D01*
X187957957Y-84142857D01*
X188090143Y-84275043D01*
X188194000Y-84430476D01*
X188265538Y-84603185D01*
X188302008Y-84786531D01*
X188302008Y-84973469D01*
X188265538Y-85156815D01*
X188194000Y-85329524D01*
X188090143Y-85484957D01*
X187957957Y-85617143D01*
X187802524Y-85721000D01*
X187629815Y-85792538D01*
X187446469Y-85829008D01*
X187259531Y-85829008D01*
X187076185Y-85792538D01*
X186903476Y-85721000D01*
X186748043Y-85617143D01*
X186615857Y-85484957D01*
X186512000Y-85329524D01*
X186440462Y-85156815D01*
X186403992Y-84973469D01*
X186403992Y-84786531D01*
X186440462Y-84603185D01*
X186512000Y-84430476D01*
X186615857Y-84275043D01*
X186748043Y-84142857D01*
X186903476Y-84039000D01*
X187076185Y-83967462D01*
X187259531Y-83930992D01*
X187446469Y-83930992D01*
X187629815Y-83967462D01*
G37*
G36*
X190169815Y-83967462D02*
G01*
X190342524Y-84039000D01*
X190497957Y-84142857D01*
X190630143Y-84275043D01*
X190734000Y-84430476D01*
X190805538Y-84603185D01*
X190842008Y-84786531D01*
X190842008Y-84973469D01*
X190805538Y-85156815D01*
X190734000Y-85329524D01*
X190630143Y-85484957D01*
X190497957Y-85617143D01*
X190342524Y-85721000D01*
X190169815Y-85792538D01*
X189986469Y-85829008D01*
X189799531Y-85829008D01*
X189616185Y-85792538D01*
X189443476Y-85721000D01*
X189288043Y-85617143D01*
X189155857Y-85484957D01*
X189052000Y-85329524D01*
X188980462Y-85156815D01*
X188943992Y-84973469D01*
X188943992Y-84786531D01*
X188980462Y-84603185D01*
X189052000Y-84430476D01*
X189155857Y-84275043D01*
X189288043Y-84142857D01*
X189443476Y-84039000D01*
X189616185Y-83967462D01*
X189799531Y-83930992D01*
X189986469Y-83930992D01*
X190169815Y-83967462D01*
G37*
G36*
X187629815Y-81427462D02*
G01*
X187802524Y-81499000D01*
X187957957Y-81602857D01*
X188090143Y-81735043D01*
X188194000Y-81890476D01*
X188265538Y-82063185D01*
X188302008Y-82246531D01*
X188302008Y-82433469D01*
X188265538Y-82616815D01*
X188194000Y-82789524D01*
X188090143Y-82944957D01*
X187957957Y-83077143D01*
X187802524Y-83181000D01*
X187629815Y-83252538D01*
X187446469Y-83289008D01*
X187259531Y-83289008D01*
X187076185Y-83252538D01*
X186903476Y-83181000D01*
X186748043Y-83077143D01*
X186615857Y-82944957D01*
X186512000Y-82789524D01*
X186440462Y-82616815D01*
X186403992Y-82433469D01*
X186403992Y-82246531D01*
X186440462Y-82063185D01*
X186512000Y-81890476D01*
X186615857Y-81735043D01*
X186748043Y-81602857D01*
X186903476Y-81499000D01*
X187076185Y-81427462D01*
X187259531Y-81390992D01*
X187446469Y-81390992D01*
X187629815Y-81427462D01*
G37*
G36*
X190169815Y-81427462D02*
G01*
X190342524Y-81499000D01*
X190497957Y-81602857D01*
X190630143Y-81735043D01*
X190734000Y-81890476D01*
X190805538Y-82063185D01*
X190842008Y-82246531D01*
X190842008Y-82433469D01*
X190805538Y-82616815D01*
X190734000Y-82789524D01*
X190630143Y-82944957D01*
X190497957Y-83077143D01*
X190342524Y-83181000D01*
X190169815Y-83252538D01*
X189986469Y-83289008D01*
X189799531Y-83289008D01*
X189616185Y-83252538D01*
X189443476Y-83181000D01*
X189288043Y-83077143D01*
X189155857Y-82944957D01*
X189052000Y-82789524D01*
X188980462Y-82616815D01*
X188943992Y-82433469D01*
X188943992Y-82246531D01*
X188980462Y-82063185D01*
X189052000Y-81890476D01*
X189155857Y-81735043D01*
X189288043Y-81602857D01*
X189443476Y-81499000D01*
X189616185Y-81427462D01*
X189799531Y-81390992D01*
X189986469Y-81390992D01*
X190169815Y-81427462D01*
G37*
G36*
X145655257Y-81511045D02*
G01*
X145702572Y-81516534D01*
X145718740Y-81523673D01*
X145741844Y-81528269D01*
X145766581Y-81544798D01*
X145784996Y-81552929D01*
X145797571Y-81565504D01*
X145819706Y-81580294D01*
X145834495Y-81602428D01*
X145847070Y-81615003D01*
X145855200Y-81633415D01*
X145871731Y-81658156D01*
X145876326Y-81681261D01*
X145883465Y-81697427D01*
X145888952Y-81744732D01*
X145890000Y-81750000D01*
X145890000Y-82925000D01*
X145888951Y-82930269D01*
X145883465Y-82977572D01*
X145876327Y-82993736D01*
X145871731Y-83016844D01*
X145855198Y-83041586D01*
X145847070Y-83059996D01*
X145834497Y-83072568D01*
X145819706Y-83094706D01*
X145797568Y-83109497D01*
X145784996Y-83122070D01*
X145766586Y-83130198D01*
X145741844Y-83146731D01*
X145718736Y-83151327D01*
X145702572Y-83158465D01*
X145655269Y-83163951D01*
X145650000Y-83165000D01*
X145350000Y-83165000D01*
X145344732Y-83163952D01*
X145297427Y-83158465D01*
X145281261Y-83151326D01*
X145258156Y-83146731D01*
X145233415Y-83130200D01*
X145215003Y-83122070D01*
X145202428Y-83109495D01*
X145180294Y-83094706D01*
X145165504Y-83072571D01*
X145152929Y-83059996D01*
X145144798Y-83041581D01*
X145128269Y-83016844D01*
X145123673Y-82993740D01*
X145116534Y-82977572D01*
X145111045Y-82930257D01*
X145110000Y-82925000D01*
X145110000Y-81750000D01*
X145111045Y-81744744D01*
X145116534Y-81697427D01*
X145123673Y-81681257D01*
X145128269Y-81658156D01*
X145144796Y-81633420D01*
X145152929Y-81615003D01*
X145165506Y-81602425D01*
X145180294Y-81580294D01*
X145202425Y-81565506D01*
X145215003Y-81552929D01*
X145233420Y-81544796D01*
X145258156Y-81528269D01*
X145281257Y-81523673D01*
X145297427Y-81516534D01*
X145344744Y-81511045D01*
X145350000Y-81510000D01*
X145650000Y-81510000D01*
X145655257Y-81511045D01*
G37*
G36*
X152155257Y-81511045D02*
G01*
X152202572Y-81516534D01*
X152218740Y-81523673D01*
X152241844Y-81528269D01*
X152266581Y-81544798D01*
X152284996Y-81552929D01*
X152297571Y-81565504D01*
X152319706Y-81580294D01*
X152334495Y-81602428D01*
X152347070Y-81615003D01*
X152355200Y-81633415D01*
X152371731Y-81658156D01*
X152376326Y-81681261D01*
X152383465Y-81697427D01*
X152388952Y-81744732D01*
X152390000Y-81750000D01*
X152390000Y-82925000D01*
X152388951Y-82930269D01*
X152383465Y-82977572D01*
X152376327Y-82993736D01*
X152371731Y-83016844D01*
X152355198Y-83041586D01*
X152347070Y-83059996D01*
X152334497Y-83072568D01*
X152319706Y-83094706D01*
X152297568Y-83109497D01*
X152284996Y-83122070D01*
X152266586Y-83130198D01*
X152241844Y-83146731D01*
X152218736Y-83151327D01*
X152202572Y-83158465D01*
X152155269Y-83163951D01*
X152150000Y-83165000D01*
X151850000Y-83165000D01*
X151844732Y-83163952D01*
X151797427Y-83158465D01*
X151781261Y-83151326D01*
X151758156Y-83146731D01*
X151733415Y-83130200D01*
X151715003Y-83122070D01*
X151702428Y-83109495D01*
X151680294Y-83094706D01*
X151665504Y-83072571D01*
X151652929Y-83059996D01*
X151644798Y-83041581D01*
X151628269Y-83016844D01*
X151623673Y-82993740D01*
X151616534Y-82977572D01*
X151611045Y-82930257D01*
X151610000Y-82925000D01*
X151610000Y-81750000D01*
X151611045Y-81744744D01*
X151616534Y-81697427D01*
X151623673Y-81681257D01*
X151628269Y-81658156D01*
X151644796Y-81633420D01*
X151652929Y-81615003D01*
X151665506Y-81602425D01*
X151680294Y-81580294D01*
X151702425Y-81565506D01*
X151715003Y-81552929D01*
X151733420Y-81544796D01*
X151758156Y-81528269D01*
X151781257Y-81523673D01*
X151797427Y-81516534D01*
X151844744Y-81511045D01*
X151850000Y-81510000D01*
X152150000Y-81510000D01*
X152155257Y-81511045D01*
G37*
G36*
X138205257Y-81448545D02*
G01*
X138252572Y-81454034D01*
X138268740Y-81461173D01*
X138291844Y-81465769D01*
X138316581Y-81482298D01*
X138334996Y-81490429D01*
X138347571Y-81503004D01*
X138369706Y-81517794D01*
X138384495Y-81539928D01*
X138397070Y-81552503D01*
X138405200Y-81570915D01*
X138421731Y-81595656D01*
X138426326Y-81618761D01*
X138433465Y-81634927D01*
X138438952Y-81682232D01*
X138440000Y-81687500D01*
X138440000Y-82862500D01*
X138438951Y-82867769D01*
X138433465Y-82915072D01*
X138426327Y-82931236D01*
X138421731Y-82954344D01*
X138405198Y-82979086D01*
X138397070Y-82997496D01*
X138384497Y-83010068D01*
X138369706Y-83032206D01*
X138347568Y-83046997D01*
X138334996Y-83059570D01*
X138316586Y-83067698D01*
X138291844Y-83084231D01*
X138268736Y-83088827D01*
X138252572Y-83095965D01*
X138205269Y-83101451D01*
X138200000Y-83102500D01*
X137900000Y-83102500D01*
X137894732Y-83101452D01*
X137847427Y-83095965D01*
X137831261Y-83088826D01*
X137808156Y-83084231D01*
X137783415Y-83067700D01*
X137765003Y-83059570D01*
X137752428Y-83046995D01*
X137730294Y-83032206D01*
X137715504Y-83010071D01*
X137702929Y-82997496D01*
X137694798Y-82979081D01*
X137678269Y-82954344D01*
X137673673Y-82931240D01*
X137666534Y-82915072D01*
X137661045Y-82867757D01*
X137660000Y-82862500D01*
X137660000Y-81687500D01*
X137661045Y-81682244D01*
X137666534Y-81634927D01*
X137673673Y-81618757D01*
X137678269Y-81595656D01*
X137694796Y-81570920D01*
X137702929Y-81552503D01*
X137715506Y-81539925D01*
X137730294Y-81517794D01*
X137752425Y-81503006D01*
X137765003Y-81490429D01*
X137783420Y-81482296D01*
X137808156Y-81465769D01*
X137831257Y-81461173D01*
X137847427Y-81454034D01*
X137894744Y-81448545D01*
X137900000Y-81447500D01*
X138200000Y-81447500D01*
X138205257Y-81448545D01*
G37*
G36*
X144705257Y-79636045D02*
G01*
X144752572Y-79641534D01*
X144768740Y-79648673D01*
X144791844Y-79653269D01*
X144816581Y-79669798D01*
X144834996Y-79677929D01*
X144847571Y-79690504D01*
X144869706Y-79705294D01*
X144884495Y-79727428D01*
X144897070Y-79740003D01*
X144905200Y-79758415D01*
X144921731Y-79783156D01*
X144926326Y-79806261D01*
X144933465Y-79822427D01*
X144938952Y-79869732D01*
X144940000Y-79875000D01*
X144940000Y-81050000D01*
X144938951Y-81055269D01*
X144933465Y-81102572D01*
X144926327Y-81118736D01*
X144921731Y-81141844D01*
X144905198Y-81166586D01*
X144897070Y-81184996D01*
X144884497Y-81197568D01*
X144869706Y-81219706D01*
X144847568Y-81234497D01*
X144834996Y-81247070D01*
X144816586Y-81255198D01*
X144791844Y-81271731D01*
X144768736Y-81276327D01*
X144752572Y-81283465D01*
X144705269Y-81288951D01*
X144700000Y-81290000D01*
X144400000Y-81290000D01*
X144394732Y-81288952D01*
X144347427Y-81283465D01*
X144331261Y-81276326D01*
X144308156Y-81271731D01*
X144283415Y-81255200D01*
X144265003Y-81247070D01*
X144252428Y-81234495D01*
X144230294Y-81219706D01*
X144215504Y-81197571D01*
X144202929Y-81184996D01*
X144194798Y-81166581D01*
X144178269Y-81141844D01*
X144173673Y-81118740D01*
X144166534Y-81102572D01*
X144161045Y-81055257D01*
X144160000Y-81050000D01*
X144160000Y-79875000D01*
X144161045Y-79869744D01*
X144166534Y-79822427D01*
X144173673Y-79806257D01*
X144178269Y-79783156D01*
X144194796Y-79758420D01*
X144202929Y-79740003D01*
X144215506Y-79727425D01*
X144230294Y-79705294D01*
X144252425Y-79690506D01*
X144265003Y-79677929D01*
X144283420Y-79669796D01*
X144308156Y-79653269D01*
X144331257Y-79648673D01*
X144347427Y-79641534D01*
X144394744Y-79636045D01*
X144400000Y-79635000D01*
X144700000Y-79635000D01*
X144705257Y-79636045D01*
G37*
G36*
X146605257Y-79636045D02*
G01*
X146652572Y-79641534D01*
X146668740Y-79648673D01*
X146691844Y-79653269D01*
X146716581Y-79669798D01*
X146734996Y-79677929D01*
X146747571Y-79690504D01*
X146769706Y-79705294D01*
X146784495Y-79727428D01*
X146797070Y-79740003D01*
X146805200Y-79758415D01*
X146821731Y-79783156D01*
X146826326Y-79806261D01*
X146833465Y-79822427D01*
X146838952Y-79869732D01*
X146840000Y-79875000D01*
X146840000Y-81050000D01*
X146838951Y-81055269D01*
X146833465Y-81102572D01*
X146826327Y-81118736D01*
X146821731Y-81141844D01*
X146805198Y-81166586D01*
X146797070Y-81184996D01*
X146784497Y-81197568D01*
X146769706Y-81219706D01*
X146747568Y-81234497D01*
X146734996Y-81247070D01*
X146716586Y-81255198D01*
X146691844Y-81271731D01*
X146668736Y-81276327D01*
X146652572Y-81283465D01*
X146605269Y-81288951D01*
X146600000Y-81290000D01*
X146300000Y-81290000D01*
X146294732Y-81288952D01*
X146247427Y-81283465D01*
X146231261Y-81276326D01*
X146208156Y-81271731D01*
X146183415Y-81255200D01*
X146165003Y-81247070D01*
X146152428Y-81234495D01*
X146130294Y-81219706D01*
X146115504Y-81197571D01*
X146102929Y-81184996D01*
X146094798Y-81166581D01*
X146078269Y-81141844D01*
X146073673Y-81118740D01*
X146066534Y-81102572D01*
X146061045Y-81055257D01*
X146060000Y-81050000D01*
X146060000Y-79875000D01*
X146061045Y-79869744D01*
X146066534Y-79822427D01*
X146073673Y-79806257D01*
X146078269Y-79783156D01*
X146094796Y-79758420D01*
X146102929Y-79740003D01*
X146115506Y-79727425D01*
X146130294Y-79705294D01*
X146152425Y-79690506D01*
X146165003Y-79677929D01*
X146183420Y-79669796D01*
X146208156Y-79653269D01*
X146231257Y-79648673D01*
X146247427Y-79641534D01*
X146294744Y-79636045D01*
X146300000Y-79635000D01*
X146600000Y-79635000D01*
X146605257Y-79636045D01*
G37*
G36*
X151205257Y-79636045D02*
G01*
X151252572Y-79641534D01*
X151268740Y-79648673D01*
X151291844Y-79653269D01*
X151316581Y-79669798D01*
X151334996Y-79677929D01*
X151347571Y-79690504D01*
X151369706Y-79705294D01*
X151384495Y-79727428D01*
X151397070Y-79740003D01*
X151405200Y-79758415D01*
X151421731Y-79783156D01*
X151426326Y-79806261D01*
X151433465Y-79822427D01*
X151438952Y-79869732D01*
X151440000Y-79875000D01*
X151440000Y-81050000D01*
X151438951Y-81055269D01*
X151433465Y-81102572D01*
X151426327Y-81118736D01*
X151421731Y-81141844D01*
X151405198Y-81166586D01*
X151397070Y-81184996D01*
X151384497Y-81197568D01*
X151369706Y-81219706D01*
X151347568Y-81234497D01*
X151334996Y-81247070D01*
X151316586Y-81255198D01*
X151291844Y-81271731D01*
X151268736Y-81276327D01*
X151252572Y-81283465D01*
X151205269Y-81288951D01*
X151200000Y-81290000D01*
X150900000Y-81290000D01*
X150894732Y-81288952D01*
X150847427Y-81283465D01*
X150831261Y-81276326D01*
X150808156Y-81271731D01*
X150783415Y-81255200D01*
X150765003Y-81247070D01*
X150752428Y-81234495D01*
X150730294Y-81219706D01*
X150715504Y-81197571D01*
X150702929Y-81184996D01*
X150694798Y-81166581D01*
X150678269Y-81141844D01*
X150673673Y-81118740D01*
X150666534Y-81102572D01*
X150661045Y-81055257D01*
X150660000Y-81050000D01*
X150660000Y-79875000D01*
X150661045Y-79869744D01*
X150666534Y-79822427D01*
X150673673Y-79806257D01*
X150678269Y-79783156D01*
X150694796Y-79758420D01*
X150702929Y-79740003D01*
X150715506Y-79727425D01*
X150730294Y-79705294D01*
X150752425Y-79690506D01*
X150765003Y-79677929D01*
X150783420Y-79669796D01*
X150808156Y-79653269D01*
X150831257Y-79648673D01*
X150847427Y-79641534D01*
X150894744Y-79636045D01*
X150900000Y-79635000D01*
X151200000Y-79635000D01*
X151205257Y-79636045D01*
G37*
G36*
X153105257Y-79636045D02*
G01*
X153152572Y-79641534D01*
X153168740Y-79648673D01*
X153191844Y-79653269D01*
X153216581Y-79669798D01*
X153234996Y-79677929D01*
X153247571Y-79690504D01*
X153269706Y-79705294D01*
X153284495Y-79727428D01*
X153297070Y-79740003D01*
X153305200Y-79758415D01*
X153321731Y-79783156D01*
X153326326Y-79806261D01*
X153333465Y-79822427D01*
X153338952Y-79869732D01*
X153340000Y-79875000D01*
X153340000Y-81050000D01*
X153338951Y-81055269D01*
X153333465Y-81102572D01*
X153326327Y-81118736D01*
X153321731Y-81141844D01*
X153305198Y-81166586D01*
X153297070Y-81184996D01*
X153284497Y-81197568D01*
X153269706Y-81219706D01*
X153247568Y-81234497D01*
X153234996Y-81247070D01*
X153216586Y-81255198D01*
X153191844Y-81271731D01*
X153168736Y-81276327D01*
X153152572Y-81283465D01*
X153105269Y-81288951D01*
X153100000Y-81290000D01*
X152800000Y-81290000D01*
X152794732Y-81288952D01*
X152747427Y-81283465D01*
X152731261Y-81276326D01*
X152708156Y-81271731D01*
X152683415Y-81255200D01*
X152665003Y-81247070D01*
X152652428Y-81234495D01*
X152630294Y-81219706D01*
X152615504Y-81197571D01*
X152602929Y-81184996D01*
X152594798Y-81166581D01*
X152578269Y-81141844D01*
X152573673Y-81118740D01*
X152566534Y-81102572D01*
X152561045Y-81055257D01*
X152560000Y-81050000D01*
X152560000Y-79875000D01*
X152561045Y-79869744D01*
X152566534Y-79822427D01*
X152573673Y-79806257D01*
X152578269Y-79783156D01*
X152594796Y-79758420D01*
X152602929Y-79740003D01*
X152615506Y-79727425D01*
X152630294Y-79705294D01*
X152652425Y-79690506D01*
X152665003Y-79677929D01*
X152683420Y-79669796D01*
X152708156Y-79653269D01*
X152731257Y-79648673D01*
X152747427Y-79641534D01*
X152794744Y-79636045D01*
X152800000Y-79635000D01*
X153100000Y-79635000D01*
X153105257Y-79636045D01*
G37*
G36*
X137255257Y-79573545D02*
G01*
X137302572Y-79579034D01*
X137318740Y-79586173D01*
X137341844Y-79590769D01*
X137366581Y-79607298D01*
X137384996Y-79615429D01*
X137397571Y-79628004D01*
X137419706Y-79642794D01*
X137434495Y-79664928D01*
X137447070Y-79677503D01*
X137455200Y-79695915D01*
X137471731Y-79720656D01*
X137476326Y-79743761D01*
X137483465Y-79759927D01*
X137488952Y-79807232D01*
X137490000Y-79812500D01*
X137490000Y-80987500D01*
X137488951Y-80992769D01*
X137483465Y-81040072D01*
X137476327Y-81056236D01*
X137471731Y-81079344D01*
X137455198Y-81104086D01*
X137447070Y-81122496D01*
X137434497Y-81135068D01*
X137419706Y-81157206D01*
X137397568Y-81171997D01*
X137384996Y-81184570D01*
X137366586Y-81192698D01*
X137341844Y-81209231D01*
X137318736Y-81213827D01*
X137302572Y-81220965D01*
X137255269Y-81226451D01*
X137250000Y-81227500D01*
X136950000Y-81227500D01*
X136944732Y-81226452D01*
X136897427Y-81220965D01*
X136881261Y-81213826D01*
X136858156Y-81209231D01*
X136833415Y-81192700D01*
X136815003Y-81184570D01*
X136802428Y-81171995D01*
X136780294Y-81157206D01*
X136765504Y-81135071D01*
X136752929Y-81122496D01*
X136744798Y-81104081D01*
X136728269Y-81079344D01*
X136723673Y-81056240D01*
X136716534Y-81040072D01*
X136711045Y-80992757D01*
X136710000Y-80987500D01*
X136710000Y-79812500D01*
X136711045Y-79807244D01*
X136716534Y-79759927D01*
X136723673Y-79743757D01*
X136728269Y-79720656D01*
X136744796Y-79695920D01*
X136752929Y-79677503D01*
X136765506Y-79664925D01*
X136780294Y-79642794D01*
X136802425Y-79628006D01*
X136815003Y-79615429D01*
X136833420Y-79607296D01*
X136858156Y-79590769D01*
X136881257Y-79586173D01*
X136897427Y-79579034D01*
X136944744Y-79573545D01*
X136950000Y-79572500D01*
X137250000Y-79572500D01*
X137255257Y-79573545D01*
G37*
G36*
X139155257Y-79573545D02*
G01*
X139202572Y-79579034D01*
X139218740Y-79586173D01*
X139241844Y-79590769D01*
X139266581Y-79607298D01*
X139284996Y-79615429D01*
X139297571Y-79628004D01*
X139319706Y-79642794D01*
X139334495Y-79664928D01*
X139347070Y-79677503D01*
X139355200Y-79695915D01*
X139371731Y-79720656D01*
X139376326Y-79743761D01*
X139383465Y-79759927D01*
X139388952Y-79807232D01*
X139390000Y-79812500D01*
X139390000Y-80987500D01*
X139388951Y-80992769D01*
X139383465Y-81040072D01*
X139376327Y-81056236D01*
X139371731Y-81079344D01*
X139355198Y-81104086D01*
X139347070Y-81122496D01*
X139334497Y-81135068D01*
X139319706Y-81157206D01*
X139297568Y-81171997D01*
X139284996Y-81184570D01*
X139266586Y-81192698D01*
X139241844Y-81209231D01*
X139218736Y-81213827D01*
X139202572Y-81220965D01*
X139155269Y-81226451D01*
X139150000Y-81227500D01*
X138850000Y-81227500D01*
X138844732Y-81226452D01*
X138797427Y-81220965D01*
X138781261Y-81213826D01*
X138758156Y-81209231D01*
X138733415Y-81192700D01*
X138715003Y-81184570D01*
X138702428Y-81171995D01*
X138680294Y-81157206D01*
X138665504Y-81135071D01*
X138652929Y-81122496D01*
X138644798Y-81104081D01*
X138628269Y-81079344D01*
X138623673Y-81056240D01*
X138616534Y-81040072D01*
X138611045Y-80992757D01*
X138610000Y-80987500D01*
X138610000Y-79812500D01*
X138611045Y-79807244D01*
X138616534Y-79759927D01*
X138623673Y-79743757D01*
X138628269Y-79720656D01*
X138644796Y-79695920D01*
X138652929Y-79677503D01*
X138665506Y-79664925D01*
X138680294Y-79642794D01*
X138702425Y-79628006D01*
X138715003Y-79615429D01*
X138733420Y-79607296D01*
X138758156Y-79590769D01*
X138781257Y-79586173D01*
X138797427Y-79579034D01*
X138844744Y-79573545D01*
X138850000Y-79572500D01*
X139150000Y-79572500D01*
X139155257Y-79573545D01*
G37*
G36*
X187629815Y-78887462D02*
G01*
X187802524Y-78959000D01*
X187957957Y-79062857D01*
X188090143Y-79195043D01*
X188194000Y-79350476D01*
X188265538Y-79523185D01*
X188302008Y-79706531D01*
X188302008Y-79893469D01*
X188265538Y-80076815D01*
X188194000Y-80249524D01*
X188090143Y-80404957D01*
X187957957Y-80537143D01*
X187802524Y-80641000D01*
X187629815Y-80712538D01*
X187446469Y-80749008D01*
X187259531Y-80749008D01*
X187076185Y-80712538D01*
X186903476Y-80641000D01*
X186748043Y-80537143D01*
X186615857Y-80404957D01*
X186512000Y-80249524D01*
X186440462Y-80076815D01*
X186403992Y-79893469D01*
X186403992Y-79706531D01*
X186440462Y-79523185D01*
X186512000Y-79350476D01*
X186615857Y-79195043D01*
X186748043Y-79062857D01*
X186903476Y-78959000D01*
X187076185Y-78887462D01*
X187259531Y-78850992D01*
X187446469Y-78850992D01*
X187629815Y-78887462D01*
G37*
G36*
X190169815Y-78887462D02*
G01*
X190342524Y-78959000D01*
X190497957Y-79062857D01*
X190630143Y-79195043D01*
X190734000Y-79350476D01*
X190805538Y-79523185D01*
X190842008Y-79706531D01*
X190842008Y-79893469D01*
X190805538Y-80076815D01*
X190734000Y-80249524D01*
X190630143Y-80404957D01*
X190497957Y-80537143D01*
X190342524Y-80641000D01*
X190169815Y-80712538D01*
X189986469Y-80749008D01*
X189799531Y-80749008D01*
X189616185Y-80712538D01*
X189443476Y-80641000D01*
X189288043Y-80537143D01*
X189155857Y-80404957D01*
X189052000Y-80249524D01*
X188980462Y-80076815D01*
X188943992Y-79893469D01*
X188943992Y-79706531D01*
X188980462Y-79523185D01*
X189052000Y-79350476D01*
X189155857Y-79195043D01*
X189288043Y-79062857D01*
X189443476Y-78959000D01*
X189616185Y-78887462D01*
X189799531Y-78850992D01*
X189986469Y-78850992D01*
X190169815Y-78887462D01*
G37*
G36*
X187629815Y-76347462D02*
G01*
X187802524Y-76419000D01*
X187957957Y-76522857D01*
X188090143Y-76655043D01*
X188194000Y-76810476D01*
X188265538Y-76983185D01*
X188302008Y-77166531D01*
X188302008Y-77353469D01*
X188265538Y-77536815D01*
X188194000Y-77709524D01*
X188090143Y-77864957D01*
X187957957Y-77997143D01*
X187802524Y-78101000D01*
X187629815Y-78172538D01*
X187446469Y-78209008D01*
X187259531Y-78209008D01*
X187076185Y-78172538D01*
X186903476Y-78101000D01*
X186748043Y-77997143D01*
X186615857Y-77864957D01*
X186512000Y-77709524D01*
X186440462Y-77536815D01*
X186403992Y-77353469D01*
X186403992Y-77166531D01*
X186440462Y-76983185D01*
X186512000Y-76810476D01*
X186615857Y-76655043D01*
X186748043Y-76522857D01*
X186903476Y-76419000D01*
X187076185Y-76347462D01*
X187259531Y-76310992D01*
X187446469Y-76310992D01*
X187629815Y-76347462D01*
G37*
G36*
X190169815Y-76347462D02*
G01*
X190342524Y-76419000D01*
X190497957Y-76522857D01*
X190630143Y-76655043D01*
X190734000Y-76810476D01*
X190805538Y-76983185D01*
X190842008Y-77166531D01*
X190842008Y-77353469D01*
X190805538Y-77536815D01*
X190734000Y-77709524D01*
X190630143Y-77864957D01*
X190497957Y-77997143D01*
X190342524Y-78101000D01*
X190169815Y-78172538D01*
X189986469Y-78209008D01*
X189799531Y-78209008D01*
X189616185Y-78172538D01*
X189443476Y-78101000D01*
X189288043Y-77997143D01*
X189155857Y-77864957D01*
X189052000Y-77709524D01*
X188980462Y-77536815D01*
X188943992Y-77353469D01*
X188943992Y-77166531D01*
X188980462Y-76983185D01*
X189052000Y-76810476D01*
X189155857Y-76655043D01*
X189288043Y-76522857D01*
X189443476Y-76419000D01*
X189616185Y-76347462D01*
X189799531Y-76310992D01*
X189986469Y-76310992D01*
X190169815Y-76347462D01*
G37*
G36*
X159062998Y-75634085D02*
G01*
X159073267Y-75638873D01*
X159079817Y-75639911D01*
X159126469Y-75663682D01*
X159170016Y-75683988D01*
X159173854Y-75687826D01*
X159174370Y-75688089D01*
X159249410Y-75763129D01*
X159249672Y-75763644D01*
X159253512Y-75767484D01*
X159273823Y-75811041D01*
X159297588Y-75857682D01*
X159298625Y-75864229D01*
X159303415Y-75874502D01*
X159315000Y-75962500D01*
X159315000Y-76637500D01*
X159303415Y-76725498D01*
X159298624Y-76735770D01*
X159297588Y-76742317D01*
X159273828Y-76788946D01*
X159253512Y-76832516D01*
X159249671Y-76836356D01*
X159249410Y-76836870D01*
X159174370Y-76911910D01*
X159173856Y-76912171D01*
X159170016Y-76916012D01*
X159126446Y-76936328D01*
X159079817Y-76960088D01*
X159073270Y-76961124D01*
X159062998Y-76965915D01*
X158975000Y-76977500D01*
X158025000Y-76977500D01*
X157937002Y-76965915D01*
X157926729Y-76961125D01*
X157920182Y-76960088D01*
X157873541Y-76936323D01*
X157829984Y-76916012D01*
X157826144Y-76912172D01*
X157825629Y-76911910D01*
X157750589Y-76836870D01*
X157750326Y-76836354D01*
X157746488Y-76832516D01*
X157726182Y-76788969D01*
X157702411Y-76742317D01*
X157701373Y-76735767D01*
X157696585Y-76725498D01*
X157685000Y-76637500D01*
X157685000Y-75962500D01*
X157696585Y-75874502D01*
X157701373Y-75864233D01*
X157702411Y-75857682D01*
X157726187Y-75811018D01*
X157746488Y-75767484D01*
X157750325Y-75763646D01*
X157750589Y-75763129D01*
X157825629Y-75688089D01*
X157826146Y-75687825D01*
X157829984Y-75683988D01*
X157873518Y-75663687D01*
X157920182Y-75639911D01*
X157926733Y-75638873D01*
X157937002Y-75634085D01*
X158025000Y-75622500D01*
X158975000Y-75622500D01*
X159062998Y-75634085D01*
G37*
G36*
X139322263Y-75296159D02*
G01*
X139332251Y-75300816D01*
X139338454Y-75301799D01*
X139382645Y-75324316D01*
X139425346Y-75344228D01*
X139429109Y-75347991D01*
X139429523Y-75348202D01*
X139501797Y-75420476D01*
X139502007Y-75420889D01*
X139505772Y-75424654D01*
X139525689Y-75467366D01*
X139548200Y-75511545D01*
X139549182Y-75517746D01*
X139553841Y-75527737D01*
X139565000Y-75612500D01*
X139565000Y-76112500D01*
X139553841Y-76197263D01*
X139549181Y-76207254D01*
X139548200Y-76213454D01*
X139525694Y-76257622D01*
X139505772Y-76300346D01*
X139502006Y-76304111D01*
X139501797Y-76304523D01*
X139429523Y-76376797D01*
X139429111Y-76377006D01*
X139425346Y-76380772D01*
X139382622Y-76400694D01*
X139338454Y-76423200D01*
X139332254Y-76424181D01*
X139322263Y-76428841D01*
X139237500Y-76440000D01*
X138762500Y-76440000D01*
X138677737Y-76428841D01*
X138667746Y-76424182D01*
X138661545Y-76423200D01*
X138617366Y-76400689D01*
X138574654Y-76380772D01*
X138570889Y-76377007D01*
X138570476Y-76376797D01*
X138498202Y-76304523D01*
X138497991Y-76304109D01*
X138494228Y-76300346D01*
X138474316Y-76257645D01*
X138451799Y-76213454D01*
X138450816Y-76207251D01*
X138446159Y-76197263D01*
X138435000Y-76112500D01*
X138435000Y-75612500D01*
X138446159Y-75527737D01*
X138450816Y-75517749D01*
X138451799Y-75511545D01*
X138474321Y-75467343D01*
X138494228Y-75424654D01*
X138497990Y-75420891D01*
X138498202Y-75420476D01*
X138570476Y-75348202D01*
X138570891Y-75347990D01*
X138574654Y-75344228D01*
X138617343Y-75324321D01*
X138661545Y-75301799D01*
X138667749Y-75300816D01*
X138677737Y-75296159D01*
X138762500Y-75285000D01*
X139237500Y-75285000D01*
X139322263Y-75296159D01*
G37*
G36*
X145822263Y-75296159D02*
G01*
X145832251Y-75300816D01*
X145838454Y-75301799D01*
X145882645Y-75324316D01*
X145925346Y-75344228D01*
X145929109Y-75347991D01*
X145929523Y-75348202D01*
X146001797Y-75420476D01*
X146002007Y-75420889D01*
X146005772Y-75424654D01*
X146025689Y-75467366D01*
X146048200Y-75511545D01*
X146049182Y-75517746D01*
X146053841Y-75527737D01*
X146065000Y-75612500D01*
X146065000Y-76112500D01*
X146053841Y-76197263D01*
X146049181Y-76207254D01*
X146048200Y-76213454D01*
X146025694Y-76257622D01*
X146005772Y-76300346D01*
X146002006Y-76304111D01*
X146001797Y-76304523D01*
X145929523Y-76376797D01*
X145929111Y-76377006D01*
X145925346Y-76380772D01*
X145882622Y-76400694D01*
X145838454Y-76423200D01*
X145832254Y-76424181D01*
X145822263Y-76428841D01*
X145737500Y-76440000D01*
X145262500Y-76440000D01*
X145177737Y-76428841D01*
X145167746Y-76424182D01*
X145161545Y-76423200D01*
X145117366Y-76400689D01*
X145074654Y-76380772D01*
X145070889Y-76377007D01*
X145070476Y-76376797D01*
X144998202Y-76304523D01*
X144997991Y-76304109D01*
X144994228Y-76300346D01*
X144974316Y-76257645D01*
X144951799Y-76213454D01*
X144950816Y-76207251D01*
X144946159Y-76197263D01*
X144935000Y-76112500D01*
X144935000Y-75612500D01*
X144946159Y-75527737D01*
X144950816Y-75517749D01*
X144951799Y-75511545D01*
X144974321Y-75467343D01*
X144994228Y-75424654D01*
X144997990Y-75420891D01*
X144998202Y-75420476D01*
X145070476Y-75348202D01*
X145070891Y-75347990D01*
X145074654Y-75344228D01*
X145117343Y-75324321D01*
X145161545Y-75301799D01*
X145167749Y-75300816D01*
X145177737Y-75296159D01*
X145262500Y-75285000D01*
X145737500Y-75285000D01*
X145822263Y-75296159D01*
G37*
G36*
X152322263Y-75296159D02*
G01*
X152332251Y-75300816D01*
X152338454Y-75301799D01*
X152382645Y-75324316D01*
X152425346Y-75344228D01*
X152429109Y-75347991D01*
X152429523Y-75348202D01*
X152501797Y-75420476D01*
X152502007Y-75420889D01*
X152505772Y-75424654D01*
X152525689Y-75467366D01*
X152548200Y-75511545D01*
X152549182Y-75517746D01*
X152553841Y-75527737D01*
X152565000Y-75612500D01*
X152565000Y-76112500D01*
X152553841Y-76197263D01*
X152549181Y-76207254D01*
X152548200Y-76213454D01*
X152525694Y-76257622D01*
X152505772Y-76300346D01*
X152502006Y-76304111D01*
X152501797Y-76304523D01*
X152429523Y-76376797D01*
X152429111Y-76377006D01*
X152425346Y-76380772D01*
X152382622Y-76400694D01*
X152338454Y-76423200D01*
X152332254Y-76424181D01*
X152322263Y-76428841D01*
X152237500Y-76440000D01*
X151762500Y-76440000D01*
X151677737Y-76428841D01*
X151667746Y-76424182D01*
X151661545Y-76423200D01*
X151617366Y-76400689D01*
X151574654Y-76380772D01*
X151570889Y-76377007D01*
X151570476Y-76376797D01*
X151498202Y-76304523D01*
X151497991Y-76304109D01*
X151494228Y-76300346D01*
X151474316Y-76257645D01*
X151451799Y-76213454D01*
X151450816Y-76207251D01*
X151446159Y-76197263D01*
X151435000Y-76112500D01*
X151435000Y-75612500D01*
X151446159Y-75527737D01*
X151450816Y-75517749D01*
X151451799Y-75511545D01*
X151474321Y-75467343D01*
X151494228Y-75424654D01*
X151497990Y-75420891D01*
X151498202Y-75420476D01*
X151570476Y-75348202D01*
X151570891Y-75347990D01*
X151574654Y-75344228D01*
X151617343Y-75324321D01*
X151661545Y-75301799D01*
X151667749Y-75300816D01*
X151677737Y-75296159D01*
X151762500Y-75285000D01*
X152237500Y-75285000D01*
X152322263Y-75296159D01*
G37*
G36*
X187629815Y-73807462D02*
G01*
X187802524Y-73879000D01*
X187957957Y-73982857D01*
X188090143Y-74115043D01*
X188194000Y-74270476D01*
X188265538Y-74443185D01*
X188302008Y-74626531D01*
X188302008Y-74813469D01*
X188265538Y-74996815D01*
X188194000Y-75169524D01*
X188090143Y-75324957D01*
X187957957Y-75457143D01*
X187802524Y-75561000D01*
X187629815Y-75632538D01*
X187446469Y-75669008D01*
X187259531Y-75669008D01*
X187076185Y-75632538D01*
X186903476Y-75561000D01*
X186748043Y-75457143D01*
X186615857Y-75324957D01*
X186512000Y-75169524D01*
X186440462Y-74996815D01*
X186403992Y-74813469D01*
X186403992Y-74626531D01*
X186440462Y-74443185D01*
X186512000Y-74270476D01*
X186615857Y-74115043D01*
X186748043Y-73982857D01*
X186903476Y-73879000D01*
X187076185Y-73807462D01*
X187259531Y-73770992D01*
X187446469Y-73770992D01*
X187629815Y-73807462D01*
G37*
G36*
X190169815Y-73807462D02*
G01*
X190342524Y-73879000D01*
X190497957Y-73982857D01*
X190630143Y-74115043D01*
X190734000Y-74270476D01*
X190805538Y-74443185D01*
X190842008Y-74626531D01*
X190842008Y-74813469D01*
X190805538Y-74996815D01*
X190734000Y-75169524D01*
X190630143Y-75324957D01*
X190497957Y-75457143D01*
X190342524Y-75561000D01*
X190169815Y-75632538D01*
X189986469Y-75669008D01*
X189799531Y-75669008D01*
X189616185Y-75632538D01*
X189443476Y-75561000D01*
X189288043Y-75457143D01*
X189155857Y-75324957D01*
X189052000Y-75169524D01*
X188980462Y-74996815D01*
X188943992Y-74813469D01*
X188943992Y-74626531D01*
X188980462Y-74443185D01*
X189052000Y-74270476D01*
X189155857Y-74115043D01*
X189288043Y-73982857D01*
X189443476Y-73879000D01*
X189616185Y-73807462D01*
X189799531Y-73770992D01*
X189986469Y-73770992D01*
X190169815Y-73807462D01*
G37*
G36*
X159062998Y-73559085D02*
G01*
X159073267Y-73563873D01*
X159079817Y-73564911D01*
X159126469Y-73588682D01*
X159170016Y-73608988D01*
X159173854Y-73612826D01*
X159174370Y-73613089D01*
X159249410Y-73688129D01*
X159249672Y-73688644D01*
X159253512Y-73692484D01*
X159273823Y-73736041D01*
X159297588Y-73782682D01*
X159298625Y-73789229D01*
X159303415Y-73799502D01*
X159315000Y-73887500D01*
X159315000Y-74562500D01*
X159303415Y-74650498D01*
X159298624Y-74660770D01*
X159297588Y-74667317D01*
X159273828Y-74713946D01*
X159253512Y-74757516D01*
X159249671Y-74761356D01*
X159249410Y-74761870D01*
X159174370Y-74836910D01*
X159173856Y-74837171D01*
X159170016Y-74841012D01*
X159126446Y-74861328D01*
X159079817Y-74885088D01*
X159073270Y-74886124D01*
X159062998Y-74890915D01*
X158975000Y-74902500D01*
X158025000Y-74902500D01*
X157937002Y-74890915D01*
X157926729Y-74886125D01*
X157920182Y-74885088D01*
X157873541Y-74861323D01*
X157829984Y-74841012D01*
X157826144Y-74837172D01*
X157825629Y-74836910D01*
X157750589Y-74761870D01*
X157750326Y-74761354D01*
X157746488Y-74757516D01*
X157726182Y-74713969D01*
X157702411Y-74667317D01*
X157701373Y-74660767D01*
X157696585Y-74650498D01*
X157685000Y-74562500D01*
X157685000Y-73887500D01*
X157696585Y-73799502D01*
X157701373Y-73789233D01*
X157702411Y-73782682D01*
X157726187Y-73736018D01*
X157746488Y-73692484D01*
X157750325Y-73688646D01*
X157750589Y-73688129D01*
X157825629Y-73613089D01*
X157826146Y-73612825D01*
X157829984Y-73608988D01*
X157873518Y-73588687D01*
X157920182Y-73564911D01*
X157926733Y-73563873D01*
X157937002Y-73559085D01*
X158025000Y-73547500D01*
X158975000Y-73547500D01*
X159062998Y-73559085D01*
G37*
G36*
X139322263Y-73471159D02*
G01*
X139332251Y-73475816D01*
X139338454Y-73476799D01*
X139382645Y-73499316D01*
X139425346Y-73519228D01*
X139429109Y-73522991D01*
X139429523Y-73523202D01*
X139501797Y-73595476D01*
X139502007Y-73595889D01*
X139505772Y-73599654D01*
X139525689Y-73642366D01*
X139548200Y-73686545D01*
X139549182Y-73692746D01*
X139553841Y-73702737D01*
X139565000Y-73787500D01*
X139565000Y-74287500D01*
X139553841Y-74372263D01*
X139549181Y-74382254D01*
X139548200Y-74388454D01*
X139525694Y-74432622D01*
X139505772Y-74475346D01*
X139502006Y-74479111D01*
X139501797Y-74479523D01*
X139429523Y-74551797D01*
X139429111Y-74552006D01*
X139425346Y-74555772D01*
X139382622Y-74575694D01*
X139338454Y-74598200D01*
X139332254Y-74599181D01*
X139322263Y-74603841D01*
X139237500Y-74615000D01*
X138762500Y-74615000D01*
X138677737Y-74603841D01*
X138667746Y-74599182D01*
X138661545Y-74598200D01*
X138617366Y-74575689D01*
X138574654Y-74555772D01*
X138570889Y-74552007D01*
X138570476Y-74551797D01*
X138498202Y-74479523D01*
X138497991Y-74479109D01*
X138494228Y-74475346D01*
X138474316Y-74432645D01*
X138451799Y-74388454D01*
X138450816Y-74382251D01*
X138446159Y-74372263D01*
X138435000Y-74287500D01*
X138435000Y-73787500D01*
X138446159Y-73702737D01*
X138450816Y-73692749D01*
X138451799Y-73686545D01*
X138474321Y-73642343D01*
X138494228Y-73599654D01*
X138497990Y-73595891D01*
X138498202Y-73595476D01*
X138570476Y-73523202D01*
X138570891Y-73522990D01*
X138574654Y-73519228D01*
X138617343Y-73499321D01*
X138661545Y-73476799D01*
X138667749Y-73475816D01*
X138677737Y-73471159D01*
X138762500Y-73460000D01*
X139237500Y-73460000D01*
X139322263Y-73471159D01*
G37*
G36*
X145822263Y-73471159D02*
G01*
X145832251Y-73475816D01*
X145838454Y-73476799D01*
X145882645Y-73499316D01*
X145925346Y-73519228D01*
X145929109Y-73522991D01*
X145929523Y-73523202D01*
X146001797Y-73595476D01*
X146002007Y-73595889D01*
X146005772Y-73599654D01*
X146025689Y-73642366D01*
X146048200Y-73686545D01*
X146049182Y-73692746D01*
X146053841Y-73702737D01*
X146065000Y-73787500D01*
X146065000Y-74287500D01*
X146053841Y-74372263D01*
X146049181Y-74382254D01*
X146048200Y-74388454D01*
X146025694Y-74432622D01*
X146005772Y-74475346D01*
X146002006Y-74479111D01*
X146001797Y-74479523D01*
X145929523Y-74551797D01*
X145929111Y-74552006D01*
X145925346Y-74555772D01*
X145882622Y-74575694D01*
X145838454Y-74598200D01*
X145832254Y-74599181D01*
X145822263Y-74603841D01*
X145737500Y-74615000D01*
X145262500Y-74615000D01*
X145177737Y-74603841D01*
X145167746Y-74599182D01*
X145161545Y-74598200D01*
X145117366Y-74575689D01*
X145074654Y-74555772D01*
X145070889Y-74552007D01*
X145070476Y-74551797D01*
X144998202Y-74479523D01*
X144997991Y-74479109D01*
X144994228Y-74475346D01*
X144974316Y-74432645D01*
X144951799Y-74388454D01*
X144950816Y-74382251D01*
X144946159Y-74372263D01*
X144935000Y-74287500D01*
X144935000Y-73787500D01*
X144946159Y-73702737D01*
X144950816Y-73692749D01*
X144951799Y-73686545D01*
X144974321Y-73642343D01*
X144994228Y-73599654D01*
X144997990Y-73595891D01*
X144998202Y-73595476D01*
X145070476Y-73523202D01*
X145070891Y-73522990D01*
X145074654Y-73519228D01*
X145117343Y-73499321D01*
X145161545Y-73476799D01*
X145167749Y-73475816D01*
X145177737Y-73471159D01*
X145262500Y-73460000D01*
X145737500Y-73460000D01*
X145822263Y-73471159D01*
G37*
G36*
X152322263Y-73471159D02*
G01*
X152332251Y-73475816D01*
X152338454Y-73476799D01*
X152382645Y-73499316D01*
X152425346Y-73519228D01*
X152429109Y-73522991D01*
X152429523Y-73523202D01*
X152501797Y-73595476D01*
X152502007Y-73595889D01*
X152505772Y-73599654D01*
X152525689Y-73642366D01*
X152548200Y-73686545D01*
X152549182Y-73692746D01*
X152553841Y-73702737D01*
X152565000Y-73787500D01*
X152565000Y-74287500D01*
X152553841Y-74372263D01*
X152549181Y-74382254D01*
X152548200Y-74388454D01*
X152525694Y-74432622D01*
X152505772Y-74475346D01*
X152502006Y-74479111D01*
X152501797Y-74479523D01*
X152429523Y-74551797D01*
X152429111Y-74552006D01*
X152425346Y-74555772D01*
X152382622Y-74575694D01*
X152338454Y-74598200D01*
X152332254Y-74599181D01*
X152322263Y-74603841D01*
X152237500Y-74615000D01*
X151762500Y-74615000D01*
X151677737Y-74603841D01*
X151667746Y-74599182D01*
X151661545Y-74598200D01*
X151617366Y-74575689D01*
X151574654Y-74555772D01*
X151570889Y-74552007D01*
X151570476Y-74551797D01*
X151498202Y-74479523D01*
X151497991Y-74479109D01*
X151494228Y-74475346D01*
X151474316Y-74432645D01*
X151451799Y-74388454D01*
X151450816Y-74382251D01*
X151446159Y-74372263D01*
X151435000Y-74287500D01*
X151435000Y-73787500D01*
X151446159Y-73702737D01*
X151450816Y-73692749D01*
X151451799Y-73686545D01*
X151474321Y-73642343D01*
X151494228Y-73599654D01*
X151497990Y-73595891D01*
X151498202Y-73595476D01*
X151570476Y-73523202D01*
X151570891Y-73522990D01*
X151574654Y-73519228D01*
X151617343Y-73499321D01*
X151661545Y-73476799D01*
X151667749Y-73475816D01*
X151677737Y-73471159D01*
X151762500Y-73460000D01*
X152237500Y-73460000D01*
X152322263Y-73471159D01*
G37*
G36*
X187629815Y-71267462D02*
G01*
X187802524Y-71339000D01*
X187957957Y-71442857D01*
X188090143Y-71575043D01*
X188194000Y-71730476D01*
X188265538Y-71903185D01*
X188302008Y-72086531D01*
X188302008Y-72273469D01*
X188265538Y-72456815D01*
X188194000Y-72629524D01*
X188090143Y-72784957D01*
X187957957Y-72917143D01*
X187802524Y-73021000D01*
X187629815Y-73092538D01*
X187446469Y-73129008D01*
X187259531Y-73129008D01*
X187076185Y-73092538D01*
X186903476Y-73021000D01*
X186748043Y-72917143D01*
X186615857Y-72784957D01*
X186512000Y-72629524D01*
X186440462Y-72456815D01*
X186403992Y-72273469D01*
X186403992Y-72086531D01*
X186440462Y-71903185D01*
X186512000Y-71730476D01*
X186615857Y-71575043D01*
X186748043Y-71442857D01*
X186903476Y-71339000D01*
X187076185Y-71267462D01*
X187259531Y-71230992D01*
X187446469Y-71230992D01*
X187629815Y-71267462D01*
G37*
G36*
X190169815Y-71267462D02*
G01*
X190342524Y-71339000D01*
X190497957Y-71442857D01*
X190630143Y-71575043D01*
X190734000Y-71730476D01*
X190805538Y-71903185D01*
X190842008Y-72086531D01*
X190842008Y-72273469D01*
X190805538Y-72456815D01*
X190734000Y-72629524D01*
X190630143Y-72784957D01*
X190497957Y-72917143D01*
X190342524Y-73021000D01*
X190169815Y-73092538D01*
X189986469Y-73129008D01*
X189799531Y-73129008D01*
X189616185Y-73092538D01*
X189443476Y-73021000D01*
X189288043Y-72917143D01*
X189155857Y-72784957D01*
X189052000Y-72629524D01*
X188980462Y-72456815D01*
X188943992Y-72273469D01*
X188943992Y-72086531D01*
X188980462Y-71903185D01*
X189052000Y-71730476D01*
X189155857Y-71575043D01*
X189288043Y-71442857D01*
X189443476Y-71339000D01*
X189616185Y-71267462D01*
X189799531Y-71230992D01*
X189986469Y-71230992D01*
X190169815Y-71267462D01*
G37*
G36*
X183872703Y-67982473D02*
G01*
X184086233Y-68039688D01*
X184290468Y-68124285D01*
X184481914Y-68234816D01*
X184657294Y-68369391D01*
X184813609Y-68525706D01*
X184948184Y-68701086D01*
X185058715Y-68892532D01*
X185143312Y-69096767D01*
X185200527Y-69310297D01*
X185229382Y-69529469D01*
X185229382Y-69750531D01*
X185200527Y-69969703D01*
X185143312Y-70183233D01*
X185058715Y-70387468D01*
X184948184Y-70578914D01*
X184813609Y-70754294D01*
X184657294Y-70910609D01*
X184481914Y-71045184D01*
X184290468Y-71155715D01*
X184086233Y-71240312D01*
X183872703Y-71297527D01*
X183653531Y-71326382D01*
X183432469Y-71326382D01*
X183213297Y-71297527D01*
X182999767Y-71240312D01*
X182795532Y-71155715D01*
X182604086Y-71045184D01*
X182428706Y-70910609D01*
X182272391Y-70754294D01*
X182137816Y-70578914D01*
X182027285Y-70387468D01*
X181942688Y-70183233D01*
X181885473Y-69969703D01*
X181856618Y-69750531D01*
X181856618Y-69529469D01*
X181885473Y-69310297D01*
X181942688Y-69096767D01*
X182027285Y-68892532D01*
X182137816Y-68701086D01*
X182272391Y-68525706D01*
X182428706Y-68369391D01*
X182604086Y-68234816D01*
X182795532Y-68124285D01*
X182999767Y-68039688D01*
X183213297Y-67982473D01*
X183432469Y-67953618D01*
X183653531Y-67953618D01*
X183872703Y-67982473D01*
G37*
G36*
X120687042Y-68693251D02*
G01*
X120716240Y-68712760D01*
X120735749Y-68741958D01*
X120742600Y-68776400D01*
X120742600Y-70503600D01*
X120735749Y-70538042D01*
X120716240Y-70567240D01*
X120687042Y-70586749D01*
X120652600Y-70593600D01*
X118925400Y-70593600D01*
X118890958Y-70586749D01*
X118861760Y-70567240D01*
X118842251Y-70538042D01*
X118835400Y-70503600D01*
X118835400Y-68776400D01*
X118842251Y-68741958D01*
X118861760Y-68712760D01*
X118890958Y-68693251D01*
X118925400Y-68686400D01*
X120652600Y-68686400D01*
X120687042Y-68693251D01*
G37*
G36*
X112445815Y-68727462D02*
G01*
X112618524Y-68799000D01*
X112773957Y-68902857D01*
X112906143Y-69035043D01*
X113010000Y-69190476D01*
X113081538Y-69363185D01*
X113118008Y-69546531D01*
X113118008Y-69733469D01*
X113081538Y-69916815D01*
X113010000Y-70089524D01*
X112906143Y-70244957D01*
X112773957Y-70377143D01*
X112618524Y-70481000D01*
X112445815Y-70552538D01*
X112262469Y-70589008D01*
X112075531Y-70589008D01*
X111892185Y-70552538D01*
X111719476Y-70481000D01*
X111564043Y-70377143D01*
X111431857Y-70244957D01*
X111328000Y-70089524D01*
X111256462Y-69916815D01*
X111219992Y-69733469D01*
X111219992Y-69546531D01*
X111256462Y-69363185D01*
X111328000Y-69190476D01*
X111431857Y-69035043D01*
X111564043Y-68902857D01*
X111719476Y-68799000D01*
X111892185Y-68727462D01*
X112075531Y-68690992D01*
X112262469Y-68690992D01*
X112445815Y-68727462D01*
G37*
G36*
X114985815Y-68727462D02*
G01*
X115158524Y-68799000D01*
X115313957Y-68902857D01*
X115446143Y-69035043D01*
X115550000Y-69190476D01*
X115621538Y-69363185D01*
X115658008Y-69546531D01*
X115658008Y-69733469D01*
X115621538Y-69916815D01*
X115550000Y-70089524D01*
X115446143Y-70244957D01*
X115313957Y-70377143D01*
X115158524Y-70481000D01*
X114985815Y-70552538D01*
X114802469Y-70589008D01*
X114615531Y-70589008D01*
X114432185Y-70552538D01*
X114259476Y-70481000D01*
X114104043Y-70377143D01*
X113971857Y-70244957D01*
X113868000Y-70089524D01*
X113796462Y-69916815D01*
X113759992Y-69733469D01*
X113759992Y-69546531D01*
X113796462Y-69363185D01*
X113868000Y-69190476D01*
X113971857Y-69035043D01*
X114104043Y-68902857D01*
X114259476Y-68799000D01*
X114432185Y-68727462D01*
X114615531Y-68690992D01*
X114802469Y-68690992D01*
X114985815Y-68727462D01*
G37*
G36*
X117525815Y-68727462D02*
G01*
X117698524Y-68799000D01*
X117853957Y-68902857D01*
X117986143Y-69035043D01*
X118090000Y-69190476D01*
X118161538Y-69363185D01*
X118198008Y-69546531D01*
X118198008Y-69733469D01*
X118161538Y-69916815D01*
X118090000Y-70089524D01*
X117986143Y-70244957D01*
X117853957Y-70377143D01*
X117698524Y-70481000D01*
X117525815Y-70552538D01*
X117342469Y-70589008D01*
X117155531Y-70589008D01*
X116972185Y-70552538D01*
X116799476Y-70481000D01*
X116644043Y-70377143D01*
X116511857Y-70244957D01*
X116408000Y-70089524D01*
X116336462Y-69916815D01*
X116299992Y-69733469D01*
X116299992Y-69546531D01*
X116336462Y-69363185D01*
X116408000Y-69190476D01*
X116511857Y-69035043D01*
X116644043Y-68902857D01*
X116799476Y-68799000D01*
X116972185Y-68727462D01*
X117155531Y-68690992D01*
X117342469Y-68690992D01*
X117525815Y-68727462D01*
G37*
G36*
X122605815Y-68727462D02*
G01*
X122778524Y-68799000D01*
X122933957Y-68902857D01*
X123066143Y-69035043D01*
X123170000Y-69190476D01*
X123241538Y-69363185D01*
X123278008Y-69546531D01*
X123278008Y-69733469D01*
X123241538Y-69916815D01*
X123170000Y-70089524D01*
X123066143Y-70244957D01*
X122933957Y-70377143D01*
X122778524Y-70481000D01*
X122605815Y-70552538D01*
X122422469Y-70589008D01*
X122235531Y-70589008D01*
X122052185Y-70552538D01*
X121879476Y-70481000D01*
X121724043Y-70377143D01*
X121591857Y-70244957D01*
X121488000Y-70089524D01*
X121416462Y-69916815D01*
X121379992Y-69733469D01*
X121379992Y-69546531D01*
X121416462Y-69363185D01*
X121488000Y-69190476D01*
X121591857Y-69035043D01*
X121724043Y-68902857D01*
X121879476Y-68799000D01*
X122052185Y-68727462D01*
X122235531Y-68690992D01*
X122422469Y-68690992D01*
X122605815Y-68727462D01*
G37*
G36*
X125145815Y-68727462D02*
G01*
X125318524Y-68799000D01*
X125473957Y-68902857D01*
X125606143Y-69035043D01*
X125710000Y-69190476D01*
X125781538Y-69363185D01*
X125818008Y-69546531D01*
X125818008Y-69733469D01*
X125781538Y-69916815D01*
X125710000Y-70089524D01*
X125606143Y-70244957D01*
X125473957Y-70377143D01*
X125318524Y-70481000D01*
X125145815Y-70552538D01*
X124962469Y-70589008D01*
X124775531Y-70589008D01*
X124592185Y-70552538D01*
X124419476Y-70481000D01*
X124264043Y-70377143D01*
X124131857Y-70244957D01*
X124028000Y-70089524D01*
X123956462Y-69916815D01*
X123919992Y-69733469D01*
X123919992Y-69546531D01*
X123956462Y-69363185D01*
X124028000Y-69190476D01*
X124131857Y-69035043D01*
X124264043Y-68902857D01*
X124419476Y-68799000D01*
X124592185Y-68727462D01*
X124775531Y-68690992D01*
X124962469Y-68690992D01*
X125145815Y-68727462D01*
G37*
G36*
X127685815Y-68727462D02*
G01*
X127858524Y-68799000D01*
X128013957Y-68902857D01*
X128146143Y-69035043D01*
X128250000Y-69190476D01*
X128321538Y-69363185D01*
X128358008Y-69546531D01*
X128358008Y-69733469D01*
X128321538Y-69916815D01*
X128250000Y-70089524D01*
X128146143Y-70244957D01*
X128013957Y-70377143D01*
X127858524Y-70481000D01*
X127685815Y-70552538D01*
X127502469Y-70589008D01*
X127315531Y-70589008D01*
X127132185Y-70552538D01*
X126959476Y-70481000D01*
X126804043Y-70377143D01*
X126671857Y-70244957D01*
X126568000Y-70089524D01*
X126496462Y-69916815D01*
X126459992Y-69733469D01*
X126459992Y-69546531D01*
X126496462Y-69363185D01*
X126568000Y-69190476D01*
X126671857Y-69035043D01*
X126804043Y-68902857D01*
X126959476Y-68799000D01*
X127132185Y-68727462D01*
X127315531Y-68690992D01*
X127502469Y-68690992D01*
X127685815Y-68727462D01*
G37*
G36*
X130225815Y-68727462D02*
G01*
X130398524Y-68799000D01*
X130553957Y-68902857D01*
X130686143Y-69035043D01*
X130790000Y-69190476D01*
X130861538Y-69363185D01*
X130898008Y-69546531D01*
X130898008Y-69733469D01*
X130861538Y-69916815D01*
X130790000Y-70089524D01*
X130686143Y-70244957D01*
X130553957Y-70377143D01*
X130398524Y-70481000D01*
X130225815Y-70552538D01*
X130042469Y-70589008D01*
X129855531Y-70589008D01*
X129672185Y-70552538D01*
X129499476Y-70481000D01*
X129344043Y-70377143D01*
X129211857Y-70244957D01*
X129108000Y-70089524D01*
X129036462Y-69916815D01*
X128999992Y-69733469D01*
X128999992Y-69546531D01*
X129036462Y-69363185D01*
X129108000Y-69190476D01*
X129211857Y-69035043D01*
X129344043Y-68902857D01*
X129499476Y-68799000D01*
X129672185Y-68727462D01*
X129855531Y-68690992D01*
X130042469Y-68690992D01*
X130225815Y-68727462D01*
G37*
G36*
X132765815Y-68727462D02*
G01*
X132938524Y-68799000D01*
X133093957Y-68902857D01*
X133226143Y-69035043D01*
X133330000Y-69190476D01*
X133401538Y-69363185D01*
X133438008Y-69546531D01*
X133438008Y-69733469D01*
X133401538Y-69916815D01*
X133330000Y-70089524D01*
X133226143Y-70244957D01*
X133093957Y-70377143D01*
X132938524Y-70481000D01*
X132765815Y-70552538D01*
X132582469Y-70589008D01*
X132395531Y-70589008D01*
X132212185Y-70552538D01*
X132039476Y-70481000D01*
X131884043Y-70377143D01*
X131751857Y-70244957D01*
X131648000Y-70089524D01*
X131576462Y-69916815D01*
X131539992Y-69733469D01*
X131539992Y-69546531D01*
X131576462Y-69363185D01*
X131648000Y-69190476D01*
X131751857Y-69035043D01*
X131884043Y-68902857D01*
X132039476Y-68799000D01*
X132212185Y-68727462D01*
X132395531Y-68690992D01*
X132582469Y-68690992D01*
X132765815Y-68727462D01*
G37*
G36*
X135305815Y-68727462D02*
G01*
X135478524Y-68799000D01*
X135633957Y-68902857D01*
X135766143Y-69035043D01*
X135870000Y-69190476D01*
X135941538Y-69363185D01*
X135978008Y-69546531D01*
X135978008Y-69733469D01*
X135941538Y-69916815D01*
X135870000Y-70089524D01*
X135766143Y-70244957D01*
X135633957Y-70377143D01*
X135478524Y-70481000D01*
X135305815Y-70552538D01*
X135122469Y-70589008D01*
X134935531Y-70589008D01*
X134752185Y-70552538D01*
X134579476Y-70481000D01*
X134424043Y-70377143D01*
X134291857Y-70244957D01*
X134188000Y-70089524D01*
X134116462Y-69916815D01*
X134079992Y-69733469D01*
X134079992Y-69546531D01*
X134116462Y-69363185D01*
X134188000Y-69190476D01*
X134291857Y-69035043D01*
X134424043Y-68902857D01*
X134579476Y-68799000D01*
X134752185Y-68727462D01*
X134935531Y-68690992D01*
X135122469Y-68690992D01*
X135305815Y-68727462D01*
G37*
G36*
X139369815Y-68727462D02*
G01*
X139542524Y-68799000D01*
X139697957Y-68902857D01*
X139830143Y-69035043D01*
X139934000Y-69190476D01*
X140005538Y-69363185D01*
X140042008Y-69546531D01*
X140042008Y-69733469D01*
X140005538Y-69916815D01*
X139934000Y-70089524D01*
X139830143Y-70244957D01*
X139697957Y-70377143D01*
X139542524Y-70481000D01*
X139369815Y-70552538D01*
X139186469Y-70589008D01*
X138999531Y-70589008D01*
X138816185Y-70552538D01*
X138643476Y-70481000D01*
X138488043Y-70377143D01*
X138355857Y-70244957D01*
X138252000Y-70089524D01*
X138180462Y-69916815D01*
X138143992Y-69733469D01*
X138143992Y-69546531D01*
X138180462Y-69363185D01*
X138252000Y-69190476D01*
X138355857Y-69035043D01*
X138488043Y-68902857D01*
X138643476Y-68799000D01*
X138816185Y-68727462D01*
X138999531Y-68690992D01*
X139186469Y-68690992D01*
X139369815Y-68727462D01*
G37*
G36*
X141909815Y-68727462D02*
G01*
X142082524Y-68799000D01*
X142237957Y-68902857D01*
X142370143Y-69035043D01*
X142474000Y-69190476D01*
X142545538Y-69363185D01*
X142582008Y-69546531D01*
X142582008Y-69733469D01*
X142545538Y-69916815D01*
X142474000Y-70089524D01*
X142370143Y-70244957D01*
X142237957Y-70377143D01*
X142082524Y-70481000D01*
X141909815Y-70552538D01*
X141726469Y-70589008D01*
X141539531Y-70589008D01*
X141356185Y-70552538D01*
X141183476Y-70481000D01*
X141028043Y-70377143D01*
X140895857Y-70244957D01*
X140792000Y-70089524D01*
X140720462Y-69916815D01*
X140683992Y-69733469D01*
X140683992Y-69546531D01*
X140720462Y-69363185D01*
X140792000Y-69190476D01*
X140895857Y-69035043D01*
X141028043Y-68902857D01*
X141183476Y-68799000D01*
X141356185Y-68727462D01*
X141539531Y-68690992D01*
X141726469Y-68690992D01*
X141909815Y-68727462D01*
G37*
G36*
X144449815Y-68727462D02*
G01*
X144622524Y-68799000D01*
X144777957Y-68902857D01*
X144910143Y-69035043D01*
X145014000Y-69190476D01*
X145085538Y-69363185D01*
X145122008Y-69546531D01*
X145122008Y-69733469D01*
X145085538Y-69916815D01*
X145014000Y-70089524D01*
X144910143Y-70244957D01*
X144777957Y-70377143D01*
X144622524Y-70481000D01*
X144449815Y-70552538D01*
X144266469Y-70589008D01*
X144079531Y-70589008D01*
X143896185Y-70552538D01*
X143723476Y-70481000D01*
X143568043Y-70377143D01*
X143435857Y-70244957D01*
X143332000Y-70089524D01*
X143260462Y-69916815D01*
X143223992Y-69733469D01*
X143223992Y-69546531D01*
X143260462Y-69363185D01*
X143332000Y-69190476D01*
X143435857Y-69035043D01*
X143568043Y-68902857D01*
X143723476Y-68799000D01*
X143896185Y-68727462D01*
X144079531Y-68690992D01*
X144266469Y-68690992D01*
X144449815Y-68727462D01*
G37*
G36*
X146989815Y-68727462D02*
G01*
X147162524Y-68799000D01*
X147317957Y-68902857D01*
X147450143Y-69035043D01*
X147554000Y-69190476D01*
X147625538Y-69363185D01*
X147662008Y-69546531D01*
X147662008Y-69733469D01*
X147625538Y-69916815D01*
X147554000Y-70089524D01*
X147450143Y-70244957D01*
X147317957Y-70377143D01*
X147162524Y-70481000D01*
X146989815Y-70552538D01*
X146806469Y-70589008D01*
X146619531Y-70589008D01*
X146436185Y-70552538D01*
X146263476Y-70481000D01*
X146108043Y-70377143D01*
X145975857Y-70244957D01*
X145872000Y-70089524D01*
X145800462Y-69916815D01*
X145763992Y-69733469D01*
X145763992Y-69546531D01*
X145800462Y-69363185D01*
X145872000Y-69190476D01*
X145975857Y-69035043D01*
X146108043Y-68902857D01*
X146263476Y-68799000D01*
X146436185Y-68727462D01*
X146619531Y-68690992D01*
X146806469Y-68690992D01*
X146989815Y-68727462D01*
G37*
G36*
X149529815Y-68727462D02*
G01*
X149702524Y-68799000D01*
X149857957Y-68902857D01*
X149990143Y-69035043D01*
X150094000Y-69190476D01*
X150165538Y-69363185D01*
X150202008Y-69546531D01*
X150202008Y-69733469D01*
X150165538Y-69916815D01*
X150094000Y-70089524D01*
X149990143Y-70244957D01*
X149857957Y-70377143D01*
X149702524Y-70481000D01*
X149529815Y-70552538D01*
X149346469Y-70589008D01*
X149159531Y-70589008D01*
X148976185Y-70552538D01*
X148803476Y-70481000D01*
X148648043Y-70377143D01*
X148515857Y-70244957D01*
X148412000Y-70089524D01*
X148340462Y-69916815D01*
X148303992Y-69733469D01*
X148303992Y-69546531D01*
X148340462Y-69363185D01*
X148412000Y-69190476D01*
X148515857Y-69035043D01*
X148648043Y-68902857D01*
X148803476Y-68799000D01*
X148976185Y-68727462D01*
X149159531Y-68690992D01*
X149346469Y-68690992D01*
X149529815Y-68727462D01*
G37*
G36*
X152069815Y-68727462D02*
G01*
X152242524Y-68799000D01*
X152397957Y-68902857D01*
X152530143Y-69035043D01*
X152634000Y-69190476D01*
X152705538Y-69363185D01*
X152742008Y-69546531D01*
X152742008Y-69733469D01*
X152705538Y-69916815D01*
X152634000Y-70089524D01*
X152530143Y-70244957D01*
X152397957Y-70377143D01*
X152242524Y-70481000D01*
X152069815Y-70552538D01*
X151886469Y-70589008D01*
X151699531Y-70589008D01*
X151516185Y-70552538D01*
X151343476Y-70481000D01*
X151188043Y-70377143D01*
X151055857Y-70244957D01*
X150952000Y-70089524D01*
X150880462Y-69916815D01*
X150843992Y-69733469D01*
X150843992Y-69546531D01*
X150880462Y-69363185D01*
X150952000Y-69190476D01*
X151055857Y-69035043D01*
X151188043Y-68902857D01*
X151343476Y-68799000D01*
X151516185Y-68727462D01*
X151699531Y-68690992D01*
X151886469Y-68690992D01*
X152069815Y-68727462D01*
G37*
G36*
X154609815Y-68727462D02*
G01*
X154782524Y-68799000D01*
X154937957Y-68902857D01*
X155070143Y-69035043D01*
X155174000Y-69190476D01*
X155245538Y-69363185D01*
X155282008Y-69546531D01*
X155282008Y-69733469D01*
X155245538Y-69916815D01*
X155174000Y-70089524D01*
X155070143Y-70244957D01*
X154937957Y-70377143D01*
X154782524Y-70481000D01*
X154609815Y-70552538D01*
X154426469Y-70589008D01*
X154239531Y-70589008D01*
X154056185Y-70552538D01*
X153883476Y-70481000D01*
X153728043Y-70377143D01*
X153595857Y-70244957D01*
X153492000Y-70089524D01*
X153420462Y-69916815D01*
X153383992Y-69733469D01*
X153383992Y-69546531D01*
X153420462Y-69363185D01*
X153492000Y-69190476D01*
X153595857Y-69035043D01*
X153728043Y-68902857D01*
X153883476Y-68799000D01*
X154056185Y-68727462D01*
X154239531Y-68690992D01*
X154426469Y-68690992D01*
X154609815Y-68727462D01*
G37*
G36*
X157149815Y-68727462D02*
G01*
X157322524Y-68799000D01*
X157477957Y-68902857D01*
X157610143Y-69035043D01*
X157714000Y-69190476D01*
X157785538Y-69363185D01*
X157822008Y-69546531D01*
X157822008Y-69733469D01*
X157785538Y-69916815D01*
X157714000Y-70089524D01*
X157610143Y-70244957D01*
X157477957Y-70377143D01*
X157322524Y-70481000D01*
X157149815Y-70552538D01*
X156966469Y-70589008D01*
X156779531Y-70589008D01*
X156596185Y-70552538D01*
X156423476Y-70481000D01*
X156268043Y-70377143D01*
X156135857Y-70244957D01*
X156032000Y-70089524D01*
X155960462Y-69916815D01*
X155923992Y-69733469D01*
X155923992Y-69546531D01*
X155960462Y-69363185D01*
X156032000Y-69190476D01*
X156135857Y-69035043D01*
X156268043Y-68902857D01*
X156423476Y-68799000D01*
X156596185Y-68727462D01*
X156779531Y-68690992D01*
X156966469Y-68690992D01*
X157149815Y-68727462D01*
G37*
G36*
X162229815Y-68727462D02*
G01*
X162402524Y-68799000D01*
X162557957Y-68902857D01*
X162690143Y-69035043D01*
X162794000Y-69190476D01*
X162865538Y-69363185D01*
X162902008Y-69546531D01*
X162902008Y-69733469D01*
X162865538Y-69916815D01*
X162794000Y-70089524D01*
X162690143Y-70244957D01*
X162557957Y-70377143D01*
X162402524Y-70481000D01*
X162229815Y-70552538D01*
X162046469Y-70589008D01*
X161859531Y-70589008D01*
X161676185Y-70552538D01*
X161503476Y-70481000D01*
X161348043Y-70377143D01*
X161215857Y-70244957D01*
X161112000Y-70089524D01*
X161040462Y-69916815D01*
X161003992Y-69733469D01*
X161003992Y-69546531D01*
X161040462Y-69363185D01*
X161112000Y-69190476D01*
X161215857Y-69035043D01*
X161348043Y-68902857D01*
X161503476Y-68799000D01*
X161676185Y-68727462D01*
X161859531Y-68690992D01*
X162046469Y-68690992D01*
X162229815Y-68727462D01*
G37*
G36*
X164769815Y-68727462D02*
G01*
X164942524Y-68799000D01*
X165097957Y-68902857D01*
X165230143Y-69035043D01*
X165334000Y-69190476D01*
X165405538Y-69363185D01*
X165442008Y-69546531D01*
X165442008Y-69733469D01*
X165405538Y-69916815D01*
X165334000Y-70089524D01*
X165230143Y-70244957D01*
X165097957Y-70377143D01*
X164942524Y-70481000D01*
X164769815Y-70552538D01*
X164586469Y-70589008D01*
X164399531Y-70589008D01*
X164216185Y-70552538D01*
X164043476Y-70481000D01*
X163888043Y-70377143D01*
X163755857Y-70244957D01*
X163652000Y-70089524D01*
X163580462Y-69916815D01*
X163543992Y-69733469D01*
X163543992Y-69546531D01*
X163580462Y-69363185D01*
X163652000Y-69190476D01*
X163755857Y-69035043D01*
X163888043Y-68902857D01*
X164043476Y-68799000D01*
X164216185Y-68727462D01*
X164399531Y-68690992D01*
X164586469Y-68690992D01*
X164769815Y-68727462D01*
G37*
G36*
X167309815Y-68727462D02*
G01*
X167482524Y-68799000D01*
X167637957Y-68902857D01*
X167770143Y-69035043D01*
X167874000Y-69190476D01*
X167945538Y-69363185D01*
X167982008Y-69546531D01*
X167982008Y-69733469D01*
X167945538Y-69916815D01*
X167874000Y-70089524D01*
X167770143Y-70244957D01*
X167637957Y-70377143D01*
X167482524Y-70481000D01*
X167309815Y-70552538D01*
X167126469Y-70589008D01*
X166939531Y-70589008D01*
X166756185Y-70552538D01*
X166583476Y-70481000D01*
X166428043Y-70377143D01*
X166295857Y-70244957D01*
X166192000Y-70089524D01*
X166120462Y-69916815D01*
X166083992Y-69733469D01*
X166083992Y-69546531D01*
X166120462Y-69363185D01*
X166192000Y-69190476D01*
X166295857Y-69035043D01*
X166428043Y-68902857D01*
X166583476Y-68799000D01*
X166756185Y-68727462D01*
X166939531Y-68690992D01*
X167126469Y-68690992D01*
X167309815Y-68727462D01*
G37*
G36*
X169849815Y-68727462D02*
G01*
X170022524Y-68799000D01*
X170177957Y-68902857D01*
X170310143Y-69035043D01*
X170414000Y-69190476D01*
X170485538Y-69363185D01*
X170522008Y-69546531D01*
X170522008Y-69733469D01*
X170485538Y-69916815D01*
X170414000Y-70089524D01*
X170310143Y-70244957D01*
X170177957Y-70377143D01*
X170022524Y-70481000D01*
X169849815Y-70552538D01*
X169666469Y-70589008D01*
X169479531Y-70589008D01*
X169296185Y-70552538D01*
X169123476Y-70481000D01*
X168968043Y-70377143D01*
X168835857Y-70244957D01*
X168732000Y-70089524D01*
X168660462Y-69916815D01*
X168623992Y-69733469D01*
X168623992Y-69546531D01*
X168660462Y-69363185D01*
X168732000Y-69190476D01*
X168835857Y-69035043D01*
X168968043Y-68902857D01*
X169123476Y-68799000D01*
X169296185Y-68727462D01*
X169479531Y-68690992D01*
X169666469Y-68690992D01*
X169849815Y-68727462D01*
G37*
G36*
X172389815Y-68727462D02*
G01*
X172562524Y-68799000D01*
X172717957Y-68902857D01*
X172850143Y-69035043D01*
X172954000Y-69190476D01*
X173025538Y-69363185D01*
X173062008Y-69546531D01*
X173062008Y-69733469D01*
X173025538Y-69916815D01*
X172954000Y-70089524D01*
X172850143Y-70244957D01*
X172717957Y-70377143D01*
X172562524Y-70481000D01*
X172389815Y-70552538D01*
X172206469Y-70589008D01*
X172019531Y-70589008D01*
X171836185Y-70552538D01*
X171663476Y-70481000D01*
X171508043Y-70377143D01*
X171375857Y-70244957D01*
X171272000Y-70089524D01*
X171200462Y-69916815D01*
X171163992Y-69733469D01*
X171163992Y-69546531D01*
X171200462Y-69363185D01*
X171272000Y-69190476D01*
X171375857Y-69035043D01*
X171508043Y-68902857D01*
X171663476Y-68799000D01*
X171836185Y-68727462D01*
X172019531Y-68690992D01*
X172206469Y-68690992D01*
X172389815Y-68727462D01*
G37*
G36*
X174929815Y-68727462D02*
G01*
X175102524Y-68799000D01*
X175257957Y-68902857D01*
X175390143Y-69035043D01*
X175494000Y-69190476D01*
X175565538Y-69363185D01*
X175602008Y-69546531D01*
X175602008Y-69733469D01*
X175565538Y-69916815D01*
X175494000Y-70089524D01*
X175390143Y-70244957D01*
X175257957Y-70377143D01*
X175102524Y-70481000D01*
X174929815Y-70552538D01*
X174746469Y-70589008D01*
X174559531Y-70589008D01*
X174376185Y-70552538D01*
X174203476Y-70481000D01*
X174048043Y-70377143D01*
X173915857Y-70244957D01*
X173812000Y-70089524D01*
X173740462Y-69916815D01*
X173703992Y-69733469D01*
X173703992Y-69546531D01*
X173740462Y-69363185D01*
X173812000Y-69190476D01*
X173915857Y-69035043D01*
X174048043Y-68902857D01*
X174203476Y-68799000D01*
X174376185Y-68727462D01*
X174559531Y-68690992D01*
X174746469Y-68690992D01*
X174929815Y-68727462D01*
G37*
G36*
X177469815Y-68727462D02*
G01*
X177642524Y-68799000D01*
X177797957Y-68902857D01*
X177930143Y-69035043D01*
X178034000Y-69190476D01*
X178105538Y-69363185D01*
X178142008Y-69546531D01*
X178142008Y-69733469D01*
X178105538Y-69916815D01*
X178034000Y-70089524D01*
X177930143Y-70244957D01*
X177797957Y-70377143D01*
X177642524Y-70481000D01*
X177469815Y-70552538D01*
X177286469Y-70589008D01*
X177099531Y-70589008D01*
X176916185Y-70552538D01*
X176743476Y-70481000D01*
X176588043Y-70377143D01*
X176455857Y-70244957D01*
X176352000Y-70089524D01*
X176280462Y-69916815D01*
X176243992Y-69733469D01*
X176243992Y-69546531D01*
X176280462Y-69363185D01*
X176352000Y-69190476D01*
X176455857Y-69035043D01*
X176588043Y-68902857D01*
X176743476Y-68799000D01*
X176916185Y-68727462D01*
X177099531Y-68690992D01*
X177286469Y-68690992D01*
X177469815Y-68727462D01*
G37*
G36*
X180009815Y-68727462D02*
G01*
X180182524Y-68799000D01*
X180337957Y-68902857D01*
X180470143Y-69035043D01*
X180574000Y-69190476D01*
X180645538Y-69363185D01*
X180682008Y-69546531D01*
X180682008Y-69733469D01*
X180645538Y-69916815D01*
X180574000Y-70089524D01*
X180470143Y-70244957D01*
X180337957Y-70377143D01*
X180182524Y-70481000D01*
X180009815Y-70552538D01*
X179826469Y-70589008D01*
X179639531Y-70589008D01*
X179456185Y-70552538D01*
X179283476Y-70481000D01*
X179128043Y-70377143D01*
X178995857Y-70244957D01*
X178892000Y-70089524D01*
X178820462Y-69916815D01*
X178783992Y-69733469D01*
X178783992Y-69546531D01*
X178820462Y-69363185D01*
X178892000Y-69190476D01*
X178995857Y-69035043D01*
X179128043Y-68902857D01*
X179283476Y-68799000D01*
X179456185Y-68727462D01*
X179639531Y-68690992D01*
X179826469Y-68690992D01*
X180009815Y-68727462D01*
G37*
G36*
X187629815Y-68727462D02*
G01*
X187802524Y-68799000D01*
X187957957Y-68902857D01*
X188090143Y-69035043D01*
X188194000Y-69190476D01*
X188265538Y-69363185D01*
X188302008Y-69546531D01*
X188302008Y-69733469D01*
X188265538Y-69916815D01*
X188194000Y-70089524D01*
X188090143Y-70244957D01*
X187957957Y-70377143D01*
X187802524Y-70481000D01*
X187629815Y-70552538D01*
X187446469Y-70589008D01*
X187259531Y-70589008D01*
X187076185Y-70552538D01*
X186903476Y-70481000D01*
X186748043Y-70377143D01*
X186615857Y-70244957D01*
X186512000Y-70089524D01*
X186440462Y-69916815D01*
X186403992Y-69733469D01*
X186403992Y-69546531D01*
X186440462Y-69363185D01*
X186512000Y-69190476D01*
X186615857Y-69035043D01*
X186748043Y-68902857D01*
X186903476Y-68799000D01*
X187076185Y-68727462D01*
X187259531Y-68690992D01*
X187446469Y-68690992D01*
X187629815Y-68727462D01*
G37*
G36*
X190169815Y-68727462D02*
G01*
X190342524Y-68799000D01*
X190497957Y-68902857D01*
X190630143Y-69035043D01*
X190734000Y-69190476D01*
X190805538Y-69363185D01*
X190842008Y-69546531D01*
X190842008Y-69733469D01*
X190805538Y-69916815D01*
X190734000Y-70089524D01*
X190630143Y-70244957D01*
X190497957Y-70377143D01*
X190342524Y-70481000D01*
X190169815Y-70552538D01*
X189986469Y-70589008D01*
X189799531Y-70589008D01*
X189616185Y-70552538D01*
X189443476Y-70481000D01*
X189288043Y-70377143D01*
X189155857Y-70244957D01*
X189052000Y-70089524D01*
X188980462Y-69916815D01*
X188943992Y-69733469D01*
X188943992Y-69546531D01*
X188980462Y-69363185D01*
X189052000Y-69190476D01*
X189155857Y-69035043D01*
X189288043Y-68902857D01*
X189443476Y-68799000D01*
X189616185Y-68727462D01*
X189799531Y-68690992D01*
X189986469Y-68690992D01*
X190169815Y-68727462D01*
G37*
M02*
