G04 #@! TF.GenerationSoftware,KiCad,Pcbnew,9.0.8+dfsg-1*
G04 #@! TF.CreationDate,2026-07-03T16:59:59-07:00*
G04 #@! TF.ProjectId,arduino-hat,61726475-696e-46f2-9d68-61742e6b6963,rev?*
G04 #@! TF.SameCoordinates,Original*
G04 #@! TF.FileFunction,Legend,Top*
G04 #@! TF.FilePolarity,Positive*
%FSLAX46Y46*%
G04 Gerber Fmt 4.6, Leading zero omitted, Abs format (unit mm)*
G04 Created by KiCad (PCBNEW 9.0.8+dfsg-1) date 2026-07-03 16:59:59*
%MOMM*%
%LPD*%
G01*
G04 APERTURE LIST*
%ADD10C,0.100000*%
%ADD11C,0.150000*%
%ADD12C,0.120000*%
G04 #@! TA.AperFunction,Profile*
%ADD13C,0.050000*%
G04 #@! TD*
G04 APERTURE END LIST*
D10*
X164494360Y-76776340D02*
X164494360Y-77252531D01*
X164161027Y-76252531D02*
X164494360Y-76776340D01*
X164494360Y-76776340D02*
X164827693Y-76252531D01*
X165113408Y-76966816D02*
X165589598Y-76966816D01*
X165018170Y-77252531D02*
X165351503Y-76252531D01*
X165351503Y-76252531D02*
X165684836Y-77252531D01*
X166018170Y-76728721D02*
X166351503Y-76728721D01*
X166494360Y-77252531D02*
X166018170Y-77252531D01*
X166018170Y-77252531D02*
X166018170Y-76252531D01*
X166018170Y-76252531D02*
X166494360Y-76252531D01*
X166875313Y-77204912D02*
X167018170Y-77252531D01*
X167018170Y-77252531D02*
X167256265Y-77252531D01*
X167256265Y-77252531D02*
X167351503Y-77204912D01*
X167351503Y-77204912D02*
X167399122Y-77157292D01*
X167399122Y-77157292D02*
X167446741Y-77062054D01*
X167446741Y-77062054D02*
X167446741Y-76966816D01*
X167446741Y-76966816D02*
X167399122Y-76871578D01*
X167399122Y-76871578D02*
X167351503Y-76823959D01*
X167351503Y-76823959D02*
X167256265Y-76776340D01*
X167256265Y-76776340D02*
X167065789Y-76728721D01*
X167065789Y-76728721D02*
X166970551Y-76681102D01*
X166970551Y-76681102D02*
X166922932Y-76633483D01*
X166922932Y-76633483D02*
X166875313Y-76538245D01*
X166875313Y-76538245D02*
X166875313Y-76443007D01*
X166875313Y-76443007D02*
X166922932Y-76347769D01*
X166922932Y-76347769D02*
X166970551Y-76300150D01*
X166970551Y-76300150D02*
X167065789Y-76252531D01*
X167065789Y-76252531D02*
X167303884Y-76252531D01*
X167303884Y-76252531D02*
X167446741Y-76300150D01*
X168065789Y-76252531D02*
X168256265Y-76252531D01*
X168256265Y-76252531D02*
X168351503Y-76300150D01*
X168351503Y-76300150D02*
X168446741Y-76395388D01*
X168446741Y-76395388D02*
X168494360Y-76585864D01*
X168494360Y-76585864D02*
X168494360Y-76919197D01*
X168494360Y-76919197D02*
X168446741Y-77109673D01*
X168446741Y-77109673D02*
X168351503Y-77204912D01*
X168351503Y-77204912D02*
X168256265Y-77252531D01*
X168256265Y-77252531D02*
X168065789Y-77252531D01*
X168065789Y-77252531D02*
X167970551Y-77204912D01*
X167970551Y-77204912D02*
X167875313Y-77109673D01*
X167875313Y-77109673D02*
X167827694Y-76919197D01*
X167827694Y-76919197D02*
X167827694Y-76585864D01*
X167827694Y-76585864D02*
X167875313Y-76395388D01*
X167875313Y-76395388D02*
X167970551Y-76300150D01*
X167970551Y-76300150D02*
X168065789Y-76252531D01*
X170208646Y-76300150D02*
X170113408Y-76252531D01*
X170113408Y-76252531D02*
X169970551Y-76252531D01*
X169970551Y-76252531D02*
X169827694Y-76300150D01*
X169827694Y-76300150D02*
X169732456Y-76395388D01*
X169732456Y-76395388D02*
X169684837Y-76490626D01*
X169684837Y-76490626D02*
X169637218Y-76681102D01*
X169637218Y-76681102D02*
X169637218Y-76823959D01*
X169637218Y-76823959D02*
X169684837Y-77014435D01*
X169684837Y-77014435D02*
X169732456Y-77109673D01*
X169732456Y-77109673D02*
X169827694Y-77204912D01*
X169827694Y-77204912D02*
X169970551Y-77252531D01*
X169970551Y-77252531D02*
X170065789Y-77252531D01*
X170065789Y-77252531D02*
X170208646Y-77204912D01*
X170208646Y-77204912D02*
X170256265Y-77157292D01*
X170256265Y-77157292D02*
X170256265Y-76823959D01*
X170256265Y-76823959D02*
X170065789Y-76823959D01*
X171161027Y-76252531D02*
X170684837Y-76252531D01*
X170684837Y-76252531D02*
X170637218Y-76728721D01*
X170637218Y-76728721D02*
X170684837Y-76681102D01*
X170684837Y-76681102D02*
X170780075Y-76633483D01*
X170780075Y-76633483D02*
X171018170Y-76633483D01*
X171018170Y-76633483D02*
X171113408Y-76681102D01*
X171113408Y-76681102D02*
X171161027Y-76728721D01*
X171161027Y-76728721D02*
X171208646Y-76823959D01*
X171208646Y-76823959D02*
X171208646Y-77062054D01*
X171208646Y-77062054D02*
X171161027Y-77157292D01*
X171161027Y-77157292D02*
X171113408Y-77204912D01*
X171113408Y-77204912D02*
X171018170Y-77252531D01*
X171018170Y-77252531D02*
X170780075Y-77252531D01*
X170780075Y-77252531D02*
X170684837Y-77204912D01*
X170684837Y-77204912D02*
X170637218Y-77157292D01*
X172113408Y-76252531D02*
X171637218Y-76252531D01*
X171637218Y-76252531D02*
X171589599Y-76728721D01*
X171589599Y-76728721D02*
X171637218Y-76681102D01*
X171637218Y-76681102D02*
X171732456Y-76633483D01*
X171732456Y-76633483D02*
X171970551Y-76633483D01*
X171970551Y-76633483D02*
X172065789Y-76681102D01*
X172065789Y-76681102D02*
X172113408Y-76728721D01*
X172113408Y-76728721D02*
X172161027Y-76823959D01*
X172161027Y-76823959D02*
X172161027Y-77062054D01*
X172161027Y-77062054D02*
X172113408Y-77157292D01*
X172113408Y-77157292D02*
X172065789Y-77204912D01*
X172065789Y-77204912D02*
X171970551Y-77252531D01*
X171970551Y-77252531D02*
X171732456Y-77252531D01*
X171732456Y-77252531D02*
X171637218Y-77204912D01*
X171637218Y-77204912D02*
X171589599Y-77157292D01*
X172780075Y-76252531D02*
X172875313Y-76252531D01*
X172875313Y-76252531D02*
X172970551Y-76300150D01*
X172970551Y-76300150D02*
X173018170Y-76347769D01*
X173018170Y-76347769D02*
X173065789Y-76443007D01*
X173065789Y-76443007D02*
X173113408Y-76633483D01*
X173113408Y-76633483D02*
X173113408Y-76871578D01*
X173113408Y-76871578D02*
X173065789Y-77062054D01*
X173065789Y-77062054D02*
X173018170Y-77157292D01*
X173018170Y-77157292D02*
X172970551Y-77204912D01*
X172970551Y-77204912D02*
X172875313Y-77252531D01*
X172875313Y-77252531D02*
X172780075Y-77252531D01*
X172780075Y-77252531D02*
X172684837Y-77204912D01*
X172684837Y-77204912D02*
X172637218Y-77157292D01*
X172637218Y-77157292D02*
X172589599Y-77062054D01*
X172589599Y-77062054D02*
X172541980Y-76871578D01*
X172541980Y-76871578D02*
X172541980Y-76633483D01*
X172541980Y-76633483D02*
X172589599Y-76443007D01*
X172589599Y-76443007D02*
X172637218Y-76347769D01*
X172637218Y-76347769D02*
X172684837Y-76300150D01*
X172684837Y-76300150D02*
X172780075Y-76252531D01*
X173732456Y-76252531D02*
X173827694Y-76252531D01*
X173827694Y-76252531D02*
X173922932Y-76300150D01*
X173922932Y-76300150D02*
X173970551Y-76347769D01*
X173970551Y-76347769D02*
X174018170Y-76443007D01*
X174018170Y-76443007D02*
X174065789Y-76633483D01*
X174065789Y-76633483D02*
X174065789Y-76871578D01*
X174065789Y-76871578D02*
X174018170Y-77062054D01*
X174018170Y-77062054D02*
X173970551Y-77157292D01*
X173970551Y-77157292D02*
X173922932Y-77204912D01*
X173922932Y-77204912D02*
X173827694Y-77252531D01*
X173827694Y-77252531D02*
X173732456Y-77252531D01*
X173732456Y-77252531D02*
X173637218Y-77204912D01*
X173637218Y-77204912D02*
X173589599Y-77157292D01*
X173589599Y-77157292D02*
X173541980Y-77062054D01*
X173541980Y-77062054D02*
X173494361Y-76871578D01*
X173494361Y-76871578D02*
X173494361Y-76633483D01*
X173494361Y-76633483D02*
X173541980Y-76443007D01*
X173541980Y-76443007D02*
X173589599Y-76347769D01*
X173589599Y-76347769D02*
X173637218Y-76300150D01*
X173637218Y-76300150D02*
X173732456Y-76252531D01*
X175827694Y-77252531D02*
X175494361Y-76776340D01*
X175256266Y-77252531D02*
X175256266Y-76252531D01*
X175256266Y-76252531D02*
X175637218Y-76252531D01*
X175637218Y-76252531D02*
X175732456Y-76300150D01*
X175732456Y-76300150D02*
X175780075Y-76347769D01*
X175780075Y-76347769D02*
X175827694Y-76443007D01*
X175827694Y-76443007D02*
X175827694Y-76585864D01*
X175827694Y-76585864D02*
X175780075Y-76681102D01*
X175780075Y-76681102D02*
X175732456Y-76728721D01*
X175732456Y-76728721D02*
X175637218Y-76776340D01*
X175637218Y-76776340D02*
X175256266Y-76776340D01*
X176399123Y-77252531D02*
X176303885Y-77204912D01*
X176303885Y-77204912D02*
X176256266Y-77157292D01*
X176256266Y-77157292D02*
X176208647Y-77062054D01*
X176208647Y-77062054D02*
X176208647Y-76776340D01*
X176208647Y-76776340D02*
X176256266Y-76681102D01*
X176256266Y-76681102D02*
X176303885Y-76633483D01*
X176303885Y-76633483D02*
X176399123Y-76585864D01*
X176399123Y-76585864D02*
X176541980Y-76585864D01*
X176541980Y-76585864D02*
X176637218Y-76633483D01*
X176637218Y-76633483D02*
X176684837Y-76681102D01*
X176684837Y-76681102D02*
X176732456Y-76776340D01*
X176732456Y-76776340D02*
X176732456Y-77062054D01*
X176732456Y-77062054D02*
X176684837Y-77157292D01*
X176684837Y-77157292D02*
X176637218Y-77204912D01*
X176637218Y-77204912D02*
X176541980Y-77252531D01*
X176541980Y-77252531D02*
X176399123Y-77252531D01*
X177018171Y-76585864D02*
X177399123Y-76585864D01*
X177161028Y-76252531D02*
X177161028Y-77109673D01*
X177161028Y-77109673D02*
X177208647Y-77204912D01*
X177208647Y-77204912D02*
X177303885Y-77252531D01*
X177303885Y-77252531D02*
X177399123Y-77252531D01*
X178161028Y-77252531D02*
X178161028Y-76728721D01*
X178161028Y-76728721D02*
X178113409Y-76633483D01*
X178113409Y-76633483D02*
X178018171Y-76585864D01*
X178018171Y-76585864D02*
X177827695Y-76585864D01*
X177827695Y-76585864D02*
X177732457Y-76633483D01*
X178161028Y-77204912D02*
X178065790Y-77252531D01*
X178065790Y-77252531D02*
X177827695Y-77252531D01*
X177827695Y-77252531D02*
X177732457Y-77204912D01*
X177732457Y-77204912D02*
X177684838Y-77109673D01*
X177684838Y-77109673D02*
X177684838Y-77014435D01*
X177684838Y-77014435D02*
X177732457Y-76919197D01*
X177732457Y-76919197D02*
X177827695Y-76871578D01*
X177827695Y-76871578D02*
X178065790Y-76871578D01*
X178065790Y-76871578D02*
X178161028Y-76823959D01*
X178494362Y-76585864D02*
X178875314Y-76585864D01*
X178637219Y-76252531D02*
X178637219Y-77109673D01*
X178637219Y-77109673D02*
X178684838Y-77204912D01*
X178684838Y-77204912D02*
X178780076Y-77252531D01*
X178780076Y-77252531D02*
X178875314Y-77252531D01*
X179351505Y-77252531D02*
X179256267Y-77204912D01*
X179256267Y-77204912D02*
X179208648Y-77157292D01*
X179208648Y-77157292D02*
X179161029Y-77062054D01*
X179161029Y-77062054D02*
X179161029Y-76776340D01*
X179161029Y-76776340D02*
X179208648Y-76681102D01*
X179208648Y-76681102D02*
X179256267Y-76633483D01*
X179256267Y-76633483D02*
X179351505Y-76585864D01*
X179351505Y-76585864D02*
X179494362Y-76585864D01*
X179494362Y-76585864D02*
X179589600Y-76633483D01*
X179589600Y-76633483D02*
X179637219Y-76681102D01*
X179637219Y-76681102D02*
X179684838Y-76776340D01*
X179684838Y-76776340D02*
X179684838Y-77062054D01*
X179684838Y-77062054D02*
X179637219Y-77157292D01*
X179637219Y-77157292D02*
X179589600Y-77204912D01*
X179589600Y-77204912D02*
X179494362Y-77252531D01*
X179494362Y-77252531D02*
X179351505Y-77252531D01*
X180113410Y-77252531D02*
X180113410Y-76585864D01*
X180113410Y-76776340D02*
X180161029Y-76681102D01*
X180161029Y-76681102D02*
X180208648Y-76633483D01*
X180208648Y-76633483D02*
X180303886Y-76585864D01*
X180303886Y-76585864D02*
X180399124Y-76585864D01*
X168637216Y-78767236D02*
X168589597Y-78814856D01*
X168589597Y-78814856D02*
X168446740Y-78862475D01*
X168446740Y-78862475D02*
X168351502Y-78862475D01*
X168351502Y-78862475D02*
X168208645Y-78814856D01*
X168208645Y-78814856D02*
X168113407Y-78719617D01*
X168113407Y-78719617D02*
X168065788Y-78624379D01*
X168065788Y-78624379D02*
X168018169Y-78433903D01*
X168018169Y-78433903D02*
X168018169Y-78291046D01*
X168018169Y-78291046D02*
X168065788Y-78100570D01*
X168065788Y-78100570D02*
X168113407Y-78005332D01*
X168113407Y-78005332D02*
X168208645Y-77910094D01*
X168208645Y-77910094D02*
X168351502Y-77862475D01*
X168351502Y-77862475D02*
X168446740Y-77862475D01*
X168446740Y-77862475D02*
X168589597Y-77910094D01*
X168589597Y-77910094D02*
X168637216Y-77957713D01*
X169208645Y-78862475D02*
X169113407Y-78814856D01*
X169113407Y-78814856D02*
X169065788Y-78767236D01*
X169065788Y-78767236D02*
X169018169Y-78671998D01*
X169018169Y-78671998D02*
X169018169Y-78386284D01*
X169018169Y-78386284D02*
X169065788Y-78291046D01*
X169065788Y-78291046D02*
X169113407Y-78243427D01*
X169113407Y-78243427D02*
X169208645Y-78195808D01*
X169208645Y-78195808D02*
X169351502Y-78195808D01*
X169351502Y-78195808D02*
X169446740Y-78243427D01*
X169446740Y-78243427D02*
X169494359Y-78291046D01*
X169494359Y-78291046D02*
X169541978Y-78386284D01*
X169541978Y-78386284D02*
X169541978Y-78671998D01*
X169541978Y-78671998D02*
X169494359Y-78767236D01*
X169494359Y-78767236D02*
X169446740Y-78814856D01*
X169446740Y-78814856D02*
X169351502Y-78862475D01*
X169351502Y-78862475D02*
X169208645Y-78862475D01*
X169970550Y-78195808D02*
X169970550Y-78862475D01*
X169970550Y-78291046D02*
X170018169Y-78243427D01*
X170018169Y-78243427D02*
X170113407Y-78195808D01*
X170113407Y-78195808D02*
X170256264Y-78195808D01*
X170256264Y-78195808D02*
X170351502Y-78243427D01*
X170351502Y-78243427D02*
X170399121Y-78338665D01*
X170399121Y-78338665D02*
X170399121Y-78862475D01*
X170732455Y-78195808D02*
X171113407Y-78195808D01*
X170875312Y-77862475D02*
X170875312Y-78719617D01*
X170875312Y-78719617D02*
X170922931Y-78814856D01*
X170922931Y-78814856D02*
X171018169Y-78862475D01*
X171018169Y-78862475D02*
X171113407Y-78862475D01*
X171446741Y-78862475D02*
X171446741Y-78195808D01*
X171446741Y-78386284D02*
X171494360Y-78291046D01*
X171494360Y-78291046D02*
X171541979Y-78243427D01*
X171541979Y-78243427D02*
X171637217Y-78195808D01*
X171637217Y-78195808D02*
X171732455Y-78195808D01*
X172208646Y-78862475D02*
X172113408Y-78814856D01*
X172113408Y-78814856D02*
X172065789Y-78767236D01*
X172065789Y-78767236D02*
X172018170Y-78671998D01*
X172018170Y-78671998D02*
X172018170Y-78386284D01*
X172018170Y-78386284D02*
X172065789Y-78291046D01*
X172065789Y-78291046D02*
X172113408Y-78243427D01*
X172113408Y-78243427D02*
X172208646Y-78195808D01*
X172208646Y-78195808D02*
X172351503Y-78195808D01*
X172351503Y-78195808D02*
X172446741Y-78243427D01*
X172446741Y-78243427D02*
X172494360Y-78291046D01*
X172494360Y-78291046D02*
X172541979Y-78386284D01*
X172541979Y-78386284D02*
X172541979Y-78671998D01*
X172541979Y-78671998D02*
X172494360Y-78767236D01*
X172494360Y-78767236D02*
X172446741Y-78814856D01*
X172446741Y-78814856D02*
X172351503Y-78862475D01*
X172351503Y-78862475D02*
X172208646Y-78862475D01*
X173113408Y-78862475D02*
X173018170Y-78814856D01*
X173018170Y-78814856D02*
X172970551Y-78719617D01*
X172970551Y-78719617D02*
X172970551Y-77862475D01*
X173637218Y-78862475D02*
X173541980Y-78814856D01*
X173541980Y-78814856D02*
X173494361Y-78719617D01*
X173494361Y-78719617D02*
X173494361Y-77862475D01*
X174399123Y-78814856D02*
X174303885Y-78862475D01*
X174303885Y-78862475D02*
X174113409Y-78862475D01*
X174113409Y-78862475D02*
X174018171Y-78814856D01*
X174018171Y-78814856D02*
X173970552Y-78719617D01*
X173970552Y-78719617D02*
X173970552Y-78338665D01*
X173970552Y-78338665D02*
X174018171Y-78243427D01*
X174018171Y-78243427D02*
X174113409Y-78195808D01*
X174113409Y-78195808D02*
X174303885Y-78195808D01*
X174303885Y-78195808D02*
X174399123Y-78243427D01*
X174399123Y-78243427D02*
X174446742Y-78338665D01*
X174446742Y-78338665D02*
X174446742Y-78433903D01*
X174446742Y-78433903D02*
X173970552Y-78529141D01*
X174875314Y-78862475D02*
X174875314Y-78195808D01*
X174875314Y-78386284D02*
X174922933Y-78291046D01*
X174922933Y-78291046D02*
X174970552Y-78243427D01*
X174970552Y-78243427D02*
X175065790Y-78195808D01*
X175065790Y-78195808D02*
X175161028Y-78195808D01*
X164256265Y-80424800D02*
X164399122Y-80472419D01*
X164399122Y-80472419D02*
X164637217Y-80472419D01*
X164637217Y-80472419D02*
X164732455Y-80424800D01*
X164732455Y-80424800D02*
X164780074Y-80377180D01*
X164780074Y-80377180D02*
X164827693Y-80281942D01*
X164827693Y-80281942D02*
X164827693Y-80186704D01*
X164827693Y-80186704D02*
X164780074Y-80091466D01*
X164780074Y-80091466D02*
X164732455Y-80043847D01*
X164732455Y-80043847D02*
X164637217Y-79996228D01*
X164637217Y-79996228D02*
X164446741Y-79948609D01*
X164446741Y-79948609D02*
X164351503Y-79900990D01*
X164351503Y-79900990D02*
X164303884Y-79853371D01*
X164303884Y-79853371D02*
X164256265Y-79758133D01*
X164256265Y-79758133D02*
X164256265Y-79662895D01*
X164256265Y-79662895D02*
X164303884Y-79567657D01*
X164303884Y-79567657D02*
X164351503Y-79520038D01*
X164351503Y-79520038D02*
X164446741Y-79472419D01*
X164446741Y-79472419D02*
X164684836Y-79472419D01*
X164684836Y-79472419D02*
X164827693Y-79520038D01*
X165256265Y-80472419D02*
X165256265Y-79472419D01*
X165684836Y-80472419D02*
X165684836Y-79948609D01*
X165684836Y-79948609D02*
X165637217Y-79853371D01*
X165637217Y-79853371D02*
X165541979Y-79805752D01*
X165541979Y-79805752D02*
X165399122Y-79805752D01*
X165399122Y-79805752D02*
X165303884Y-79853371D01*
X165303884Y-79853371D02*
X165256265Y-79900990D01*
X166161027Y-80472419D02*
X166161027Y-79805752D01*
X166161027Y-79472419D02*
X166113408Y-79520038D01*
X166113408Y-79520038D02*
X166161027Y-79567657D01*
X166161027Y-79567657D02*
X166208646Y-79520038D01*
X166208646Y-79520038D02*
X166161027Y-79472419D01*
X166161027Y-79472419D02*
X166161027Y-79567657D01*
X167018169Y-80424800D02*
X166922931Y-80472419D01*
X166922931Y-80472419D02*
X166732455Y-80472419D01*
X166732455Y-80472419D02*
X166637217Y-80424800D01*
X166637217Y-80424800D02*
X166589598Y-80329561D01*
X166589598Y-80329561D02*
X166589598Y-79948609D01*
X166589598Y-79948609D02*
X166637217Y-79853371D01*
X166637217Y-79853371D02*
X166732455Y-79805752D01*
X166732455Y-79805752D02*
X166922931Y-79805752D01*
X166922931Y-79805752D02*
X167018169Y-79853371D01*
X167018169Y-79853371D02*
X167065788Y-79948609D01*
X167065788Y-79948609D02*
X167065788Y-80043847D01*
X167065788Y-80043847D02*
X166589598Y-80139085D01*
X167637217Y-80472419D02*
X167541979Y-80424800D01*
X167541979Y-80424800D02*
X167494360Y-80329561D01*
X167494360Y-80329561D02*
X167494360Y-79472419D01*
X168446741Y-80472419D02*
X168446741Y-79472419D01*
X168446741Y-80424800D02*
X168351503Y-80472419D01*
X168351503Y-80472419D02*
X168161027Y-80472419D01*
X168161027Y-80472419D02*
X168065789Y-80424800D01*
X168065789Y-80424800D02*
X168018170Y-80377180D01*
X168018170Y-80377180D02*
X167970551Y-80281942D01*
X167970551Y-80281942D02*
X167970551Y-79996228D01*
X167970551Y-79996228D02*
X168018170Y-79900990D01*
X168018170Y-79900990D02*
X168065789Y-79853371D01*
X168065789Y-79853371D02*
X168161027Y-79805752D01*
X168161027Y-79805752D02*
X168351503Y-79805752D01*
X168351503Y-79805752D02*
X168446741Y-79853371D01*
X169541980Y-79805752D02*
X169922932Y-79805752D01*
X169684837Y-80472419D02*
X169684837Y-79615276D01*
X169684837Y-79615276D02*
X169732456Y-79520038D01*
X169732456Y-79520038D02*
X169827694Y-79472419D01*
X169827694Y-79472419D02*
X169922932Y-79472419D01*
X170399123Y-80472419D02*
X170303885Y-80424800D01*
X170303885Y-80424800D02*
X170256266Y-80377180D01*
X170256266Y-80377180D02*
X170208647Y-80281942D01*
X170208647Y-80281942D02*
X170208647Y-79996228D01*
X170208647Y-79996228D02*
X170256266Y-79900990D01*
X170256266Y-79900990D02*
X170303885Y-79853371D01*
X170303885Y-79853371D02*
X170399123Y-79805752D01*
X170399123Y-79805752D02*
X170541980Y-79805752D01*
X170541980Y-79805752D02*
X170637218Y-79853371D01*
X170637218Y-79853371D02*
X170684837Y-79900990D01*
X170684837Y-79900990D02*
X170732456Y-79996228D01*
X170732456Y-79996228D02*
X170732456Y-80281942D01*
X170732456Y-80281942D02*
X170684837Y-80377180D01*
X170684837Y-80377180D02*
X170637218Y-80424800D01*
X170637218Y-80424800D02*
X170541980Y-80472419D01*
X170541980Y-80472419D02*
X170399123Y-80472419D01*
X171161028Y-80472419D02*
X171161028Y-79805752D01*
X171161028Y-79996228D02*
X171208647Y-79900990D01*
X171208647Y-79900990D02*
X171256266Y-79853371D01*
X171256266Y-79853371D02*
X171351504Y-79805752D01*
X171351504Y-79805752D02*
X171446742Y-79805752D01*
X172494362Y-80186704D02*
X172970552Y-80186704D01*
X172399124Y-80472419D02*
X172732457Y-79472419D01*
X172732457Y-79472419D02*
X173065790Y-80472419D01*
X173399124Y-80472419D02*
X173399124Y-79805752D01*
X173399124Y-79996228D02*
X173446743Y-79900990D01*
X173446743Y-79900990D02*
X173494362Y-79853371D01*
X173494362Y-79853371D02*
X173589600Y-79805752D01*
X173589600Y-79805752D02*
X173684838Y-79805752D01*
X174446743Y-80472419D02*
X174446743Y-79472419D01*
X174446743Y-80424800D02*
X174351505Y-80472419D01*
X174351505Y-80472419D02*
X174161029Y-80472419D01*
X174161029Y-80472419D02*
X174065791Y-80424800D01*
X174065791Y-80424800D02*
X174018172Y-80377180D01*
X174018172Y-80377180D02*
X173970553Y-80281942D01*
X173970553Y-80281942D02*
X173970553Y-79996228D01*
X173970553Y-79996228D02*
X174018172Y-79900990D01*
X174018172Y-79900990D02*
X174065791Y-79853371D01*
X174065791Y-79853371D02*
X174161029Y-79805752D01*
X174161029Y-79805752D02*
X174351505Y-79805752D01*
X174351505Y-79805752D02*
X174446743Y-79853371D01*
X175351505Y-79805752D02*
X175351505Y-80472419D01*
X174922934Y-79805752D02*
X174922934Y-80329561D01*
X174922934Y-80329561D02*
X174970553Y-80424800D01*
X174970553Y-80424800D02*
X175065791Y-80472419D01*
X175065791Y-80472419D02*
X175208648Y-80472419D01*
X175208648Y-80472419D02*
X175303886Y-80424800D01*
X175303886Y-80424800D02*
X175351505Y-80377180D01*
X175827696Y-80472419D02*
X175827696Y-79805752D01*
X175827696Y-79472419D02*
X175780077Y-79520038D01*
X175780077Y-79520038D02*
X175827696Y-79567657D01*
X175827696Y-79567657D02*
X175875315Y-79520038D01*
X175875315Y-79520038D02*
X175827696Y-79472419D01*
X175827696Y-79472419D02*
X175827696Y-79567657D01*
X176303886Y-79805752D02*
X176303886Y-80472419D01*
X176303886Y-79900990D02*
X176351505Y-79853371D01*
X176351505Y-79853371D02*
X176446743Y-79805752D01*
X176446743Y-79805752D02*
X176589600Y-79805752D01*
X176589600Y-79805752D02*
X176684838Y-79853371D01*
X176684838Y-79853371D02*
X176732457Y-79948609D01*
X176732457Y-79948609D02*
X176732457Y-80472419D01*
X177351505Y-80472419D02*
X177256267Y-80424800D01*
X177256267Y-80424800D02*
X177208648Y-80377180D01*
X177208648Y-80377180D02*
X177161029Y-80281942D01*
X177161029Y-80281942D02*
X177161029Y-79996228D01*
X177161029Y-79996228D02*
X177208648Y-79900990D01*
X177208648Y-79900990D02*
X177256267Y-79853371D01*
X177256267Y-79853371D02*
X177351505Y-79805752D01*
X177351505Y-79805752D02*
X177494362Y-79805752D01*
X177494362Y-79805752D02*
X177589600Y-79853371D01*
X177589600Y-79853371D02*
X177637219Y-79900990D01*
X177637219Y-79900990D02*
X177684838Y-79996228D01*
X177684838Y-79996228D02*
X177684838Y-80281942D01*
X177684838Y-80281942D02*
X177637219Y-80377180D01*
X177637219Y-80377180D02*
X177589600Y-80424800D01*
X177589600Y-80424800D02*
X177494362Y-80472419D01*
X177494362Y-80472419D02*
X177351505Y-80472419D01*
X178875315Y-80472419D02*
X178875315Y-79472419D01*
X178875315Y-79472419D02*
X179208648Y-80186704D01*
X179208648Y-80186704D02*
X179541981Y-79472419D01*
X179541981Y-79472419D02*
X179541981Y-80472419D01*
X180399124Y-80424800D02*
X180303886Y-80472419D01*
X180303886Y-80472419D02*
X180113410Y-80472419D01*
X180113410Y-80472419D02*
X180018172Y-80424800D01*
X180018172Y-80424800D02*
X179970553Y-80329561D01*
X179970553Y-80329561D02*
X179970553Y-79948609D01*
X179970553Y-79948609D02*
X180018172Y-79853371D01*
X180018172Y-79853371D02*
X180113410Y-79805752D01*
X180113410Y-79805752D02*
X180303886Y-79805752D01*
X180303886Y-79805752D02*
X180399124Y-79853371D01*
X180399124Y-79853371D02*
X180446743Y-79948609D01*
X180446743Y-79948609D02*
X180446743Y-80043847D01*
X180446743Y-80043847D02*
X179970553Y-80139085D01*
X181303886Y-79805752D02*
X181303886Y-80615276D01*
X181303886Y-80615276D02*
X181256267Y-80710514D01*
X181256267Y-80710514D02*
X181208648Y-80758133D01*
X181208648Y-80758133D02*
X181113410Y-80805752D01*
X181113410Y-80805752D02*
X180970553Y-80805752D01*
X180970553Y-80805752D02*
X180875315Y-80758133D01*
X181303886Y-80424800D02*
X181208648Y-80472419D01*
X181208648Y-80472419D02*
X181018172Y-80472419D01*
X181018172Y-80472419D02*
X180922934Y-80424800D01*
X180922934Y-80424800D02*
X180875315Y-80377180D01*
X180875315Y-80377180D02*
X180827696Y-80281942D01*
X180827696Y-80281942D02*
X180827696Y-79996228D01*
X180827696Y-79996228D02*
X180875315Y-79900990D01*
X180875315Y-79900990D02*
X180922934Y-79853371D01*
X180922934Y-79853371D02*
X181018172Y-79805752D01*
X181018172Y-79805752D02*
X181208648Y-79805752D01*
X181208648Y-79805752D02*
X181303886Y-79853371D01*
X182208648Y-80472419D02*
X182208648Y-79948609D01*
X182208648Y-79948609D02*
X182161029Y-79853371D01*
X182161029Y-79853371D02*
X182065791Y-79805752D01*
X182065791Y-79805752D02*
X181875315Y-79805752D01*
X181875315Y-79805752D02*
X181780077Y-79853371D01*
X182208648Y-80424800D02*
X182113410Y-80472419D01*
X182113410Y-80472419D02*
X181875315Y-80472419D01*
X181875315Y-80472419D02*
X181780077Y-80424800D01*
X181780077Y-80424800D02*
X181732458Y-80329561D01*
X181732458Y-80329561D02*
X181732458Y-80234323D01*
X181732458Y-80234323D02*
X181780077Y-80139085D01*
X181780077Y-80139085D02*
X181875315Y-80091466D01*
X181875315Y-80091466D02*
X182113410Y-80091466D01*
X182113410Y-80091466D02*
X182208648Y-80043847D01*
D11*
X181283333Y-96524819D02*
X180950000Y-96048628D01*
X180711905Y-96524819D02*
X180711905Y-95524819D01*
X180711905Y-95524819D02*
X181092857Y-95524819D01*
X181092857Y-95524819D02*
X181188095Y-95572438D01*
X181188095Y-95572438D02*
X181235714Y-95620057D01*
X181235714Y-95620057D02*
X181283333Y-95715295D01*
X181283333Y-95715295D02*
X181283333Y-95858152D01*
X181283333Y-95858152D02*
X181235714Y-95953390D01*
X181235714Y-95953390D02*
X181188095Y-96001009D01*
X181188095Y-96001009D02*
X181092857Y-96048628D01*
X181092857Y-96048628D02*
X180711905Y-96048628D01*
X181854762Y-95953390D02*
X181759524Y-95905771D01*
X181759524Y-95905771D02*
X181711905Y-95858152D01*
X181711905Y-95858152D02*
X181664286Y-95762914D01*
X181664286Y-95762914D02*
X181664286Y-95715295D01*
X181664286Y-95715295D02*
X181711905Y-95620057D01*
X181711905Y-95620057D02*
X181759524Y-95572438D01*
X181759524Y-95572438D02*
X181854762Y-95524819D01*
X181854762Y-95524819D02*
X182045238Y-95524819D01*
X182045238Y-95524819D02*
X182140476Y-95572438D01*
X182140476Y-95572438D02*
X182188095Y-95620057D01*
X182188095Y-95620057D02*
X182235714Y-95715295D01*
X182235714Y-95715295D02*
X182235714Y-95762914D01*
X182235714Y-95762914D02*
X182188095Y-95858152D01*
X182188095Y-95858152D02*
X182140476Y-95905771D01*
X182140476Y-95905771D02*
X182045238Y-95953390D01*
X182045238Y-95953390D02*
X181854762Y-95953390D01*
X181854762Y-95953390D02*
X181759524Y-96001009D01*
X181759524Y-96001009D02*
X181711905Y-96048628D01*
X181711905Y-96048628D02*
X181664286Y-96143866D01*
X181664286Y-96143866D02*
X181664286Y-96334342D01*
X181664286Y-96334342D02*
X181711905Y-96429580D01*
X181711905Y-96429580D02*
X181759524Y-96477200D01*
X181759524Y-96477200D02*
X181854762Y-96524819D01*
X181854762Y-96524819D02*
X182045238Y-96524819D01*
X182045238Y-96524819D02*
X182140476Y-96477200D01*
X182140476Y-96477200D02*
X182188095Y-96429580D01*
X182188095Y-96429580D02*
X182235714Y-96334342D01*
X182235714Y-96334342D02*
X182235714Y-96143866D01*
X182235714Y-96143866D02*
X182188095Y-96048628D01*
X182188095Y-96048628D02*
X182140476Y-96001009D01*
X182140476Y-96001009D02*
X182045238Y-95953390D01*
X153884819Y-75116666D02*
X153408628Y-75449999D01*
X153884819Y-75688094D02*
X152884819Y-75688094D01*
X152884819Y-75688094D02*
X152884819Y-75307142D01*
X152884819Y-75307142D02*
X152932438Y-75211904D01*
X152932438Y-75211904D02*
X152980057Y-75164285D01*
X152980057Y-75164285D02*
X153075295Y-75116666D01*
X153075295Y-75116666D02*
X153218152Y-75116666D01*
X153218152Y-75116666D02*
X153313390Y-75164285D01*
X153313390Y-75164285D02*
X153361009Y-75211904D01*
X153361009Y-75211904D02*
X153408628Y-75307142D01*
X153408628Y-75307142D02*
X153408628Y-75688094D01*
X152884819Y-74211904D02*
X152884819Y-74688094D01*
X152884819Y-74688094D02*
X153361009Y-74735713D01*
X153361009Y-74735713D02*
X153313390Y-74688094D01*
X153313390Y-74688094D02*
X153265771Y-74592856D01*
X153265771Y-74592856D02*
X153265771Y-74354761D01*
X153265771Y-74354761D02*
X153313390Y-74259523D01*
X153313390Y-74259523D02*
X153361009Y-74211904D01*
X153361009Y-74211904D02*
X153456247Y-74164285D01*
X153456247Y-74164285D02*
X153694342Y-74164285D01*
X153694342Y-74164285D02*
X153789580Y-74211904D01*
X153789580Y-74211904D02*
X153837200Y-74259523D01*
X153837200Y-74259523D02*
X153884819Y-74354761D01*
X153884819Y-74354761D02*
X153884819Y-74592856D01*
X153884819Y-74592856D02*
X153837200Y-74688094D01*
X153837200Y-74688094D02*
X153789580Y-74735713D01*
X140539580Y-104729166D02*
X140587200Y-104776785D01*
X140587200Y-104776785D02*
X140634819Y-104919642D01*
X140634819Y-104919642D02*
X140634819Y-105014880D01*
X140634819Y-105014880D02*
X140587200Y-105157737D01*
X140587200Y-105157737D02*
X140491961Y-105252975D01*
X140491961Y-105252975D02*
X140396723Y-105300594D01*
X140396723Y-105300594D02*
X140206247Y-105348213D01*
X140206247Y-105348213D02*
X140063390Y-105348213D01*
X140063390Y-105348213D02*
X139872914Y-105300594D01*
X139872914Y-105300594D02*
X139777676Y-105252975D01*
X139777676Y-105252975D02*
X139682438Y-105157737D01*
X139682438Y-105157737D02*
X139634819Y-105014880D01*
X139634819Y-105014880D02*
X139634819Y-104919642D01*
X139634819Y-104919642D02*
X139682438Y-104776785D01*
X139682438Y-104776785D02*
X139730057Y-104729166D01*
X140634819Y-103776785D02*
X140634819Y-104348213D01*
X140634819Y-104062499D02*
X139634819Y-104062499D01*
X139634819Y-104062499D02*
X139777676Y-104157737D01*
X139777676Y-104157737D02*
X139872914Y-104252975D01*
X139872914Y-104252975D02*
X139920533Y-104348213D01*
X123539580Y-110229166D02*
X123587200Y-110276785D01*
X123587200Y-110276785D02*
X123634819Y-110419642D01*
X123634819Y-110419642D02*
X123634819Y-110514880D01*
X123634819Y-110514880D02*
X123587200Y-110657737D01*
X123587200Y-110657737D02*
X123491961Y-110752975D01*
X123491961Y-110752975D02*
X123396723Y-110800594D01*
X123396723Y-110800594D02*
X123206247Y-110848213D01*
X123206247Y-110848213D02*
X123063390Y-110848213D01*
X123063390Y-110848213D02*
X122872914Y-110800594D01*
X122872914Y-110800594D02*
X122777676Y-110752975D01*
X122777676Y-110752975D02*
X122682438Y-110657737D01*
X122682438Y-110657737D02*
X122634819Y-110514880D01*
X122634819Y-110514880D02*
X122634819Y-110419642D01*
X122634819Y-110419642D02*
X122682438Y-110276785D01*
X122682438Y-110276785D02*
X122730057Y-110229166D01*
X122730057Y-109848213D02*
X122682438Y-109800594D01*
X122682438Y-109800594D02*
X122634819Y-109705356D01*
X122634819Y-109705356D02*
X122634819Y-109467261D01*
X122634819Y-109467261D02*
X122682438Y-109372023D01*
X122682438Y-109372023D02*
X122730057Y-109324404D01*
X122730057Y-109324404D02*
X122825295Y-109276785D01*
X122825295Y-109276785D02*
X122920533Y-109276785D01*
X122920533Y-109276785D02*
X123063390Y-109324404D01*
X123063390Y-109324404D02*
X123634819Y-109895832D01*
X123634819Y-109895832D02*
X123634819Y-109276785D01*
X140539580Y-97666666D02*
X140587200Y-97714285D01*
X140587200Y-97714285D02*
X140634819Y-97857142D01*
X140634819Y-97857142D02*
X140634819Y-97952380D01*
X140634819Y-97952380D02*
X140587200Y-98095237D01*
X140587200Y-98095237D02*
X140491961Y-98190475D01*
X140491961Y-98190475D02*
X140396723Y-98238094D01*
X140396723Y-98238094D02*
X140206247Y-98285713D01*
X140206247Y-98285713D02*
X140063390Y-98285713D01*
X140063390Y-98285713D02*
X139872914Y-98238094D01*
X139872914Y-98238094D02*
X139777676Y-98190475D01*
X139777676Y-98190475D02*
X139682438Y-98095237D01*
X139682438Y-98095237D02*
X139634819Y-97952380D01*
X139634819Y-97952380D02*
X139634819Y-97857142D01*
X139634819Y-97857142D02*
X139682438Y-97714285D01*
X139682438Y-97714285D02*
X139730057Y-97666666D01*
X139968152Y-96809523D02*
X140634819Y-96809523D01*
X139587200Y-97047618D02*
X140301485Y-97285713D01*
X140301485Y-97285713D02*
X140301485Y-96666666D01*
X147384819Y-75116666D02*
X146908628Y-75449999D01*
X147384819Y-75688094D02*
X146384819Y-75688094D01*
X146384819Y-75688094D02*
X146384819Y-75307142D01*
X146384819Y-75307142D02*
X146432438Y-75211904D01*
X146432438Y-75211904D02*
X146480057Y-75164285D01*
X146480057Y-75164285D02*
X146575295Y-75116666D01*
X146575295Y-75116666D02*
X146718152Y-75116666D01*
X146718152Y-75116666D02*
X146813390Y-75164285D01*
X146813390Y-75164285D02*
X146861009Y-75211904D01*
X146861009Y-75211904D02*
X146908628Y-75307142D01*
X146908628Y-75307142D02*
X146908628Y-75688094D01*
X146718152Y-74259523D02*
X147384819Y-74259523D01*
X146337200Y-74497618D02*
X147051485Y-74735713D01*
X147051485Y-74735713D02*
X147051485Y-74116666D01*
X148450057Y-81495238D02*
X148402438Y-81590476D01*
X148402438Y-81590476D02*
X148307200Y-81685714D01*
X148307200Y-81685714D02*
X148164342Y-81828571D01*
X148164342Y-81828571D02*
X148116723Y-81923809D01*
X148116723Y-81923809D02*
X148116723Y-82019047D01*
X148354819Y-81971428D02*
X148307200Y-82066666D01*
X148307200Y-82066666D02*
X148211961Y-82161904D01*
X148211961Y-82161904D02*
X148021485Y-82209523D01*
X148021485Y-82209523D02*
X147688152Y-82209523D01*
X147688152Y-82209523D02*
X147497676Y-82161904D01*
X147497676Y-82161904D02*
X147402438Y-82066666D01*
X147402438Y-82066666D02*
X147354819Y-81971428D01*
X147354819Y-81971428D02*
X147354819Y-81780952D01*
X147354819Y-81780952D02*
X147402438Y-81685714D01*
X147402438Y-81685714D02*
X147497676Y-81590476D01*
X147497676Y-81590476D02*
X147688152Y-81542857D01*
X147688152Y-81542857D02*
X148021485Y-81542857D01*
X148021485Y-81542857D02*
X148211961Y-81590476D01*
X148211961Y-81590476D02*
X148307200Y-81685714D01*
X148307200Y-81685714D02*
X148354819Y-81780952D01*
X148354819Y-81780952D02*
X148354819Y-81971428D01*
X148354819Y-80590476D02*
X148354819Y-81161904D01*
X148354819Y-80876190D02*
X147354819Y-80876190D01*
X147354819Y-80876190D02*
X147497676Y-80971428D01*
X147497676Y-80971428D02*
X147592914Y-81066666D01*
X147592914Y-81066666D02*
X147640533Y-81161904D01*
X148584819Y-109979166D02*
X148108628Y-110312499D01*
X148584819Y-110550594D02*
X147584819Y-110550594D01*
X147584819Y-110550594D02*
X147584819Y-110169642D01*
X147584819Y-110169642D02*
X147632438Y-110074404D01*
X147632438Y-110074404D02*
X147680057Y-110026785D01*
X147680057Y-110026785D02*
X147775295Y-109979166D01*
X147775295Y-109979166D02*
X147918152Y-109979166D01*
X147918152Y-109979166D02*
X148013390Y-110026785D01*
X148013390Y-110026785D02*
X148061009Y-110074404D01*
X148061009Y-110074404D02*
X148108628Y-110169642D01*
X148108628Y-110169642D02*
X148108628Y-110550594D01*
X147680057Y-109598213D02*
X147632438Y-109550594D01*
X147632438Y-109550594D02*
X147584819Y-109455356D01*
X147584819Y-109455356D02*
X147584819Y-109217261D01*
X147584819Y-109217261D02*
X147632438Y-109122023D01*
X147632438Y-109122023D02*
X147680057Y-109074404D01*
X147680057Y-109074404D02*
X147775295Y-109026785D01*
X147775295Y-109026785D02*
X147870533Y-109026785D01*
X147870533Y-109026785D02*
X148013390Y-109074404D01*
X148013390Y-109074404D02*
X148584819Y-109645832D01*
X148584819Y-109645832D02*
X148584819Y-109026785D01*
X155857000Y-88795580D02*
X155904619Y-88843200D01*
X155904619Y-88843200D02*
X155857000Y-88890819D01*
X155857000Y-88890819D02*
X155809381Y-88843200D01*
X155809381Y-88843200D02*
X155857000Y-88795580D01*
X155857000Y-88795580D02*
X155857000Y-88890819D01*
X156134905Y-71999819D02*
X156134905Y-70999819D01*
X156134905Y-70999819D02*
X156373000Y-70999819D01*
X156373000Y-70999819D02*
X156515857Y-71047438D01*
X156515857Y-71047438D02*
X156611095Y-71142676D01*
X156611095Y-71142676D02*
X156658714Y-71237914D01*
X156658714Y-71237914D02*
X156706333Y-71428390D01*
X156706333Y-71428390D02*
X156706333Y-71571247D01*
X156706333Y-71571247D02*
X156658714Y-71761723D01*
X156658714Y-71761723D02*
X156611095Y-71856961D01*
X156611095Y-71856961D02*
X156515857Y-71952200D01*
X156515857Y-71952200D02*
X156373000Y-71999819D01*
X156373000Y-71999819D02*
X156134905Y-71999819D01*
X157325381Y-70999819D02*
X157420619Y-70999819D01*
X157420619Y-70999819D02*
X157515857Y-71047438D01*
X157515857Y-71047438D02*
X157563476Y-71095057D01*
X157563476Y-71095057D02*
X157611095Y-71190295D01*
X157611095Y-71190295D02*
X157658714Y-71380771D01*
X157658714Y-71380771D02*
X157658714Y-71618866D01*
X157658714Y-71618866D02*
X157611095Y-71809342D01*
X157611095Y-71809342D02*
X157563476Y-71904580D01*
X157563476Y-71904580D02*
X157515857Y-71952200D01*
X157515857Y-71952200D02*
X157420619Y-71999819D01*
X157420619Y-71999819D02*
X157325381Y-71999819D01*
X157325381Y-71999819D02*
X157230143Y-71952200D01*
X157230143Y-71952200D02*
X157182524Y-71904580D01*
X157182524Y-71904580D02*
X157134905Y-71809342D01*
X157134905Y-71809342D02*
X157087286Y-71618866D01*
X157087286Y-71618866D02*
X157087286Y-71380771D01*
X157087286Y-71380771D02*
X157134905Y-71190295D01*
X157134905Y-71190295D02*
X157182524Y-71095057D01*
X157182524Y-71095057D02*
X157230143Y-71047438D01*
X157230143Y-71047438D02*
X157325381Y-70999819D01*
X148384819Y-89216666D02*
X147908628Y-89549999D01*
X148384819Y-89788094D02*
X147384819Y-89788094D01*
X147384819Y-89788094D02*
X147384819Y-89407142D01*
X147384819Y-89407142D02*
X147432438Y-89311904D01*
X147432438Y-89311904D02*
X147480057Y-89264285D01*
X147480057Y-89264285D02*
X147575295Y-89216666D01*
X147575295Y-89216666D02*
X147718152Y-89216666D01*
X147718152Y-89216666D02*
X147813390Y-89264285D01*
X147813390Y-89264285D02*
X147861009Y-89311904D01*
X147861009Y-89311904D02*
X147908628Y-89407142D01*
X147908628Y-89407142D02*
X147908628Y-89788094D01*
X147384819Y-88883332D02*
X147384819Y-88216666D01*
X147384819Y-88216666D02*
X148384819Y-88645237D01*
X173261905Y-96124819D02*
X173261905Y-95124819D01*
X173261905Y-95124819D02*
X173500000Y-95124819D01*
X173500000Y-95124819D02*
X173642857Y-95172438D01*
X173642857Y-95172438D02*
X173738095Y-95267676D01*
X173738095Y-95267676D02*
X173785714Y-95362914D01*
X173785714Y-95362914D02*
X173833333Y-95553390D01*
X173833333Y-95553390D02*
X173833333Y-95696247D01*
X173833333Y-95696247D02*
X173785714Y-95886723D01*
X173785714Y-95886723D02*
X173738095Y-95981961D01*
X173738095Y-95981961D02*
X173642857Y-96077200D01*
X173642857Y-96077200D02*
X173500000Y-96124819D01*
X173500000Y-96124819D02*
X173261905Y-96124819D01*
X174785714Y-96124819D02*
X174214286Y-96124819D01*
X174500000Y-96124819D02*
X174500000Y-95124819D01*
X174500000Y-95124819D02*
X174404762Y-95267676D01*
X174404762Y-95267676D02*
X174309524Y-95362914D01*
X174309524Y-95362914D02*
X174214286Y-95410533D01*
X140539580Y-90729166D02*
X140587200Y-90776785D01*
X140587200Y-90776785D02*
X140634819Y-90919642D01*
X140634819Y-90919642D02*
X140634819Y-91014880D01*
X140634819Y-91014880D02*
X140587200Y-91157737D01*
X140587200Y-91157737D02*
X140491961Y-91252975D01*
X140491961Y-91252975D02*
X140396723Y-91300594D01*
X140396723Y-91300594D02*
X140206247Y-91348213D01*
X140206247Y-91348213D02*
X140063390Y-91348213D01*
X140063390Y-91348213D02*
X139872914Y-91300594D01*
X139872914Y-91300594D02*
X139777676Y-91252975D01*
X139777676Y-91252975D02*
X139682438Y-91157737D01*
X139682438Y-91157737D02*
X139634819Y-91014880D01*
X139634819Y-91014880D02*
X139634819Y-90919642D01*
X139634819Y-90919642D02*
X139682438Y-90776785D01*
X139682438Y-90776785D02*
X139730057Y-90729166D01*
X140063390Y-90157737D02*
X140015771Y-90252975D01*
X140015771Y-90252975D02*
X139968152Y-90300594D01*
X139968152Y-90300594D02*
X139872914Y-90348213D01*
X139872914Y-90348213D02*
X139825295Y-90348213D01*
X139825295Y-90348213D02*
X139730057Y-90300594D01*
X139730057Y-90300594D02*
X139682438Y-90252975D01*
X139682438Y-90252975D02*
X139634819Y-90157737D01*
X139634819Y-90157737D02*
X139634819Y-89967261D01*
X139634819Y-89967261D02*
X139682438Y-89872023D01*
X139682438Y-89872023D02*
X139730057Y-89824404D01*
X139730057Y-89824404D02*
X139825295Y-89776785D01*
X139825295Y-89776785D02*
X139872914Y-89776785D01*
X139872914Y-89776785D02*
X139968152Y-89824404D01*
X139968152Y-89824404D02*
X140015771Y-89872023D01*
X140015771Y-89872023D02*
X140063390Y-89967261D01*
X140063390Y-89967261D02*
X140063390Y-90157737D01*
X140063390Y-90157737D02*
X140111009Y-90252975D01*
X140111009Y-90252975D02*
X140158628Y-90300594D01*
X140158628Y-90300594D02*
X140253866Y-90348213D01*
X140253866Y-90348213D02*
X140444342Y-90348213D01*
X140444342Y-90348213D02*
X140539580Y-90300594D01*
X140539580Y-90300594D02*
X140587200Y-90252975D01*
X140587200Y-90252975D02*
X140634819Y-90157737D01*
X140634819Y-90157737D02*
X140634819Y-89967261D01*
X140634819Y-89967261D02*
X140587200Y-89872023D01*
X140587200Y-89872023D02*
X140539580Y-89824404D01*
X140539580Y-89824404D02*
X140444342Y-89776785D01*
X140444342Y-89776785D02*
X140253866Y-89776785D01*
X140253866Y-89776785D02*
X140158628Y-89824404D01*
X140158628Y-89824404D02*
X140111009Y-89872023D01*
X140111009Y-89872023D02*
X140063390Y-89967261D01*
X140884819Y-75116666D02*
X140408628Y-75449999D01*
X140884819Y-75688094D02*
X139884819Y-75688094D01*
X139884819Y-75688094D02*
X139884819Y-75307142D01*
X139884819Y-75307142D02*
X139932438Y-75211904D01*
X139932438Y-75211904D02*
X139980057Y-75164285D01*
X139980057Y-75164285D02*
X140075295Y-75116666D01*
X140075295Y-75116666D02*
X140218152Y-75116666D01*
X140218152Y-75116666D02*
X140313390Y-75164285D01*
X140313390Y-75164285D02*
X140361009Y-75211904D01*
X140361009Y-75211904D02*
X140408628Y-75307142D01*
X140408628Y-75307142D02*
X140408628Y-75688094D01*
X139884819Y-74259523D02*
X139884819Y-74449999D01*
X139884819Y-74449999D02*
X139932438Y-74545237D01*
X139932438Y-74545237D02*
X139980057Y-74592856D01*
X139980057Y-74592856D02*
X140122914Y-74688094D01*
X140122914Y-74688094D02*
X140313390Y-74735713D01*
X140313390Y-74735713D02*
X140694342Y-74735713D01*
X140694342Y-74735713D02*
X140789580Y-74688094D01*
X140789580Y-74688094D02*
X140837200Y-74640475D01*
X140837200Y-74640475D02*
X140884819Y-74545237D01*
X140884819Y-74545237D02*
X140884819Y-74354761D01*
X140884819Y-74354761D02*
X140837200Y-74259523D01*
X140837200Y-74259523D02*
X140789580Y-74211904D01*
X140789580Y-74211904D02*
X140694342Y-74164285D01*
X140694342Y-74164285D02*
X140456247Y-74164285D01*
X140456247Y-74164285D02*
X140361009Y-74211904D01*
X140361009Y-74211904D02*
X140313390Y-74259523D01*
X140313390Y-74259523D02*
X140265771Y-74354761D01*
X140265771Y-74354761D02*
X140265771Y-74545237D01*
X140265771Y-74545237D02*
X140313390Y-74640475D01*
X140313390Y-74640475D02*
X140361009Y-74688094D01*
X140361009Y-74688094D02*
X140456247Y-74735713D01*
X120738095Y-83074819D02*
X120738095Y-83884342D01*
X120738095Y-83884342D02*
X120785714Y-83979580D01*
X120785714Y-83979580D02*
X120833333Y-84027200D01*
X120833333Y-84027200D02*
X120928571Y-84074819D01*
X120928571Y-84074819D02*
X121119047Y-84074819D01*
X121119047Y-84074819D02*
X121214285Y-84027200D01*
X121214285Y-84027200D02*
X121261904Y-83979580D01*
X121261904Y-83979580D02*
X121309523Y-83884342D01*
X121309523Y-83884342D02*
X121309523Y-83074819D01*
X122309523Y-84074819D02*
X121738095Y-84074819D01*
X122023809Y-84074819D02*
X122023809Y-83074819D01*
X122023809Y-83074819D02*
X121928571Y-83217676D01*
X121928571Y-83217676D02*
X121833333Y-83312914D01*
X121833333Y-83312914D02*
X121738095Y-83360533D01*
X144783333Y-104884819D02*
X144450000Y-104408628D01*
X144211905Y-104884819D02*
X144211905Y-103884819D01*
X144211905Y-103884819D02*
X144592857Y-103884819D01*
X144592857Y-103884819D02*
X144688095Y-103932438D01*
X144688095Y-103932438D02*
X144735714Y-103980057D01*
X144735714Y-103980057D02*
X144783333Y-104075295D01*
X144783333Y-104075295D02*
X144783333Y-104218152D01*
X144783333Y-104218152D02*
X144735714Y-104313390D01*
X144735714Y-104313390D02*
X144688095Y-104361009D01*
X144688095Y-104361009D02*
X144592857Y-104408628D01*
X144592857Y-104408628D02*
X144211905Y-104408628D01*
X145735714Y-104884819D02*
X145164286Y-104884819D01*
X145450000Y-104884819D02*
X145450000Y-103884819D01*
X145450000Y-103884819D02*
X145354762Y-104027676D01*
X145354762Y-104027676D02*
X145259524Y-104122914D01*
X145259524Y-104122914D02*
X145164286Y-104170533D01*
X144667261Y-97800057D02*
X144572023Y-97752438D01*
X144572023Y-97752438D02*
X144476785Y-97657200D01*
X144476785Y-97657200D02*
X144333928Y-97514342D01*
X144333928Y-97514342D02*
X144238690Y-97466723D01*
X144238690Y-97466723D02*
X144143452Y-97466723D01*
X144191071Y-97704819D02*
X144095833Y-97657200D01*
X144095833Y-97657200D02*
X144000595Y-97561961D01*
X144000595Y-97561961D02*
X143952976Y-97371485D01*
X143952976Y-97371485D02*
X143952976Y-97038152D01*
X143952976Y-97038152D02*
X144000595Y-96847676D01*
X144000595Y-96847676D02*
X144095833Y-96752438D01*
X144095833Y-96752438D02*
X144191071Y-96704819D01*
X144191071Y-96704819D02*
X144381547Y-96704819D01*
X144381547Y-96704819D02*
X144476785Y-96752438D01*
X144476785Y-96752438D02*
X144572023Y-96847676D01*
X144572023Y-96847676D02*
X144619642Y-97038152D01*
X144619642Y-97038152D02*
X144619642Y-97371485D01*
X144619642Y-97371485D02*
X144572023Y-97561961D01*
X144572023Y-97561961D02*
X144476785Y-97657200D01*
X144476785Y-97657200D02*
X144381547Y-97704819D01*
X144381547Y-97704819D02*
X144191071Y-97704819D01*
X145476785Y-97038152D02*
X145476785Y-97704819D01*
X145238690Y-96657200D02*
X145000595Y-97371485D01*
X145000595Y-97371485D02*
X145619642Y-97371485D01*
X141000057Y-81432738D02*
X140952438Y-81527976D01*
X140952438Y-81527976D02*
X140857200Y-81623214D01*
X140857200Y-81623214D02*
X140714342Y-81766071D01*
X140714342Y-81766071D02*
X140666723Y-81861309D01*
X140666723Y-81861309D02*
X140666723Y-81956547D01*
X140904819Y-81908928D02*
X140857200Y-82004166D01*
X140857200Y-82004166D02*
X140761961Y-82099404D01*
X140761961Y-82099404D02*
X140571485Y-82147023D01*
X140571485Y-82147023D02*
X140238152Y-82147023D01*
X140238152Y-82147023D02*
X140047676Y-82099404D01*
X140047676Y-82099404D02*
X139952438Y-82004166D01*
X139952438Y-82004166D02*
X139904819Y-81908928D01*
X139904819Y-81908928D02*
X139904819Y-81718452D01*
X139904819Y-81718452D02*
X139952438Y-81623214D01*
X139952438Y-81623214D02*
X140047676Y-81527976D01*
X140047676Y-81527976D02*
X140238152Y-81480357D01*
X140238152Y-81480357D02*
X140571485Y-81480357D01*
X140571485Y-81480357D02*
X140761961Y-81527976D01*
X140761961Y-81527976D02*
X140857200Y-81623214D01*
X140857200Y-81623214D02*
X140904819Y-81718452D01*
X140904819Y-81718452D02*
X140904819Y-81908928D01*
X139904819Y-81147023D02*
X139904819Y-80527976D01*
X139904819Y-80527976D02*
X140285771Y-80861309D01*
X140285771Y-80861309D02*
X140285771Y-80718452D01*
X140285771Y-80718452D02*
X140333390Y-80623214D01*
X140333390Y-80623214D02*
X140381009Y-80575595D01*
X140381009Y-80575595D02*
X140476247Y-80527976D01*
X140476247Y-80527976D02*
X140714342Y-80527976D01*
X140714342Y-80527976D02*
X140809580Y-80575595D01*
X140809580Y-80575595D02*
X140857200Y-80623214D01*
X140857200Y-80623214D02*
X140904819Y-80718452D01*
X140904819Y-80718452D02*
X140904819Y-81004166D01*
X140904819Y-81004166D02*
X140857200Y-81099404D01*
X140857200Y-81099404D02*
X140809580Y-81147023D01*
X126601792Y-89647698D02*
X126649412Y-89695317D01*
X126649412Y-89695317D02*
X126697031Y-89838174D01*
X126697031Y-89838174D02*
X126697031Y-89933412D01*
X126697031Y-89933412D02*
X126649412Y-90076269D01*
X126649412Y-90076269D02*
X126554173Y-90171507D01*
X126554173Y-90171507D02*
X126458935Y-90219126D01*
X126458935Y-90219126D02*
X126268459Y-90266745D01*
X126268459Y-90266745D02*
X126125602Y-90266745D01*
X126125602Y-90266745D02*
X125935126Y-90219126D01*
X125935126Y-90219126D02*
X125839888Y-90171507D01*
X125839888Y-90171507D02*
X125744650Y-90076269D01*
X125744650Y-90076269D02*
X125697031Y-89933412D01*
X125697031Y-89933412D02*
X125697031Y-89838174D01*
X125697031Y-89838174D02*
X125744650Y-89695317D01*
X125744650Y-89695317D02*
X125792269Y-89647698D01*
X126697031Y-89171507D02*
X126697031Y-88981031D01*
X126697031Y-88981031D02*
X126649412Y-88885793D01*
X126649412Y-88885793D02*
X126601792Y-88838174D01*
X126601792Y-88838174D02*
X126458935Y-88742936D01*
X126458935Y-88742936D02*
X126268459Y-88695317D01*
X126268459Y-88695317D02*
X125887507Y-88695317D01*
X125887507Y-88695317D02*
X125792269Y-88742936D01*
X125792269Y-88742936D02*
X125744650Y-88790555D01*
X125744650Y-88790555D02*
X125697031Y-88885793D01*
X125697031Y-88885793D02*
X125697031Y-89076269D01*
X125697031Y-89076269D02*
X125744650Y-89171507D01*
X125744650Y-89171507D02*
X125792269Y-89219126D01*
X125792269Y-89219126D02*
X125887507Y-89266745D01*
X125887507Y-89266745D02*
X126125602Y-89266745D01*
X126125602Y-89266745D02*
X126220840Y-89219126D01*
X126220840Y-89219126D02*
X126268459Y-89171507D01*
X126268459Y-89171507D02*
X126316078Y-89076269D01*
X126316078Y-89076269D02*
X126316078Y-88885793D01*
X126316078Y-88885793D02*
X126268459Y-88790555D01*
X126268459Y-88790555D02*
X126220840Y-88742936D01*
X126220840Y-88742936D02*
X126125602Y-88695317D01*
X154950057Y-81495238D02*
X154902438Y-81590476D01*
X154902438Y-81590476D02*
X154807200Y-81685714D01*
X154807200Y-81685714D02*
X154664342Y-81828571D01*
X154664342Y-81828571D02*
X154616723Y-81923809D01*
X154616723Y-81923809D02*
X154616723Y-82019047D01*
X154854819Y-81971428D02*
X154807200Y-82066666D01*
X154807200Y-82066666D02*
X154711961Y-82161904D01*
X154711961Y-82161904D02*
X154521485Y-82209523D01*
X154521485Y-82209523D02*
X154188152Y-82209523D01*
X154188152Y-82209523D02*
X153997676Y-82161904D01*
X153997676Y-82161904D02*
X153902438Y-82066666D01*
X153902438Y-82066666D02*
X153854819Y-81971428D01*
X153854819Y-81971428D02*
X153854819Y-81780952D01*
X153854819Y-81780952D02*
X153902438Y-81685714D01*
X153902438Y-81685714D02*
X153997676Y-81590476D01*
X153997676Y-81590476D02*
X154188152Y-81542857D01*
X154188152Y-81542857D02*
X154521485Y-81542857D01*
X154521485Y-81542857D02*
X154711961Y-81590476D01*
X154711961Y-81590476D02*
X154807200Y-81685714D01*
X154807200Y-81685714D02*
X154854819Y-81780952D01*
X154854819Y-81780952D02*
X154854819Y-81971428D01*
X153950057Y-81161904D02*
X153902438Y-81114285D01*
X153902438Y-81114285D02*
X153854819Y-81019047D01*
X153854819Y-81019047D02*
X153854819Y-80780952D01*
X153854819Y-80780952D02*
X153902438Y-80685714D01*
X153902438Y-80685714D02*
X153950057Y-80638095D01*
X153950057Y-80638095D02*
X154045295Y-80590476D01*
X154045295Y-80590476D02*
X154140533Y-80590476D01*
X154140533Y-80590476D02*
X154283390Y-80638095D01*
X154283390Y-80638095D02*
X154854819Y-81209523D01*
X154854819Y-81209523D02*
X154854819Y-80590476D01*
X157179580Y-75429166D02*
X157227200Y-75476785D01*
X157227200Y-75476785D02*
X157274819Y-75619642D01*
X157274819Y-75619642D02*
X157274819Y-75714880D01*
X157274819Y-75714880D02*
X157227200Y-75857737D01*
X157227200Y-75857737D02*
X157131961Y-75952975D01*
X157131961Y-75952975D02*
X157036723Y-76000594D01*
X157036723Y-76000594D02*
X156846247Y-76048213D01*
X156846247Y-76048213D02*
X156703390Y-76048213D01*
X156703390Y-76048213D02*
X156512914Y-76000594D01*
X156512914Y-76000594D02*
X156417676Y-75952975D01*
X156417676Y-75952975D02*
X156322438Y-75857737D01*
X156322438Y-75857737D02*
X156274819Y-75714880D01*
X156274819Y-75714880D02*
X156274819Y-75619642D01*
X156274819Y-75619642D02*
X156322438Y-75476785D01*
X156322438Y-75476785D02*
X156370057Y-75429166D01*
X156274819Y-74524404D02*
X156274819Y-75000594D01*
X156274819Y-75000594D02*
X156751009Y-75048213D01*
X156751009Y-75048213D02*
X156703390Y-75000594D01*
X156703390Y-75000594D02*
X156655771Y-74905356D01*
X156655771Y-74905356D02*
X156655771Y-74667261D01*
X156655771Y-74667261D02*
X156703390Y-74572023D01*
X156703390Y-74572023D02*
X156751009Y-74524404D01*
X156751009Y-74524404D02*
X156846247Y-74476785D01*
X156846247Y-74476785D02*
X157084342Y-74476785D01*
X157084342Y-74476785D02*
X157179580Y-74524404D01*
X157179580Y-74524404D02*
X157227200Y-74572023D01*
X157227200Y-74572023D02*
X157274819Y-74667261D01*
X157274819Y-74667261D02*
X157274819Y-74905356D01*
X157274819Y-74905356D02*
X157227200Y-75000594D01*
X157227200Y-75000594D02*
X157179580Y-75048213D01*
D12*
G04 #@! TO.C,R8*
X181195276Y-96977500D02*
X181704724Y-96977500D01*
X181195276Y-98022500D02*
X181704724Y-98022500D01*
G04 #@! TO.C,R5*
X151477500Y-74695276D02*
X151477500Y-75204724D01*
X152522500Y-74695276D02*
X152522500Y-75204724D01*
G04 #@! TO.C,C1*
X137765000Y-104301248D02*
X137765000Y-104823752D01*
X139235000Y-104301248D02*
X139235000Y-104823752D01*
G04 #@! TO.C,C2*
X120765000Y-109801248D02*
X120765000Y-110323752D01*
X122235000Y-109801248D02*
X122235000Y-110323752D01*
G04 #@! TO.C,C4*
X137765000Y-97238748D02*
X137765000Y-97761252D01*
X139235000Y-97238748D02*
X139235000Y-97761252D01*
G04 #@! TO.C,R4*
X144977500Y-74695276D02*
X144977500Y-75204724D01*
X146022500Y-74695276D02*
X146022500Y-75204724D01*
G04 #@! TO.C,Q1*
X143940000Y-80640000D02*
X143990000Y-80640000D01*
X143940000Y-82160000D02*
X143940000Y-80640000D01*
X144940000Y-82160000D02*
X143940000Y-82160000D01*
X145110000Y-80640000D02*
X145890000Y-80640000D01*
X147010000Y-80640000D02*
X147060000Y-80640000D01*
X147060000Y-80640000D02*
X147060000Y-82160000D01*
X147060000Y-82160000D02*
X146060000Y-82160000D01*
X145880000Y-80100000D02*
X145550000Y-80340000D01*
X145550000Y-79860000D01*
X145880000Y-80100000D01*
G36*
X145880000Y-80100000D02*
G01*
X145550000Y-80340000D01*
X145550000Y-79860000D01*
X145880000Y-80100000D01*
G37*
G04 #@! TO.C,R2*
X146177500Y-109557776D02*
X146177500Y-110067224D01*
X147222500Y-109557776D02*
X147222500Y-110067224D01*
G04 #@! TO.C,R7*
X145977500Y-88795276D02*
X145977500Y-89304724D01*
X147022500Y-88795276D02*
X147022500Y-89304724D01*
G04 #@! TO.C,D1*
X171540000Y-96365000D02*
X171540000Y-98635000D01*
X171540000Y-98635000D02*
X175600000Y-98635000D01*
X175600000Y-96365000D02*
X171540000Y-96365000D01*
G04 #@! TO.C,C8*
X137765000Y-90301248D02*
X137765000Y-90823752D01*
X139235000Y-90301248D02*
X139235000Y-90823752D01*
G04 #@! TO.C,R6*
X138477500Y-74695276D02*
X138477500Y-75204724D01*
X139522500Y-74695276D02*
X139522500Y-75204724D01*
G04 #@! TO.C,U1*
X120120000Y-84620000D02*
X121500000Y-84620000D01*
X120120000Y-86000000D02*
X120120000Y-84620000D01*
X120120000Y-87270000D02*
X120120000Y-105160000D01*
X120120000Y-87270000D02*
X122880000Y-87270000D01*
X120120000Y-105160000D02*
X122880000Y-105160000D01*
X122880000Y-87270000D02*
X122880000Y-105160000D01*
G04 #@! TO.C,R1*
X145204724Y-102477500D02*
X144695276Y-102477500D01*
X145204724Y-103522500D02*
X144695276Y-103522500D01*
G04 #@! TO.C,Q4*
X144002500Y-93290000D02*
X145522500Y-93290000D01*
X144002500Y-94290000D02*
X144002500Y-93290000D01*
X144002500Y-96410000D02*
X144002500Y-95410000D01*
X145522500Y-93290000D02*
X145522500Y-93340000D01*
X145522500Y-94460000D02*
X145522500Y-95240000D01*
X145522500Y-96360000D02*
X145522500Y-96410000D01*
X145522500Y-96410000D02*
X144002500Y-96410000D01*
X146062500Y-95230000D02*
X145822500Y-94900000D01*
X146302500Y-94900000D01*
X146062500Y-95230000D01*
G36*
X146062500Y-95230000D02*
G01*
X145822500Y-94900000D01*
X146302500Y-94900000D01*
X146062500Y-95230000D01*
G37*
G04 #@! TO.C,Q3*
X136490000Y-80577500D02*
X136540000Y-80577500D01*
X136490000Y-82097500D02*
X136490000Y-80577500D01*
X137490000Y-82097500D02*
X136490000Y-82097500D01*
X137660000Y-80577500D02*
X138440000Y-80577500D01*
X139560000Y-80577500D02*
X139610000Y-80577500D01*
X139610000Y-80577500D02*
X139610000Y-82097500D01*
X139610000Y-82097500D02*
X138610000Y-82097500D01*
X138430000Y-80037500D02*
X138100000Y-80277500D01*
X138100000Y-79797500D01*
X138430000Y-80037500D01*
G36*
X138430000Y-80037500D02*
G01*
X138100000Y-80277500D01*
X138100000Y-79797500D01*
X138430000Y-80037500D01*
G37*
G04 #@! TO.C,C9*
X127187212Y-89742284D02*
X127187212Y-89219780D01*
X128657212Y-89742284D02*
X128657212Y-89219780D01*
G04 #@! TO.C,Q2*
X150440000Y-80640000D02*
X150490000Y-80640000D01*
X150440000Y-82160000D02*
X150440000Y-80640000D01*
X151440000Y-82160000D02*
X150440000Y-82160000D01*
X151610000Y-80640000D02*
X152390000Y-80640000D01*
X153510000Y-80640000D02*
X153560000Y-80640000D01*
X153560000Y-80640000D02*
X153560000Y-82160000D01*
X153560000Y-82160000D02*
X152560000Y-82160000D01*
X152380000Y-80100000D02*
X152050000Y-80340000D01*
X152050000Y-79860000D01*
X152380000Y-80100000D01*
G36*
X152380000Y-80100000D02*
G01*
X152050000Y-80340000D01*
X152050000Y-79860000D01*
X152380000Y-80100000D01*
G37*
G04 #@! TO.C,C5*
X157765000Y-75523752D02*
X157765000Y-75001248D01*
X159235000Y-75523752D02*
X159235000Y-75001248D01*
G04 #@! TD*
D13*
X108600000Y-66800000D02*
X108600000Y-120700000D01*
X191000000Y-66800000D02*
X108600000Y-66800000D01*
X192700000Y-68500000D02*
X191000000Y-66800000D01*
X192700000Y-68500000D02*
X192700000Y-79600000D01*
X192700000Y-79600000D02*
X192700000Y-79700000D01*
X192700000Y-79700000D02*
X195200000Y-82200000D01*
X192700000Y-119200000D02*
X192700000Y-120700000D01*
X192700000Y-120700000D02*
X108600000Y-120700000D01*
X195200000Y-82300000D02*
X195200000Y-82200000D01*
X195200000Y-82300000D02*
X195200000Y-116800000D01*
X195200000Y-116800000D02*
X192700000Y-119200000D01*
M02*
