%TF.GenerationSoftware,KiCad,Pcbnew,9.0.8+dfsg-1*%
%TF.CreationDate,2026-07-03T16:45:25-07:00*%
%TF.ProjectId,arduino-hat,61726475-696e-46f2-9d68-61742e6b6963,rev?*%
%TF.SameCoordinates,Original*%
%TF.FileFunction,Soldermask,Bot*%
%TF.FilePolarity,Negative*%
%FSLAX46Y46*%
G04 Gerber Fmt 4.6, Leading zero omitted, Abs format (unit mm)*
G04 Created by KiCad (PCBNEW 9.0.8+dfsg-1) date 2026-07-03 16:45:25*
%MOMM*%
%LPD*%
G01*
G04 APERTURE LIST*
G04 APERTURE END LIST*
G36*
X190222703Y-116242473D02*
G01*
X190436233Y-116299688D01*
X190640468Y-116384285D01*
X190831914Y-116494816D01*
X191007294Y-116629391D01*
X191163609Y-116785706D01*
X191298184Y-116961086D01*
X191408715Y-117152532D01*
X191493312Y-117356767D01*
X191550527Y-117570297D01*
X191579382Y-117789469D01*
X191579382Y-118010531D01*
X191550527Y-118229703D01*
X191493312Y-118443233D01*
X191408715Y-118647468D01*
X191298184Y-118838914D01*
X191163609Y-119014294D01*
X191007294Y-119170609D01*
X190831914Y-119305184D01*
X190640468Y-119415715D01*
X190436233Y-119500312D01*
X190222703Y-119557527D01*
X190003531Y-119586382D01*
X189782469Y-119586382D01*
X189563297Y-119557527D01*
X189349767Y-119500312D01*
X189145532Y-119415715D01*
X188954086Y-119305184D01*
X188778706Y-119170609D01*
X188622391Y-119014294D01*
X188487816Y-118838914D01*
X188377285Y-118647468D01*
X188292688Y-118443233D01*
X188235473Y-118229703D01*
X188206618Y-118010531D01*
X188206618Y-117789469D01*
X188235473Y-117570297D01*
X188292688Y-117356767D01*
X188377285Y-117152532D01*
X188487816Y-116961086D01*
X188622391Y-116785706D01*
X188778706Y-116629391D01*
X188954086Y-116494816D01*
X189145532Y-116384285D01*
X189349767Y-116299688D01*
X189563297Y-116242473D01*
X189782469Y-116213618D01*
X190003531Y-116213618D01*
X190222703Y-116242473D01*
G37*
G36*
X134911042Y-116953251D02*
G01*
X134940240Y-116972760D01*
X134959749Y-117001958D01*
X134966600Y-117036400D01*
X134966600Y-118763600D01*
X134959749Y-118798042D01*
X134940240Y-118827240D01*
X134911042Y-118846749D01*
X134876600Y-118853600D01*
X133149400Y-118853600D01*
X133114958Y-118846749D01*
X133085760Y-118827240D01*
X133066251Y-118798042D01*
X133059400Y-118763600D01*
X133059400Y-117036400D01*
X133066251Y-117001958D01*
X133085760Y-116972760D01*
X133114958Y-116953251D01*
X133149400Y-116946400D01*
X134876600Y-116946400D01*
X134911042Y-116953251D01*
G37*
G36*
X137451042Y-116953251D02*
G01*
X137480240Y-116972760D01*
X137499749Y-117001958D01*
X137506600Y-117036400D01*
X137506600Y-118763600D01*
X137499749Y-118798042D01*
X137480240Y-118827240D01*
X137451042Y-118846749D01*
X137416600Y-118853600D01*
X135689400Y-118853600D01*
X135654958Y-118846749D01*
X135625760Y-118827240D01*
X135606251Y-118798042D01*
X135599400Y-118763600D01*
X135599400Y-117036400D01*
X135606251Y-117001958D01*
X135625760Y-116972760D01*
X135654958Y-116953251D01*
X135689400Y-116946400D01*
X137416600Y-116946400D01*
X137451042Y-116953251D01*
G37*
G36*
X121589815Y-116987462D02*
G01*
X121762524Y-117059000D01*
X121917957Y-117162857D01*
X122050143Y-117295043D01*
X122154000Y-117450476D01*
X122225538Y-117623185D01*
X122262008Y-117806531D01*
X122262008Y-117993469D01*
X122225538Y-118176815D01*
X122154000Y-118349524D01*
X122050143Y-118504957D01*
X121917957Y-118637143D01*
X121762524Y-118741000D01*
X121589815Y-118812538D01*
X121406469Y-118849008D01*
X121219531Y-118849008D01*
X121036185Y-118812538D01*
X120863476Y-118741000D01*
X120708043Y-118637143D01*
X120575857Y-118504957D01*
X120472000Y-118349524D01*
X120400462Y-118176815D01*
X120363992Y-117993469D01*
X120363992Y-117806531D01*
X120400462Y-117623185D01*
X120472000Y-117450476D01*
X120575857Y-117295043D01*
X120708043Y-117162857D01*
X120863476Y-117059000D01*
X121036185Y-116987462D01*
X121219531Y-116950992D01*
X121406469Y-116950992D01*
X121589815Y-116987462D01*
G37*
G36*
X124129815Y-116987462D02*
G01*
X124302524Y-117059000D01*
X124457957Y-117162857D01*
X124590143Y-117295043D01*
X124694000Y-117450476D01*
X124765538Y-117623185D01*
X124802008Y-117806531D01*
X124802008Y-117993469D01*
X124765538Y-118176815D01*
X124694000Y-118349524D01*
X124590143Y-118504957D01*
X124457957Y-118637143D01*
X124302524Y-118741000D01*
X124129815Y-118812538D01*
X123946469Y-118849008D01*
X123759531Y-118849008D01*
X123576185Y-118812538D01*
X123403476Y-118741000D01*
X123248043Y-118637143D01*
X123115857Y-118504957D01*
X123012000Y-118349524D01*
X122940462Y-118176815D01*
X122903992Y-117993469D01*
X122903992Y-117806531D01*
X122940462Y-117623185D01*
X123012000Y-117450476D01*
X123115857Y-117295043D01*
X123248043Y-117162857D01*
X123403476Y-117059000D01*
X123576185Y-116987462D01*
X123759531Y-116950992D01*
X123946469Y-116950992D01*
X124129815Y-116987462D01*
G37*
G36*
X126669815Y-116987462D02*
G01*
X126842524Y-117059000D01*
X126997957Y-117162857D01*
X127130143Y-117295043D01*
X127234000Y-117450476D01*
X127305538Y-117623185D01*
X127342008Y-117806531D01*
X127342008Y-117993469D01*
X127305538Y-118176815D01*
X127234000Y-118349524D01*
X127130143Y-118504957D01*
X126997957Y-118637143D01*
X126842524Y-118741000D01*
X126669815Y-118812538D01*
X126486469Y-118849008D01*
X126299531Y-118849008D01*
X126116185Y-118812538D01*
X125943476Y-118741000D01*
X125788043Y-118637143D01*
X125655857Y-118504957D01*
X125552000Y-118349524D01*
X125480462Y-118176815D01*
X125443992Y-117993469D01*
X125443992Y-117806531D01*
X125480462Y-117623185D01*
X125552000Y-117450476D01*
X125655857Y-117295043D01*
X125788043Y-117162857D01*
X125943476Y-117059000D01*
X126116185Y-116987462D01*
X126299531Y-116950992D01*
X126486469Y-116950992D01*
X126669815Y-116987462D01*
G37*
G36*
X129209815Y-116987462D02*
G01*
X129382524Y-117059000D01*
X129537957Y-117162857D01*
X129670143Y-117295043D01*
X129774000Y-117450476D01*
X129845538Y-117623185D01*
X129882008Y-117806531D01*
X129882008Y-117993469D01*
X129845538Y-118176815D01*
X129774000Y-118349524D01*
X129670143Y-118504957D01*
X129537957Y-118637143D01*
X129382524Y-118741000D01*
X129209815Y-118812538D01*
X129026469Y-118849008D01*
X128839531Y-118849008D01*
X128656185Y-118812538D01*
X128483476Y-118741000D01*
X128328043Y-118637143D01*
X128195857Y-118504957D01*
X128092000Y-118349524D01*
X128020462Y-118176815D01*
X127983992Y-117993469D01*
X127983992Y-117806531D01*
X128020462Y-117623185D01*
X128092000Y-117450476D01*
X128195857Y-117295043D01*
X128328043Y-117162857D01*
X128483476Y-117059000D01*
X128656185Y-116987462D01*
X128839531Y-116950992D01*
X129026469Y-116950992D01*
X129209815Y-116987462D01*
G37*
G36*
X131749815Y-116987462D02*
G01*
X131922524Y-117059000D01*
X132077957Y-117162857D01*
X132210143Y-117295043D01*
X132314000Y-117450476D01*
X132385538Y-117623185D01*
X132422008Y-117806531D01*
X132422008Y-117993469D01*
X132385538Y-118176815D01*
X132314000Y-118349524D01*
X132210143Y-118504957D01*
X132077957Y-118637143D01*
X131922524Y-118741000D01*
X131749815Y-118812538D01*
X131566469Y-118849008D01*
X131379531Y-118849008D01*
X131196185Y-118812538D01*
X131023476Y-118741000D01*
X130868043Y-118637143D01*
X130735857Y-118504957D01*
X130632000Y-118349524D01*
X130560462Y-118176815D01*
X130523992Y-117993469D01*
X130523992Y-117806531D01*
X130560462Y-117623185D01*
X130632000Y-117450476D01*
X130735857Y-117295043D01*
X130868043Y-117162857D01*
X131023476Y-117059000D01*
X131196185Y-116987462D01*
X131379531Y-116950992D01*
X131566469Y-116950992D01*
X131749815Y-116987462D01*
G37*
G36*
X139369815Y-116987462D02*
G01*
X139542524Y-117059000D01*
X139697957Y-117162857D01*
X139830143Y-117295043D01*
X139934000Y-117450476D01*
X140005538Y-117623185D01*
X140042008Y-117806531D01*
X140042008Y-117993469D01*
X140005538Y-118176815D01*
X139934000Y-118349524D01*
X139830143Y-118504957D01*
X139697957Y-118637143D01*
X139542524Y-118741000D01*
X139369815Y-118812538D01*
X139186469Y-118849008D01*
X138999531Y-118849008D01*
X138816185Y-118812538D01*
X138643476Y-118741000D01*
X138488043Y-118637143D01*
X138355857Y-118504957D01*
X138252000Y-118349524D01*
X138180462Y-118176815D01*
X138143992Y-117993469D01*
X138143992Y-117806531D01*
X138180462Y-117623185D01*
X138252000Y-117450476D01*
X138355857Y-117295043D01*
X138488043Y-117162857D01*
X138643476Y-117059000D01*
X138816185Y-116987462D01*
X138999531Y-116950992D01*
X139186469Y-116950992D01*
X139369815Y-116987462D01*
G37*
G36*
X144449815Y-116987462D02*
G01*
X144622524Y-117059000D01*
X144777957Y-117162857D01*
X144910143Y-117295043D01*
X145014000Y-117450476D01*
X145085538Y-117623185D01*
X145122008Y-117806531D01*
X145122008Y-117993469D01*
X145085538Y-118176815D01*
X145014000Y-118349524D01*
X144910143Y-118504957D01*
X144777957Y-118637143D01*
X144622524Y-118741000D01*
X144449815Y-118812538D01*
X144266469Y-118849008D01*
X144079531Y-118849008D01*
X143896185Y-118812538D01*
X143723476Y-118741000D01*
X143568043Y-118637143D01*
X143435857Y-118504957D01*
X143332000Y-118349524D01*
X143260462Y-118176815D01*
X143223992Y-117993469D01*
X143223992Y-117806531D01*
X143260462Y-117623185D01*
X143332000Y-117450476D01*
X143435857Y-117295043D01*
X143568043Y-117162857D01*
X143723476Y-117059000D01*
X143896185Y-116987462D01*
X144079531Y-116950992D01*
X144266469Y-116950992D01*
X144449815Y-116987462D01*
G37*
G36*
X146989815Y-116987462D02*
G01*
X147162524Y-117059000D01*
X147317957Y-117162857D01*
X147450143Y-117295043D01*
X147554000Y-117450476D01*
X147625538Y-117623185D01*
X147662008Y-117806531D01*
X147662008Y-117993469D01*
X147625538Y-118176815D01*
X147554000Y-118349524D01*
X147450143Y-118504957D01*
X147317957Y-118637143D01*
X147162524Y-118741000D01*
X146989815Y-118812538D01*
X146806469Y-118849008D01*
X146619531Y-118849008D01*
X146436185Y-118812538D01*
X146263476Y-118741000D01*
X146108043Y-118637143D01*
X145975857Y-118504957D01*
X145872000Y-118349524D01*
X145800462Y-118176815D01*
X145763992Y-117993469D01*
X145763992Y-117806531D01*
X145800462Y-117623185D01*
X145872000Y-117450476D01*
X145975857Y-117295043D01*
X146108043Y-117162857D01*
X146263476Y-117059000D01*
X146436185Y-116987462D01*
X146619531Y-116950992D01*
X146806469Y-116950992D01*
X146989815Y-116987462D01*
G37*
G36*
X149529815Y-116987462D02*
G01*
X149702524Y-117059000D01*
X149857957Y-117162857D01*
X149990143Y-117295043D01*
X150094000Y-117450476D01*
X150165538Y-117623185D01*
X150202008Y-117806531D01*
X150202008Y-117993469D01*
X150165538Y-118176815D01*
X150094000Y-118349524D01*
X149990143Y-118504957D01*
X149857957Y-118637143D01*
X149702524Y-118741000D01*
X149529815Y-118812538D01*
X149346469Y-118849008D01*
X149159531Y-118849008D01*
X148976185Y-118812538D01*
X148803476Y-118741000D01*
X148648043Y-118637143D01*
X148515857Y-118504957D01*
X148412000Y-118349524D01*
X148340462Y-118176815D01*
X148303992Y-117993469D01*
X148303992Y-117806531D01*
X148340462Y-117623185D01*
X148412000Y-117450476D01*
X148515857Y-117295043D01*
X148648043Y-117162857D01*
X148803476Y-117059000D01*
X148976185Y-116987462D01*
X149159531Y-116950992D01*
X149346469Y-116950992D01*
X149529815Y-116987462D01*
G37*
G36*
X152069815Y-116987462D02*
G01*
X152242524Y-117059000D01*
X152397957Y-117162857D01*
X152530143Y-117295043D01*
X152634000Y-117450476D01*
X152705538Y-117623185D01*
X152742008Y-117806531D01*
X152742008Y-117993469D01*
X152705538Y-118176815D01*
X152634000Y-118349524D01*
X152530143Y-118504957D01*
X152397957Y-118637143D01*
X152242524Y-118741000D01*
X152069815Y-118812538D01*
X151886469Y-118849008D01*
X151699531Y-118849008D01*
X151516185Y-118812538D01*
X151343476Y-118741000D01*
X151188043Y-118637143D01*
X151055857Y-118504957D01*
X150952000Y-118349524D01*
X150880462Y-118176815D01*
X150843992Y-117993469D01*
X150843992Y-117806531D01*
X150880462Y-117623185D01*
X150952000Y-117450476D01*
X151055857Y-117295043D01*
X151188043Y-117162857D01*
X151343476Y-117059000D01*
X151516185Y-116987462D01*
X151699531Y-116950992D01*
X151886469Y-116950992D01*
X152069815Y-116987462D01*
G37*
G36*
X154609815Y-116987462D02*
G01*
X154782524Y-117059000D01*
X154937957Y-117162857D01*
X155070143Y-117295043D01*
X155174000Y-117450476D01*
X155245538Y-117623185D01*
X155282008Y-117806531D01*
X155282008Y-117993469D01*
X155245538Y-118176815D01*
X155174000Y-118349524D01*
X155070143Y-118504957D01*
X154937957Y-118637143D01*
X154782524Y-118741000D01*
X154609815Y-118812538D01*
X154426469Y-118849008D01*
X154239531Y-118849008D01*
X154056185Y-118812538D01*
X153883476Y-118741000D01*
X153728043Y-118637143D01*
X153595857Y-118504957D01*
X153492000Y-118349524D01*
X153420462Y-118176815D01*
X153383992Y-117993469D01*
X153383992Y-117806531D01*
X153420462Y-117623185D01*
X153492000Y-117450476D01*
X153595857Y-117295043D01*
X153728043Y-117162857D01*
X153883476Y-117059000D01*
X154056185Y-116987462D01*
X154239531Y-116950992D01*
X154426469Y-116950992D01*
X154609815Y-116987462D01*
G37*
G36*
X157149815Y-116987462D02*
G01*
X157322524Y-117059000D01*
X157477957Y-117162857D01*
X157610143Y-117295043D01*
X157714000Y-117450476D01*
X157785538Y-117623185D01*
X157822008Y-117806531D01*
X157822008Y-117993469D01*
X157785538Y-118176815D01*
X157714000Y-118349524D01*
X157610143Y-118504957D01*
X157477957Y-118637143D01*
X157322524Y-118741000D01*
X157149815Y-118812538D01*
X156966469Y-118849008D01*
X156779531Y-118849008D01*
X156596185Y-118812538D01*
X156423476Y-118741000D01*
X156268043Y-118637143D01*
X156135857Y-118504957D01*
X156032000Y-118349524D01*
X155960462Y-118176815D01*
X155923992Y-117993469D01*
X155923992Y-117806531D01*
X155960462Y-117623185D01*
X156032000Y-117450476D01*
X156135857Y-117295043D01*
X156268043Y-117162857D01*
X156423476Y-117059000D01*
X156596185Y-116987462D01*
X156779531Y-116950992D01*
X156966469Y-116950992D01*
X157149815Y-116987462D01*
G37*
G36*
X159689815Y-116987462D02*
G01*
X159862524Y-117059000D01*
X160017957Y-117162857D01*
X160150143Y-117295043D01*
X160254000Y-117450476D01*
X160325538Y-117623185D01*
X160362008Y-117806531D01*
X160362008Y-117993469D01*
X160325538Y-118176815D01*
X160254000Y-118349524D01*
X160150143Y-118504957D01*
X160017957Y-118637143D01*
X159862524Y-118741000D01*
X159689815Y-118812538D01*
X159506469Y-118849008D01*
X159319531Y-118849008D01*
X159136185Y-118812538D01*
X158963476Y-118741000D01*
X158808043Y-118637143D01*
X158675857Y-118504957D01*
X158572000Y-118349524D01*
X158500462Y-118176815D01*
X158463992Y-117993469D01*
X158463992Y-117806531D01*
X158500462Y-117623185D01*
X158572000Y-117450476D01*
X158675857Y-117295043D01*
X158808043Y-117162857D01*
X158963476Y-117059000D01*
X159136185Y-116987462D01*
X159319531Y-116950992D01*
X159506469Y-116950992D01*
X159689815Y-116987462D01*
G37*
G36*
X162229815Y-116987462D02*
G01*
X162402524Y-117059000D01*
X162557957Y-117162857D01*
X162690143Y-117295043D01*
X162794000Y-117450476D01*
X162865538Y-117623185D01*
X162902008Y-117806531D01*
X162902008Y-117993469D01*
X162865538Y-118176815D01*
X162794000Y-118349524D01*
X162690143Y-118504957D01*
X162557957Y-118637143D01*
X162402524Y-118741000D01*
X162229815Y-118812538D01*
X162046469Y-118849008D01*
X161859531Y-118849008D01*
X161676185Y-118812538D01*
X161503476Y-118741000D01*
X161348043Y-118637143D01*
X161215857Y-118504957D01*
X161112000Y-118349524D01*
X161040462Y-118176815D01*
X161003992Y-117993469D01*
X161003992Y-117806531D01*
X161040462Y-117623185D01*
X161112000Y-117450476D01*
X161215857Y-117295043D01*
X161348043Y-117162857D01*
X161503476Y-117059000D01*
X161676185Y-116987462D01*
X161859531Y-116950992D01*
X162046469Y-116950992D01*
X162229815Y-116987462D01*
G37*
G36*
X167309815Y-116987462D02*
G01*
X167482524Y-117059000D01*
X167637957Y-117162857D01*
X167770143Y-117295043D01*
X167874000Y-117450476D01*
X167945538Y-117623185D01*
X167982008Y-117806531D01*
X167982008Y-117993469D01*
X167945538Y-118176815D01*
X167874000Y-118349524D01*
X167770143Y-118504957D01*
X167637957Y-118637143D01*
X167482524Y-118741000D01*
X167309815Y-118812538D01*
X167126469Y-118849008D01*
X166939531Y-118849008D01*
X166756185Y-118812538D01*
X166583476Y-118741000D01*
X166428043Y-118637143D01*
X166295857Y-118504957D01*
X166192000Y-118349524D01*
X166120462Y-118176815D01*
X166083992Y-117993469D01*
X166083992Y-117806531D01*
X166120462Y-117623185D01*
X166192000Y-117450476D01*
X166295857Y-117295043D01*
X166428043Y-117162857D01*
X166583476Y-117059000D01*
X166756185Y-116987462D01*
X166939531Y-116950992D01*
X167126469Y-116950992D01*
X167309815Y-116987462D01*
G37*
G36*
X169849815Y-116987462D02*
G01*
X170022524Y-117059000D01*
X170177957Y-117162857D01*
X170310143Y-117295043D01*
X170414000Y-117450476D01*
X170485538Y-117623185D01*
X170522008Y-117806531D01*
X170522008Y-117993469D01*
X170485538Y-118176815D01*
X170414000Y-118349524D01*
X170310143Y-118504957D01*
X170177957Y-118637143D01*
X170022524Y-118741000D01*
X169849815Y-118812538D01*
X169666469Y-118849008D01*
X169479531Y-118849008D01*
X169296185Y-118812538D01*
X169123476Y-118741000D01*
X168968043Y-118637143D01*
X168835857Y-118504957D01*
X168732000Y-118349524D01*
X168660462Y-118176815D01*
X168623992Y-117993469D01*
X168623992Y-117806531D01*
X168660462Y-117623185D01*
X168732000Y-117450476D01*
X168835857Y-117295043D01*
X168968043Y-117162857D01*
X169123476Y-117059000D01*
X169296185Y-116987462D01*
X169479531Y-116950992D01*
X169666469Y-116950992D01*
X169849815Y-116987462D01*
G37*
G36*
X172389815Y-116987462D02*
G01*
X172562524Y-117059000D01*
X172717957Y-117162857D01*
X172850143Y-117295043D01*
X172954000Y-117450476D01*
X173025538Y-117623185D01*
X173062008Y-117806531D01*
X173062008Y-117993469D01*
X173025538Y-118176815D01*
X172954000Y-118349524D01*
X172850143Y-118504957D01*
X172717957Y-118637143D01*
X172562524Y-118741000D01*
X172389815Y-118812538D01*
X172206469Y-118849008D01*
X172019531Y-118849008D01*
X171836185Y-118812538D01*
X171663476Y-118741000D01*
X171508043Y-118637143D01*
X171375857Y-118504957D01*
X171272000Y-118349524D01*
X171200462Y-118176815D01*
X171163992Y-117993469D01*
X171163992Y-117806531D01*
X171200462Y-117623185D01*
X171272000Y-117450476D01*
X171375857Y-117295043D01*
X171508043Y-117162857D01*
X171663476Y-117059000D01*
X171836185Y-116987462D01*
X172019531Y-116950992D01*
X172206469Y-116950992D01*
X172389815Y-116987462D01*
G37*
G36*
X174929815Y-116987462D02*
G01*
X175102524Y-117059000D01*
X175257957Y-117162857D01*
X175390143Y-117295043D01*
X175494000Y-117450476D01*
X175565538Y-117623185D01*
X175602008Y-117806531D01*
X175602008Y-117993469D01*
X175565538Y-118176815D01*
X175494000Y-118349524D01*
X175390143Y-118504957D01*
X175257957Y-118637143D01*
X175102524Y-118741000D01*
X174929815Y-118812538D01*
X174746469Y-118849008D01*
X174559531Y-118849008D01*
X174376185Y-118812538D01*
X174203476Y-118741000D01*
X174048043Y-118637143D01*
X173915857Y-118504957D01*
X173812000Y-118349524D01*
X173740462Y-118176815D01*
X173703992Y-117993469D01*
X173703992Y-117806531D01*
X173740462Y-117623185D01*
X173812000Y-117450476D01*
X173915857Y-117295043D01*
X174048043Y-117162857D01*
X174203476Y-117059000D01*
X174376185Y-116987462D01*
X174559531Y-116950992D01*
X174746469Y-116950992D01*
X174929815Y-116987462D01*
G37*
G36*
X177469815Y-116987462D02*
G01*
X177642524Y-117059000D01*
X177797957Y-117162857D01*
X177930143Y-117295043D01*
X178034000Y-117450476D01*
X178105538Y-117623185D01*
X178142008Y-117806531D01*
X178142008Y-117993469D01*
X178105538Y-118176815D01*
X178034000Y-118349524D01*
X177930143Y-118504957D01*
X177797957Y-118637143D01*
X177642524Y-118741000D01*
X177469815Y-118812538D01*
X177286469Y-118849008D01*
X177099531Y-118849008D01*
X176916185Y-118812538D01*
X176743476Y-118741000D01*
X176588043Y-118637143D01*
X176455857Y-118504957D01*
X176352000Y-118349524D01*
X176280462Y-118176815D01*
X176243992Y-117993469D01*
X176243992Y-117806531D01*
X176280462Y-117623185D01*
X176352000Y-117450476D01*
X176455857Y-117295043D01*
X176588043Y-117162857D01*
X176743476Y-117059000D01*
X176916185Y-116987462D01*
X177099531Y-116950992D01*
X177286469Y-116950992D01*
X177469815Y-116987462D01*
G37*
G36*
X180009815Y-116987462D02*
G01*
X180182524Y-117059000D01*
X180337957Y-117162857D01*
X180470143Y-117295043D01*
X180574000Y-117450476D01*
X180645538Y-117623185D01*
X180682008Y-117806531D01*
X180682008Y-117993469D01*
X180645538Y-118176815D01*
X180574000Y-118349524D01*
X180470143Y-118504957D01*
X180337957Y-118637143D01*
X180182524Y-118741000D01*
X180009815Y-118812538D01*
X179826469Y-118849008D01*
X179639531Y-118849008D01*
X179456185Y-118812538D01*
X179283476Y-118741000D01*
X179128043Y-118637143D01*
X178995857Y-118504957D01*
X178892000Y-118349524D01*
X178820462Y-118176815D01*
X178783992Y-117993469D01*
X178783992Y-117806531D01*
X178820462Y-117623185D01*
X178892000Y-117450476D01*
X178995857Y-117295043D01*
X179128043Y-117162857D01*
X179283476Y-117059000D01*
X179456185Y-116987462D01*
X179639531Y-116950992D01*
X179826469Y-116950992D01*
X180009815Y-116987462D01*
G37*
G36*
X182549815Y-116987462D02*
G01*
X182722524Y-117059000D01*
X182877957Y-117162857D01*
X183010143Y-117295043D01*
X183114000Y-117450476D01*
X183185538Y-117623185D01*
X183222008Y-117806531D01*
X183222008Y-117993469D01*
X183185538Y-118176815D01*
X183114000Y-118349524D01*
X183010143Y-118504957D01*
X182877957Y-118637143D01*
X182722524Y-118741000D01*
X182549815Y-118812538D01*
X182366469Y-118849008D01*
X182179531Y-118849008D01*
X181996185Y-118812538D01*
X181823476Y-118741000D01*
X181668043Y-118637143D01*
X181535857Y-118504957D01*
X181432000Y-118349524D01*
X181360462Y-118176815D01*
X181323992Y-117993469D01*
X181323992Y-117806531D01*
X181360462Y-117623185D01*
X181432000Y-117450476D01*
X181535857Y-117295043D01*
X181668043Y-117162857D01*
X181823476Y-117059000D01*
X181996185Y-116987462D01*
X182179531Y-116950992D01*
X182366469Y-116950992D01*
X182549815Y-116987462D01*
G37*
G36*
X185089815Y-116987462D02*
G01*
X185262524Y-117059000D01*
X185417957Y-117162857D01*
X185550143Y-117295043D01*
X185654000Y-117450476D01*
X185725538Y-117623185D01*
X185762008Y-117806531D01*
X185762008Y-117993469D01*
X185725538Y-118176815D01*
X185654000Y-118349524D01*
X185550143Y-118504957D01*
X185417957Y-118637143D01*
X185262524Y-118741000D01*
X185089815Y-118812538D01*
X184906469Y-118849008D01*
X184719531Y-118849008D01*
X184536185Y-118812538D01*
X184363476Y-118741000D01*
X184208043Y-118637143D01*
X184075857Y-118504957D01*
X183972000Y-118349524D01*
X183900462Y-118176815D01*
X183863992Y-117993469D01*
X183863992Y-117806531D01*
X183900462Y-117623185D01*
X183972000Y-117450476D01*
X184075857Y-117295043D01*
X184208043Y-117162857D01*
X184363476Y-117059000D01*
X184536185Y-116987462D01*
X184719531Y-116950992D01*
X184906469Y-116950992D01*
X185089815Y-116987462D01*
G37*
G36*
X159742703Y-111162473D02*
G01*
X159956233Y-111219688D01*
X160160468Y-111304285D01*
X160351914Y-111414816D01*
X160527294Y-111549391D01*
X160683609Y-111705706D01*
X160818184Y-111881086D01*
X160928715Y-112072532D01*
X161013312Y-112276767D01*
X161070527Y-112490297D01*
X161099382Y-112709469D01*
X161099382Y-112930531D01*
X161070527Y-113149703D01*
X161013312Y-113363233D01*
X160928715Y-113567468D01*
X160818184Y-113758914D01*
X160683609Y-113934294D01*
X160527294Y-114090609D01*
X160351914Y-114225184D01*
X160160468Y-114335715D01*
X159956233Y-114420312D01*
X159742703Y-114477527D01*
X159523531Y-114506382D01*
X159302469Y-114506382D01*
X159083297Y-114477527D01*
X158869767Y-114420312D01*
X158665532Y-114335715D01*
X158474086Y-114225184D01*
X158298706Y-114090609D01*
X158142391Y-113934294D01*
X158007816Y-113758914D01*
X157897285Y-113567468D01*
X157812688Y-113363233D01*
X157755473Y-113149703D01*
X157726618Y-112930531D01*
X157726618Y-112709469D01*
X157755473Y-112490297D01*
X157812688Y-112276767D01*
X157897285Y-112072532D01*
X158007816Y-111881086D01*
X158142391Y-111705706D01*
X158298706Y-111549391D01*
X158474086Y-111414816D01*
X158665532Y-111304285D01*
X158869767Y-111219688D01*
X159083297Y-111162473D01*
X159302469Y-111133618D01*
X159523531Y-111133618D01*
X159742703Y-111162473D01*
G37*
G36*
X188251042Y-111873251D02*
G01*
X188280240Y-111892760D01*
X188299749Y-111921958D01*
X188306600Y-111956400D01*
X188306600Y-113683600D01*
X188299749Y-113718042D01*
X188280240Y-113747240D01*
X188251042Y-113766749D01*
X188216600Y-113773600D01*
X186489400Y-113773600D01*
X186454958Y-113766749D01*
X186425760Y-113747240D01*
X186406251Y-113718042D01*
X186399400Y-113683600D01*
X186399400Y-111956400D01*
X186406251Y-111921958D01*
X186425760Y-111892760D01*
X186454958Y-111873251D01*
X186489400Y-111866400D01*
X188216600Y-111866400D01*
X188251042Y-111873251D01*
G37*
G36*
X190791042Y-111873251D02*
G01*
X190820240Y-111892760D01*
X190839749Y-111921958D01*
X190846600Y-111956400D01*
X190846600Y-113683600D01*
X190839749Y-113718042D01*
X190820240Y-113747240D01*
X190791042Y-113766749D01*
X190756600Y-113773600D01*
X189029400Y-113773600D01*
X188994958Y-113766749D01*
X188965760Y-113747240D01*
X188946251Y-113718042D01*
X188939400Y-113683600D01*
X188939400Y-111956400D01*
X188946251Y-111921958D01*
X188965760Y-111892760D01*
X188994958Y-111873251D01*
X189029400Y-111866400D01*
X190756600Y-111866400D01*
X190791042Y-111873251D01*
G37*
G36*
X187629815Y-109367462D02*
G01*
X187802524Y-109439000D01*
X187957957Y-109542857D01*
X188090143Y-109675043D01*
X188194000Y-109830476D01*
X188265538Y-110003185D01*
X188302008Y-110186531D01*
X188302008Y-110373469D01*
X188265538Y-110556815D01*
X188194000Y-110729524D01*
X188090143Y-110884957D01*
X187957957Y-111017143D01*
X187802524Y-111121000D01*
X187629815Y-111192538D01*
X187446469Y-111229008D01*
X187259531Y-111229008D01*
X187076185Y-111192538D01*
X186903476Y-111121000D01*
X186748043Y-111017143D01*
X186615857Y-110884957D01*
X186512000Y-110729524D01*
X186440462Y-110556815D01*
X186403992Y-110373469D01*
X186403992Y-110186531D01*
X186440462Y-110003185D01*
X186512000Y-109830476D01*
X186615857Y-109675043D01*
X186748043Y-109542857D01*
X186903476Y-109439000D01*
X187076185Y-109367462D01*
X187259531Y-109330992D01*
X187446469Y-109330992D01*
X187629815Y-109367462D01*
G37*
G36*
X190169815Y-109367462D02*
G01*
X190342524Y-109439000D01*
X190497957Y-109542857D01*
X190630143Y-109675043D01*
X190734000Y-109830476D01*
X190805538Y-110003185D01*
X190842008Y-110186531D01*
X190842008Y-110373469D01*
X190805538Y-110556815D01*
X190734000Y-110729524D01*
X190630143Y-110884957D01*
X190497957Y-111017143D01*
X190342524Y-111121000D01*
X190169815Y-111192538D01*
X189986469Y-111229008D01*
X189799531Y-111229008D01*
X189616185Y-111192538D01*
X189443476Y-111121000D01*
X189288043Y-111017143D01*
X189155857Y-110884957D01*
X189052000Y-110729524D01*
X188980462Y-110556815D01*
X188943992Y-110373469D01*
X188943992Y-110186531D01*
X188980462Y-110003185D01*
X189052000Y-109830476D01*
X189155857Y-109675043D01*
X189288043Y-109542857D01*
X189443476Y-109439000D01*
X189616185Y-109367462D01*
X189799531Y-109330992D01*
X189986469Y-109330992D01*
X190169815Y-109367462D01*
G37*
G36*
X187629815Y-106827462D02*
G01*
X187802524Y-106899000D01*
X187957957Y-107002857D01*
X188090143Y-107135043D01*
X188194000Y-107290476D01*
X188265538Y-107463185D01*
X188302008Y-107646531D01*
X188302008Y-107833469D01*
X188265538Y-108016815D01*
X188194000Y-108189524D01*
X188090143Y-108344957D01*
X187957957Y-108477143D01*
X187802524Y-108581000D01*
X187629815Y-108652538D01*
X187446469Y-108689008D01*
X187259531Y-108689008D01*
X187076185Y-108652538D01*
X186903476Y-108581000D01*
X186748043Y-108477143D01*
X186615857Y-108344957D01*
X186512000Y-108189524D01*
X186440462Y-108016815D01*
X186403992Y-107833469D01*
X186403992Y-107646531D01*
X186440462Y-107463185D01*
X186512000Y-107290476D01*
X186615857Y-107135043D01*
X186748043Y-107002857D01*
X186903476Y-106899000D01*
X187076185Y-106827462D01*
X187259531Y-106790992D01*
X187446469Y-106790992D01*
X187629815Y-106827462D01*
G37*
G36*
X190169815Y-106827462D02*
G01*
X190342524Y-106899000D01*
X190497957Y-107002857D01*
X190630143Y-107135043D01*
X190734000Y-107290476D01*
X190805538Y-107463185D01*
X190842008Y-107646531D01*
X190842008Y-107833469D01*
X190805538Y-108016815D01*
X190734000Y-108189524D01*
X190630143Y-108344957D01*
X190497957Y-108477143D01*
X190342524Y-108581000D01*
X190169815Y-108652538D01*
X189986469Y-108689008D01*
X189799531Y-108689008D01*
X189616185Y-108652538D01*
X189443476Y-108581000D01*
X189288043Y-108477143D01*
X189155857Y-108344957D01*
X189052000Y-108189524D01*
X188980462Y-108016815D01*
X188943992Y-107833469D01*
X188943992Y-107646531D01*
X188980462Y-107463185D01*
X189052000Y-107290476D01*
X189155857Y-107135043D01*
X189288043Y-107002857D01*
X189443476Y-106899000D01*
X189616185Y-106827462D01*
X189799531Y-106790992D01*
X189986469Y-106790992D01*
X190169815Y-106827462D01*
G37*
G36*
X187629815Y-104287462D02*
G01*
X187802524Y-104359000D01*
X187957957Y-104462857D01*
X188090143Y-104595043D01*
X188194000Y-104750476D01*
X188265538Y-104923185D01*
X188302008Y-105106531D01*
X188302008Y-105293469D01*
X188265538Y-105476815D01*
X188194000Y-105649524D01*
X188090143Y-105804957D01*
X187957957Y-105937143D01*
X187802524Y-106041000D01*
X187629815Y-106112538D01*
X187446469Y-106149008D01*
X187259531Y-106149008D01*
X187076185Y-106112538D01*
X186903476Y-106041000D01*
X186748043Y-105937143D01*
X186615857Y-105804957D01*
X186512000Y-105649524D01*
X186440462Y-105476815D01*
X186403992Y-105293469D01*
X186403992Y-105106531D01*
X186440462Y-104923185D01*
X186512000Y-104750476D01*
X186615857Y-104595043D01*
X186748043Y-104462857D01*
X186903476Y-104359000D01*
X187076185Y-104287462D01*
X187259531Y-104250992D01*
X187446469Y-104250992D01*
X187629815Y-104287462D01*
G37*
G36*
X190169815Y-104287462D02*
G01*
X190342524Y-104359000D01*
X190497957Y-104462857D01*
X190630143Y-104595043D01*
X190734000Y-104750476D01*
X190805538Y-104923185D01*
X190842008Y-105106531D01*
X190842008Y-105293469D01*
X190805538Y-105476815D01*
X190734000Y-105649524D01*
X190630143Y-105804957D01*
X190497957Y-105937143D01*
X190342524Y-106041000D01*
X190169815Y-106112538D01*
X189986469Y-106149008D01*
X189799531Y-106149008D01*
X189616185Y-106112538D01*
X189443476Y-106041000D01*
X189288043Y-105937143D01*
X189155857Y-105804957D01*
X189052000Y-105649524D01*
X188980462Y-105476815D01*
X188943992Y-105293469D01*
X188943992Y-105106531D01*
X188980462Y-104923185D01*
X189052000Y-104750476D01*
X189155857Y-104595043D01*
X189288043Y-104462857D01*
X189443476Y-104359000D01*
X189616185Y-104287462D01*
X189799531Y-104250992D01*
X189986469Y-104250992D01*
X190169815Y-104287462D01*
G37*
G36*
X121772868Y-102880476D02*
G01*
X121943113Y-102950994D01*
X122096330Y-103053370D01*
X122226630Y-103183670D01*
X122329006Y-103336887D01*
X122399524Y-103507132D01*
X122435474Y-103687864D01*
X122435474Y-103872136D01*
X122399524Y-104052868D01*
X122329006Y-104223113D01*
X122226630Y-104376330D01*
X122096330Y-104506630D01*
X121943113Y-104609006D01*
X121772868Y-104679524D01*
X121592136Y-104715474D01*
X121407864Y-104715474D01*
X121227132Y-104679524D01*
X121056887Y-104609006D01*
X120903670Y-104506630D01*
X120773370Y-104376330D01*
X120670994Y-104223113D01*
X120600476Y-104052868D01*
X120564526Y-103872136D01*
X120564526Y-103687864D01*
X120600476Y-103507132D01*
X120670994Y-103336887D01*
X120773370Y-103183670D01*
X120903670Y-103053370D01*
X121056887Y-102950994D01*
X121227132Y-102880476D01*
X121407864Y-102844526D01*
X121592136Y-102844526D01*
X121772868Y-102880476D01*
G37*
G36*
X187629815Y-101747462D02*
G01*
X187802524Y-101819000D01*
X187957957Y-101922857D01*
X188090143Y-102055043D01*
X188194000Y-102210476D01*
X188265538Y-102383185D01*
X188302008Y-102566531D01*
X188302008Y-102753469D01*
X188265538Y-102936815D01*
X188194000Y-103109524D01*
X188090143Y-103264957D01*
X187957957Y-103397143D01*
X187802524Y-103501000D01*
X187629815Y-103572538D01*
X187446469Y-103609008D01*
X187259531Y-103609008D01*
X187076185Y-103572538D01*
X186903476Y-103501000D01*
X186748043Y-103397143D01*
X186615857Y-103264957D01*
X186512000Y-103109524D01*
X186440462Y-102936815D01*
X186403992Y-102753469D01*
X186403992Y-102566531D01*
X186440462Y-102383185D01*
X186512000Y-102210476D01*
X186615857Y-102055043D01*
X186748043Y-101922857D01*
X186903476Y-101819000D01*
X187076185Y-101747462D01*
X187259531Y-101710992D01*
X187446469Y-101710992D01*
X187629815Y-101747462D01*
G37*
G36*
X190169815Y-101747462D02*
G01*
X190342524Y-101819000D01*
X190497957Y-101922857D01*
X190630143Y-102055043D01*
X190734000Y-102210476D01*
X190805538Y-102383185D01*
X190842008Y-102566531D01*
X190842008Y-102753469D01*
X190805538Y-102936815D01*
X190734000Y-103109524D01*
X190630143Y-103264957D01*
X190497957Y-103397143D01*
X190342524Y-103501000D01*
X190169815Y-103572538D01*
X189986469Y-103609008D01*
X189799531Y-103609008D01*
X189616185Y-103572538D01*
X189443476Y-103501000D01*
X189288043Y-103397143D01*
X189155857Y-103264957D01*
X189052000Y-103109524D01*
X188980462Y-102936815D01*
X188943992Y-102753469D01*
X188943992Y-102566531D01*
X188980462Y-102383185D01*
X189052000Y-102210476D01*
X189155857Y-102055043D01*
X189288043Y-101922857D01*
X189443476Y-101819000D01*
X189616185Y-101747462D01*
X189799531Y-101710992D01*
X189986469Y-101710992D01*
X190169815Y-101747462D01*
G37*
G36*
X121772868Y-100340476D02*
G01*
X121943113Y-100410994D01*
X122096330Y-100513370D01*
X122226630Y-100643670D01*
X122329006Y-100796887D01*
X122399524Y-100967132D01*
X122435474Y-101147864D01*
X122435474Y-101332136D01*
X122399524Y-101512868D01*
X122329006Y-101683113D01*
X122226630Y-101836330D01*
X122096330Y-101966630D01*
X121943113Y-102069006D01*
X121772868Y-102139524D01*
X121592136Y-102175474D01*
X121407864Y-102175474D01*
X121227132Y-102139524D01*
X121056887Y-102069006D01*
X120903670Y-101966630D01*
X120773370Y-101836330D01*
X120670994Y-101683113D01*
X120600476Y-101512868D01*
X120564526Y-101332136D01*
X120564526Y-101147864D01*
X120600476Y-100967132D01*
X120670994Y-100796887D01*
X120773370Y-100643670D01*
X120903670Y-100513370D01*
X121056887Y-100410994D01*
X121227132Y-100340476D01*
X121407864Y-100304526D01*
X121592136Y-100304526D01*
X121772868Y-100340476D01*
G37*
G36*
X187629815Y-99207462D02*
G01*
X187802524Y-99279000D01*
X187957957Y-99382857D01*
X188090143Y-99515043D01*
X188194000Y-99670476D01*
X188265538Y-99843185D01*
X188302008Y-100026531D01*
X188302008Y-100213469D01*
X188265538Y-100396815D01*
X188194000Y-100569524D01*
X188090143Y-100724957D01*
X187957957Y-100857143D01*
X187802524Y-100961000D01*
X187629815Y-101032538D01*
X187446469Y-101069008D01*
X187259531Y-101069008D01*
X187076185Y-101032538D01*
X186903476Y-100961000D01*
X186748043Y-100857143D01*
X186615857Y-100724957D01*
X186512000Y-100569524D01*
X186440462Y-100396815D01*
X186403992Y-100213469D01*
X186403992Y-100026531D01*
X186440462Y-99843185D01*
X186512000Y-99670476D01*
X186615857Y-99515043D01*
X186748043Y-99382857D01*
X186903476Y-99279000D01*
X187076185Y-99207462D01*
X187259531Y-99170992D01*
X187446469Y-99170992D01*
X187629815Y-99207462D01*
G37*
G36*
X190169815Y-99207462D02*
G01*
X190342524Y-99279000D01*
X190497957Y-99382857D01*
X190630143Y-99515043D01*
X190734000Y-99670476D01*
X190805538Y-99843185D01*
X190842008Y-100026531D01*
X190842008Y-100213469D01*
X190805538Y-100396815D01*
X190734000Y-100569524D01*
X190630143Y-100724957D01*
X190497957Y-100857143D01*
X190342524Y-100961000D01*
X190169815Y-101032538D01*
X189986469Y-101069008D01*
X189799531Y-101069008D01*
X189616185Y-101032538D01*
X189443476Y-100961000D01*
X189288043Y-100857143D01*
X189155857Y-100724957D01*
X189052000Y-100569524D01*
X188980462Y-100396815D01*
X188943992Y-100213469D01*
X188943992Y-100026531D01*
X188980462Y-99843185D01*
X189052000Y-99670476D01*
X189155857Y-99515043D01*
X189288043Y-99382857D01*
X189443476Y-99279000D01*
X189616185Y-99207462D01*
X189799531Y-99170992D01*
X189986469Y-99170992D01*
X190169815Y-99207462D01*
G37*
G36*
X121772868Y-97800476D02*
G01*
X121943113Y-97870994D01*
X122096330Y-97973370D01*
X122226630Y-98103670D01*
X122329006Y-98256887D01*
X122399524Y-98427132D01*
X122435474Y-98607864D01*
X122435474Y-98792136D01*
X122399524Y-98972868D01*
X122329006Y-99143113D01*
X122226630Y-99296330D01*
X122096330Y-99426630D01*
X121943113Y-99529006D01*
X121772868Y-99599524D01*
X121592136Y-99635474D01*
X121407864Y-99635474D01*
X121227132Y-99599524D01*
X121056887Y-99529006D01*
X120903670Y-99426630D01*
X120773370Y-99296330D01*
X120670994Y-99143113D01*
X120600476Y-98972868D01*
X120564526Y-98792136D01*
X120564526Y-98607864D01*
X120600476Y-98427132D01*
X120670994Y-98256887D01*
X120773370Y-98103670D01*
X120903670Y-97973370D01*
X121056887Y-97870994D01*
X121227132Y-97800476D01*
X121407864Y-97764526D01*
X121592136Y-97764526D01*
X121772868Y-97800476D01*
G37*
G36*
X187629815Y-96667462D02*
G01*
X187802524Y-96739000D01*
X187957957Y-96842857D01*
X188090143Y-96975043D01*
X188194000Y-97130476D01*
X188265538Y-97303185D01*
X188302008Y-97486531D01*
X188302008Y-97673469D01*
X188265538Y-97856815D01*
X188194000Y-98029524D01*
X188090143Y-98184957D01*
X187957957Y-98317143D01*
X187802524Y-98421000D01*
X187629815Y-98492538D01*
X187446469Y-98529008D01*
X187259531Y-98529008D01*
X187076185Y-98492538D01*
X186903476Y-98421000D01*
X186748043Y-98317143D01*
X186615857Y-98184957D01*
X186512000Y-98029524D01*
X186440462Y-97856815D01*
X186403992Y-97673469D01*
X186403992Y-97486531D01*
X186440462Y-97303185D01*
X186512000Y-97130476D01*
X186615857Y-96975043D01*
X186748043Y-96842857D01*
X186903476Y-96739000D01*
X187076185Y-96667462D01*
X187259531Y-96630992D01*
X187446469Y-96630992D01*
X187629815Y-96667462D01*
G37*
G36*
X190169815Y-96667462D02*
G01*
X190342524Y-96739000D01*
X190497957Y-96842857D01*
X190630143Y-96975043D01*
X190734000Y-97130476D01*
X190805538Y-97303185D01*
X190842008Y-97486531D01*
X190842008Y-97673469D01*
X190805538Y-97856815D01*
X190734000Y-98029524D01*
X190630143Y-98184957D01*
X190497957Y-98317143D01*
X190342524Y-98421000D01*
X190169815Y-98492538D01*
X189986469Y-98529008D01*
X189799531Y-98529008D01*
X189616185Y-98492538D01*
X189443476Y-98421000D01*
X189288043Y-98317143D01*
X189155857Y-98184957D01*
X189052000Y-98029524D01*
X188980462Y-97856815D01*
X188943992Y-97673469D01*
X188943992Y-97486531D01*
X188980462Y-97303185D01*
X189052000Y-97130476D01*
X189155857Y-96975043D01*
X189288043Y-96842857D01*
X189443476Y-96739000D01*
X189616185Y-96667462D01*
X189799531Y-96630992D01*
X189986469Y-96630992D01*
X190169815Y-96667462D01*
G37*
G36*
X121772868Y-95260476D02*
G01*
X121943113Y-95330994D01*
X122096330Y-95433370D01*
X122226630Y-95563670D01*
X122329006Y-95716887D01*
X122399524Y-95887132D01*
X122435474Y-96067864D01*
X122435474Y-96252136D01*
X122399524Y-96432868D01*
X122329006Y-96603113D01*
X122226630Y-96756330D01*
X122096330Y-96886630D01*
X121943113Y-96989006D01*
X121772868Y-97059524D01*
X121592136Y-97095474D01*
X121407864Y-97095474D01*
X121227132Y-97059524D01*
X121056887Y-96989006D01*
X120903670Y-96886630D01*
X120773370Y-96756330D01*
X120670994Y-96603113D01*
X120600476Y-96432868D01*
X120564526Y-96252136D01*
X120564526Y-96067864D01*
X120600476Y-95887132D01*
X120670994Y-95716887D01*
X120773370Y-95563670D01*
X120903670Y-95433370D01*
X121056887Y-95330994D01*
X121227132Y-95260476D01*
X121407864Y-95224526D01*
X121592136Y-95224526D01*
X121772868Y-95260476D01*
G37*
G36*
X160438042Y-94093251D02*
G01*
X160467240Y-94112760D01*
X160486749Y-94141958D01*
X160493600Y-94176400D01*
X160493600Y-95903600D01*
X160486749Y-95938042D01*
X160467240Y-95967240D01*
X160438042Y-95986749D01*
X160403600Y-95993600D01*
X158676400Y-95993600D01*
X158641958Y-95986749D01*
X158612760Y-95967240D01*
X158593251Y-95938042D01*
X158586400Y-95903600D01*
X158586400Y-94176400D01*
X158593251Y-94141958D01*
X158612760Y-94112760D01*
X158641958Y-94093251D01*
X158676400Y-94086400D01*
X160403600Y-94086400D01*
X160438042Y-94093251D01*
G37*
G36*
X157276815Y-94127462D02*
G01*
X157449524Y-94199000D01*
X157604957Y-94302857D01*
X157737143Y-94435043D01*
X157841000Y-94590476D01*
X157912538Y-94763185D01*
X157949008Y-94946531D01*
X157949008Y-95133469D01*
X157912538Y-95316815D01*
X157841000Y-95489524D01*
X157737143Y-95644957D01*
X157604957Y-95777143D01*
X157449524Y-95881000D01*
X157276815Y-95952538D01*
X157093469Y-95989008D01*
X156906531Y-95989008D01*
X156723185Y-95952538D01*
X156550476Y-95881000D01*
X156395043Y-95777143D01*
X156262857Y-95644957D01*
X156159000Y-95489524D01*
X156087462Y-95316815D01*
X156050992Y-95133469D01*
X156050992Y-94946531D01*
X156087462Y-94763185D01*
X156159000Y-94590476D01*
X156262857Y-94435043D01*
X156395043Y-94302857D01*
X156550476Y-94199000D01*
X156723185Y-94127462D01*
X156906531Y-94090992D01*
X157093469Y-94090992D01*
X157276815Y-94127462D01*
G37*
G36*
X187629815Y-94127462D02*
G01*
X187802524Y-94199000D01*
X187957957Y-94302857D01*
X188090143Y-94435043D01*
X188194000Y-94590476D01*
X188265538Y-94763185D01*
X188302008Y-94946531D01*
X188302008Y-95133469D01*
X188265538Y-95316815D01*
X188194000Y-95489524D01*
X188090143Y-95644957D01*
X187957957Y-95777143D01*
X187802524Y-95881000D01*
X187629815Y-95952538D01*
X187446469Y-95989008D01*
X187259531Y-95989008D01*
X187076185Y-95952538D01*
X186903476Y-95881000D01*
X186748043Y-95777143D01*
X186615857Y-95644957D01*
X186512000Y-95489524D01*
X186440462Y-95316815D01*
X186403992Y-95133469D01*
X186403992Y-94946531D01*
X186440462Y-94763185D01*
X186512000Y-94590476D01*
X186615857Y-94435043D01*
X186748043Y-94302857D01*
X186903476Y-94199000D01*
X187076185Y-94127462D01*
X187259531Y-94090992D01*
X187446469Y-94090992D01*
X187629815Y-94127462D01*
G37*
G36*
X190169815Y-94127462D02*
G01*
X190342524Y-94199000D01*
X190497957Y-94302857D01*
X190630143Y-94435043D01*
X190734000Y-94590476D01*
X190805538Y-94763185D01*
X190842008Y-94946531D01*
X190842008Y-95133469D01*
X190805538Y-95316815D01*
X190734000Y-95489524D01*
X190630143Y-95644957D01*
X190497957Y-95777143D01*
X190342524Y-95881000D01*
X190169815Y-95952538D01*
X189986469Y-95989008D01*
X189799531Y-95989008D01*
X189616185Y-95952538D01*
X189443476Y-95881000D01*
X189288043Y-95777143D01*
X189155857Y-95644957D01*
X189052000Y-95489524D01*
X188980462Y-95316815D01*
X188943992Y-95133469D01*
X188943992Y-94946531D01*
X188980462Y-94763185D01*
X189052000Y-94590476D01*
X189155857Y-94435043D01*
X189288043Y-94302857D01*
X189443476Y-94199000D01*
X189616185Y-94127462D01*
X189799531Y-94090992D01*
X189986469Y-94090992D01*
X190169815Y-94127462D01*
G37*
G36*
X121772868Y-92720476D02*
G01*
X121943113Y-92790994D01*
X122096330Y-92893370D01*
X122226630Y-93023670D01*
X122329006Y-93176887D01*
X122399524Y-93347132D01*
X122435474Y-93527864D01*
X122435474Y-93712136D01*
X122399524Y-93892868D01*
X122329006Y-94063113D01*
X122226630Y-94216330D01*
X122096330Y-94346630D01*
X121943113Y-94449006D01*
X121772868Y-94519524D01*
X121592136Y-94555474D01*
X121407864Y-94555474D01*
X121227132Y-94519524D01*
X121056887Y-94449006D01*
X120903670Y-94346630D01*
X120773370Y-94216330D01*
X120670994Y-94063113D01*
X120600476Y-93892868D01*
X120564526Y-93712136D01*
X120564526Y-93527864D01*
X120600476Y-93347132D01*
X120670994Y-93176887D01*
X120773370Y-93023670D01*
X120903670Y-92893370D01*
X121056887Y-92790994D01*
X121227132Y-92720476D01*
X121407864Y-92684526D01*
X121592136Y-92684526D01*
X121772868Y-92720476D01*
G37*
G36*
X157276815Y-91587462D02*
G01*
X157449524Y-91659000D01*
X157604957Y-91762857D01*
X157737143Y-91895043D01*
X157841000Y-92050476D01*
X157912538Y-92223185D01*
X157949008Y-92406531D01*
X157949008Y-92593469D01*
X157912538Y-92776815D01*
X157841000Y-92949524D01*
X157737143Y-93104957D01*
X157604957Y-93237143D01*
X157449524Y-93341000D01*
X157276815Y-93412538D01*
X157093469Y-93449008D01*
X156906531Y-93449008D01*
X156723185Y-93412538D01*
X156550476Y-93341000D01*
X156395043Y-93237143D01*
X156262857Y-93104957D01*
X156159000Y-92949524D01*
X156087462Y-92776815D01*
X156050992Y-92593469D01*
X156050992Y-92406531D01*
X156087462Y-92223185D01*
X156159000Y-92050476D01*
X156262857Y-91895043D01*
X156395043Y-91762857D01*
X156550476Y-91659000D01*
X156723185Y-91587462D01*
X156906531Y-91550992D01*
X157093469Y-91550992D01*
X157276815Y-91587462D01*
G37*
G36*
X159816815Y-91587462D02*
G01*
X159989524Y-91659000D01*
X160144957Y-91762857D01*
X160277143Y-91895043D01*
X160381000Y-92050476D01*
X160452538Y-92223185D01*
X160489008Y-92406531D01*
X160489008Y-92593469D01*
X160452538Y-92776815D01*
X160381000Y-92949524D01*
X160277143Y-93104957D01*
X160144957Y-93237143D01*
X159989524Y-93341000D01*
X159816815Y-93412538D01*
X159633469Y-93449008D01*
X159446531Y-93449008D01*
X159263185Y-93412538D01*
X159090476Y-93341000D01*
X158935043Y-93237143D01*
X158802857Y-93104957D01*
X158699000Y-92949524D01*
X158627462Y-92776815D01*
X158590992Y-92593469D01*
X158590992Y-92406531D01*
X158627462Y-92223185D01*
X158699000Y-92050476D01*
X158802857Y-91895043D01*
X158935043Y-91762857D01*
X159090476Y-91659000D01*
X159263185Y-91587462D01*
X159446531Y-91550992D01*
X159633469Y-91550992D01*
X159816815Y-91587462D01*
G37*
G36*
X187629815Y-91587462D02*
G01*
X187802524Y-91659000D01*
X187957957Y-91762857D01*
X188090143Y-91895043D01*
X188194000Y-92050476D01*
X188265538Y-92223185D01*
X188302008Y-92406531D01*
X188302008Y-92593469D01*
X188265538Y-92776815D01*
X188194000Y-92949524D01*
X188090143Y-93104957D01*
X187957957Y-93237143D01*
X187802524Y-93341000D01*
X187629815Y-93412538D01*
X187446469Y-93449008D01*
X187259531Y-93449008D01*
X187076185Y-93412538D01*
X186903476Y-93341000D01*
X186748043Y-93237143D01*
X186615857Y-93104957D01*
X186512000Y-92949524D01*
X186440462Y-92776815D01*
X186403992Y-92593469D01*
X186403992Y-92406531D01*
X186440462Y-92223185D01*
X186512000Y-92050476D01*
X186615857Y-91895043D01*
X186748043Y-91762857D01*
X186903476Y-91659000D01*
X187076185Y-91587462D01*
X187259531Y-91550992D01*
X187446469Y-91550992D01*
X187629815Y-91587462D01*
G37*
G36*
X190169815Y-91587462D02*
G01*
X190342524Y-91659000D01*
X190497957Y-91762857D01*
X190630143Y-91895043D01*
X190734000Y-92050476D01*
X190805538Y-92223185D01*
X190842008Y-92406531D01*
X190842008Y-92593469D01*
X190805538Y-92776815D01*
X190734000Y-92949524D01*
X190630143Y-93104957D01*
X190497957Y-93237143D01*
X190342524Y-93341000D01*
X190169815Y-93412538D01*
X189986469Y-93449008D01*
X189799531Y-93449008D01*
X189616185Y-93412538D01*
X189443476Y-93341000D01*
X189288043Y-93237143D01*
X189155857Y-93104957D01*
X189052000Y-92949524D01*
X188980462Y-92776815D01*
X188943992Y-92593469D01*
X188943992Y-92406531D01*
X188980462Y-92223185D01*
X189052000Y-92050476D01*
X189155857Y-91895043D01*
X189288043Y-91762857D01*
X189443476Y-91659000D01*
X189616185Y-91587462D01*
X189799531Y-91550992D01*
X189986469Y-91550992D01*
X190169815Y-91587462D01*
G37*
G36*
X121772868Y-90180476D02*
G01*
X121943113Y-90250994D01*
X122096330Y-90353370D01*
X122226630Y-90483670D01*
X122329006Y-90636887D01*
X122399524Y-90807132D01*
X122435474Y-90987864D01*
X122435474Y-91172136D01*
X122399524Y-91352868D01*
X122329006Y-91523113D01*
X122226630Y-91676330D01*
X122096330Y-91806630D01*
X121943113Y-91909006D01*
X121772868Y-91979524D01*
X121592136Y-92015474D01*
X121407864Y-92015474D01*
X121227132Y-91979524D01*
X121056887Y-91909006D01*
X120903670Y-91806630D01*
X120773370Y-91676330D01*
X120670994Y-91523113D01*
X120600476Y-91352868D01*
X120564526Y-91172136D01*
X120564526Y-90987864D01*
X120600476Y-90807132D01*
X120670994Y-90636887D01*
X120773370Y-90483670D01*
X120903670Y-90353370D01*
X121056887Y-90250994D01*
X121227132Y-90180476D01*
X121407864Y-90144526D01*
X121592136Y-90144526D01*
X121772868Y-90180476D01*
G37*
G36*
X157276815Y-89047462D02*
G01*
X157449524Y-89119000D01*
X157604957Y-89222857D01*
X157737143Y-89355043D01*
X157841000Y-89510476D01*
X157912538Y-89683185D01*
X157949008Y-89866531D01*
X157949008Y-90053469D01*
X157912538Y-90236815D01*
X157841000Y-90409524D01*
X157737143Y-90564957D01*
X157604957Y-90697143D01*
X157449524Y-90801000D01*
X157276815Y-90872538D01*
X157093469Y-90909008D01*
X156906531Y-90909008D01*
X156723185Y-90872538D01*
X156550476Y-90801000D01*
X156395043Y-90697143D01*
X156262857Y-90564957D01*
X156159000Y-90409524D01*
X156087462Y-90236815D01*
X156050992Y-90053469D01*
X156050992Y-89866531D01*
X156087462Y-89683185D01*
X156159000Y-89510476D01*
X156262857Y-89355043D01*
X156395043Y-89222857D01*
X156550476Y-89119000D01*
X156723185Y-89047462D01*
X156906531Y-89010992D01*
X157093469Y-89010992D01*
X157276815Y-89047462D01*
G37*
G36*
X159816815Y-89047462D02*
G01*
X159989524Y-89119000D01*
X160144957Y-89222857D01*
X160277143Y-89355043D01*
X160381000Y-89510476D01*
X160452538Y-89683185D01*
X160489008Y-89866531D01*
X160489008Y-90053469D01*
X160452538Y-90236815D01*
X160381000Y-90409524D01*
X160277143Y-90564957D01*
X160144957Y-90697143D01*
X159989524Y-90801000D01*
X159816815Y-90872538D01*
X159633469Y-90909008D01*
X159446531Y-90909008D01*
X159263185Y-90872538D01*
X159090476Y-90801000D01*
X158935043Y-90697143D01*
X158802857Y-90564957D01*
X158699000Y-90409524D01*
X158627462Y-90236815D01*
X158590992Y-90053469D01*
X158590992Y-89866531D01*
X158627462Y-89683185D01*
X158699000Y-89510476D01*
X158802857Y-89355043D01*
X158935043Y-89222857D01*
X159090476Y-89119000D01*
X159263185Y-89047462D01*
X159446531Y-89010992D01*
X159633469Y-89010992D01*
X159816815Y-89047462D01*
G37*
G36*
X187629815Y-89047462D02*
G01*
X187802524Y-89119000D01*
X187957957Y-89222857D01*
X188090143Y-89355043D01*
X188194000Y-89510476D01*
X188265538Y-89683185D01*
X188302008Y-89866531D01*
X188302008Y-90053469D01*
X188265538Y-90236815D01*
X188194000Y-90409524D01*
X188090143Y-90564957D01*
X187957957Y-90697143D01*
X187802524Y-90801000D01*
X187629815Y-90872538D01*
X187446469Y-90909008D01*
X187259531Y-90909008D01*
X187076185Y-90872538D01*
X186903476Y-90801000D01*
X186748043Y-90697143D01*
X186615857Y-90564957D01*
X186512000Y-90409524D01*
X186440462Y-90236815D01*
X186403992Y-90053469D01*
X186403992Y-89866531D01*
X186440462Y-89683185D01*
X186512000Y-89510476D01*
X186615857Y-89355043D01*
X186748043Y-89222857D01*
X186903476Y-89119000D01*
X187076185Y-89047462D01*
X187259531Y-89010992D01*
X187446469Y-89010992D01*
X187629815Y-89047462D01*
G37*
G36*
X190169815Y-89047462D02*
G01*
X190342524Y-89119000D01*
X190497957Y-89222857D01*
X190630143Y-89355043D01*
X190734000Y-89510476D01*
X190805538Y-89683185D01*
X190842008Y-89866531D01*
X190842008Y-90053469D01*
X190805538Y-90236815D01*
X190734000Y-90409524D01*
X190630143Y-90564957D01*
X190497957Y-90697143D01*
X190342524Y-90801000D01*
X190169815Y-90872538D01*
X189986469Y-90909008D01*
X189799531Y-90909008D01*
X189616185Y-90872538D01*
X189443476Y-90801000D01*
X189288043Y-90697143D01*
X189155857Y-90564957D01*
X189052000Y-90409524D01*
X188980462Y-90236815D01*
X188943992Y-90053469D01*
X188943992Y-89866531D01*
X188980462Y-89683185D01*
X189052000Y-89510476D01*
X189155857Y-89355043D01*
X189288043Y-89222857D01*
X189443476Y-89119000D01*
X189616185Y-89047462D01*
X189799531Y-89010992D01*
X189986469Y-89010992D01*
X190169815Y-89047462D01*
G37*
G36*
X121772868Y-87640476D02*
G01*
X121943113Y-87710994D01*
X122096330Y-87813370D01*
X122226630Y-87943670D01*
X122329006Y-88096887D01*
X122399524Y-88267132D01*
X122435474Y-88447864D01*
X122435474Y-88632136D01*
X122399524Y-88812868D01*
X122329006Y-88983113D01*
X122226630Y-89136330D01*
X122096330Y-89266630D01*
X121943113Y-89369006D01*
X121772868Y-89439524D01*
X121592136Y-89475474D01*
X121407864Y-89475474D01*
X121227132Y-89439524D01*
X121056887Y-89369006D01*
X120903670Y-89266630D01*
X120773370Y-89136330D01*
X120670994Y-88983113D01*
X120600476Y-88812868D01*
X120564526Y-88632136D01*
X120564526Y-88447864D01*
X120600476Y-88267132D01*
X120670994Y-88096887D01*
X120773370Y-87943670D01*
X120903670Y-87813370D01*
X121056887Y-87710994D01*
X121227132Y-87640476D01*
X121407864Y-87604526D01*
X121592136Y-87604526D01*
X121772868Y-87640476D01*
G37*
G36*
X187629815Y-86507462D02*
G01*
X187802524Y-86579000D01*
X187957957Y-86682857D01*
X188090143Y-86815043D01*
X188194000Y-86970476D01*
X188265538Y-87143185D01*
X188302008Y-87326531D01*
X188302008Y-87513469D01*
X188265538Y-87696815D01*
X188194000Y-87869524D01*
X188090143Y-88024957D01*
X187957957Y-88157143D01*
X187802524Y-88261000D01*
X187629815Y-88332538D01*
X187446469Y-88369008D01*
X187259531Y-88369008D01*
X187076185Y-88332538D01*
X186903476Y-88261000D01*
X186748043Y-88157143D01*
X186615857Y-88024957D01*
X186512000Y-87869524D01*
X186440462Y-87696815D01*
X186403992Y-87513469D01*
X186403992Y-87326531D01*
X186440462Y-87143185D01*
X186512000Y-86970476D01*
X186615857Y-86815043D01*
X186748043Y-86682857D01*
X186903476Y-86579000D01*
X187076185Y-86507462D01*
X187259531Y-86470992D01*
X187446469Y-86470992D01*
X187629815Y-86507462D01*
G37*
G36*
X190169815Y-86507462D02*
G01*
X190342524Y-86579000D01*
X190497957Y-86682857D01*
X190630143Y-86815043D01*
X190734000Y-86970476D01*
X190805538Y-87143185D01*
X190842008Y-87326531D01*
X190842008Y-87513469D01*
X190805538Y-87696815D01*
X190734000Y-87869524D01*
X190630143Y-88024957D01*
X190497957Y-88157143D01*
X190342524Y-88261000D01*
X190169815Y-88332538D01*
X189986469Y-88369008D01*
X189799531Y-88369008D01*
X189616185Y-88332538D01*
X189443476Y-88261000D01*
X189288043Y-88157143D01*
X189155857Y-88024957D01*
X189052000Y-87869524D01*
X188980462Y-87696815D01*
X188943992Y-87513469D01*
X188943992Y-87326531D01*
X188980462Y-87143185D01*
X189052000Y-86970476D01*
X189155857Y-86815043D01*
X189288043Y-86682857D01*
X189443476Y-86579000D01*
X189616185Y-86507462D01*
X189799531Y-86470992D01*
X189986469Y-86470992D01*
X190169815Y-86507462D01*
G37*
G36*
X122384442Y-85066851D02*
G01*
X122413640Y-85086360D01*
X122433149Y-85115558D01*
X122440000Y-85150000D01*
X122440000Y-86850000D01*
X122433149Y-86884442D01*
X122413640Y-86913640D01*
X122384442Y-86933149D01*
X122350000Y-86940000D01*
X120650000Y-86940000D01*
X120615558Y-86933149D01*
X120586360Y-86913640D01*
X120566851Y-86884442D01*
X120560000Y-86850000D01*
X120560000Y-85150000D01*
X120566851Y-85115558D01*
X120586360Y-85086360D01*
X120615558Y-85066851D01*
X120650000Y-85060000D01*
X122350000Y-85060000D01*
X122384442Y-85066851D01*
G37*
G36*
X159742703Y-83222473D02*
G01*
X159956233Y-83279688D01*
X160160468Y-83364285D01*
X160351914Y-83474816D01*
X160527294Y-83609391D01*
X160683609Y-83765706D01*
X160818184Y-83941086D01*
X160928715Y-84132532D01*
X161013312Y-84336767D01*
X161070527Y-84550297D01*
X161099382Y-84769469D01*
X161099382Y-84990531D01*
X161070527Y-85209703D01*
X161013312Y-85423233D01*
X160928715Y-85627468D01*
X160818184Y-85818914D01*
X160683609Y-85994294D01*
X160527294Y-86150609D01*
X160351914Y-86285184D01*
X160160468Y-86395715D01*
X159956233Y-86480312D01*
X159742703Y-86537527D01*
X159523531Y-86566382D01*
X159302469Y-86566382D01*
X159083297Y-86537527D01*
X158869767Y-86480312D01*
X158665532Y-86395715D01*
X158474086Y-86285184D01*
X158298706Y-86150609D01*
X158142391Y-85994294D01*
X158007816Y-85818914D01*
X157897285Y-85627468D01*
X157812688Y-85423233D01*
X157755473Y-85209703D01*
X157726618Y-84990531D01*
X157726618Y-84769469D01*
X157755473Y-84550297D01*
X157812688Y-84336767D01*
X157897285Y-84132532D01*
X158007816Y-83941086D01*
X158142391Y-83765706D01*
X158298706Y-83609391D01*
X158474086Y-83474816D01*
X158665532Y-83364285D01*
X158869767Y-83279688D01*
X159083297Y-83222473D01*
X159302469Y-83193618D01*
X159523531Y-83193618D01*
X159742703Y-83222473D01*
G37*
G36*
X187629815Y-83967462D02*
G01*
X187802524Y-84039000D01*
X187957957Y-84142857D01*
X188090143Y-84275043D01*
X188194000Y-84430476D01*
X188265538Y-84603185D01*
X188302008Y-84786531D01*
X188302008Y-84973469D01*
X188265538Y-85156815D01*
X188194000Y-85329524D01*
X188090143Y-85484957D01*
X187957957Y-85617143D01*
X187802524Y-85721000D01*
X187629815Y-85792538D01*
X187446469Y-85829008D01*
X187259531Y-85829008D01*
X187076185Y-85792538D01*
X186903476Y-85721000D01*
X186748043Y-85617143D01*
X186615857Y-85484957D01*
X186512000Y-85329524D01*
X186440462Y-85156815D01*
X186403992Y-84973469D01*
X186403992Y-84786531D01*
X186440462Y-84603185D01*
X186512000Y-84430476D01*
X186615857Y-84275043D01*
X186748043Y-84142857D01*
X186903476Y-84039000D01*
X187076185Y-83967462D01*
X187259531Y-83930992D01*
X187446469Y-83930992D01*
X187629815Y-83967462D01*
G37*
G36*
X190169815Y-83967462D02*
G01*
X190342524Y-84039000D01*
X190497957Y-84142857D01*
X190630143Y-84275043D01*
X190734000Y-84430476D01*
X190805538Y-84603185D01*
X190842008Y-84786531D01*
X190842008Y-84973469D01*
X190805538Y-85156815D01*
X190734000Y-85329524D01*
X190630143Y-85484957D01*
X190497957Y-85617143D01*
X190342524Y-85721000D01*
X190169815Y-85792538D01*
X189986469Y-85829008D01*
X189799531Y-85829008D01*
X189616185Y-85792538D01*
X189443476Y-85721000D01*
X189288043Y-85617143D01*
X189155857Y-85484957D01*
X189052000Y-85329524D01*
X188980462Y-85156815D01*
X188943992Y-84973469D01*
X188943992Y-84786531D01*
X188980462Y-84603185D01*
X189052000Y-84430476D01*
X189155857Y-84275043D01*
X189288043Y-84142857D01*
X189443476Y-84039000D01*
X189616185Y-83967462D01*
X189799531Y-83930992D01*
X189986469Y-83930992D01*
X190169815Y-83967462D01*
G37*
G36*
X187629815Y-81427462D02*
G01*
X187802524Y-81499000D01*
X187957957Y-81602857D01*
X188090143Y-81735043D01*
X188194000Y-81890476D01*
X188265538Y-82063185D01*
X188302008Y-82246531D01*
X188302008Y-82433469D01*
X188265538Y-82616815D01*
X188194000Y-82789524D01*
X188090143Y-82944957D01*
X187957957Y-83077143D01*
X187802524Y-83181000D01*
X187629815Y-83252538D01*
X187446469Y-83289008D01*
X187259531Y-83289008D01*
X187076185Y-83252538D01*
X186903476Y-83181000D01*
X186748043Y-83077143D01*
X186615857Y-82944957D01*
X186512000Y-82789524D01*
X186440462Y-82616815D01*
X186403992Y-82433469D01*
X186403992Y-82246531D01*
X186440462Y-82063185D01*
X186512000Y-81890476D01*
X186615857Y-81735043D01*
X186748043Y-81602857D01*
X186903476Y-81499000D01*
X187076185Y-81427462D01*
X187259531Y-81390992D01*
X187446469Y-81390992D01*
X187629815Y-81427462D01*
G37*
G36*
X190169815Y-81427462D02*
G01*
X190342524Y-81499000D01*
X190497957Y-81602857D01*
X190630143Y-81735043D01*
X190734000Y-81890476D01*
X190805538Y-82063185D01*
X190842008Y-82246531D01*
X190842008Y-82433469D01*
X190805538Y-82616815D01*
X190734000Y-82789524D01*
X190630143Y-82944957D01*
X190497957Y-83077143D01*
X190342524Y-83181000D01*
X190169815Y-83252538D01*
X189986469Y-83289008D01*
X189799531Y-83289008D01*
X189616185Y-83252538D01*
X189443476Y-83181000D01*
X189288043Y-83077143D01*
X189155857Y-82944957D01*
X189052000Y-82789524D01*
X188980462Y-82616815D01*
X188943992Y-82433469D01*
X188943992Y-82246531D01*
X188980462Y-82063185D01*
X189052000Y-81890476D01*
X189155857Y-81735043D01*
X189288043Y-81602857D01*
X189443476Y-81499000D01*
X189616185Y-81427462D01*
X189799531Y-81390992D01*
X189986469Y-81390992D01*
X190169815Y-81427462D01*
G37*
G36*
X187629815Y-78887462D02*
G01*
X187802524Y-78959000D01*
X187957957Y-79062857D01*
X188090143Y-79195043D01*
X188194000Y-79350476D01*
X188265538Y-79523185D01*
X188302008Y-79706531D01*
X188302008Y-79893469D01*
X188265538Y-80076815D01*
X188194000Y-80249524D01*
X188090143Y-80404957D01*
X187957957Y-80537143D01*
X187802524Y-80641000D01*
X187629815Y-80712538D01*
X187446469Y-80749008D01*
X187259531Y-80749008D01*
X187076185Y-80712538D01*
X186903476Y-80641000D01*
X186748043Y-80537143D01*
X186615857Y-80404957D01*
X186512000Y-80249524D01*
X186440462Y-80076815D01*
X186403992Y-79893469D01*
X186403992Y-79706531D01*
X186440462Y-79523185D01*
X186512000Y-79350476D01*
X186615857Y-79195043D01*
X186748043Y-79062857D01*
X186903476Y-78959000D01*
X187076185Y-78887462D01*
X187259531Y-78850992D01*
X187446469Y-78850992D01*
X187629815Y-78887462D01*
G37*
G36*
X190169815Y-78887462D02*
G01*
X190342524Y-78959000D01*
X190497957Y-79062857D01*
X190630143Y-79195043D01*
X190734000Y-79350476D01*
X190805538Y-79523185D01*
X190842008Y-79706531D01*
X190842008Y-79893469D01*
X190805538Y-80076815D01*
X190734000Y-80249524D01*
X190630143Y-80404957D01*
X190497957Y-80537143D01*
X190342524Y-80641000D01*
X190169815Y-80712538D01*
X189986469Y-80749008D01*
X189799531Y-80749008D01*
X189616185Y-80712538D01*
X189443476Y-80641000D01*
X189288043Y-80537143D01*
X189155857Y-80404957D01*
X189052000Y-80249524D01*
X188980462Y-80076815D01*
X188943992Y-79893469D01*
X188943992Y-79706531D01*
X188980462Y-79523185D01*
X189052000Y-79350476D01*
X189155857Y-79195043D01*
X189288043Y-79062857D01*
X189443476Y-78959000D01*
X189616185Y-78887462D01*
X189799531Y-78850992D01*
X189986469Y-78850992D01*
X190169815Y-78887462D01*
G37*
G36*
X187629815Y-76347462D02*
G01*
X187802524Y-76419000D01*
X187957957Y-76522857D01*
X188090143Y-76655043D01*
X188194000Y-76810476D01*
X188265538Y-76983185D01*
X188302008Y-77166531D01*
X188302008Y-77353469D01*
X188265538Y-77536815D01*
X188194000Y-77709524D01*
X188090143Y-77864957D01*
X187957957Y-77997143D01*
X187802524Y-78101000D01*
X187629815Y-78172538D01*
X187446469Y-78209008D01*
X187259531Y-78209008D01*
X187076185Y-78172538D01*
X186903476Y-78101000D01*
X186748043Y-77997143D01*
X186615857Y-77864957D01*
X186512000Y-77709524D01*
X186440462Y-77536815D01*
X186403992Y-77353469D01*
X186403992Y-77166531D01*
X186440462Y-76983185D01*
X186512000Y-76810476D01*
X186615857Y-76655043D01*
X186748043Y-76522857D01*
X186903476Y-76419000D01*
X187076185Y-76347462D01*
X187259531Y-76310992D01*
X187446469Y-76310992D01*
X187629815Y-76347462D01*
G37*
G36*
X190169815Y-76347462D02*
G01*
X190342524Y-76419000D01*
X190497957Y-76522857D01*
X190630143Y-76655043D01*
X190734000Y-76810476D01*
X190805538Y-76983185D01*
X190842008Y-77166531D01*
X190842008Y-77353469D01*
X190805538Y-77536815D01*
X190734000Y-77709524D01*
X190630143Y-77864957D01*
X190497957Y-77997143D01*
X190342524Y-78101000D01*
X190169815Y-78172538D01*
X189986469Y-78209008D01*
X189799531Y-78209008D01*
X189616185Y-78172538D01*
X189443476Y-78101000D01*
X189288043Y-77997143D01*
X189155857Y-77864957D01*
X189052000Y-77709524D01*
X188980462Y-77536815D01*
X188943992Y-77353469D01*
X188943992Y-77166531D01*
X188980462Y-76983185D01*
X189052000Y-76810476D01*
X189155857Y-76655043D01*
X189288043Y-76522857D01*
X189443476Y-76419000D01*
X189616185Y-76347462D01*
X189799531Y-76310992D01*
X189986469Y-76310992D01*
X190169815Y-76347462D01*
G37*
G36*
X187629815Y-73807462D02*
G01*
X187802524Y-73879000D01*
X187957957Y-73982857D01*
X188090143Y-74115043D01*
X188194000Y-74270476D01*
X188265538Y-74443185D01*
X188302008Y-74626531D01*
X188302008Y-74813469D01*
X188265538Y-74996815D01*
X188194000Y-75169524D01*
X188090143Y-75324957D01*
X187957957Y-75457143D01*
X187802524Y-75561000D01*
X187629815Y-75632538D01*
X187446469Y-75669008D01*
X187259531Y-75669008D01*
X187076185Y-75632538D01*
X186903476Y-75561000D01*
X186748043Y-75457143D01*
X186615857Y-75324957D01*
X186512000Y-75169524D01*
X186440462Y-74996815D01*
X186403992Y-74813469D01*
X186403992Y-74626531D01*
X186440462Y-74443185D01*
X186512000Y-74270476D01*
X186615857Y-74115043D01*
X186748043Y-73982857D01*
X186903476Y-73879000D01*
X187076185Y-73807462D01*
X187259531Y-73770992D01*
X187446469Y-73770992D01*
X187629815Y-73807462D01*
G37*
G36*
X190169815Y-73807462D02*
G01*
X190342524Y-73879000D01*
X190497957Y-73982857D01*
X190630143Y-74115043D01*
X190734000Y-74270476D01*
X190805538Y-74443185D01*
X190842008Y-74626531D01*
X190842008Y-74813469D01*
X190805538Y-74996815D01*
X190734000Y-75169524D01*
X190630143Y-75324957D01*
X190497957Y-75457143D01*
X190342524Y-75561000D01*
X190169815Y-75632538D01*
X189986469Y-75669008D01*
X189799531Y-75669008D01*
X189616185Y-75632538D01*
X189443476Y-75561000D01*
X189288043Y-75457143D01*
X189155857Y-75324957D01*
X189052000Y-75169524D01*
X188980462Y-74996815D01*
X188943992Y-74813469D01*
X188943992Y-74626531D01*
X188980462Y-74443185D01*
X189052000Y-74270476D01*
X189155857Y-74115043D01*
X189288043Y-73982857D01*
X189443476Y-73879000D01*
X189616185Y-73807462D01*
X189799531Y-73770992D01*
X189986469Y-73770992D01*
X190169815Y-73807462D01*
G37*
G36*
X187629815Y-71267462D02*
G01*
X187802524Y-71339000D01*
X187957957Y-71442857D01*
X188090143Y-71575043D01*
X188194000Y-71730476D01*
X188265538Y-71903185D01*
X188302008Y-72086531D01*
X188302008Y-72273469D01*
X188265538Y-72456815D01*
X188194000Y-72629524D01*
X188090143Y-72784957D01*
X187957957Y-72917143D01*
X187802524Y-73021000D01*
X187629815Y-73092538D01*
X187446469Y-73129008D01*
X187259531Y-73129008D01*
X187076185Y-73092538D01*
X186903476Y-73021000D01*
X186748043Y-72917143D01*
X186615857Y-72784957D01*
X186512000Y-72629524D01*
X186440462Y-72456815D01*
X186403992Y-72273469D01*
X186403992Y-72086531D01*
X186440462Y-71903185D01*
X186512000Y-71730476D01*
X186615857Y-71575043D01*
X186748043Y-71442857D01*
X186903476Y-71339000D01*
X187076185Y-71267462D01*
X187259531Y-71230992D01*
X187446469Y-71230992D01*
X187629815Y-71267462D01*
G37*
G36*
X190169815Y-71267462D02*
G01*
X190342524Y-71339000D01*
X190497957Y-71442857D01*
X190630143Y-71575043D01*
X190734000Y-71730476D01*
X190805538Y-71903185D01*
X190842008Y-72086531D01*
X190842008Y-72273469D01*
X190805538Y-72456815D01*
X190734000Y-72629524D01*
X190630143Y-72784957D01*
X190497957Y-72917143D01*
X190342524Y-73021000D01*
X190169815Y-73092538D01*
X189986469Y-73129008D01*
X189799531Y-73129008D01*
X189616185Y-73092538D01*
X189443476Y-73021000D01*
X189288043Y-72917143D01*
X189155857Y-72784957D01*
X189052000Y-72629524D01*
X188980462Y-72456815D01*
X188943992Y-72273469D01*
X188943992Y-72086531D01*
X188980462Y-71903185D01*
X189052000Y-71730476D01*
X189155857Y-71575043D01*
X189288043Y-71442857D01*
X189443476Y-71339000D01*
X189616185Y-71267462D01*
X189799531Y-71230992D01*
X189986469Y-71230992D01*
X190169815Y-71267462D01*
G37*
G36*
X183872703Y-67982473D02*
G01*
X184086233Y-68039688D01*
X184290468Y-68124285D01*
X184481914Y-68234816D01*
X184657294Y-68369391D01*
X184813609Y-68525706D01*
X184948184Y-68701086D01*
X185058715Y-68892532D01*
X185143312Y-69096767D01*
X185200527Y-69310297D01*
X185229382Y-69529469D01*
X185229382Y-69750531D01*
X185200527Y-69969703D01*
X185143312Y-70183233D01*
X185058715Y-70387468D01*
X184948184Y-70578914D01*
X184813609Y-70754294D01*
X184657294Y-70910609D01*
X184481914Y-71045184D01*
X184290468Y-71155715D01*
X184086233Y-71240312D01*
X183872703Y-71297527D01*
X183653531Y-71326382D01*
X183432469Y-71326382D01*
X183213297Y-71297527D01*
X182999767Y-71240312D01*
X182795532Y-71155715D01*
X182604086Y-71045184D01*
X182428706Y-70910609D01*
X182272391Y-70754294D01*
X182137816Y-70578914D01*
X182027285Y-70387468D01*
X181942688Y-70183233D01*
X181885473Y-69969703D01*
X181856618Y-69750531D01*
X181856618Y-69529469D01*
X181885473Y-69310297D01*
X181942688Y-69096767D01*
X182027285Y-68892532D01*
X182137816Y-68701086D01*
X182272391Y-68525706D01*
X182428706Y-68369391D01*
X182604086Y-68234816D01*
X182795532Y-68124285D01*
X182999767Y-68039688D01*
X183213297Y-67982473D01*
X183432469Y-67953618D01*
X183653531Y-67953618D01*
X183872703Y-67982473D01*
G37*
G36*
X120687042Y-68693251D02*
G01*
X120716240Y-68712760D01*
X120735749Y-68741958D01*
X120742600Y-68776400D01*
X120742600Y-70503600D01*
X120735749Y-70538042D01*
X120716240Y-70567240D01*
X120687042Y-70586749D01*
X120652600Y-70593600D01*
X118925400Y-70593600D01*
X118890958Y-70586749D01*
X118861760Y-70567240D01*
X118842251Y-70538042D01*
X118835400Y-70503600D01*
X118835400Y-68776400D01*
X118842251Y-68741958D01*
X118861760Y-68712760D01*
X118890958Y-68693251D01*
X118925400Y-68686400D01*
X120652600Y-68686400D01*
X120687042Y-68693251D01*
G37*
G36*
X112445815Y-68727462D02*
G01*
X112618524Y-68799000D01*
X112773957Y-68902857D01*
X112906143Y-69035043D01*
X113010000Y-69190476D01*
X113081538Y-69363185D01*
X113118008Y-69546531D01*
X113118008Y-69733469D01*
X113081538Y-69916815D01*
X113010000Y-70089524D01*
X112906143Y-70244957D01*
X112773957Y-70377143D01*
X112618524Y-70481000D01*
X112445815Y-70552538D01*
X112262469Y-70589008D01*
X112075531Y-70589008D01*
X111892185Y-70552538D01*
X111719476Y-70481000D01*
X111564043Y-70377143D01*
X111431857Y-70244957D01*
X111328000Y-70089524D01*
X111256462Y-69916815D01*
X111219992Y-69733469D01*
X111219992Y-69546531D01*
X111256462Y-69363185D01*
X111328000Y-69190476D01*
X111431857Y-69035043D01*
X111564043Y-68902857D01*
X111719476Y-68799000D01*
X111892185Y-68727462D01*
X112075531Y-68690992D01*
X112262469Y-68690992D01*
X112445815Y-68727462D01*
G37*
G36*
X114985815Y-68727462D02*
G01*
X115158524Y-68799000D01*
X115313957Y-68902857D01*
X115446143Y-69035043D01*
X115550000Y-69190476D01*
X115621538Y-69363185D01*
X115658008Y-69546531D01*
X115658008Y-69733469D01*
X115621538Y-69916815D01*
X115550000Y-70089524D01*
X115446143Y-70244957D01*
X115313957Y-70377143D01*
X115158524Y-70481000D01*
X114985815Y-70552538D01*
X114802469Y-70589008D01*
X114615531Y-70589008D01*
X114432185Y-70552538D01*
X114259476Y-70481000D01*
X114104043Y-70377143D01*
X113971857Y-70244957D01*
X113868000Y-70089524D01*
X113796462Y-69916815D01*
X113759992Y-69733469D01*
X113759992Y-69546531D01*
X113796462Y-69363185D01*
X113868000Y-69190476D01*
X113971857Y-69035043D01*
X114104043Y-68902857D01*
X114259476Y-68799000D01*
X114432185Y-68727462D01*
X114615531Y-68690992D01*
X114802469Y-68690992D01*
X114985815Y-68727462D01*
G37*
G36*
X117525815Y-68727462D02*
G01*
X117698524Y-68799000D01*
X117853957Y-68902857D01*
X117986143Y-69035043D01*
X118090000Y-69190476D01*
X118161538Y-69363185D01*
X118198008Y-69546531D01*
X118198008Y-69733469D01*
X118161538Y-69916815D01*
X118090000Y-70089524D01*
X117986143Y-70244957D01*
X117853957Y-70377143D01*
X117698524Y-70481000D01*
X117525815Y-70552538D01*
X117342469Y-70589008D01*
X117155531Y-70589008D01*
X116972185Y-70552538D01*
X116799476Y-70481000D01*
X116644043Y-70377143D01*
X116511857Y-70244957D01*
X116408000Y-70089524D01*
X116336462Y-69916815D01*
X116299992Y-69733469D01*
X116299992Y-69546531D01*
X116336462Y-69363185D01*
X116408000Y-69190476D01*
X116511857Y-69035043D01*
X116644043Y-68902857D01*
X116799476Y-68799000D01*
X116972185Y-68727462D01*
X117155531Y-68690992D01*
X117342469Y-68690992D01*
X117525815Y-68727462D01*
G37*
G36*
X122605815Y-68727462D02*
G01*
X122778524Y-68799000D01*
X122933957Y-68902857D01*
X123066143Y-69035043D01*
X123170000Y-69190476D01*
X123241538Y-69363185D01*
X123278008Y-69546531D01*
X123278008Y-69733469D01*
X123241538Y-69916815D01*
X123170000Y-70089524D01*
X123066143Y-70244957D01*
X122933957Y-70377143D01*
X122778524Y-70481000D01*
X122605815Y-70552538D01*
X122422469Y-70589008D01*
X122235531Y-70589008D01*
X122052185Y-70552538D01*
X121879476Y-70481000D01*
X121724043Y-70377143D01*
X121591857Y-70244957D01*
X121488000Y-70089524D01*
X121416462Y-69916815D01*
X121379992Y-69733469D01*
X121379992Y-69546531D01*
X121416462Y-69363185D01*
X121488000Y-69190476D01*
X121591857Y-69035043D01*
X121724043Y-68902857D01*
X121879476Y-68799000D01*
X122052185Y-68727462D01*
X122235531Y-68690992D01*
X122422469Y-68690992D01*
X122605815Y-68727462D01*
G37*
G36*
X125145815Y-68727462D02*
G01*
X125318524Y-68799000D01*
X125473957Y-68902857D01*
X125606143Y-69035043D01*
X125710000Y-69190476D01*
X125781538Y-69363185D01*
X125818008Y-69546531D01*
X125818008Y-69733469D01*
X125781538Y-69916815D01*
X125710000Y-70089524D01*
X125606143Y-70244957D01*
X125473957Y-70377143D01*
X125318524Y-70481000D01*
X125145815Y-70552538D01*
X124962469Y-70589008D01*
X124775531Y-70589008D01*
X124592185Y-70552538D01*
X124419476Y-70481000D01*
X124264043Y-70377143D01*
X124131857Y-70244957D01*
X124028000Y-70089524D01*
X123956462Y-69916815D01*
X123919992Y-69733469D01*
X123919992Y-69546531D01*
X123956462Y-69363185D01*
X124028000Y-69190476D01*
X124131857Y-69035043D01*
X124264043Y-68902857D01*
X124419476Y-68799000D01*
X124592185Y-68727462D01*
X124775531Y-68690992D01*
X124962469Y-68690992D01*
X125145815Y-68727462D01*
G37*
G36*
X127685815Y-68727462D02*
G01*
X127858524Y-68799000D01*
X128013957Y-68902857D01*
X128146143Y-69035043D01*
X128250000Y-69190476D01*
X128321538Y-69363185D01*
X128358008Y-69546531D01*
X128358008Y-69733469D01*
X128321538Y-69916815D01*
X128250000Y-70089524D01*
X128146143Y-70244957D01*
X128013957Y-70377143D01*
X127858524Y-70481000D01*
X127685815Y-70552538D01*
X127502469Y-70589008D01*
X127315531Y-70589008D01*
X127132185Y-70552538D01*
X126959476Y-70481000D01*
X126804043Y-70377143D01*
X126671857Y-70244957D01*
X126568000Y-70089524D01*
X126496462Y-69916815D01*
X126459992Y-69733469D01*
X126459992Y-69546531D01*
X126496462Y-69363185D01*
X126568000Y-69190476D01*
X126671857Y-69035043D01*
X126804043Y-68902857D01*
X126959476Y-68799000D01*
X127132185Y-68727462D01*
X127315531Y-68690992D01*
X127502469Y-68690992D01*
X127685815Y-68727462D01*
G37*
G36*
X130225815Y-68727462D02*
G01*
X130398524Y-68799000D01*
X130553957Y-68902857D01*
X130686143Y-69035043D01*
X130790000Y-69190476D01*
X130861538Y-69363185D01*
X130898008Y-69546531D01*
X130898008Y-69733469D01*
X130861538Y-69916815D01*
X130790000Y-70089524D01*
X130686143Y-70244957D01*
X130553957Y-70377143D01*
X130398524Y-70481000D01*
X130225815Y-70552538D01*
X130042469Y-70589008D01*
X129855531Y-70589008D01*
X129672185Y-70552538D01*
X129499476Y-70481000D01*
X129344043Y-70377143D01*
X129211857Y-70244957D01*
X129108000Y-70089524D01*
X129036462Y-69916815D01*
X128999992Y-69733469D01*
X128999992Y-69546531D01*
X129036462Y-69363185D01*
X129108000Y-69190476D01*
X129211857Y-69035043D01*
X129344043Y-68902857D01*
X129499476Y-68799000D01*
X129672185Y-68727462D01*
X129855531Y-68690992D01*
X130042469Y-68690992D01*
X130225815Y-68727462D01*
G37*
G36*
X132765815Y-68727462D02*
G01*
X132938524Y-68799000D01*
X133093957Y-68902857D01*
X133226143Y-69035043D01*
X133330000Y-69190476D01*
X133401538Y-69363185D01*
X133438008Y-69546531D01*
X133438008Y-69733469D01*
X133401538Y-69916815D01*
X133330000Y-70089524D01*
X133226143Y-70244957D01*
X133093957Y-70377143D01*
X132938524Y-70481000D01*
X132765815Y-70552538D01*
X132582469Y-70589008D01*
X132395531Y-70589008D01*
X132212185Y-70552538D01*
X132039476Y-70481000D01*
X131884043Y-70377143D01*
X131751857Y-70244957D01*
X131648000Y-70089524D01*
X131576462Y-69916815D01*
X131539992Y-69733469D01*
X131539992Y-69546531D01*
X131576462Y-69363185D01*
X131648000Y-69190476D01*
X131751857Y-69035043D01*
X131884043Y-68902857D01*
X132039476Y-68799000D01*
X132212185Y-68727462D01*
X132395531Y-68690992D01*
X132582469Y-68690992D01*
X132765815Y-68727462D01*
G37*
G36*
X135305815Y-68727462D02*
G01*
X135478524Y-68799000D01*
X135633957Y-68902857D01*
X135766143Y-69035043D01*
X135870000Y-69190476D01*
X135941538Y-69363185D01*
X135978008Y-69546531D01*
X135978008Y-69733469D01*
X135941538Y-69916815D01*
X135870000Y-70089524D01*
X135766143Y-70244957D01*
X135633957Y-70377143D01*
X135478524Y-70481000D01*
X135305815Y-70552538D01*
X135122469Y-70589008D01*
X134935531Y-70589008D01*
X134752185Y-70552538D01*
X134579476Y-70481000D01*
X134424043Y-70377143D01*
X134291857Y-70244957D01*
X134188000Y-70089524D01*
X134116462Y-69916815D01*
X134079992Y-69733469D01*
X134079992Y-69546531D01*
X134116462Y-69363185D01*
X134188000Y-69190476D01*
X134291857Y-69035043D01*
X134424043Y-68902857D01*
X134579476Y-68799000D01*
X134752185Y-68727462D01*
X134935531Y-68690992D01*
X135122469Y-68690992D01*
X135305815Y-68727462D01*
G37*
G36*
X139369815Y-68727462D02*
G01*
X139542524Y-68799000D01*
X139697957Y-68902857D01*
X139830143Y-69035043D01*
X139934000Y-69190476D01*
X140005538Y-69363185D01*
X140042008Y-69546531D01*
X140042008Y-69733469D01*
X140005538Y-69916815D01*
X139934000Y-70089524D01*
X139830143Y-70244957D01*
X139697957Y-70377143D01*
X139542524Y-70481000D01*
X139369815Y-70552538D01*
X139186469Y-70589008D01*
X138999531Y-70589008D01*
X138816185Y-70552538D01*
X138643476Y-70481000D01*
X138488043Y-70377143D01*
X138355857Y-70244957D01*
X138252000Y-70089524D01*
X138180462Y-69916815D01*
X138143992Y-69733469D01*
X138143992Y-69546531D01*
X138180462Y-69363185D01*
X138252000Y-69190476D01*
X138355857Y-69035043D01*
X138488043Y-68902857D01*
X138643476Y-68799000D01*
X138816185Y-68727462D01*
X138999531Y-68690992D01*
X139186469Y-68690992D01*
X139369815Y-68727462D01*
G37*
G36*
X141909815Y-68727462D02*
G01*
X142082524Y-68799000D01*
X142237957Y-68902857D01*
X142370143Y-69035043D01*
X142474000Y-69190476D01*
X142545538Y-69363185D01*
X142582008Y-69546531D01*
X142582008Y-69733469D01*
X142545538Y-69916815D01*
X142474000Y-70089524D01*
X142370143Y-70244957D01*
X142237957Y-70377143D01*
X142082524Y-70481000D01*
X141909815Y-70552538D01*
X141726469Y-70589008D01*
X141539531Y-70589008D01*
X141356185Y-70552538D01*
X141183476Y-70481000D01*
X141028043Y-70377143D01*
X140895857Y-70244957D01*
X140792000Y-70089524D01*
X140720462Y-69916815D01*
X140683992Y-69733469D01*
X140683992Y-69546531D01*
X140720462Y-69363185D01*
X140792000Y-69190476D01*
X140895857Y-69035043D01*
X141028043Y-68902857D01*
X141183476Y-68799000D01*
X141356185Y-68727462D01*
X141539531Y-68690992D01*
X141726469Y-68690992D01*
X141909815Y-68727462D01*
G37*
G36*
X144449815Y-68727462D02*
G01*
X144622524Y-68799000D01*
X144777957Y-68902857D01*
X144910143Y-69035043D01*
X145014000Y-69190476D01*
X145085538Y-69363185D01*
X145122008Y-69546531D01*
X145122008Y-69733469D01*
X145085538Y-69916815D01*
X145014000Y-70089524D01*
X144910143Y-70244957D01*
X144777957Y-70377143D01*
X144622524Y-70481000D01*
X144449815Y-70552538D01*
X144266469Y-70589008D01*
X144079531Y-70589008D01*
X143896185Y-70552538D01*
X143723476Y-70481000D01*
X143568043Y-70377143D01*
X143435857Y-70244957D01*
X143332000Y-70089524D01*
X143260462Y-69916815D01*
X143223992Y-69733469D01*
X143223992Y-69546531D01*
X143260462Y-69363185D01*
X143332000Y-69190476D01*
X143435857Y-69035043D01*
X143568043Y-68902857D01*
X143723476Y-68799000D01*
X143896185Y-68727462D01*
X144079531Y-68690992D01*
X144266469Y-68690992D01*
X144449815Y-68727462D01*
G37*
G36*
X146989815Y-68727462D02*
G01*
X147162524Y-68799000D01*
X147317957Y-68902857D01*
X147450143Y-69035043D01*
X147554000Y-69190476D01*
X147625538Y-69363185D01*
X147662008Y-69546531D01*
X147662008Y-69733469D01*
X147625538Y-69916815D01*
X147554000Y-70089524D01*
X147450143Y-70244957D01*
X147317957Y-70377143D01*
X147162524Y-70481000D01*
X146989815Y-70552538D01*
X146806469Y-70589008D01*
X146619531Y-70589008D01*
X146436185Y-70552538D01*
X146263476Y-70481000D01*
X146108043Y-70377143D01*
X145975857Y-70244957D01*
X145872000Y-70089524D01*
X145800462Y-69916815D01*
X145763992Y-69733469D01*
X145763992Y-69546531D01*
X145800462Y-69363185D01*
X145872000Y-69190476D01*
X145975857Y-69035043D01*
X146108043Y-68902857D01*
X146263476Y-68799000D01*
X146436185Y-68727462D01*
X146619531Y-68690992D01*
X146806469Y-68690992D01*
X146989815Y-68727462D01*
G37*
G36*
X149529815Y-68727462D02*
G01*
X149702524Y-68799000D01*
X149857957Y-68902857D01*
X149990143Y-69035043D01*
X150094000Y-69190476D01*
X150165538Y-69363185D01*
X150202008Y-69546531D01*
X150202008Y-69733469D01*
X150165538Y-69916815D01*
X150094000Y-70089524D01*
X149990143Y-70244957D01*
X149857957Y-70377143D01*
X149702524Y-70481000D01*
X149529815Y-70552538D01*
X149346469Y-70589008D01*
X149159531Y-70589008D01*
X148976185Y-70552538D01*
X148803476Y-70481000D01*
X148648043Y-70377143D01*
X148515857Y-70244957D01*
X148412000Y-70089524D01*
X148340462Y-69916815D01*
X148303992Y-69733469D01*
X148303992Y-69546531D01*
X148340462Y-69363185D01*
X148412000Y-69190476D01*
X148515857Y-69035043D01*
X148648043Y-68902857D01*
X148803476Y-68799000D01*
X148976185Y-68727462D01*
X149159531Y-68690992D01*
X149346469Y-68690992D01*
X149529815Y-68727462D01*
G37*
G36*
X152069815Y-68727462D02*
G01*
X152242524Y-68799000D01*
X152397957Y-68902857D01*
X152530143Y-69035043D01*
X152634000Y-69190476D01*
X152705538Y-69363185D01*
X152742008Y-69546531D01*
X152742008Y-69733469D01*
X152705538Y-69916815D01*
X152634000Y-70089524D01*
X152530143Y-70244957D01*
X152397957Y-70377143D01*
X152242524Y-70481000D01*
X152069815Y-70552538D01*
X151886469Y-70589008D01*
X151699531Y-70589008D01*
X151516185Y-70552538D01*
X151343476Y-70481000D01*
X151188043Y-70377143D01*
X151055857Y-70244957D01*
X150952000Y-70089524D01*
X150880462Y-69916815D01*
X150843992Y-69733469D01*
X150843992Y-69546531D01*
X150880462Y-69363185D01*
X150952000Y-69190476D01*
X151055857Y-69035043D01*
X151188043Y-68902857D01*
X151343476Y-68799000D01*
X151516185Y-68727462D01*
X151699531Y-68690992D01*
X151886469Y-68690992D01*
X152069815Y-68727462D01*
G37*
G36*
X154609815Y-68727462D02*
G01*
X154782524Y-68799000D01*
X154937957Y-68902857D01*
X155070143Y-69035043D01*
X155174000Y-69190476D01*
X155245538Y-69363185D01*
X155282008Y-69546531D01*
X155282008Y-69733469D01*
X155245538Y-69916815D01*
X155174000Y-70089524D01*
X155070143Y-70244957D01*
X154937957Y-70377143D01*
X154782524Y-70481000D01*
X154609815Y-70552538D01*
X154426469Y-70589008D01*
X154239531Y-70589008D01*
X154056185Y-70552538D01*
X153883476Y-70481000D01*
X153728043Y-70377143D01*
X153595857Y-70244957D01*
X153492000Y-70089524D01*
X153420462Y-69916815D01*
X153383992Y-69733469D01*
X153383992Y-69546531D01*
X153420462Y-69363185D01*
X153492000Y-69190476D01*
X153595857Y-69035043D01*
X153728043Y-68902857D01*
X153883476Y-68799000D01*
X154056185Y-68727462D01*
X154239531Y-68690992D01*
X154426469Y-68690992D01*
X154609815Y-68727462D01*
G37*
G36*
X157149815Y-68727462D02*
G01*
X157322524Y-68799000D01*
X157477957Y-68902857D01*
X157610143Y-69035043D01*
X157714000Y-69190476D01*
X157785538Y-69363185D01*
X157822008Y-69546531D01*
X157822008Y-69733469D01*
X157785538Y-69916815D01*
X157714000Y-70089524D01*
X157610143Y-70244957D01*
X157477957Y-70377143D01*
X157322524Y-70481000D01*
X157149815Y-70552538D01*
X156966469Y-70589008D01*
X156779531Y-70589008D01*
X156596185Y-70552538D01*
X156423476Y-70481000D01*
X156268043Y-70377143D01*
X156135857Y-70244957D01*
X156032000Y-70089524D01*
X155960462Y-69916815D01*
X155923992Y-69733469D01*
X155923992Y-69546531D01*
X155960462Y-69363185D01*
X156032000Y-69190476D01*
X156135857Y-69035043D01*
X156268043Y-68902857D01*
X156423476Y-68799000D01*
X156596185Y-68727462D01*
X156779531Y-68690992D01*
X156966469Y-68690992D01*
X157149815Y-68727462D01*
G37*
G36*
X162229815Y-68727462D02*
G01*
X162402524Y-68799000D01*
X162557957Y-68902857D01*
X162690143Y-69035043D01*
X162794000Y-69190476D01*
X162865538Y-69363185D01*
X162902008Y-69546531D01*
X162902008Y-69733469D01*
X162865538Y-69916815D01*
X162794000Y-70089524D01*
X162690143Y-70244957D01*
X162557957Y-70377143D01*
X162402524Y-70481000D01*
X162229815Y-70552538D01*
X162046469Y-70589008D01*
X161859531Y-70589008D01*
X161676185Y-70552538D01*
X161503476Y-70481000D01*
X161348043Y-70377143D01*
X161215857Y-70244957D01*
X161112000Y-70089524D01*
X161040462Y-69916815D01*
X161003992Y-69733469D01*
X161003992Y-69546531D01*
X161040462Y-69363185D01*
X161112000Y-69190476D01*
X161215857Y-69035043D01*
X161348043Y-68902857D01*
X161503476Y-68799000D01*
X161676185Y-68727462D01*
X161859531Y-68690992D01*
X162046469Y-68690992D01*
X162229815Y-68727462D01*
G37*
G36*
X164769815Y-68727462D02*
G01*
X164942524Y-68799000D01*
X165097957Y-68902857D01*
X165230143Y-69035043D01*
X165334000Y-69190476D01*
X165405538Y-69363185D01*
X165442008Y-69546531D01*
X165442008Y-69733469D01*
X165405538Y-69916815D01*
X165334000Y-70089524D01*
X165230143Y-70244957D01*
X165097957Y-70377143D01*
X164942524Y-70481000D01*
X164769815Y-70552538D01*
X164586469Y-70589008D01*
X164399531Y-70589008D01*
X164216185Y-70552538D01*
X164043476Y-70481000D01*
X163888043Y-70377143D01*
X163755857Y-70244957D01*
X163652000Y-70089524D01*
X163580462Y-69916815D01*
X163543992Y-69733469D01*
X163543992Y-69546531D01*
X163580462Y-69363185D01*
X163652000Y-69190476D01*
X163755857Y-69035043D01*
X163888043Y-68902857D01*
X164043476Y-68799000D01*
X164216185Y-68727462D01*
X164399531Y-68690992D01*
X164586469Y-68690992D01*
X164769815Y-68727462D01*
G37*
G36*
X167309815Y-68727462D02*
G01*
X167482524Y-68799000D01*
X167637957Y-68902857D01*
X167770143Y-69035043D01*
X167874000Y-69190476D01*
X167945538Y-69363185D01*
X167982008Y-69546531D01*
X167982008Y-69733469D01*
X167945538Y-69916815D01*
X167874000Y-70089524D01*
X167770143Y-70244957D01*
X167637957Y-70377143D01*
X167482524Y-70481000D01*
X167309815Y-70552538D01*
X167126469Y-70589008D01*
X166939531Y-70589008D01*
X166756185Y-70552538D01*
X166583476Y-70481000D01*
X166428043Y-70377143D01*
X166295857Y-70244957D01*
X166192000Y-70089524D01*
X166120462Y-69916815D01*
X166083992Y-69733469D01*
X166083992Y-69546531D01*
X166120462Y-69363185D01*
X166192000Y-69190476D01*
X166295857Y-69035043D01*
X166428043Y-68902857D01*
X166583476Y-68799000D01*
X166756185Y-68727462D01*
X166939531Y-68690992D01*
X167126469Y-68690992D01*
X167309815Y-68727462D01*
G37*
G36*
X169849815Y-68727462D02*
G01*
X170022524Y-68799000D01*
X170177957Y-68902857D01*
X170310143Y-69035043D01*
X170414000Y-69190476D01*
X170485538Y-69363185D01*
X170522008Y-69546531D01*
X170522008Y-69733469D01*
X170485538Y-69916815D01*
X170414000Y-70089524D01*
X170310143Y-70244957D01*
X170177957Y-70377143D01*
X170022524Y-70481000D01*
X169849815Y-70552538D01*
X169666469Y-70589008D01*
X169479531Y-70589008D01*
X169296185Y-70552538D01*
X169123476Y-70481000D01*
X168968043Y-70377143D01*
X168835857Y-70244957D01*
X168732000Y-70089524D01*
X168660462Y-69916815D01*
X168623992Y-69733469D01*
X168623992Y-69546531D01*
X168660462Y-69363185D01*
X168732000Y-69190476D01*
X168835857Y-69035043D01*
X168968043Y-68902857D01*
X169123476Y-68799000D01*
X169296185Y-68727462D01*
X169479531Y-68690992D01*
X169666469Y-68690992D01*
X169849815Y-68727462D01*
G37*
G36*
X172389815Y-68727462D02*
G01*
X172562524Y-68799000D01*
X172717957Y-68902857D01*
X172850143Y-69035043D01*
X172954000Y-69190476D01*
X173025538Y-69363185D01*
X173062008Y-69546531D01*
X173062008Y-69733469D01*
X173025538Y-69916815D01*
X172954000Y-70089524D01*
X172850143Y-70244957D01*
X172717957Y-70377143D01*
X172562524Y-70481000D01*
X172389815Y-70552538D01*
X172206469Y-70589008D01*
X172019531Y-70589008D01*
X171836185Y-70552538D01*
X171663476Y-70481000D01*
X171508043Y-70377143D01*
X171375857Y-70244957D01*
X171272000Y-70089524D01*
X171200462Y-69916815D01*
X171163992Y-69733469D01*
X171163992Y-69546531D01*
X171200462Y-69363185D01*
X171272000Y-69190476D01*
X171375857Y-69035043D01*
X171508043Y-68902857D01*
X171663476Y-68799000D01*
X171836185Y-68727462D01*
X172019531Y-68690992D01*
X172206469Y-68690992D01*
X172389815Y-68727462D01*
G37*
G36*
X174929815Y-68727462D02*
G01*
X175102524Y-68799000D01*
X175257957Y-68902857D01*
X175390143Y-69035043D01*
X175494000Y-69190476D01*
X175565538Y-69363185D01*
X175602008Y-69546531D01*
X175602008Y-69733469D01*
X175565538Y-69916815D01*
X175494000Y-70089524D01*
X175390143Y-70244957D01*
X175257957Y-70377143D01*
X175102524Y-70481000D01*
X174929815Y-70552538D01*
X174746469Y-70589008D01*
X174559531Y-70589008D01*
X174376185Y-70552538D01*
X174203476Y-70481000D01*
X174048043Y-70377143D01*
X173915857Y-70244957D01*
X173812000Y-70089524D01*
X173740462Y-69916815D01*
X173703992Y-69733469D01*
X173703992Y-69546531D01*
X173740462Y-69363185D01*
X173812000Y-69190476D01*
X173915857Y-69035043D01*
X174048043Y-68902857D01*
X174203476Y-68799000D01*
X174376185Y-68727462D01*
X174559531Y-68690992D01*
X174746469Y-68690992D01*
X174929815Y-68727462D01*
G37*
G36*
X177469815Y-68727462D02*
G01*
X177642524Y-68799000D01*
X177797957Y-68902857D01*
X177930143Y-69035043D01*
X178034000Y-69190476D01*
X178105538Y-69363185D01*
X178142008Y-69546531D01*
X178142008Y-69733469D01*
X178105538Y-69916815D01*
X178034000Y-70089524D01*
X177930143Y-70244957D01*
X177797957Y-70377143D01*
X177642524Y-70481000D01*
X177469815Y-70552538D01*
X177286469Y-70589008D01*
X177099531Y-70589008D01*
X176916185Y-70552538D01*
X176743476Y-70481000D01*
X176588043Y-70377143D01*
X176455857Y-70244957D01*
X176352000Y-70089524D01*
X176280462Y-69916815D01*
X176243992Y-69733469D01*
X176243992Y-69546531D01*
X176280462Y-69363185D01*
X176352000Y-69190476D01*
X176455857Y-69035043D01*
X176588043Y-68902857D01*
X176743476Y-68799000D01*
X176916185Y-68727462D01*
X177099531Y-68690992D01*
X177286469Y-68690992D01*
X177469815Y-68727462D01*
G37*
G36*
X180009815Y-68727462D02*
G01*
X180182524Y-68799000D01*
X180337957Y-68902857D01*
X180470143Y-69035043D01*
X180574000Y-69190476D01*
X180645538Y-69363185D01*
X180682008Y-69546531D01*
X180682008Y-69733469D01*
X180645538Y-69916815D01*
X180574000Y-70089524D01*
X180470143Y-70244957D01*
X180337957Y-70377143D01*
X180182524Y-70481000D01*
X180009815Y-70552538D01*
X179826469Y-70589008D01*
X179639531Y-70589008D01*
X179456185Y-70552538D01*
X179283476Y-70481000D01*
X179128043Y-70377143D01*
X178995857Y-70244957D01*
X178892000Y-70089524D01*
X178820462Y-69916815D01*
X178783992Y-69733469D01*
X178783992Y-69546531D01*
X178820462Y-69363185D01*
X178892000Y-69190476D01*
X178995857Y-69035043D01*
X179128043Y-68902857D01*
X179283476Y-68799000D01*
X179456185Y-68727462D01*
X179639531Y-68690992D01*
X179826469Y-68690992D01*
X180009815Y-68727462D01*
G37*
G36*
X187629815Y-68727462D02*
G01*
X187802524Y-68799000D01*
X187957957Y-68902857D01*
X188090143Y-69035043D01*
X188194000Y-69190476D01*
X188265538Y-69363185D01*
X188302008Y-69546531D01*
X188302008Y-69733469D01*
X188265538Y-69916815D01*
X188194000Y-70089524D01*
X188090143Y-70244957D01*
X187957957Y-70377143D01*
X187802524Y-70481000D01*
X187629815Y-70552538D01*
X187446469Y-70589008D01*
X187259531Y-70589008D01*
X187076185Y-70552538D01*
X186903476Y-70481000D01*
X186748043Y-70377143D01*
X186615857Y-70244957D01*
X186512000Y-70089524D01*
X186440462Y-69916815D01*
X186403992Y-69733469D01*
X186403992Y-69546531D01*
X186440462Y-69363185D01*
X186512000Y-69190476D01*
X186615857Y-69035043D01*
X186748043Y-68902857D01*
X186903476Y-68799000D01*
X187076185Y-68727462D01*
X187259531Y-68690992D01*
X187446469Y-68690992D01*
X187629815Y-68727462D01*
G37*
G36*
X190169815Y-68727462D02*
G01*
X190342524Y-68799000D01*
X190497957Y-68902857D01*
X190630143Y-69035043D01*
X190734000Y-69190476D01*
X190805538Y-69363185D01*
X190842008Y-69546531D01*
X190842008Y-69733469D01*
X190805538Y-69916815D01*
X190734000Y-70089524D01*
X190630143Y-70244957D01*
X190497957Y-70377143D01*
X190342524Y-70481000D01*
X190169815Y-70552538D01*
X189986469Y-70589008D01*
X189799531Y-70589008D01*
X189616185Y-70552538D01*
X189443476Y-70481000D01*
X189288043Y-70377143D01*
X189155857Y-70244957D01*
X189052000Y-70089524D01*
X188980462Y-69916815D01*
X188943992Y-69733469D01*
X188943992Y-69546531D01*
X188980462Y-69363185D01*
X189052000Y-69190476D01*
X189155857Y-69035043D01*
X189288043Y-68902857D01*
X189443476Y-68799000D01*
X189616185Y-68727462D01*
X189799531Y-68690992D01*
X189986469Y-68690992D01*
X190169815Y-68727462D01*
G37*
M02*
