M48
; DRILL file {KiCad 9.0.8+dfsg-1} date 2026-07-03T17:01:11-0700
; FORMAT={-:-/ absolute / metric / decimal}
; #@! TF.CreationDate,2026-07-03T17:01:11-07:00
; #@! TF.GenerationSoftware,Kicad,Pcbnew,9.0.8+dfsg-1
; #@! TF.FileFunction,MixedPlating,1,2
FMAT,2
METRIC
; #@! TA.AperFunction,Plated,PTH,ComponentDrill
T1C1.000
; #@! TA.AperFunction,Plated,PTH,ComponentDrill
T2C1.016
; #@! TA.AperFunction,NonPlated,NPTH,ComponentDrill
T3C3.200
%
G90
G05
T1
X121.5Y-86.0
X121.5Y-88.54
X121.5Y-91.08
X121.5Y-93.62
X121.5Y-96.16
X121.5Y-98.7
X121.5Y-101.24
X121.5Y-103.78
T2
X112.169Y-69.64
X114.709Y-69.64
X117.249Y-69.64
X119.789Y-69.64
X121.313Y-117.9
X122.329Y-69.64
X123.853Y-117.9
X124.869Y-69.64
X126.393Y-117.9
X127.409Y-69.64
X128.933Y-117.9
X129.949Y-69.64
X131.473Y-117.9
X132.489Y-69.64
X134.013Y-117.9
X135.029Y-69.64
X136.553Y-117.9
X139.093Y-69.64
X139.093Y-117.9
X141.633Y-69.64
X144.173Y-69.64
X144.173Y-117.9
X146.713Y-69.64
X146.713Y-117.9
X149.253Y-69.64
X149.253Y-117.9
X151.793Y-69.64
X151.793Y-117.9
X154.333Y-69.64
X154.333Y-117.9
X156.873Y-69.64
X156.873Y-117.9
X157.0Y-89.96
X157.0Y-92.5
X157.0Y-95.04
X159.413Y-117.9
X159.54Y-89.96
X159.54Y-92.5
X159.54Y-95.04
X161.953Y-69.64
X161.953Y-117.9
X164.493Y-69.64
X167.033Y-69.64
X167.033Y-117.9
X169.573Y-69.64
X169.573Y-117.9
X172.113Y-69.64
X172.113Y-117.9
X174.653Y-69.64
X174.653Y-117.9
X177.193Y-69.64
X177.193Y-117.9
X179.733Y-69.64
X179.733Y-117.9
X182.273Y-117.9
X184.813Y-117.9
X187.353Y-69.64
X187.353Y-72.18
X187.353Y-74.72
X187.353Y-77.26
X187.353Y-79.8
X187.353Y-82.34
X187.353Y-84.88
X187.353Y-87.42
X187.353Y-89.96
X187.353Y-92.5
X187.353Y-95.04
X187.353Y-97.58
X187.353Y-100.12
X187.353Y-102.66
X187.353Y-105.2
X187.353Y-107.74
X187.353Y-110.28
X187.353Y-112.82
X189.893Y-69.64
X189.893Y-72.18
X189.893Y-74.72
X189.893Y-77.26
X189.893Y-79.8
X189.893Y-82.34
X189.893Y-84.88
X189.893Y-87.42
X189.893Y-89.96
X189.893Y-92.5
X189.893Y-95.04
X189.893Y-97.58
X189.893Y-100.12
X189.893Y-102.66
X189.893Y-105.2
X189.893Y-107.74
X189.893Y-110.28
X189.893Y-112.82
T3
X159.413Y-84.88
X159.413Y-112.82
X183.543Y-69.64
X189.893Y-117.9
M30
