%TF.GenerationSoftware,KiCad,Pcbnew,9.0.8+dfsg-1*%
%TF.CreationDate,2026-07-03T16:45:24-07:00*%
%TF.ProjectId,arduino-hat,61726475-696e-46f2-9d68-61742e6b6963,rev?*%
%TF.SameCoordinates,Original*%
%TF.FileFunction,Legend,Bot*%
%TF.FilePolarity,Positive*%
%FSLAX46Y46*%
G04 Gerber Fmt 4.6, Leading zero omitted, Abs format (unit mm)*
G04 Created by KiCad (PCBNEW 9.0.8+dfsg-1) date 2026-07-03 16:45:24*
%MOMM*%
%LPD*%
G01*
G04 APERTURE LIST*
%ADD10C,0.150000*%
G04 APERTURE END LIST*
D10*
X96627285Y-66253104D02*
X96151095Y-66253104D01*
X96722523Y-66538819D02*
X96389190Y-65538819D01*
X96389190Y-65538819D02*
X96055857Y-66538819D01*
X95198714Y-66538819D02*
X95770142Y-66538819D01*
X95484428Y-66538819D02*
X95484428Y-65538819D01*
X95484428Y-65538819D02*
X95579666Y-65681676D01*
X95579666Y-65681676D02*
X95674904Y-65776914D01*
X95674904Y-65776914D02*
X95770142Y-65824533D01*
X157611094Y-71999819D02*
X157611094Y-70999819D01*
X157611094Y-70999819D02*
X157372999Y-70999819D01*
X157372999Y-70999819D02*
X157230142Y-71047438D01*
X157230142Y-71047438D02*
X157134904Y-71142676D01*
X157134904Y-71142676D02*
X157087285Y-71237914D01*
X157087285Y-71237914D02*
X157039666Y-71428390D01*
X157039666Y-71428390D02*
X157039666Y-71571247D01*
X157039666Y-71571247D02*
X157087285Y-71761723D01*
X157087285Y-71761723D02*
X157134904Y-71856961D01*
X157134904Y-71856961D02*
X157230142Y-71952200D01*
X157230142Y-71952200D02*
X157372999Y-71999819D01*
X157372999Y-71999819D02*
X157611094Y-71999819D01*
X156420618Y-70999819D02*
X156325380Y-70999819D01*
X156325380Y-70999819D02*
X156230142Y-71047438D01*
X156230142Y-71047438D02*
X156182523Y-71095057D01*
X156182523Y-71095057D02*
X156134904Y-71190295D01*
X156134904Y-71190295D02*
X156087285Y-71380771D01*
X156087285Y-71380771D02*
X156087285Y-71618866D01*
X156087285Y-71618866D02*
X156134904Y-71809342D01*
X156134904Y-71809342D02*
X156182523Y-71904580D01*
X156182523Y-71904580D02*
X156230142Y-71952200D01*
X156230142Y-71952200D02*
X156325380Y-71999819D01*
X156325380Y-71999819D02*
X156420618Y-71999819D01*
X156420618Y-71999819D02*
X156515856Y-71952200D01*
X156515856Y-71952200D02*
X156563475Y-71904580D01*
X156563475Y-71904580D02*
X156611094Y-71809342D01*
X156611094Y-71809342D02*
X156658713Y-71618866D01*
X156658713Y-71618866D02*
X156658713Y-71380771D01*
X156658713Y-71380771D02*
X156611094Y-71190295D01*
X156611094Y-71190295D02*
X156563475Y-71095057D01*
X156563475Y-71095057D02*
X156515856Y-71047438D01*
X156515856Y-71047438D02*
X156420618Y-70999819D01*
X155857000Y-88795580D02*
X155904619Y-88843200D01*
X155904619Y-88843200D02*
X155857000Y-88890819D01*
X155857000Y-88890819D02*
X155809381Y-88843200D01*
X155809381Y-88843200D02*
X155857000Y-88795580D01*
X155857000Y-88795580D02*
X155857000Y-88890819D01*
%TO.C,A1*%
X93373000Y-67100000D02*
X93373000Y-120440000D01*
X93373000Y-67100000D02*
X190909000Y-67100000D01*
X93373000Y-120440000D02*
X192433000Y-120440000D01*
X190909000Y-67100000D02*
X192433000Y-68624000D01*
X192433000Y-79800000D02*
X192433000Y-68624000D01*
X192433000Y-119170000D02*
X194973000Y-116630000D01*
X192433000Y-120440000D02*
X192433000Y-119170000D01*
X194973000Y-82340000D02*
X192433000Y-79800000D01*
X194973000Y-116630000D02*
X194973000Y-82340000D01*
%TD*%
M02*
